<?xml version="1.0" encoding="UTF-8"?><svg id="Layer_1" xmlns="http://www.w3.org/2000/svg" viewBox="0 0 133.14 119.34"><defs><style>.cls-1{fill:#fff;}</style></defs><path class="cls-1" d="M74.04,105.04h-10.71v14.3h10.7c.19-.02,4.4-.48,4.4-7.13s-4.21-7.15-4.39-7.16Zm-.26,11.37h-7.58v-8.42h7.58c.3,.09,1.8,.67,1.8,4.21s-1.49,4.13-1.8,4.21h0Z"/><path class="cls-1" d="M55.25,112.34c.96-.79,1.51-2,1.48-3.27,0-2.55-1.91-3.69-2.92-3.98l-.19-.05h-12.2v14.29h2.86v-6.14h7.86c.45,.11,1.61,1.48,1.85,6.14h2.86c-.14-3.11-.69-5.45-1.61-6.99Zm-2.09-2.1h-8.88v-2.25h8.88c.63,.32,.89,1.01,.58,1.66-.12,.26-.33,.47-.58,.6Z"/><path class="cls-1" d="M12.29,116.51H6.15l9.21-11.47H2.99l-2.31,2.83H9.22L0,119.34H12.99l2.34-2.83"/><path class="cls-1" d="M36,108.03v-2.99h-15.36v14.3h15.36v-2.83h-12.29v-2.82h9.22v-2.82h-9.22v-2.83h12.29Z"/><path class="cls-1" d="M90.25,119.33h7.68l-6.14-14.3h-3.07l-6.15,14.3h3.5l4.18-10.05,2.98,7.23h-2.98v2.82Z"/><path class="cls-1" d="M112.16,105.04l-2.04,4.81-2.14,5.08-4.18-9.89h-3.5l6.15,14.3h3.07l6.15-14.3h-3.5Z"/><path class="cls-1" d="M125.46,119.34h7.68l-6.07-14.29h-3.06s-6.25,14.29-6.25,14.29h3.52l4.24-10.05,2.93,7.24h-2.99s0,2.81,0,2.81Z"/><path class="cls-1" d="M108.08,10.82s-5.03-1.52-19.36-5.33C73.55,1.45,66.56,0,66.56,0c0,0-7,1.45-22.17,5.49-14.33,3.81-19.36,5.33-19.36,5.33,0,0-2.36,14.94,4.14,42.52,5.25,22.27,22.46,36.58,37.39,41.88,14.93-5.31,32.14-19.61,37.39-41.88,6.5-27.59,4.13-42.52,4.13-42.52Zm-8.01,41.79c-4.7,20.04-20.14,32.91-33.52,37.69-13.38-4.77-28.81-17.65-33.52-37.69-5.83-24.81-3.71-38.26-3.71-38.26,0,0,4.5-1.37,17.35-4.8,13.6-3.63,19.87-4.94,19.87-4.94,0,0,6.27,1.31,19.87,4.94,12.85,3.43,17.35,4.8,17.35,4.8,0,0,2.12,13.44-3.71,38.26Z"/><g><path class="cls-1" d="M85.4,55.88h0c-.05,.11-.1,.22-.16,.33-.58,1.22-1.25,2.39-2,3.5-.41,.61-.85,1.2-1.31,1.77-.49,.03-.99,.04-1.5,.04-.82,0-1.63-.04-2.43-.12,.11-.12,.23-.23,.35-.33,.83-.72,1.84-1.2,2.92-1.38,1.01-1.22,1.19-2.94,.47-4.36h0c-.07-.14-.15-.28-.24-.41h0c-.2-.29-.44-.56-.7-.79-.25-.21-.49-.43-.73-.66-1.64-1.64-2.68-3.82-2.93-6.16,.15-.12,.29-.24,.43-.36s.28-.24,.42-.37,.24-.21,.36-.32h0s.08-.07,.12-.11c.12-.11,.23-.22,.34-.33,.08-.07,.15-.15,.23-.22h0c.04,.22,.09,.43,.13,.64,.02,.11,.05,.21,.08,.32s.05,.21,.08,.32,.05,.18,.08,.27c0,.02,.01,.04,.02,.06,.06,.2,.12,.4,.19,.6,.03,.1,.07,.2,.1,.3,.83,2.37,2.19,4.5,3.95,6.25h0l.25,.24c.12,.12,.25,.23,.37,.34,.17,.15,.34,.29,.51,.43,.04,.04,.09,.07,.13,.11s.07,.06,.11,.09l.24,.19,.05,.04,.07,.05Z"/><path class="cls-1" d="M60.78,59.97c0,.82-.04,1.64-.11,2.46-1.09,1.41-2.32,2.71-3.66,3.87,1.43-2.87,2.33-5.98,2.68-9.18,.11-.98,.16-1.97,.16-2.97,0-.39,0-.78-.02-1.17h.06c.4,1.53,.67,3.1,.8,4.68h0c.06,.75,.1,1.52,.1,2.29Z"/><path class="cls-1" d="M45.87,27.44c-.08,.04-.16,.08-.25,.12-.08,.04-.17,.08-.24,.13-.11,.06-.21,.12-.32,.18-.07,.04-.14,.08-.21,.13l-.25,.16c-.1-.27-.2-.54-.31-.8-.2-.51-.42-1.02-.64-1.53h0c-.24-.55-.5-1.1-.77-1.65-.05-.1-.1-.21-.15-.31,.41,.42,.82,.83,1.25,1.23h0c.07,.07,.13,.13,.2,.19,.18,.17,.36,.34,.55,.51,.25,.23,.51,.45,.76,.67l.09,.08h0c.09,.27,.17,.54,.26,.81,0,.02,.02,.05,.02,.07Z"/><path class="cls-1" d="M89.54,56.02c-1.15-1.7-1.76-3.73-1.76-5.81,0-.66,.06-1.33,.19-1.98,.8-3.31-.07-6.81-2.3-9.33,2.7-2.94,2.58-7.58-.27-10.36-1.16-1.13-2.65-1.83-4.24-1.98h0c-.21-.02-.43-.03-.65-.03-1.5,0-2.96,.48-4.17,1.39l-.02,.02c-1.99,1.5-2.43,4.38-.98,6.43,.39,.56,.9,1.02,1.49,1.34l-.2,.04-.22,.04c-.07,.01-.14,.03-.21,.05s-.14,.03-.21,.05-.15,.04-.22,.06l-.06,.02-.25,.08h0c-.07,.02-.15,.05-.22,.07h-.04c-.23,.09-.45,.18-.66,.27h0l-.08,.04c-.1,.04-.2,.09-.3,.13l-.17,.07-.06,.02-.16,.06-.19,.07-.17,.06-.23,.08-.16,.05c-.22,.07-.44,.14-.66,.2l-.2,.05c-.26,.07-.53,.13-.79,.18-2.11,.43-4.29,.42-6.4-.03-.34-.07-.67-.16-1-.25l-.29-.09c-.09-.03-.19-.06-.28-.09-.03,0-.06-.02-.08-.03-.09-.03-.18-.06-.27-.09s-.21-.07-.31-.11l-.24-.09-.16-.07-.09-.04-.23-.1h0c-.09-.04-.19-.08-.28-.12s-.19-.09-.28-.13c-.37-.18-.73-.38-1.09-.58-.1-.06-.19-.11-.28-.18l-.14-.08-.2-.12c-3.34-2.03-6.5-4.35-9.45-6.93-.61-.54-1.22-1.08-1.81-1.64l-.1-.1c-.23-.22-.46-.43-.68-.65-1.12-1.09-2.2-2.21-3.24-3.38h-.01c-.06-.08-.12-.15-.19-.21-.19-.21-.39-.43-.58-.64,.44,.96,.85,1.95,1.23,2.95,.16,.42,.31,.84,.45,1.27,.08,.23,.15,.45,.23,.68h0c.09,.27,.17,.54,.26,.82,0,.02,.01,.05,.02,.07h0c-.08,.04-.17,.08-.25,.12s-.16,.08-.24,.13c-.11,.06-.21,.12-.32,.18-.07,.04-.14,.08-.21,.13l-.25,.16c-1.41,.94-2.56,2.23-3.35,3.76-.04,.07-.08,.14-.11,.22,.05,.26,.08,.53,.08,.8,0,.17-.01,.34-.03,.51-.2,.19-.41,.37-.61,.55l-.17,.15c-.09,.08-.17,.15-.26,.22-.89,.77-1.81,1.5-2.76,2.19l-.1,.07c-.09,.07-.19,.14-.28,.2-.02,.02-.05,.03-.07,.05h0s.02,.03,.03,.04l.24,.22c.16,.14,.31,.29,.47,.42l.29,.25,.21,.18c.13,.11,.25,.21,.38,.32,.07,.06,.14,.11,.21,.18s.12,.1,.18,.14c.1,.08,.19,.15,.29,.22s.16,.12,.23,.18l.29,.21,.04,.02c.09,.07,.17,.13,.27,.19l.03,.02,.17,.12c.06,0,.13,0,.2,.01,.15,0,.3,.01,.44,.01h.41c.14,0,.27-.02,.41-.03s.23-.02,.34-.04c.08-.01,.16-.02,.24-.03l.19-.03,.19-.04c.13-.02,.26-.05,.38-.08l.19-.05,.15-.04c.08-.02,.15-.04,.23-.06l.17-.06,.18-.06h0c.11-.03,.22-.07,.32-.1l.11-.03h.02c.14-.03,.28-.06,.43-.09l.19-.03h.1s.07-.01,.07-.01h.12c.07-.01,.14-.02,.21-.02h.42c.09,0,.18,0,.27,.01h.11s.13,.02,.13,.02c.19,.02,.38,.05,.57,.09,.07,.01,.14,.03,.2,.05,.04,.01,.09,.02,.13,.04l.12,.03,.1,.03h0s.1,.03,.15,.05,.06,.02,.09,.03,.1,.04,.15,.05h0c.06,.02,.13,.05,.19,.08l.18,.08h0c.06,.03,.12,.06,.17,.09l.13,.07s.07,.04,.11,.06l.14,.09s.1,.06,.14,.09l.15,.1c.11,.08,.23,.17,.34,.26,.1,.08,.2,.18,.3,.26l.02,.02c.1,.09,.19,.18,.28,.28,.05,.05,.09,.1,.14,.15,.09,.1,.18,.21,.26,.32,.04,.05,.08,.11,.12,.16,.19,.26,.36,.54,.51,.83l.06,.12c.05,.11,.1,.22,.15,.34,.02,.06,.05,.11,.07,.18s.03,.09,.05,.13c0,.01,.01,.03,.01,.04s.02,.05,.03,.08,.03,.08,.04,.12c.02,.07,.04,.15,.06,.22,.01,.05,.03,.09,.04,.14s.02,.08,.03,.13,.02,.11,.03,.16c.06,.95,.2,1.89,.42,2.82,.11,.5,.24,.98,.39,1.46,.04,.12,.08,.24,.12,.36,.31,.91,.7,1.78,1.15,2.62,.03,.06,.06,.12,.1,.18,.17,.3,.33,.62,.48,.93,.58,1.19,1.02,2.44,1.3,3.74,.72,3.52,.31,7.18-1.17,10.43-1.51,.16-2.91,.89-3.92,2.06-.13,.15-.25,.3-.36,.46,.62,.11,1.24,.18,1.88,.24,.25,.02,.51,.04,.76,.06h.09c.47,.03,.95,.04,1.42,.04,.32,0,.63,0,.94-.02,.56-.84,1.07-1.72,1.54-2.63l.13-.26c1.86-3.76,2.84-7.92,2.84-12.14,0-.39,0-.78-.03-1.17h.06c.41,.02,.82,.03,1.23,.03h.36c.45,0,.9-.02,1.35-.05h0c.33-.02,.66-.05,.99-.09l.33-.04,.33-.04c.32-.04,.65-.09,.97-.15,.1-.02,.2-.04,.3-.05,.3-.06,.6-.12,.89-.18,.2-.04,.4-.09,.59-.14s.34-.09,.51-.13l.51-.14c.17-.05,.34-.1,.51-.15s.33-.11,.5-.17h0c.28-.1,.57-.2,.85-.31h0c.16-.06,.31-.12,.47-.18,.32-.13,.63-.26,.94-.4,.46-.21,.92-.43,1.37-.67h0c.3-.16,.6-.32,.89-.49,1.17-.68,2.28-1.44,3.33-2.3,.15-.12,.29-.24,.43-.35s.28-.24,.42-.37,.24-.21,.36-.32h0s.08-.07,.12-.11c.12-.11,.23-.22,.34-.33l.23-.22h0c.04,.22,.09,.43,.13,.64,.03,.11,.05,.21,.08,.32s.05,.21,.08,.32,.05,.18,.08,.27l.02,.06c.06,.2,.12,.4,.19,.6,.03,.1,.07,.2,.1,.31,.84,2.37,2.19,4.5,3.95,6.24h0l.25,.24c.12,.12,.25,.23,.37,.34,.17,.15,.34,.29,.51,.43l.13,.11s.08,.06,.11,.09l.24,.19s.03,.02,.05,.04l.07,.05h0c.45,.33,.87,.7,1.26,1.11,.05,.05,.09,.11,.13,.16,.01,.02,.03,.03,.04,.05,.04,.05,.08,.1,.12,.15h0s.11,.17,.11,.17l.03,.04s.06,.08,.08,.13,.05,.08,.08,.13c.01,.01,.02,.03,.03,.05,.04,.07,.09,.15,.13,.22,0,0,0,.01,.01,.02v.02s.05,.07,.05,.07c.02,.04,.04,.08,.06,.12,0,.01,.01,.02,.02,.03l.03,.05,.02,.04s.04,.1,.07,.14c0,.02,.02,.04,.02,.05,0,.02,.02,.04,.02,.06h0s0,.01,0,.02c0,0,0,.01,0,.02h0s.02,.05,.03,.08c0,.01,0,.02,.01,.03l.03,.07,.04,.1v.03s.02,.03,.03,.05c0,.02,.02,.05,.03,.08,0,.01,0,.02,.01,.03,0,.01,0,.03,.01,.04,0,.02,0,.03,.01,.04,.02,.07,.04,.15,.06,.23,.01,.05,.02,.09,.03,.14,0,.01,0,.03,.01,.04v.04s0,.03,0,.05c.01,.05,.02,.09,.03,.14l.03,.14c.02,.09,.03,.18,.04,.26,.04,.28,.06,.57,.06,.85,0,.32-.02,.64-.07,.96-.02,.1-.03,.2-.05,.31-.01,.07-.03,.13-.04,.2v.02s0,.02,0,.03c-.01,.04-.02,.08-.03,.12s-.02,.08-.03,.12l-.04,.12c-.03,.08-.05,.16-.08,.24v.13s-.01,.03-.01,.03v.03h-.01l-.06,.14s-.04,.1-.06,.14l-.02,.04s-.01,.03-.02,.04c-1.5,.46-2.76,1.5-3.54,2.9,.26,.02,.51,.03,.77,.03h.61c.92,0,1.83-.05,2.75-.15,.01-.02,.03-.04,.04-.06,.57-.96,1.08-1.95,1.54-2.97,.65-1.47,1.17-2.99,1.55-4.56,.03-.14,.06-.27,.1-.41s.06-.27,.09-.4c-.77-.63-1.45-1.37-2.01-2.21Zm-8.43-20.72h0c-.41,.25-.87,.38-1.34,.37-.09,0-.18,0-.27-.02-.33-.03-.65-.13-.94-.29h0c-1.31-.69-1.83-2.35-1.16-3.7,.67-1.35,2.28-1.89,3.59-1.19,1.31,.69,1.83,2.35,1.16,3.7-.23,.47-.59,.86-1.03,1.12h0Z"/><path class="cls-1" d="M79.5,35.66h-.1s-.03-.01-.03-.01h-.07c-.07,0-.15-.01-.22-.02h-.21c-.08-.01-.16-.01-.23-.01h-.76l-.24,.02h0c-.16,.01-.32,.03-.47,.05h-.11s-.17,.04-.17,.04h-.04c-2.17-1.21-2.98-4-1.81-6.24,.32-.61,.76-1.13,1.3-1.54-1.6,1.94-1.37,4.84,.51,6.49,.5,.44,1.09,.76,1.73,.94h0c.29,.15,.6,.25,.93,.29Z"/></g></svg>