<?xml version="1.0" encoding="UTF-8"?>
<svg id="Layer_1" data-name="Layer 1" xmlns="http://www.w3.org/2000/svg" viewBox="0 0 49.95 49.95">
  <defs>
    <style>
      .cls-1 {
        fill: #fff;
      }
    </style>
  </defs>
  <path class="cls-1" d="m24.98,0h0C11.18,0,0,11.18,0,24.98H0C0,38.77,11.18,49.95,24.98,49.95h0c13.79,0,24.98-11.18,24.98-24.98h0C49.95,11.18,38.77,0,24.98,0Zm7.54,27.94h-5.8v15.24h-7.01v-15.24h-5.82v-6.18h5.82v-2.26c0-8.35,3.48-12.74,10.87-12.74,2.26,0,2.83.36,4.07.66v6.11c-1.39-.25-1.78-.37-3.22-.37-1.72,0-2.62.48-3.46,1.44-.83.96-1.25,2.62-1.25,4.98v2.18h7.93l-2.13,6.18Z"/>
</svg>