<?xml version="1.0" encoding="UTF-8"?><svg id="Layer_1" xmlns="http://www.w3.org/2000/svg" viewBox="0 0 37.79 37.79"><defs><style>.cls-1{fill:#fff;}</style></defs><path class="cls-1" d="M18.89,0h0C8.46,0,0,8.46,0,18.89H0c0,10.43,8.46,18.89,18.89,18.89h0c10.43,0,18.89-8.46,18.89-18.89h0C37.79,8.46,29.33,0,18.89,0Zm6.24,21.14h-4.39v11.53h-5.3v-11.53h-4.4v-4.67h4.4v-1.71c0-6.32,2.63-9.64,8.22-9.64,1.71,0,2.14,.27,3.08,.5v4.63c-1.05-.19-1.35-.28-2.44-.28-1.3,0-1.98,.36-2.61,1.09-.63,.72-.94,1.98-.94,3.77v1.65h6l-1.61,4.67Z"/></svg>