<?xml version="1.0" encoding="UTF-8"?><svg xmlns="http://www.w3.org/2000/svg" xmlns:xlink="http://www.w3.org/1999/xlink" viewBox="0 0 1527.38 1080"><defs><style>.cls-1{fill:none;}.cls-2{fill:url(#linear-gradient);}.cls-3{clip-path:url(#clippath);}.cls-4{fill:url(#radial-gradient);opacity:.5;}.cls-4,.cls-5{mix-blend-mode:multiply;}.cls-6{fill:url(#linear-gradient-3);}.cls-7{fill:url(#linear-gradient-2);}.cls-5{fill:url(#radial-gradient-2);}.cls-5,.cls-8{opacity:.17;}.cls-8{mix-blend-mode:lighten;}.cls-9{isolation:isolate;}</style><clipPath id="clippath"><rect class="cls-1" x="0" width="1527.38" height="1080"/></clipPath><linearGradient id="linear-gradient" x1="38.13" y1="2699.28" x2="716.8" y2="2699.28" gradientTransform="translate(2205.73 -1646.31) rotate(31.88)" gradientUnits="userSpaceOnUse"><stop offset="0" stop-color="#00dd8b"/><stop offset=".14" stop-color="#00d688"/><stop offset=".32" stop-color="#00c581"/><stop offset=".53" stop-color="#00a975"/><stop offset=".77" stop-color="#008265"/><stop offset="1" stop-color="#005352"/></linearGradient><radialGradient id="radial-gradient" cx="5924.99" cy="9483.98" fx="5924.99" fy="9483.98" r="77.79" gradientTransform="translate(5755.91 11192.77) rotate(-156.75) scale(1.06 .85) skewX(12.08)" gradientUnits="userSpaceOnUse"><stop offset="0" stop-color="#000"/><stop offset="1" stop-color="#fff" stop-opacity="0"/></radialGradient><linearGradient id="linear-gradient-2" x1="1292.7" y1="-513.85" x2="296.39" y2="408.11" gradientUnits="userSpaceOnUse"><stop offset="0" stop-color="#006459"/><stop offset=".37" stop-color="#006659"/><stop offset=".54" stop-color="#006d5c"/><stop offset=".66" stop-color="#007962"/><stop offset=".76" stop-color="#008b69"/><stop offset=".85" stop-color="#00a373"/><stop offset=".93" stop-color="#00bf7e"/><stop offset="1" stop-color="#00dd8b"/></linearGradient><radialGradient id="radial-gradient-2" cx="3083.98" cy="6574.99" fx="3083.98" fy="6574.99" r="56.57" gradientTransform="translate(2990.07 7716.43) rotate(-156.75) scale(1.06 .85) skewX(12.08)" xlink:href="#radial-gradient"/><linearGradient id="linear-gradient-3" x1="38.13" y1="2818.27" x2="716.8" y2="2818.27" xlink:href="#linear-gradient"/></defs><g class="cls-9"><g id="Layer_1"><g class="cls-8"><g class="cls-3"><path class="cls-2" d="M1252.63,486.48c11.72,3.73,22.34,7.2,30.45,9.86,18.89,6.22,35.88,16.78,49.81,30.98,20.49,20.89,55.94,57.74,107,113.26,16.13,17.54,30.16,32.88,42.29,46.21,42.9,47.14,45.36,121.23,6.16,177.15-34.2,48.79-84.99,112.73-157.81,186.61-113.77,115.39-260.34,154.69-379.39,149.31-43.2-1.95-81.58-25.82-102.42-63.7-57.45-104.4-87.03-253.24-33.83-406.31,34.05-97.99,68.93-171.82,97.56-224.07,32.82-59.89,100.37-90.46,161.62-72.82,17.31,4.98,37.26,10.78,60.1,17.49,18.39,5.4,36.89,10.56,52.27,15.2l-18.46,35.16c-10.53-3.15-24.23-7.76-36.19-11.25-15.83-4.63-30.11-8.78-42.94-12.48-62.05-17.89-130.34,13.71-162.76,74.82-24.44,46.06-53.16,108.57-81.27,189.27-45.96,131.93-23.71,260.27,23.47,353.24,21.61,42.58,63.82,68.83,111.56,69.38,104.27,1.21,229.21-35.57,327.22-135.13,59.97-60.91,103.33-114.3,133.84-156.58,40.48-56.1,38.62-131.32-4.86-179.06-9-9.88-19.03-20.85-30.18-33-43.92-47.83-74.94-80.23-93.6-99.33-13.95-14.28-31.02-24.9-50-31.1-6.91-2.26-16.83-5.5-26.36-8.52l16.73-34.59Z"/><ellipse class="cls-4" cx="1210.27" cy="496.37" rx="99.71" ry="53.45" transform="translate(-37.83 888.01) rotate(-39.72)"/><path class="cls-7" d="M217.45,360.59c187.09,261.97,462.32,384.91,697.55,411.62,85.36,9.69,168.11-25.13,220.86-92.92,145.37-186.83,249.96-469.57,193.5-786.49-36.13-202.88-81.47-358.64-121.28-470.09-45.64-127.76-168.59-208.86-294.28-193.43-35.52,4.36-76.47,9.49-123.38,15.5-148.62,19.02-249.08,34.19-306.48,43.44-39,6.28-75.64,21.7-107.4,45.19-46.73,34.56-127.81,95.76-245.34,188.72-37.13,29.36-69.46,55.07-97.43,77.42C-65.14-321.42-93.14-176.83-33.74-54.87,18.07,51.53,97.71,192.87,217.45,360.59ZM56.75-24.09C-5.1-146.8,22.09-293.78,122.32-373.84c20.74-16.56,43.85-34.95,69.54-55.29,101.12-80.1,172.12-133.93,214.69-165.57,31.84-23.66,68.65-39.15,107.83-45.36,52.38-8.31,140.51-21.43,268.48-37.71,32.5-4.14,61.81-7.8,88.15-11.04,127.32-15.67,251.4,67.67,295.88,197.69,33.53,98,70.31,229.61,100.21,396.74,48.88,273.19-34.91,518-156.56,685.63-55.71,76.77-146.73,115.06-240.57,101.2-204.93-30.26-438.53-141.49-599.64-367.48C171.73,186.71,103.37,68.4,56.75-24.09Z"/><ellipse class="cls-5" cx="831.68" cy="727.45" rx="72.5" ry="38.87" transform="translate(-119.33 1289.99) rotate(-71.78)"/><path class="cls-6" d="M808.72,1027.04c5.94-.95,11.87-1.96,17.8-2.95,4.26-.71,8.52-1.41,12.79-2.06-24.93-82.22-29.43-180.5,5.52-280.86,14.94-42.88,30.05-80.63,44.59-113.5-3.77-2.12-7.58-4.17-11.42-6.15-5.83-3-11.73-5.84-17.69-8.57-14.89,34.32-30.24,73.21-45.42,116.91-36.73,105.68-33.99,209.35-9.88,297.77,1.24-.19,2.47-.39,3.71-.58Z"/></g></g></g></g></svg>