<?xml version="1.0" encoding="UTF-8"?><svg id="Layer_1" xmlns="http://www.w3.org/2000/svg" viewBox="0 0 37.79 37.79"><defs><style>.cls-1{fill:#fff;}</style></defs><path class="cls-1" d="M26.25,8.99H11.54c-1.41,0-2.55,1.15-2.55,2.55v14.71c0,1.41,1.15,2.55,2.55,2.55h14.71c1.41,0,2.55-1.15,2.55-2.55V11.54c0-1.41-1.15-2.55-2.55-2.55Zm-2.54,14.72c-1.29,1.29-3,1.99-4.81,1.99s-3.53-.71-4.81-1.99c-1.29-1.29-1.99-3-1.99-4.81s.71-3.53,1.99-4.81c1.29-1.29,3-1.99,4.81-1.99s3.53,.71,4.81,1.99c1.29,1.29,1.99,3,1.99,4.81s-.71,3.53-1.99,4.81Zm2.22-11.34c-.6,0-1.09-.49-1.09-1.09s.49-1.09,1.09-1.09,1.09,.49,1.09,1.09-.49,1.09-1.09,1.09Z"/><path class="cls-1" d="M18.89,14.36c-1.21,0-2.35,.47-3.2,1.33-.85,.85-1.33,1.99-1.33,3.2s.47,2.35,1.33,3.2c1.71,1.71,4.69,1.71,6.41,0,.85-.85,1.33-1.99,1.33-3.2s-.47-2.35-1.33-3.2c-.86-.85-1.99-1.33-3.2-1.33Z"/><path class="cls-1" d="M18.89,0h0C8.46,0,0,8.46,0,18.89H0c0,10.43,8.46,18.89,18.89,18.89h0c10.43,0,18.89-8.46,18.89-18.89h0C37.79,8.46,29.33,0,18.89,0Zm12.18,26.25c0,2.66-2.17,4.83-4.83,4.83H11.54c-2.66,0-4.83-2.17-4.83-4.83V11.54c0-2.66,2.17-4.83,4.83-4.83h14.71c2.66,0,4.83,2.17,4.83,4.83v14.71Z"/></svg>