<?xml version="1.0" encoding="UTF-8"?>
<svg id="Layer_1" data-name="Layer 1" xmlns="http://www.w3.org/2000/svg" viewBox="0 0 49.95 49.95">
  <defs>
    <style>
      .cls-1 {
        fill: #fff;
      }
    </style>
  </defs>
  <path class="cls-1" d="m34.7,11.88H15.26c-1.86,0-3.38,1.51-3.38,3.38v19.44c0,1.86,1.51,3.38,3.38,3.38h19.44c1.86,0,3.37-1.51,3.37-3.38V15.26c0-1.86-1.51-3.38-3.37-3.38Zm-3.36,19.46c-1.7,1.7-3.96,2.64-6.36,2.64s-4.66-.94-6.36-2.63c-1.7-1.7-2.64-3.96-2.64-6.36s.94-4.66,2.64-6.36c1.7-1.7,3.96-2.64,6.36-2.64s4.66.94,6.36,2.63c1.7,1.7,2.64,3.96,2.64,6.36s-.94,4.66-2.64,6.36Zm2.94-15c-.79,0-1.44-.64-1.44-1.44s.64-1.44,1.44-1.44,1.44.64,1.44,1.44-.64,1.44-1.44,1.44Z"/>
  <path class="cls-1" d="m24.98,18.99c-1.6,0-3.1.62-4.23,1.75-1.13,1.13-1.75,2.63-1.75,4.23s.62,3.1,1.75,4.23c2.27,2.26,6.21,2.26,8.47,0,1.13-1.13,1.75-2.63,1.75-4.23s-.62-3.1-1.75-4.23c-1.13-1.13-2.64-1.75-4.23-1.75Z"/>
  <path class="cls-1" d="m24.98,0h0C11.18,0,0,11.18,0,24.98h0c0,13.79,11.18,24.98,24.98,24.98h0c13.79,0,24.98-11.18,24.98-24.98h0C49.95,11.18,38.77,0,24.98,0Zm16.11,34.7c0,3.52-2.86,6.39-6.38,6.39H15.26c-3.52,0-6.39-2.86-6.39-6.39V15.26c0-3.52,2.86-6.39,6.39-6.39h19.44c3.52,0,6.38,2.86,6.38,6.39v19.44Z"/>
</svg>