<?xml version="1.0" encoding="UTF-8"?>
<svg id="Layer_1" data-name="Layer 1" xmlns="http://www.w3.org/2000/svg" viewBox="0 0 49.95 49.95">
  <defs>
    <style>
      .cls-1 {
        fill: #fff;
      }
    </style>
  </defs>
  <path class="cls-1" d="m24.98,0h0C11.18,0,0,11.18,0,24.98H0C0,38.77,11.18,49.95,24.98,49.95h0c13.79,0,24.98-11.18,24.98-24.98h0C49.95,11.18,38.77,0,24.98,0Zm-7.67,38.83h-5.85v-18.64h5.85v18.64Zm-2.92-21.05c-1.87,0-3.39-1.52-3.39-3.39s1.52-3.39,3.39-3.39,3.39,1.52,3.39,3.39-1.52,3.39-3.39,3.39Zm24.57,21.18h-5.85v-10.87c0-.28-.08-3.2-3.3-3.2-1.1,0-2.06.49-2.6,1.46-.63,1.15-.53,2.5-.53,3.76v8.76h-5.85v-18.64h5.59v2.49s.08-.14.25-.37c.64-.83,2.49-2.77,5.76-2.64.23,0,.46.03.68.05,3.73.4,5.85,2.86,5.85,7.02v12.16Z"/>
</svg>