<?xml version="1.0" encoding="UTF-8"?><svg id="Layer_1" xmlns="http://www.w3.org/2000/svg" viewBox="0 0 37.79 37.79"><defs><style>.cls-1{fill:#fff;}</style></defs><path class="cls-1" d="M18.89,0h0C8.46,0,0,8.46,0,18.89H0c0,10.43,8.46,18.89,18.89,18.89h0c10.43,0,18.89-8.46,18.89-18.89h0C37.79,8.46,29.33,0,18.89,0Zm-5.8,29.37h-4.42V15.27h4.42v14.1Zm-2.21-15.93c-1.42,0-2.56-1.15-2.56-2.56s1.15-2.56,2.56-2.56,2.56,1.15,2.56,2.56-1.15,2.56-2.56,2.56ZM29.47,29.47h-4.42v-8.22c0-.21-.06-2.42-2.5-2.42-.83,0-1.56,.37-1.97,1.1-.48,.87-.4,1.89-.4,2.85v6.62h-4.42V15.3h4.23v1.89s.06-.11,.19-.28c.48-.63,1.88-2.1,4.36-2,.17,0,.35,.02,.51,.04,2.82,.31,4.42,2.17,4.42,5.31v9.2Z"/></svg>