<?xml version="1.0" encoding="UTF-8"?><svg id="Layer_1" xmlns="http://www.w3.org/2000/svg" xmlns:xlink="http://www.w3.org/1999/xlink" viewBox="0 0 514.21 555.57"><defs><style>.cls-1{fill:url(#linear-gradient);opacity:.7;}</style><linearGradient id="linear-gradient" x1="-4453.66" y1="2319.6" x2="-3909.37" y2="2319.6" gradientTransform="translate(4769.4 1710.16) rotate(46.94)" gradientUnits="userSpaceOnUse"><stop offset="0" stop-color="#118e87"/><stop offset=".09" stop-color="#1d9585"/><stop offset=".29" stop-color="#36a383"/><stop offset=".51" stop-color="#48ad81"/><stop offset=".74" stop-color="#53b380"/><stop offset="1" stop-color="#57b580"/></linearGradient></defs><path class="cls-1" d="M508.83,227.6c15.34-45.61-3-96.62-44.04-121.93-11.61-7.16-25.02-15.38-40.41-24.77-48.72-29.72-82.16-49.17-101.4-60.12-13.08-7.45-27.52-11.84-42.34-12.89-21.81-1.54-59.92-3.87-116.11-6.09-17.74-.7-33.21-1.28-46.63-1.74C70.42-1.58,29.25,31.33,19.34,78.59,10.69,119.82,2.42,177.12,.16,251.04c-3.54,115.48,50.81,213.7,115.01,276.25,23.3,22.7,55.92,32.63,87.06,26.51,85.82-16.87,181.19-69.52,236.22-169.32,35.22-63.9,57-117.08,70.38-156.87Z"/></svg>