<?xml version="1.0" encoding="UTF-8"?><svg id="Layer_1" xmlns="http://www.w3.org/2000/svg" viewBox="0 0 37.79 37.79"><defs><style>.cls-1{fill:#fff;}</style></defs><path class="cls-1" d="M18.89,0h0C8.46,0,0,8.46,0,18.89H0c0,10.43,8.46,18.89,18.89,18.89h0c10.43,0,18.89-8.46,18.89-18.89h0C37.79,8.46,29.33,0,18.89,0Zm9.71,13.38c-.49,.4-.69,.81-.71,1.47-.31,9.87-11.52,17.5-19.19,11.43-.74-.59-.02,0-.73-.58,2.35,.14,4.41-.42,6.42-1.88-2.03-.35-3.43-1.27-4.2-3.19,.59-.09,1.11,.07,1.72-.17-2-.87-3.29-2.19-3.34-4.46,.63,.06,1.11,.46,1.86,.41-1.84-1.8-2.4-3.75-1.24-6.12,1.92,2.2,4.16,3.69,6.89,4.4,.15,.04,.3,.08,.45,.11,.71,.16,1.54,.51,1.97,.46,.74-.09,0-.94,.19-2.04,.58-3.42,4.35-4.98,7.14-2.97,.82,.59,1.46,.58,2.26,.22,.42-.19,.85-.37,1.34-.58-.11,.98-.86,1.51-1.46,2.25,.68,.16,1.24-.04,1.86-.24-.22,.7-.74,1.1-1.22,1.49Z"/></svg>