<?xml version="1.0" encoding="UTF-8"?>
<svg id="Layer_1" data-name="Layer 1" xmlns="http://www.w3.org/2000/svg" viewBox="0 0 49.95 49.95">
  <defs>
    <style>
      .cls-1 {
        fill: #fff;
      }
    </style>
  </defs>
  <path class="cls-1" d="m24.98,0h0C11.18,0,0,11.18,0,24.98H0C0,38.77,11.18,49.95,24.98,49.95h0c13.79,0,24.98-11.18,24.98-24.98h0C49.95,11.18,38.77,0,24.98,0Zm12.83,17.68c-.65.53-.92,1.08-.94,1.94-.41,13.05-15.23,23.14-25.37,15.11-.98-.78-.03,0-.97-.76,3.11.18,5.82-.56,8.48-2.48-2.68-.46-4.54-1.68-5.55-4.22.78-.11,1.47.09,2.28-.22-2.64-1.16-4.35-2.89-4.42-5.9.83.07,1.46.61,2.46.54-2.43-2.37-3.17-4.95-1.64-8.1,2.53,2.91,5.5,4.88,9.11,5.81.2.05.39.1.59.15.94.22,2.03.68,2.6.61.98-.12,0-1.24.25-2.69.77-4.53,5.75-6.58,9.44-3.93,1.08.77,1.93.76,2.98.29.56-.25,1.12-.48,1.78-.77-.15,1.3-1.14,2-1.93,2.97.9.21,1.63-.06,2.46-.32-.29.93-.98,1.46-1.61,1.97Z"/>
</svg>