<?xml version="1.0" encoding="UTF-8"?>
<svg id="Layer_1" data-name="Layer 1" xmlns="http://www.w3.org/2000/svg" viewBox="0 0 49.95 49.95">
  <defs>
    <style>
      .cls-1 {
        fill: #fff;
      }
    </style>
  </defs>
  <path class="cls-1" d="m24.98,0h0C11.18,0,0,11.18,0,24.98H0C0,38.77,11.18,49.95,24.98,49.95h0c13.79,0,24.98-11.18,24.98-24.98h0C49.95,11.18,38.77,0,24.98,0Zm18.44,30.35c0,3.32-2.69,6.01-6.01,6.01H12.55c-3.32,0-6.01-2.69-6.01-6.01v-10.75c0-3.32,2.69-6.01,6.01-6.01h24.85c3.32,0,6.01,2.69,6.01,6.01v10.75Z"/>
  <polygon class="cls-1" points="20.19 30.5 20.19 19.45 29.76 24.98 20.19 30.5"/>
</svg>