<?xml version="1.0" encoding="UTF-8"?><svg id="Layer_1" xmlns="http://www.w3.org/2000/svg" viewBox="0 0 58.01 74.08"><defs><style>.cls-1{fill:#005352;}</style></defs><polygon class="cls-1" points="57.27 14.04 44.26 14.04 44.26 .73 45.72 .73 45.72 12.57 57.27 12.57 57.27 14.04"/><rect class="cls-1" x="12.87" y="47.09" width="1.47" height="25.58"/><rect class="cls-1" x="17.31" y="51.54" width="1.47" height="17.48"/><rect class="cls-1" x="21.74" y="46.45" width="1.47" height="24.55"/><rect class="cls-1" x="26.18" y="43.09" width="1.47" height="17.74"/><rect class="cls-1" x="30.61" y="49.16" width="1.47" height="21.05"/><rect class="cls-1" x="35.05" y="56.66" width="1.47" height="17.42"/><rect class="cls-1" x="39.48" y="45.96" width="1.47" height="23.06"/><rect class="cls-1" x="43.92" y="52.1" width="1.47" height="8.88"/><rect class="cls-1" x="48.35" y="47.33" width="1.47" height="15.97"/><rect class="cls-1" x="52.79" y="46.63" width="1.47" height="13.75"/><polygon class="cls-1" points="58.01 58.38 56.54 58.38 56.54 13.61 44.68 1.47 10.58 1.47 10.58 6.89 9.12 6.89 9.12 0 45.3 0 58.01 13.01 58.01 58.38"/><rect class="cls-1" x="9.12" y="38.64" width="1.47" height="19.74"/><path class="cls-1" d="M16.79,21.2h-1.47v-6.09c0-2.78-2.45-5.03-5.47-5.03s-5.47,2.26-5.47,5.03v6.09h-1.47v-6.09c0-3.58,3.11-6.5,6.93-6.5s6.93,2.92,6.93,6.5v6.09Z"/><path class="cls-1" d="M17.66,36.93H2.04c-1.13,0-2.04-.93-2.04-2.07v-11.87c0-.9,.57-1.7,1.42-1.97,.02,0,.03,0,.05-.01l5.51-1.4c1.88-.48,3.88-.48,5.76,0l5.51,1.4s.03,0,.05,.01c.85,.28,1.42,1.07,1.42,1.97v11.87c0,1.14-.92,2.07-2.04,2.07ZM1.85,22.41c-.23,.08-.39,.31-.39,.57v11.87c0,.33,.26,.61,.58,.61h15.62c.32,0,.57-.27,.57-.61v-11.87c0-.26-.15-.49-.39-.57l-5.48-1.39c-1.65-.42-3.39-.42-5.04,0l-5.48,1.39Z"/></svg>