<?xml version="1.0" encoding="UTF-8"?><svg id="Layer_1" xmlns="http://www.w3.org/2000/svg" viewBox="0 0 89.22 73.25"><defs><style>.cls-1{fill:#005352;}</style></defs><path class="cls-1" d="M68.94,57.54h-2.54v-1.55h2.54c10.32,0,18.72-8.4,18.72-18.72s-8.4-18.72-18.72-18.72c-.55,0-1.12,.03-1.68,.08l-.85,.08v-.85c0-9.03-7.27-16.3-16.2-16.3-6.81,0-12.76,4.11-15.16,10.46l-.31,.83-.78-.41c-1.16-.62-2.41-1.03-3.72-1.23-3.12-.48-6.24,.28-8.79,2.14-2.55,1.86-4.22,4.61-4.7,7.73-.25,1.64-.15,3.36,.3,4.97l.28,1-1.28-.02c-7.99,0-14.48,6.5-14.48,14.48s6.5,14.48,14.48,14.48v1.55C7.19,57.54,0,50.35,0,41.51s6.8-15.64,15.31-16.02c-.3-1.53-.34-3.12-.1-4.65,.55-3.53,2.44-6.64,5.32-8.75,2.88-2.11,6.42-2.97,9.95-2.42,1.19,.19,2.35,.53,3.44,1.02C36.72,4.16,43.03,0,50.21,0c9.54,0,17.35,7.57,17.74,17.02,.33-.02,.67-.03,.99-.03,11.18,0,20.27,9.09,20.27,20.27s-9.09,20.27-20.27,20.27Z"/><g><path class="cls-1" d="M52.94,47.56h-2.4v-9.96c0-4.53-4.01-8.22-8.93-8.22s-8.93,3.69-8.93,8.22v9.96h-2.4v-9.96c0-5.86,5.08-10.62,11.33-10.62s11.33,4.76,11.33,10.62v9.96Z"/><path class="cls-1" d="M54.37,73.25H28.86c-1.84,0-3.34-1.52-3.34-3.39v-19.4c0-1.48,.93-2.77,2.32-3.22,.03,0,.05-.02,.08-.02l8.99-2.28c3.08-.78,6.33-.78,9.41,0l8.99,2.28s.05,.01,.08,.02c1.38,.45,2.32,1.75,2.32,3.22v19.4c0,1.87-1.5,3.39-3.34,3.39Zm-25.82-23.72c-.38,.14-.63,.51-.63,.94v19.4c0,.55,.42,.99,.94,.99h25.51c.52,0,.94-.44,.94-.99v-19.4c0-.43-.25-.8-.63-.94l-8.95-2.27c-2.69-.68-5.54-.68-8.23,0l-8.95,2.27Z"/></g></svg>