<?xml version="1.0" encoding="UTF-8"?><svg id="Layer_1" xmlns="http://www.w3.org/2000/svg" viewBox="0 0 69.99 103.05"><defs><style>.cls-1{fill:#ec4341;}.cls-2{fill:#fffff4;}.cls-3{fill:#f07f72;}.cls-4{fill:#8b754f;}.cls-5{fill:#b39a6b;}.cls-6{fill:#d7caac;}.cls-7{fill:#dadad7;}.cls-8{fill:#c5c3c0;}.cls-9{fill:#ca3735;}.cls-10{fill:#1c1518;}.cls-11{fill:#1d4295;}.cls-12{fill:#348c68;}.cls-13{fill:#1c4293;}.cls-14{fill:#8894c1;}</style></defs><g id="surface1"><path class="cls-5" d="M32.23,5.29l2.77-2.17-2.77-2.15V5.29"/><path class="cls-10" d="M32.1,5.56V.7l3.12,2.41-3.12,2.45Zm.26-4.32v3.78l2.42-1.9-2.42-1.88Z"/><path class="cls-1" d="M43.96,13.68c-.29-.33-.92-.83-2-.83-1.6,0-1.61,1.13-2.42,1.49-.88,.39-1.76,.22-1.76,.22l-2.29,2.97v7.76l11.21,.94,2.04-4.51,.66-6.27s-.82-2.15-2.86-2.15c-.95,0-1.72,.11-2.35,.34l-.22,.05"/><path class="cls-1" d="M26.68,13.68c.29-.33,.92-.83,2-.83,1.6,0,1.61,1.13,2.42,1.49,.88,.39,1.76,.22,1.76,.22l2.29,2.97v7.76l-11.21,.94-2.04-4.51-.66-6.27s.83-2.15,2.86-2.15c.95,0,1.72,.11,2.35,.34l.22,.05"/><path class="cls-10" d="M46.82,26.44l-11.53-.96v-8.01l2.41-3.12,.12,.02s.83,.15,1.65-.21c.25-.11,.42-.31,.61-.55,.35-.43,.78-.95,1.89-.95,1.71,0,2.16,1.01,2.18,1.06l-.36,.16s-.39-.82-1.82-.82c-.92,0-1.24,.39-1.58,.81-.21,.25-.42,.51-.76,.66-.74,.32-1.47,.28-1.75,.25l-2.18,2.83v7.51l10.89,.91,1.97-4.36,.66-6.24,.39,.04-.66,6.31-2.11,4.67Z"/><path class="cls-10" d="M23.82,26.44l-2.11-4.67v-.03s-.66-6.27-.66-6.27l.39-.04,.66,6.24,1.97,4.36,10.89-.91v-7.51l-2.18-2.83c-.28,.03-1.02,.07-1.75-.25-.34-.15-.55-.41-.76-.66-.34-.42-.66-.81-1.58-.81-1.43,0-1.8,.78-1.82,.82l-.36-.16s.48-1.06,2.18-1.06c1.11,0,1.54,.53,1.89,.95,.19,.23,.36,.44,.61,.55,.81,.35,1.64,.21,1.65,.21l.12-.02,.07,.1,2.33,3.02v8.01l-11.53,.96Z"/><path class="cls-5" d="M22.95,26.39l.66,3.96s4.84-1.27,11.72-1.27,11.12,1.65,11.12,1.65l1.27-4.02s-4.49-2.07-12.42-2.07-12.35,1.74-12.35,1.74"/><path class="cls-10" d="M46.58,31l-.2-.08s-4.29-1.64-11.05-1.64-11.62,1.25-11.67,1.26l-.21,.05-.72-4.34,.15-.06s4.55-1.76,12.42-1.76c4.11,0,7.29,.57,9.23,1.04,2.11,.52,3.23,1.03,3.27,1.05l.16,.07-1.38,4.39Zm-11.24-2.11c6.01,0,10.07,1.27,10.99,1.59l1.15-3.65c-.87-.36-5.21-1.99-12.18-1.99s-11.29,1.38-12.12,1.67l.6,3.59c1.01-.24,5.53-1.22,11.56-1.22Z"/><path class="cls-3" d="M21.49,15.28c.19-.75,.85-1.25,1.55-1.55,1-.4,2-.25,3-.15,.25,.05,.55,.2,.85,.15,.15-.1,.35-.15,.5-.3,.3-.2,.55-.3,.85-.35,.5-.1,.6,0,1.15,.1,0,0,.5,.15,.5,.2,.4,.35,.65,.85,1.1,1,.45,.2,.95,.25,1.4,.35,0,.35,.1,.8-.05,1.05-.1,.15-.5,.05-.75,0-.6-.25-1.15-.5-1.75-.8-.15-.1-.43-.16-.5-.3-.53-1.05-1.5-1.01-1.85-.66-.05,0,.55,.86,.5,.86,0,.05-.08,.06-.05,.1,1.27,1.69-1.3,.15-1.9-.1-.7-.3-1.5-.6-2.25-.35-.4,.15-.7,.6-1.15,.9-.45,.25-.62,1.24-.97,1.64-.05-.4-.28-1.39-.18-1.79"/><path class="cls-3" d="M49.37,15.33c-.19-.75-.85-1.25-1.55-1.55-1-.4-2-.25-3-.15-.25,.05-.65,.31-.95,.26-.15-.1-.25-.26-.4-.41-.3-.2-.55-.3-.85-.35-.5-.1-.6,0-1.15,.1,0,0-.5,.15-.5,.2-.4,.35-.65,.85-1.1,1-.45,.2-1.41,.3-1.86,.4,0,.35-.1,.8,.05,1.05,.1,.15,.96,0,1.21-.05,.6-.25,.58-.55,1.18-.85,.15-.1,.74-1.14,.89-1.19,.4-.1,2.18-.21,2.53,.14,.05,0-2.43,2.34-2.38,2.34,0,.05,.7-.07,.74-.1,.7-.45,1.99-.99,2.59-1.24,.7-.3,1.5-.6,2.25-.35,.4,.15,.7,.6,1.15,.9,.45,.25,.21,1.43,.56,1.83,.05-.4,.7-1.58,.6-1.98"/><path class="cls-9" d="M48.94,17.33c-.13-.47-.36-1.87-.79-2.25-1.21-1.05-2.35-1.28-3.84-.4-1.98,1.17-2.03,1.87-3.04,1.19-1.32-.89,.81-2.68,2.6-1.98-.94-.84-2.28-.76-2.93,.2-.2,.3-.69,.89-1.09,1.09-.6,.27-1.15,.2-1.75,.4,0,0-.05,.87,0,.83,.25-.23,.86-.42,1.12-.55,.4-.13,1.05-.16,1.38,.28,.4,.53,1.19,.79,1.45,.66,.53-.27,1.12-1.09,1.7-1.28,.81-.27,1.13-.68,1.54-.77,.66-.15,1,.03,1.53,.23,.73,.33,1.15,1.43,.82,2.09-.33,.6-.13,1.43-.82,1.7-.57,.23-.93-1.12-2.12-1.03-2.76,.23-1.35,1.43-2.68,1.5-1.33,.13-.1-2.69-2.87-1.5-.51,.22-1.87-.6-1.94-1.2,0,.67-1.28,2.88-1.41,3.54-.2,.8,.35,1.89,.35,2.7,1.27,.6,2.53,1.13,3.8,1.73,.93,.4,2,.07,3.07,.27,.2,0,.4,.2,.6,.27,.8,.13,1.47,.47,2.2,.53,.27,.07,.6,.33,.67,.07,.13-.33,.27-.53,.4-.8,.07-.13,.27-.13,.33-.27,.2-.53,.73-.73,1-1.2,.2-.4,.47-.8,.53-1.27,0-.27,0-.6,.13-.87,.2-.67,.27-1.33,.4-2.07,.07-.2,.27-.4,.27-.6,0-.6,.13-1.27-.13-1.87"/><path class="cls-9" d="M21.67,17.06c.13-.47,.72-1.78,1.19-2.12,1.2-.87,2.64-1,3.98,.08,.66,.53,1.17,.71,1.84,.58,.15-.03-2.19-1.71-2.05-1.78,.47-.4,1.53-.39,2.19-.07,.38,.18,1.41,1.25,1.81,1.45,.6,.27,1.2,.2,1.8,.4,0,0,.04,.86,0,.82-.25-.23-.59-.42-.86-.55-.4-.13-1.76-.93-2.05-1.09-.78-.45-1.58-1.27-1.95-.67-.26,.42,1.52,2.21,2.45,1.63,.07,.98-1.52,1.03-2.35,.46-.71-.48-1.75-1.33-2.16-1.43-.66-.15-1,.03-1.53,.23-.73,.33-1.15,1.43-.82,2.09,.33,.6,.61,.93,1.3,1.2,.58,.23,1.46,.35,2.13,.05,1.11-.5,.86,.86,2.19,.93,1.33,.13,2.07-1.22,3.47-1.49,.53-.13,1.27-.61,1.34-1.21,0,.67,.79,3.17,.93,3.84,.2,.8,.13,1.6,.13,2.4-1.27,.6-2.54,1.13-3.8,1.73-.93,.4-2,.07-3.07,.27-.2,0-.4,.2-.6,.27-.8,.13-1.47,.47-2.2,.53-.27,.07-.6,.33-.67,.07-.13-.33-.27-.53-.4-.8-.07-.13-.27-.13-.33-.27-.2-.53-.73-.73-1-1.2-.2-.4-.47-.8-.53-1.27,0-.27,0-.6-.13-.87-.2-.67-.27-1.33-.4-2.07-.07-.2-.27-.4-.27-.6,0-.6-.13-1.27,.13-1.87"/><path class="cls-11" d="M35,33.26c19.22,0,34.8,15.58,34.8,34.8s-15.58,34.8-34.8,34.8S.2,87.27,.2,68.05,15.78,33.26,35,33.26"/><path class="cls-10" d="M35,103.05C15.7,103.05,0,87.35,0,68.05S15.7,33.06,35,33.06s35,15.7,35,35-15.7,35-35,35Zm0-69.6C15.92,33.46,.4,48.98,.4,68.05s15.52,34.6,34.6,34.6,34.6-15.52,34.6-34.6-15.52-34.6-34.6-34.6Z"/><path class="cls-5" d="M35,100.8c18.08,0,32.74-14.66,32.74-32.74s-14.66-32.74-32.74-32.74S2.25,49.97,2.25,68.05s14.66,32.74,32.74,32.74"/><path class="cls-10" d="M35,100.99c-18.16,0-32.94-14.78-32.94-32.94s14.78-32.94,32.94-32.94,32.94,14.78,32.94,32.94-14.78,32.94-32.94,32.94Zm0-65.48c-17.94,0-32.54,14.6-32.54,32.54s14.6,32.54,32.54,32.54,32.54-14.6,32.54-32.54-14.6-32.54-32.54-32.54Z"/><path class="cls-11" d="M35,93.64c-14.13,0-25.59-11.46-25.59-25.59s11.46-25.59,25.59-25.59,25.59,11.46,25.59,25.59-11.46,25.59-25.59,25.59"/><path class="cls-10" d="M35,93.84c-14.22,0-25.79-11.57-25.79-25.79s11.57-25.79,25.79-25.79,25.79,11.57,25.79,25.79-11.57,25.79-25.79,25.79Zm0-51.18c-14,0-25.39,11.39-25.39,25.39s11.39,25.39,25.39,25.39,25.39-11.39,25.39-25.39-11.39-25.39-25.39-25.39Z"/><path class="cls-5" d="M35,51.08c9.37,0,16.97,7.6,16.97,16.98s-7.6,16.98-16.97,16.98-16.98-7.6-16.98-16.98,7.6-16.98,16.98-16.98"/><path class="cls-10" d="M35,85.23c-9.47,0-17.17-7.7-17.17-17.17s7.7-17.17,17.17-17.17,17.17,7.7,17.17,17.17-7.7,17.17-17.17,17.17Zm0-33.95c-9.25,0-16.78,7.53-16.78,16.78s7.53,16.78,16.78,16.78,16.78-7.53,16.78-16.78-7.53-16.78-16.78-16.78Z"/><path class="cls-1" d="M35.05,52.6l-2.73,4.55-3.04-1.63,.78,8.86-3.52-3.74-1.11,2.03-4.08-.46,1.07,4.55-2.11,.99,7.62,6.75-1.41,3.21,7.68-1.19-.61,6.74,2.5,.02-.51-6.75,7.66,1.3-1.36-3.23,7.71-6.64-2.1-1.02,1.13-4.54-4.08,.4-1.08-2.04-3.57,3.69,.91-8.85-3.06,1.59-2.67-4.59"/><path class="cls-14" d="M60.23,44.07c-6.3-6.35-15.04-10.27-24.69-10.27C16.32,33.8,.74,49.38,.74,68.6c0,9.41,3.73,17.94,9.8,24.2l-.15-.14C4.09,86.36,.2,77.66,.2,68.05,.2,48.84,15.78,33.26,35,33.26c9.82,0,18.7,4.07,25.02,10.62l.21,.2"/><path class="cls-14" d="M58.22,44.98c6.2,5.96,10.06,14.34,10.06,23.62,0,18.08-14.66,32.74-32.74,32.74-8.93,0-17.02-3.57-22.93-9.37l-.41-.41c5.9,5.72,13.94,9.24,22.8,9.24,18.08,0,32.74-14.66,32.74-32.74,0-8.79-3.47-16.78-9.11-22.66l-.41-.42"/><path class="cls-6" d="M58.22,44.98c-5.88-5.65-13.87-9.13-22.68-9.13-18.08,0-32.74,14.66-32.74,32.74,0,9.15,3.76,17.43,9.81,23.37l-.41-.41c-6.13-5.95-9.94-14.28-9.94-23.5,0-18.08,14.66-32.74,32.74-32.74,9.29,0,17.67,3.87,23.63,10.08l-.41-.42"/><path class="cls-14" d="M53.78,50.65c-4.64-4.72-11.1-7.65-18.24-7.65-14.13,0-25.59,11.46-25.59,25.59,0,6.93,2.76,13.22,7.23,17.83l-.28-.28c-4.63-4.63-7.49-11.03-7.49-18.09,0-14.13,11.46-25.59,25.59-25.59,7.21,0,13.72,2.98,18.37,7.78l.41,.41"/><path class="cls-6" d="M53.78,50.65c4.54,4.62,7.34,10.95,7.34,17.94,0,14.13-11.46,25.59-25.59,25.59-7.2,0-13.7-2.97-18.35-7.76l-.28-.28c4.63,4.63,11.03,7.49,18.09,7.49,14.13,0,25.59-11.46,25.59-25.59,0-6.92-2.75-13.21-7.22-17.81l.41,.41"/><path class="cls-14" d="M47.13,56.2c3.31,3.1,5.38,7.51,5.38,12.4,0,9.37-7.6,16.97-16.97,16.97-4.86,0-9.24-2.04-12.33-5.31l-1.14-1.21c3.11,3.66,7.75,5.97,12.93,5.97,9.37,0,16.97-7.6,16.97-16.98,0-4.65-1.87-8.86-4.9-11.93l.06,.07"/><path class="cls-6" d="M23.21,80.26c-2.88-3.04-4.64-7.15-4.64-11.67,0-9.38,7.6-16.98,16.98-16.98,4.48,0,8.56,1.74,11.59,4.58l-.06-.07c-3.08-3.12-7.35-5.05-12.08-5.05-9.37,0-16.98,7.6-16.98,16.98,0,4.2,1.52,8.04,4.05,11l1.14,1.21"/><path class="cls-4" d="M42.29,75.38l7.92-6.99-.54-.54-7.81,6.76,1.36,3.23-7.66-1.3,.51,6.75-2.67-.02,.59,.51h2.81s-.53-6.42-.53-6.42l7.49,1.26-1.48-3.25"/><path class="cls-4" d="M33.99,83.85s-.03,0-.04-.02l-.59-.51s-.03-.05-.02-.07c0-.03,.03-.04,.06-.04h0l2.6,.02-.5-6.68s0-.04,.02-.05,.04-.02,.06-.02l7.54,1.28-1.31-3.12s0-.06,.02-.08l7.81-6.76s.07-.02,.09,0l.54,.54s.02,.03,.02,.05c0,.02,0,.04-.02,.05l-7.89,6.96,1.45,3.2s0,.05,0,.07c-.01,.02-.04,.03-.06,.02l-7.41-1.25,.52,6.32s0,.04-.02,.05c-.01,.01-.03,.02-.05,.02h-2.81s0,.01,0,.01Zm-.41-.51l.43,.38h2.71s-.52-6.34-.52-6.34c0-.02,0-.04,.02-.05,.02-.01,.04-.02,.06-.02l7.37,1.24-.92-2.03,.55,1.3s0,.05,0,.07c-.01,.02-.04,.03-.06,.02l-7.57-1.29,.5,6.67s0,.04-.02,.05c-.01,.01-.03,.02-.05,.02l-2.49-.02Zm8.36-8.71l.3,.71s0,0,0,0l7.87-6.94-.45-.45-7.73,6.69Z"/><path class="cls-4" d="M38.35,57.06l-2.3-3.96-.69-.51,2.67,4.59,.32-.12"/><path class="cls-4" d="M38,57.27l-2.85-4.92,.96,.72,2.34,4.03-.44,.17Zm-2.42-4.43l2.48,4.27,.19-.08-2.25-3.88-.42-.31Z"/><path class="cls-4" d="M40.7,63.8l.81-7.77-.54-.54-.93,9,.67-.69"/><path class="cls-4" d="M40.04,64.55s-.02,0-.03,0c-.03-.01-.04-.04-.04-.07l.93-9s.02-.05,.04-.06c.02,0,.05,0,.07,.02l.54,.54s.02,.03,.02,.05l-.81,7.77s0,.03-.02,.04l-.67,.69s-.03,.02-.05,.02Zm.98-8.92l-.9,8.67,.52-.54,.8-7.71-.42-.42Z"/><path class="cls-7" d="M44.77,62.79l-.78-1.48-.54-.54,1.08,2.04,.24-.02"/><path class="cls-4" d="M48.08,67.25l1.15-4.44-.54-.54-1.21,4.69,.6,.29"/><path class="cls-4" d="M48.08,67.31s-.02,0-.03,0l-.6-.29s-.04-.05-.04-.08l1.21-4.69s.02-.04,.05-.05c.02,0,.05,0,.06,.02l.54,.54s.02,.04,.02,.06l-1.15,4.44s-.02,.04-.04,.04c0,0-.02,0-.03,0Zm-.53-.4l.48,.23,1.12-4.32-.43-.43-1.17,4.52Z"/><path class="cls-5" d="M32.61,68.77l-2.23-.53,.53-.53-3.21-.42,1.17-.42-1.78-1.47,4.31,.57-1.48,.72,3.06,.57-.53,.53,.79,.3-.64,.68"/><path class="cls-10" d="M32.66,68.92l-2.31-.55-.06-.22,.34-.34-2.95-.38-.03-.26,.95-.34-1.6-1.33,.1-.23,4.31,.57,.04,.25-1.11,.54,2.67,.49,.07,.22-.38,.39,.6,.23,.05,.21-.7,.74Zm-2.01-.75l1.93,.46,.45-.48-.61-.23-.05-.22,.35-.35-2.82-.52-.03-.25,1.08-.53-3.42-.45,1.42,1.18-.04,.23-.65,.23,2.67,.35,.08,.22-.36,.36Z"/><path class="cls-5" d="M22.05,22.78l.59,3.63s6.02-1.8,12.66-1.76c6.64,.04,12.36,1.91,12.36,1.91l1.32-3.96-.88,.04s-1.17,2.68-3.12,2.35c-1.94-.33-3.15-2.2-3.15-2.2,0,0-1.32,1.43-2.97,1.39s-3.71-2.83-3.71-2.83c0,0-1.28,2.39-2.9,2.58-1.61,.18-3.67-1.03-3.67-1.03,0,0-.7,1.72-3.05,2.13-2.35,.4-3.49-2.24-3.49-2.24"/><path class="cls-10" d="M47.79,26.81l-.19-.06c-.06-.02-5.77-1.86-12.3-1.9-.07,0-.13,0-.2,0-6.46,0-12.35,1.74-12.4,1.75l-.22,.06-.88-5.43,.63,1.46s.28,.64,.83,1.22c.72,.75,1.54,1.06,2.44,.9,2.2-.38,2.87-1.94,2.9-2.01l.09-.21,.2,.12s2.02,1.18,3.55,1c1.49-.17,2.73-2.45,2.75-2.47l.15-.28,.19,.25s2.02,2.72,3.55,2.75c1.55,.03,2.81-1.32,2.82-1.33l.17-.19,.14,.21s1.19,1.8,3.02,2.11c1.77,.3,2.89-2.21,2.9-2.23l.05-.11,1.29-.05-1.47,4.42Zm-12.69-2.36c.07,0,.13,0,.2,0,5.93,.03,11.19,1.54,12.24,1.86l1.17-3.5-.47,.02c-.26,.53-1.42,2.67-3.28,2.35-1.65-.28-2.77-1.59-3.15-2.09-.42,.39-1.57,1.32-2.95,1.29-1.45-.03-3.13-1.98-3.68-2.68-.4,.65-1.51,2.26-2.9,2.42-1.39,.16-3.05-.65-3.61-.95-.27,.49-1.12,1.71-3.1,2.05-1.03,.18-2-.18-2.8-1.03-.14-.14-.25-.29-.36-.43l.39,2.4c1.13-.31,6.49-1.71,12.3-1.71Z"/><path class="cls-5" d="M35.22,12.52c1.95,0,3.52-1.58,3.52-3.52s-1.58-3.52-3.52-3.52-3.52,1.58-3.52,3.52,1.58,3.52,3.52,3.52"/><path class="cls-10" d="M35.22,12.72c-2.05,0-3.72-1.67-3.72-3.72s1.67-3.72,3.72-3.72,3.72,1.67,3.72,3.72-1.67,3.72-3.72,3.72Zm0-7.05c-1.83,0-3.33,1.49-3.33,3.33s1.49,3.33,3.33,3.33,3.33-1.49,3.33-3.33-1.49-3.33-3.33-3.33Z"/><path class="cls-5" d="M30.62,70.85v1.1l1.44-1.44v1.21l.45-.53,.57,.98-1.47,1.25v-.98l-1.93,1.89v-1.25l-1.63,.64,2.57-2.87"/><path class="cls-10" d="M29.55,74.65v-1.37l-1.97,.78,3.17-3.55v1.12l1.44-1.44v1.17l.34-.4,.72,1.24-1.78,1.5v-.95l-1.93,1.89Zm.26-1.76v1.13l1.93-1.89v1.01l1.17-.99-.42-.73-.57,.66v-1.25l-1.44,1.44v-1.07l-1.97,2.2,1.29-.51Z"/><path class="cls-5" d="M34.56,60.41h-2.61v.64h.6v.57h-.57v.57h1.63v-.57h-.3v-.57h.64v2.76h-.64v-.57h.3v-.57h-1.63v.57h.57v.57h-.6v.64h2.61v-4.05"/><path class="cls-10" d="M34.69,64.59h-2.87v-.91h.6v-.3h-.57v-.83h1.9v.83h-.3v.3h.37v-2.5h-.37v.3h.3v.83h-1.9v-.83h.57v-.3h-.6v-.91h2.87v4.31Zm-2.61-.26h2.34v-3.78h-2.34v.38h.6v.83h-.57v.3h1.37v-.3h-.3v-.83h.9v3.03h-.9v-.83h.3v-.3h-1.37v.3h.57v.83h-.6v.38Z"/><path class="cls-5" d="M35.32,71.88c-1.02,0-1.84-.82-1.84-1.84s.82-1.84,1.84-1.84,1.84,.82,1.84,1.84-.82,1.84-1.84,1.84v1.19c1.67,0,3.03-1.36,3.03-3.03s-1.36-3.03-3.03-3.03-3.03,1.36-3.03,3.03,1.36,3.03,3.03,3.03v-1.19"/><path class="cls-10" d="M35.45,73.2h-.26c-1.68-.07-3.03-1.46-3.03-3.16s1.42-3.16,3.16-3.16,3.16,1.42,3.16,3.16-1.35,3.09-3.03,3.16h0Zm0-1.19v.92c1.54-.07,2.76-1.34,2.76-2.89s-1.3-2.9-2.9-2.9-2.9,1.3-2.9,2.9,1.23,2.82,2.76,2.89v-.92c-1.03-.07-1.84-.93-1.84-1.97s.89-1.97,1.97-1.97,1.97,.89,1.97,1.97-.81,1.9-1.84,1.97Zm-.13-.26c.94,0,1.71-.77,1.71-1.71s-.77-1.71-1.71-1.71-1.71,.77-1.71,1.71,.77,1.71,1.71,1.71Z"/><g><path class="cls-5" d="M34.49,68.51h1.63v-1.36h-1.63v1.36Z"/><path class="cls-10" d="M36.24,68.64h-1.89v-1.63h1.89v1.63Zm-1.63-.26h1.36v-1.1h-1.36v1.1Z"/></g><g><path class="cls-5" d="M34.66,66.57h1.21v-6.16h-1.21v6.16Z"/><path class="cls-10" d="M36,66.71h-1.48v-6.42h1.48v6.42Zm-1.21-.26h.95v-5.89h-.95v5.89Z"/></g><path class="cls-5" d="M35.87,59.81v.57h-1.21v-.57s.03-.31,.17-.51,.43-.37,.43-.37c0,0,.29,.12,.45,.4,.17,.28,.16,.48,.16,.48"/><path class="cls-10" d="M36,60.51h-1.48v-.7s.03-.36,.19-.59c.16-.22,.45-.4,.46-.4l.06-.03,.06,.03s.33,.15,.52,.45c.18,.3,.18,.51,.18,.55v.7Zm-1.21-.26h.95v-.44s0-.17-.14-.41c-.1-.16-.25-.26-.33-.31-.08,.06-.24,.17-.33,.29-.12,.17-.15,.44-.15,.45v.42Z"/><path class="cls-5" d="M34.51,73.55v-.46h1.59v.46s-.04,.41-.22,.67c-.19,.26-.56,.49-.56,.49,0,0-.38-.16-.6-.52-.22-.37-.21-.63-.21-.63"/><path class="cls-10" d="M35.33,74.85l-.06-.03s-.42-.19-.66-.58c-.23-.38-.23-.66-.23-.7v-.59h1.85v.59s-.04,.46-.25,.75c-.2,.28-.58,.51-.6,.52l-.06,.03Zm-.69-1.3s0,.24,.19,.56c.14,.24,.37,.38,.48,.44,.11-.07,.33-.23,.46-.41,.16-.23,.2-.6,.2-.61v-.32h-1.33v.34Z"/><path class="cls-5" d="M35.84,67.15c.16,0,.29-.13,.29-.29s-.13-.29-.29-.29h-1.13c-.16,0-.29,.13-.29,.29s.13,.29,.29,.29h1.13"/><path class="cls-10" d="M35.84,67.28h-1.13c-.23,0-.42-.19-.42-.42s.19-.43,.42-.43h1.13c.23,0,.43,.19,.43,.43s-.19,.42-.43,.42Zm-1.13-.58c-.09,0-.16,.07-.16,.16s.07,.16,.16,.16h1.13c.09,0,.16-.07,.16-.16s-.07-.16-.16-.16h-1.13Z"/><g><path class="cls-5" d="M34.49,73.04h1.63v-1.36h-1.63v1.36Z"/><path class="cls-10" d="M36.24,73.18h-1.89v-1.63h1.89v1.63Zm-1.63-.26h1.36v-1.1h-1.36v1.1Z"/></g><path class="cls-5" d="M41.77,73.76l-3.71-.68,1.06-.45-2.12-.3,.53-.64-1.74-.11,.64-.87-2.8-1.29s.04-.3,.26-.53c.23-.23,.34-.3,.34-.3l3.63,1.78-.79,.76,2.72,.42-.72,.42,2.46,.53-.87,.49,1.1,.79"/><path class="cls-10" d="M41.74,73.89l-3.71-.68-.03-.25,.63-.27-1.65-.24-.08-.21,.37-.44-1.48-.1-.1-.21,.55-.74-2.74-1.26v-.1s.06-.35,.31-.61c.23-.23,.36-.32,.36-.32l.06-.04,3.7,1.81,.03,.21-.6,.57,2.46,.37,.05,.25-.42,.24,2.12,.46,.04,.24-.69,.39,.93,.67-.1,.24Zm-3.23-.86l2.7,.5-.62-.45v-.22s.58-.32,.58-.32l-2.12-.46-.04-.24,.39-.23-2.35-.36-.07-.23,.66-.63-3.39-1.66c-.05,.04-.14,.12-.26,.24-.12,.12-.18,.27-.21,.36l2.7,1.24,.05,.2-.5,.67,1.5,.1,.09,.22-.38,.46,1.88,.27,.03,.25-.66,.28Z"/><path class="cls-5" d="M43.82,64.96l-4.08,4.12-.15-.79-1.59,1.55-.04-.98-1.32,1.44-.11-.79-2.22,2.07s-.24-.11-.43-.37c-.18-.25-.24-.51-.24-.51l3.87-3.42-.04,1.1,1.59-1.63-.11,1.02,1.93-1.93-.08,.87,3.03-1.74"/><path class="cls-10" d="M34.33,71.72l-.08-.04s-.27-.13-.48-.41c-.19-.26-.26-.55-.26-.56l-.02-.08,3.93-3.47,.22,.1-.03,.76,1.35-1.38,.23,.11-.07,.65,1.66-1.66,.23,.11-.05,.62,2.81-1.61,.16,.21-4.08,4.12-.22-.07-.11-.55-1.41,1.38-.22-.09-.03-.66-1.11,1.2-.23-.07-.08-.54-2.1,1.96Zm-.54-.99c.03,.09,.09,.24,.2,.39,.1,.14,.22,.23,.3,.28l2.15-2,.22,.08,.07,.52,1.13-1.23,.23,.08,.03,.69,1.37-1.34,.22,.07,.11,.55,3.22-3.25-2.18,1.25-.2-.13,.04-.51-1.67,1.67-.22-.11,.07-.64-1.32,1.35-.23-.1,.03-.79-3.58,3.16Z"/><rect class="cls-10" x="35.48" y="60.8" width=".11" height="5.41"/><path class="cls-10" d="M35.58,60.05h-.11v-.27s-.08-.19-.15-.28c-.07-.11-.14-.18-.14-.18l.07-.07s.08,.08,.16,.2c.08,.12,.16,.3,.16,.31v.02s0,.28,0,.28Z"/><rect class="cls-10" x="35.7" y="67.49" width=".11" height=".7"/><rect class="cls-10" x="35.7" y="72.03" width=".11" height=".7"/><path class="cls-10" d="M35.4,74.34l-.06-.09s.11-.08,.24-.25c.1-.13,.12-.29,.12-.29v-.28s.11,0,.11,0v.28s-.02,.2-.14,.35c-.14,.18-.26,.26-.27,.27Z"/><path class="cls-5" d="M34.9,8.56h-3.5v-.88h2.59v-2.53h.91v3.41"/><path class="cls-10" d="M35.03,8.69h-3.76v-1.15h2.59v-2.53h1.17v3.68Zm-3.5-.26h3.23v-3.15h-.64v2.53h-2.59v.62Z"/><path class="cls-5" d="M35.48,8.56h3.49v-.88h-2.59v-2.53h-.91v3.41"/><path class="cls-10" d="M39.11,8.69h-3.76v-3.68h1.17v2.53h2.59v1.15Zm-3.49-.26h3.23v-.62h-2.59v-2.53h-.64v3.15Z"/><path class="cls-5" d="M32.8,13.46s-6.71-3.59-9.36-1.71c-2.09,1.49-2.42,3.47-.88,6.55l.11,.2-1.6,1.12s-.39-.66-.72-1.16c-.33-.5-2.24-4.11,.22-7.04,2.59-3.08,6.82-2.2,8.92-1.27,2.09,.94,3.36,1.38,3.36,1.38l-.06,1.93"/><path class="cls-10" d="M21.02,19.91l-.11-.19s-.39-.66-.71-1.15c-.03-.04-2.52-4,.23-7.28,1.18-1.41,2.79-2.15,4.79-2.21,2-.06,3.72,.6,4.36,.89,2.06,.92,3.33,1.37,3.34,1.37l.14,.05-.07,2.39-.28-.15c-.07-.04-6.63-3.51-9.15-1.72-2.05,1.46-2.3,3.34-.82,6.3l.2,.35-1.92,1.35Zm4.46-10.43c-.08,0-.16,0-.24,0-1.88,.05-3.39,.75-4.5,2.07-2.53,3.01-.23,6.77-.21,6.81,.22,.33,.47,.75,.61,.98l1.28-.89-.03-.05c-1.57-3.14-1.28-5.23,.94-6.81,2.43-1.73,7.95,.88,9.28,1.55l.04-1.47c-.38-.14-1.55-.58-3.24-1.33-.59-.26-2.13-.86-3.95-.86Z"/><path class="cls-5" d="M37.98,13.57s6.71-3.59,9.36-1.71c2.09,1.49,2.42,3.47,.88,6.55l-.17,.39,1.65,.94s.39-.66,.72-1.16c.33-.5,2.24-4.11-.22-7.04-2.59-3.08-6.82-2.2-8.92-1.27-2.09,.94-3.36,1.38-3.36,1.38l.05,1.93"/><path class="cls-10" d="M49.77,20l-1.98-1.12,.24-.55c1.48-2.97,1.24-4.85-.81-6.31-2.52-1.79-9.08,1.68-9.15,1.72l-.28,.15-.07-2.39,.14-.05s1.28-.45,3.34-1.37c2.7-1.21,6.71-1.59,9.15,1.32,2.76,3.29,.26,7.24,.23,7.28-.32,.48-.71,1.14-.71,1.15l-.1,.17Zm-1.47-1.29l1.33,.75c.14-.23,.39-.65,.62-1,.02-.04,2.32-3.79-.21-6.81-1.11-1.32-2.62-2.01-4.5-2.07-1.92-.06-3.57,.58-4.18,.86-1.69,.75-2.85,1.19-3.24,1.33l.04,1.47c1.33-.67,6.85-3.28,9.28-1.55,2.22,1.58,2.51,3.67,.94,6.8l-.09,.21Z"/><path class="cls-5" d="M32.94,10.58c.55,0,.63,.51,.63,.51v5.47h-1.27v-5.47s.08-.51,.63-.51"/><path class="cls-10" d="M33.71,16.69h-1.53v-5.63c.04-.21,.24-.62,.77-.62s.73,.41,.76,.62v.02s0,5.6,0,5.6Zm-1.27-.26h1v-5.33c-.01-.07-.1-.39-.5-.39s-.49,.32-.5,.39v5.33Z"/><path class="cls-5" d="M37.4,10.58c.55,0,.63,.51,.63,.51v5.47h-1.27v-5.47s.08-.51,.63-.51"/><path class="cls-10" d="M38.16,16.69h-1.53v-5.63c.04-.21,.24-.62,.77-.62s.73,.41,.76,.62v.02s0,5.6,0,5.6Zm-1.27-.26h1v-5.33c-.01-.07-.1-.39-.5-.39s-.49,.32-.5,.39v5.33Z"/><path class="cls-5" d="M35.14,19.79l2.82-3.07h-5.71l2.89,3.07"/><path class="cls-10" d="M35.04,19.88l-2.89-3.07,.1-.22h5.71l.1,.22-2.82,3.07h-.19Zm-2.48-3.03l2.58,2.74,2.52-2.74h-5.1Z"/><path class="cls-5" d="M32.28,22.19l2.48-2.29-2.48-2.26v4.55"/><path class="cls-10" d="M32.15,22.49v-5.15l2.81,2.56-2.81,2.59Zm.26-4.55v3.95l2.16-1.98-2.16-1.96Z"/><path class="cls-5" d="M38.18,17.67l-2.49,2.29,2.49,2.26v-4.55"/><path class="cls-10" d="M38.31,22.51l-2.81-2.56,2.81-2.59v5.15Zm-2.42-2.56l2.16,1.96v-3.95l-2.16,1.98Z"/><path class="cls-5" d="M35.27,3.05L37.91,.13h-5.33l2.68,2.91"/><path class="cls-10" d="M35.27,3.24l-2.98-3.24h5.93l-2.95,3.24Zm-2.38-2.98l2.38,2.59,2.35-2.59h-4.73Z"/><path class="cls-5" d="M38.2,.94l-2.67,2.17,2.67,2.15V.94"/><path class="cls-10" d="M38.33,5.53l-3.01-2.42,3.01-2.45V5.53Zm-2.59-2.42l2.33,1.87V1.22l-2.33,1.89Z"/><path class="cls-2" d="M35.17,4.8c.95,0,1.72-.77,1.72-1.72s-.77-1.72-1.72-1.72-1.72,.77-1.72,1.72,.77,1.72,1.72,1.72"/><path class="cls-10" d="M35.17,4.96c-1.04,0-1.88-.84-1.88-1.88s.84-1.88,1.88-1.88,1.88,.84,1.88,1.88-.84,1.88-1.88,1.88Zm0-3.44c-.86,0-1.56,.7-1.56,1.56s.7,1.56,1.56,1.56,1.56-.7,1.56-1.56-.7-1.56-1.56-1.56Z"/><path class="cls-8" d="M35.82,2.15c.31,.2,.52,.55,.52,.95,0,.63-.51,1.14-1.14,1.14-.22,0-.43-.06-.6-.17,0,0,.9,.18,1.32-.61,.42-.78-.1-1.31-.1-1.31"/><path class="cls-5" d="M21.61,21.27l1.36-3.02-2.47,.6,1.1,2.42"/><path class="cls-10" d="M21.61,21.59l-1.29-2.83,2.88-.7-1.6,3.53Zm-.91-2.65l.91,2.01,1.13-2.51-2.05,.5Z"/><path class="cls-5" d="M21.76,21.46l2.13-2.35,.92,3.01-2.72-.15-.33-.51"/><path class="cls-10" d="M24.99,22.26l-2.97-.16-.42-.66,2.35-2.6,1.04,3.41Zm-2.82-.42l2.46,.13-.79-2.6-1.9,2.1,.24,.37Z"/><path class="cls-5" d="M28.05,19.6s-.66-.73-1.67-.38c-1.01,.35-1.39,1.23-1.05,2.27,.38,1.15,1.41,1.15,1.37,1.15s-.29-.49,.2-1.05c.55-.63,1.22,.1,1.22,.1l-.07-2.09"/><path class="cls-10" d="M26.71,22.79s0,0-.01,0c-.14,0-1.12-.1-1.51-1.26-.38-1.13,.07-2.09,1.14-2.46,1.1-.38,1.81,.39,1.84,.43l.04,.04,.09,2.58-.29-.32s-.29-.31-.6-.31c-.14,0-.27,.07-.38,.2-.31,.35-.27,.67-.23,.79h.07s0,.31,0,.31h-.15Zm.22-3.51c-.15,0-.32,.02-.49,.09-.92,.32-1.27,1.09-.95,2.07,.23,.68,.69,.92,.98,1-.03-.22-.01-.57,.32-.95,.18-.2,.39-.31,.62-.31,.21,0,.4,.08,.55,.18l-.06-1.68c-.11-.11-.46-.39-.97-.39Z"/><path class="cls-5" d="M28.58,19.39s.42-.59,1.39-.59,1.67,.66,1.64,1.78c-.03,1.12-.84,1.43-.84,1.43,0,0,.16-.84-.45-1.08-.87-.35-1.39,.63-1.39,.63l-.35-2.16"/><path class="cls-10" d="M30.56,22.25l.05-.28s.13-.71-.36-.91c-.73-.29-1.18,.52-1.2,.56l-.22,.41-.43-2.68,.04-.05s.48-.66,1.52-.66c.53,0,.98,.18,1.31,.51,.34,.35,.51,.84,.49,1.43-.04,1.21-.9,1.56-.94,1.57l-.27,.1Zm-.61-1.56c.13,0,.28,.03,.43,.09,.43,.17,.56,.59,.57,.93,.21-.17,.48-.52,.5-1.14,.02-.5-.12-.91-.4-1.2-.26-.27-.64-.42-1.08-.42-.73,0-1.11,.35-1.23,.48l.28,1.72c.22-.24,.54-.46,.93-.46Z"/><path class="cls-5" d="M28.96,22.11s.35-.9,.31-2.23c-.07-2.34-1.22-3.56-1.22-3.56,0,0-1.1,1.44-.66,3.73,.24,1.29,.7,2.09,.7,2.09l.87-.04"/><path class="cls-10" d="M28,22.3l-.05-.08s-.47-.84-.71-2.14c-.44-2.33,.65-3.79,.69-3.85l.11-.15,.13,.13c.05,.05,1.19,1.29,1.26,3.66,.04,1.34-.31,2.25-.32,2.29l-.04,.1-1.07,.04Zm.07-5.71c-.26,.44-.85,1.68-.52,3.43,.19,1.01,.52,1.73,.64,1.96l.66-.03c.08-.26,.3-1.04,.27-2.07-.05-1.78-.75-2.9-1.05-3.29Z"/><path class="cls-10" d="M31.09,20.47c-.03-.48-.14-.64-.47-.91-.32-.26-.68-.17-.69-.17l-.03-.09s.41-.11,.77,.18c.35,.28,.47,.46,.51,.98h-.1Z"/><path class="cls-10" d="M28.33,17.81c-.05-.26-.21-.44-.21-.44,0,0-.37,.7-.42,1.43-.02,.31,0,.21,0,.56,0,0,.04-.58,.14-1.02,.07-.3,.15-.69,.25-.72,.08-.03,.24,.18,.24,.18"/><path class="cls-10" d="M27.75,19.36h-.1c0-.15,0-.21,0-.26,0-.07,0-.12,0-.3,.05-.73,.41-1.42,.42-1.45h.08s.17,.18,.22,.45l-.09,.04c-.07-.09-.15-.17-.18-.17-.06,.02-.14,.37-.19,.56l-.03,.12c-.1,.42-.14,1-.14,1.01Zm.36-1.79s.07,.02,.11,.05c-.03-.07-.06-.12-.09-.16-.01,.03-.03,.07-.05,.11,0,0,0,0,0,0,0,0,.02,0,.03,0Z"/><path class="cls-10" d="M26.16,21.9c-.66-.53-.44-1.54-.43-1.58,.07-.33,.43-.55,.44-.55l.05,.08s-.33,.2-.4,.49c-.07,.34-.09,1.09,.4,1.49l-.06,.08Z"/><path class="cls-5" d="M48.84,21.27l-1.6-3.12,2.7,.7-1.1,2.42"/><path class="cls-10" d="M48.85,21.58l-1.86-3.62,3.14,.81-1.28,2.81Zm-1.36-3.22l1.34,2.61,.92-2.03-2.27-.58Z"/><path class="cls-5" d="M48.69,21.46l-2.18-2.37-.69,3.22,2.54-.34,.33-.51"/><path class="cls-10" d="M45.65,22.47l.79-3.66,2.42,2.63-.42,.65-2.79,.37Zm.94-3.1l-.6,2.79,2.29-.31,.24-.38-1.93-2.11Z"/><path class="cls-5" d="M42.4,19.6s.66-.73,1.67-.38,1.39,1.23,1.05,2.27c-.38,1.15-1.3,1.22-1.27,1.22s.19-.55-.3-1.11c-.55-.63-1.22,.1-1.22,.1l.07-2.09"/><path class="cls-10" d="M43.85,22.85h-.15l-.02-.29h.05c.02-.15,.01-.51-.3-.87-.12-.13-.24-.2-.38-.2h0c-.31,0-.59,.31-.6,.31l-.29,.31,.09-2.57,.04-.04s.74-.81,1.84-.43c1.07,.37,1.52,1.34,1.14,2.46-.37,1.1-1.2,1.29-1.38,1.32-.01,0-.03,0-.04,0Zm-.81-1.68s0,0,0,0c.23,0,.44,.11,.62,.31,.31,.36,.4,.73,.39,.99,.27-.11,.69-.37,.91-1.04,.33-.98-.03-1.75-.95-2.07-.77-.27-1.32,.17-1.47,.3l-.06,1.68c.15-.09,.34-.18,.54-.18Z"/><path class="cls-5" d="M41.91,19.39s-.42-.59-1.39-.59-1.67,.66-1.64,1.78c.04,1.12,.84,1.43,.84,1.43,0,0-.16-.84,.45-1.08,.87-.35,1.39,.63,1.39,.63l.35-2.16"/><path class="cls-10" d="M39.92,22.25l-.26-.1s-.9-.37-.94-1.57c-.02-.58,.15-1.08,.49-1.43,.32-.33,.78-.51,1.3-.51,1.05,0,1.5,.63,1.52,.66l.04,.05-.43,2.68-.22-.41s-.47-.85-1.2-.56c-.49,.19-.36,.88-.36,.91l.05,.28Zm.6-3.3c-.44,0-.81,.14-1.08,.42-.28,.29-.42,.7-.4,1.2,.02,.62,.29,.97,.5,1.14,.01-.34,.14-.76,.57-.93,.59-.24,1.07,.05,1.36,.37l.28-1.72c-.12-.13-.5-.48-1.23-.48Z"/><path class="cls-5" d="M41.49,22.11s-.35-.9-.31-2.23c.07-2.34,1.22-3.56,1.22-3.56,0,0,1.1,1.44,.66,3.73-.24,1.29-.7,2.09-.7,2.09l-.87-.04"/><path class="cls-10" d="M42.45,22.3l-1.07-.04-.04-.1s-.36-.95-.32-2.29c.07-2.37,1.21-3.61,1.26-3.66l.13-.13,.11,.15c.05,.06,1.13,1.52,.69,3.85-.25,1.3-.7,2.11-.71,2.14l-.05,.08Zm-.85-.35l.67,.03c.12-.23,.44-.95,.64-1.96,.33-1.75-.26-2.99-.52-3.43-.29,.4-1,1.52-1.05,3.29-.03,1.04,.18,1.81,.27,2.07Z"/><path class="cls-10" d="M39.4,20.39h-.1c.04-.52,.16-.7,.51-.98,.36-.29,.76-.19,.78-.18l-.03,.09s-.37-.09-.69,.17c-.33,.26-.43,.42-.47,.91Z"/><path class="cls-10" d="M44.37,22.01l-.06-.08c.49-.4,.48-1.15,.4-1.49-.06-.29-.39-.49-.4-.49l.05-.08s.37,.22,.44,.55c.08,.36,.09,1.15-.43,1.58Z"/><path class="cls-2" d="M35.15,14.09c.95,0,1.72-.77,1.72-1.72s-.77-1.72-1.72-1.72-1.72,.77-1.72,1.72,.77,1.72,1.72,1.72"/><path class="cls-10" d="M35.15,14.25c-1.04,0-1.88-.84-1.88-1.88s.84-1.88,1.88-1.88,1.88,.84,1.88,1.88-.84,1.88-1.88,1.88Zm0-3.44c-.86,0-1.56,.7-1.56,1.56s.7,1.56,1.56,1.56,1.56-.7,1.56-1.56-.7-1.56-1.56-1.56Z"/><path class="cls-2" d="M35.15,14.98c.95,0,1.72-.77,1.72-1.72s-.77-1.72-1.72-1.72-1.72,.77-1.72,1.72,.77,1.72,1.72,1.72"/><path class="cls-10" d="M35.15,15.14c-1.04,0-1.88-.84-1.88-1.88s.84-1.88,1.88-1.88,1.88,.84,1.88,1.88-.84,1.88-1.88,1.88Zm0-3.44c-.86,0-1.56,.7-1.56,1.56s.7,1.56,1.56,1.56,1.56-.7,1.56-1.56-.7-1.56-1.56-1.56Z"/><path class="cls-2" d="M35.15,15.87c.95,0,1.72-.77,1.72-1.72s-.77-1.72-1.72-1.72-1.72,.77-1.72,1.72,.77,1.72,1.72,1.72"/><path class="cls-10" d="M35.15,16.03c-1.04,0-1.88-.84-1.88-1.88s.84-1.88,1.88-1.88,1.88,.84,1.88,1.88-.84,1.88-1.88,1.88Zm0-3.44c-.86,0-1.56,.7-1.56,1.56s.7,1.56,1.56,1.56,1.56-.7,1.56-1.56-.7-1.56-1.56-1.56Z"/><path class="cls-2" d="M35.15,16.76c.95,0,1.72-.77,1.72-1.72s-.77-1.72-1.72-1.72-1.72,.77-1.72,1.72,.77,1.72,1.72,1.72"/><path class="cls-10" d="M35.15,16.92c-1.04,0-1.88-.84-1.88-1.88s.84-1.88,1.88-1.88,1.88,.84,1.88,1.88-.84,1.88-1.88,1.88Zm0-3.44c-.86,0-1.56,.7-1.56,1.56s.7,1.56,1.56,1.56,1.56-.7,1.56-1.56-.7-1.56-1.56-1.56Z"/><path class="cls-2" d="M35.15,17.65c.95,0,1.72-.77,1.72-1.72s-.77-1.72-1.72-1.72-1.72,.77-1.72,1.72,.77,1.72,1.72,1.72"/><path class="cls-10" d="M35.15,17.81c-1.04,0-1.88-.84-1.88-1.88s.84-1.88,1.88-1.88,1.88,.84,1.88,1.88-.84,1.88-1.88,1.88Zm0-3.44c-.86,0-1.56,.7-1.56,1.56s.7,1.56,1.56,1.56,1.56-.7,1.56-1.56-.7-1.56-1.56-1.56Z"/><path class="cls-8" d="M35.81,14.99c.31,.2,.52,.55,.52,.95,0,.63-.51,1.14-1.14,1.14-.22,0-.43-.06-.6-.17,0,0,.9,.18,1.32-.61,.42-.78-.1-1.31-.1-1.31"/><path class="cls-10" d="M28.03,22.7l.59,.48,.37-.59-.95,.11"/><path class="cls-10" d="M41.46,22.67l.29,.51,.66-.48-.95-.04"/><path class="cls-10" d="M34.79,21.82l.44,.29,.62-.53-1.06,.24"/><path class="cls-5" d="M35.23,24.24c8.97,0,12.71,1.98,12.71,1.98,0,0,.33,.33,.11,.66-.22,.33-.66,.06-.66,.06,0,0-4.24-1.93-12.11-1.87-7.87,.06-12.33,1.71-12.33,1.71,0,0-.39,.06-.55-.22-.17-.27,.22-.72,.22-.72,0,0,4.84-1.6,12.6-1.6"/><path class="cls-10" d="M47.74,27.18c-.16,0-.33-.07-.42-.13-.03-.01-4.3-1.91-12.04-1.85-7.75,.05-12.24,1.68-12.28,1.7h-.03s-.48,.07-.68-.28c-.21-.35,.19-.82,.23-.87l.02-.03h.03s4.95-1.61,12.65-1.61c4.65,0,7.87,.54,9.75,.99,2.05,.49,2.98,.98,3.02,1l.03,.02c.14,.14,.35,.49,.13,.83-.11,.17-.26,.22-.42,.22Zm-12.14-2.24c7.6,0,11.79,1.87,11.84,1.88,.03,.02,.35,.21,.5,0,.14-.21-.03-.42-.08-.48-.3-.15-4.13-1.96-12.63-1.96-7.3,0-12.07,1.44-12.53,1.58-.11,.13-.26,.4-.18,.53,.1,.17,.35,.16,.41,.16,.3-.11,4.79-1.66,12.36-1.71,.11,0,.22,0,.33,0Z"/><path class="cls-5" d="M22.68,22.26s1.06,2.38,2.79,2.24c1.72-.15,2.31-1.91,2.31-1.91l.88,.7s-.99,2.38-3.38,2.27c-2.53-.12-3.52-2.97-3.52-2.97l.92-.33"/><path class="cls-10" d="M25.44,25.7c-.05,0-.11,0-.16,0-2.59-.12-3.63-3.03-3.64-3.06l-.04-.12,1.16-.42,.05,.11s.99,2.17,2.52,2.17c.05,0,.09,0,.14,0,1.61-.14,2.19-1.8,2.2-1.82l.06-.18,1.11,.88-.04,.09s-1.01,2.36-3.34,2.36Zm-3.51-3.03c.22,.54,1.24,2.66,3.36,2.76,2,.09,3-1.68,3.21-2.1l-.66-.52c-.21,.46-.89,1.7-2.36,1.83-1.6,.14-2.63-1.72-2.87-2.2l-.68,.24Z"/><g><path class="cls-5" d="M29.32,22.56s.96,1.12,2.2,1.03c1.43-.11,2.85-2.31,2.85-2.31l.81,.55s-1.49,2.72-3.69,2.75c-2.2,.04-2.83-1.28-2.83-1.28l.7-.99"/><path class="cls-10" d="M31.39,24.71c-2.19,0-2.83-1.3-2.85-1.36l-.03-.07,.74-1.05,.22,.15-.1,.14,.06-.05s.93,1.07,2.09,.98c1.35-.1,2.73-2.23,2.75-2.25l.07-.11,1.02,.69-.06,.11c-.06,.11-1.55,2.78-3.81,2.82-.03,0-.06,0-.09,0Zm-2.58-1.41c.16,.26,.83,1.18,2.67,1.14,1.86-.03,3.22-2.09,3.52-2.58l-.59-.41c-.32,.46-1.57,2.16-2.87,2.26-1.18,.09-2.1-.84-2.28-1.04l-.44,.62Z"/></g><path class="cls-5" d="M29.45,22.62c.2-.01,.35-.19,.34-.39-.01-.2-.19-.35-.39-.34l-1.69,.12c-.2,.01-.35,.19-.34,.39,.01,.2,.19,.35,.39,.34l1.69-.12"/><path class="cls-10" d="M27.73,22.94c-.29,0-.54-.23-.56-.52-.02-.31,.21-.58,.52-.6l1.69-.12c.15-.01,.3,.04,.41,.14,.11,.1,.18,.24,.19,.39,.02,.31-.21,.58-.52,.6h0l-1.69,.12s-.03,0-.04,0Zm1.69-.85s0,0-.01,0l-1.69,.12c-.09,0-.16,.09-.16,.18,0,.09,.09,.16,.18,.16l1.69-.12c.09,0,.16-.09,.16-.18,0-.04-.02-.09-.06-.11-.03-.03-.07-.04-.11-.04Z"/><path class="cls-10" d="M27.71,23.87l-.08-.07c.21-.25,.5-.83,.51-.83l.09,.05s-.3,.6-.52,.85Z"/><path class="cls-5" d="M47.77,22.26s-1.06,2.38-2.79,2.24c-1.72-.15-2.31-1.91-2.31-1.91l-.88,.7s.99,2.38,3.38,2.27c2.53-.12,3.52-2.97,3.52-2.97l-.92-.33"/><path class="cls-10" d="M45.01,25.7c-2.33,0-3.33-2.34-3.34-2.36l-.04-.09,1.11-.88,.06,.18s.58,1.68,2.2,1.82c1.61,.14,2.65-2.14,2.66-2.16l.05-.11,1.16,.42-.04,.12s-1.05,2.94-3.64,3.06c-.06,0-.11,0-.16,0Zm-3.05-2.37c.21,.42,1.2,2.2,3.21,2.1,2.11-.1,3.13-2.22,3.36-2.76l-.68-.24c-.24,.49-1.27,2.34-2.87,2.2-1.46-.12-2.15-1.37-2.36-1.83l-.66,.52Z"/><g><path class="cls-5" d="M41.13,22.56s-.96,1.12-2.2,1.03c-1.43-.11-2.86-2.25-2.86-2.25l-.81,.55s1.5,2.65,3.7,2.69c2.2,.04,2.83-1.28,2.83-1.28l-.7-.99"/><path class="cls-10" d="M39.06,24.71s-.06,0-.09,0c-2.25-.04-3.75-2.64-3.82-2.75l-.06-.11,1.02-.69,.07,.11s1.41,2.08,2.76,2.19c1.16,.09,2.08-.97,2.09-.98l.06,.05-.1-.14,.22-.15,.74,1.05-.03,.07c-.03,.06-.67,1.36-2.85,1.36Zm-3.62-2.78c.3,.48,1.67,2.49,3.53,2.52,1.82,.03,2.51-.88,2.67-1.14l-.44-.62c-.18,.2-1.1,1.13-2.28,1.04-1.3-.1-2.56-1.75-2.88-2.2l-.6,.41Z"/></g><path class="cls-5" d="M41,22.62c-.2-.01-.35-.19-.34-.39,.01-.2,.19-.35,.39-.34l1.69,.12c.2,.01,.35,.19,.34,.39-.01,.2-.19,.35-.39,.34l-1.69-.12"/><path class="cls-10" d="M42.72,22.94s-.03,0-.04,0l-1.69-.12c-.31-.02-.54-.29-.52-.6,.01-.15,.08-.29,.19-.39,.11-.1,.26-.15,.41-.14l1.69,.12c.31,.02,.54,.29,.52,.6-.02,.3-.27,.53-.56,.53Zm-1.7-.52l1.69,.12c.09,0,.17-.06,.18-.16,0-.09-.06-.17-.16-.18l-1.69-.12s-.09,.01-.12,.04c-.03,.03-.05,.07-.06,.12,0,.09,.06,.17,.16,.18Z"/><path class="cls-10" d="M42.75,23.87c-.22-.26-.51-.83-.52-.85l.09-.05s.29,.58,.51,.83l-.08,.07Z"/><path class="cls-2" d="M35.17,21.61c.95,0,1.72-.77,1.72-1.72s-.77-1.72-1.72-1.72-1.72,.77-1.72,1.72,.77,1.72,1.72,1.72"/><path class="cls-10" d="M35.17,21.77c-1.04,0-1.88-.84-1.88-1.88s.84-1.88,1.88-1.88,1.88,.84,1.88,1.88-.84,1.88-1.88,1.88Zm0-3.44c-.86,0-1.56,.7-1.56,1.56s.7,1.56,1.56,1.56,1.56-.7,1.56-1.56-.7-1.56-1.56-1.56Z"/><path class="cls-8" d="M35.82,18.96c.31,.2,.52,.55,.52,.95,0,.63-.51,1.14-1.14,1.14-.22,0-.43-.06-.6-.17,0,0,.9,.18,1.32-.61,.42-.78-.1-1.31-.1-1.31"/><path class="cls-12" d="M29.54,28.34c1.07-.13,1.87-.71,1.8-1.29-.07-.58-.99-.95-2.06-.82-1.07,.13-1.87,.71-1.8,1.29s.99,.95,2.06,.82"/><path class="cls-10" d="M29.11,28.5c-.95,0-1.69-.38-1.76-.96-.04-.33,.15-.67,.53-.94,.36-.26,.85-.43,1.39-.5,1.16-.14,2.13,.27,2.21,.93,.04,.33-.15,.67-.53,.94-.36,.26-.85,.43-1.39,.5-.15,.02-.31,.03-.45,.03Zm.6-2.16c-.13,0-.27,0-.41,.03-.49,.06-.94,.22-1.27,.45-.3,.21-.45,.46-.42,.69,.06,.5,.94,.82,1.91,.7,.49-.06,.94-.22,1.27-.45,.3-.21,.45-.46,.42-.69-.05-.43-.71-.73-1.51-.73Z"/><path class="cls-10" d="M29.88,27.91l-.02-.1s.36-.07,.57-.21c.21-.14,.39-.35,.39-.36l.08,.07s-.19,.23-.41,.38c-.23,.15-.59,.23-.61,.23Z"/><path class="cls-2" d="M21.91,23.06c.86,0,1.55-.7,1.55-1.55s-.7-1.55-1.55-1.55-1.55,.7-1.55,1.55,.7,1.55,1.55,1.55"/><path class="cls-10" d="M21.91,23.25c-.96,0-1.74-.78-1.74-1.74s.78-1.74,1.74-1.74,1.74,.78,1.74,1.74-.78,1.74-1.74,1.74Zm0-3.11c-.75,0-1.37,.61-1.37,1.37s.61,1.37,1.37,1.37,1.37-.61,1.37-1.37-.61-1.37-1.37-1.37Z"/><path class="cls-8" d="M22.5,20.67c.28,.18,.46,.5,.46,.86,0,.57-.46,1.03-1.03,1.03-.2,0-.39-.06-.54-.16,0,0,.81,.16,1.2-.55,.38-.71-.09-1.18-.09-1.18"/><path class="cls-2" d="M20.48,20.4c.77,0,1.4-.63,1.4-1.4s-.63-1.4-1.4-1.4-1.4,.63-1.4,1.4,.63,1.4,1.4,1.4"/><path class="cls-10" d="M20.48,20.58c-.88,0-1.59-.71-1.59-1.59s.71-1.59,1.59-1.59,1.59,.71,1.59,1.59-.71,1.59-1.59,1.59Zm0-2.8c-.67,0-1.22,.55-1.22,1.22s.55,1.22,1.22,1.22,1.22-.55,1.22-1.22-.55-1.22-1.22-1.22Z"/><path class="cls-8" d="M20.98,18.33c.23,.15,.38,.41,.38,.7,0,.46-.37,.84-.84,.84-.16,0-.31-.05-.44-.13,0,0,.66,.13,.97-.45,.31-.57-.07-.96-.07-.96"/><path class="cls-2" d="M31.43,12.26c.74,0,1.33-.6,1.33-1.33s-.6-1.33-1.33-1.33-1.33,.6-1.33,1.33,.6,1.33,1.33,1.33"/><path class="cls-10" d="M31.43,12.42c-.83,0-1.5-.67-1.5-1.5s.67-1.5,1.5-1.5,1.5,.67,1.5,1.5-.67,1.5-1.5,1.5Zm0-2.66c-.64,0-1.17,.52-1.17,1.17s.52,1.17,1.17,1.17,1.17-.52,1.17-1.17-.52-1.17-1.17-1.17Z"/><path class="cls-8" d="M31.91,10.29c.22,.14,.36,.39,.36,.66,0,.44-.36,.79-.79,.79-.15,0-.3-.04-.42-.12,0,0,.63,.12,.92-.42s-.07-.91-.07-.91"/><path class="cls-2" d="M19.41,17.89c.7,0,1.27-.57,1.27-1.27s-.57-1.27-1.27-1.27-1.27,.57-1.27,1.27,.57,1.27,1.27,1.27"/><path class="cls-10" d="M19.41,18.08c-.8,0-1.45-.65-1.45-1.45s.65-1.45,1.45-1.45,1.45,.65,1.45,1.45-.65,1.45-1.45,1.45Zm0-2.53c-.6,0-1.08,.48-1.08,1.08s.48,1.08,1.08,1.08,1.08-.48,1.08-1.08-.48-1.08-1.08-1.08Z"/><path class="cls-8" d="M19.86,16.02c.21,.13,.34,.37,.34,.63,0,.42-.34,.75-.75,.75-.15,0-.28-.04-.4-.11,0,0,.6,.12,.88-.4,.28-.52-.06-.87-.06-.87"/><path class="cls-2" d="M19.18,15.39c.7,0,1.27-.57,1.27-1.27s-.57-1.27-1.27-1.27-1.27,.57-1.27,1.27,.57,1.27,1.27,1.27"/><path class="cls-10" d="M19.18,15.57c-.8,0-1.44-.65-1.44-1.44s.65-1.44,1.44-1.44,1.44,.65,1.44,1.44-.65,1.44-1.44,1.44Zm0-2.53c-.6,0-1.09,.49-1.09,1.09s.49,1.09,1.09,1.09,1.09-.49,1.09-1.09-.49-1.09-1.09-1.09Z"/><path class="cls-8" d="M19.63,13.52c.21,.13,.34,.37,.34,.63,0,.42-.34,.75-.75,.75-.15,0-.28-.04-.4-.11,0,0,.6,.12,.88-.4s-.06-.87-.06-.87"/><path class="cls-2" d="M20.09,13.04c.7,0,1.27-.57,1.27-1.27s-.57-1.27-1.27-1.27-1.27,.57-1.27,1.27,.57,1.27,1.27,1.27"/><path class="cls-10" d="M20.09,13.21c-.79,0-1.44-.64-1.44-1.44s.64-1.44,1.44-1.44,1.44,.64,1.44,1.44-.64,1.44-1.44,1.44Zm0-2.53c-.6,0-1.09,.49-1.09,1.09s.49,1.09,1.09,1.09,1.09-.49,1.09-1.09-.49-1.09-1.09-1.09Z"/><path class="cls-8" d="M20.52,11.16c.21,.13,.34,.37,.34,.63,0,.42-.34,.75-.75,.75-.15,0-.28-.04-.4-.11,0,0,.6,.12,.88-.4,.28-.52-.06-.87-.06-.87"/><path class="cls-2" d="M22,11.35c.7,0,1.27-.57,1.27-1.27s-.57-1.27-1.27-1.27-1.27,.57-1.27,1.27,.57,1.27,1.27,1.27"/><path class="cls-10" d="M22,11.51c-.79,0-1.43-.64-1.43-1.43s.64-1.43,1.43-1.43,1.43,.64,1.43,1.43-.64,1.43-1.43,1.43Zm0-2.53c-.61,0-1.1,.49-1.1,1.1s.49,1.1,1.1,1.1,1.1-.49,1.1-1.1-.49-1.1-1.1-1.1Z"/><path class="cls-8" d="M22.43,9.47c.21,.13,.34,.37,.34,.63,0,.42-.34,.75-.75,.75-.15,0-.28-.04-.4-.11,0,0,.6,.12,.88-.4,.28-.52-.06-.87-.06-.87"/><path class="cls-2" d="M24.35,10.54c.7,0,1.27-.57,1.27-1.27s-.57-1.27-1.27-1.27-1.27,.57-1.27,1.27,.57,1.27,1.27,1.27"/><path class="cls-10" d="M24.35,10.71c-.79,0-1.43-.64-1.43-1.43s.64-1.43,1.43-1.43,1.43,.64,1.43,1.43-.64,1.43-1.43,1.43Zm0-2.53c-.61,0-1.1,.49-1.1,1.1s.49,1.1,1.1,1.1,1.1-.49,1.1-1.1-.49-1.1-1.1-1.1Z"/><path class="cls-8" d="M24.8,8.67c.21,.13,.34,.37,.34,.63,0,.42-.34,.75-.75,.75-.15,0-.28-.04-.4-.11,0,0,.6,.12,.88-.4,.28-.52-.06-.87-.06-.87"/><path class="cls-2" d="M26.84,10.39c.7,0,1.27-.57,1.27-1.27s-.57-1.27-1.27-1.27-1.27,.57-1.27,1.27,.57,1.27,1.27,1.27"/><path class="cls-10" d="M26.84,10.56c-.79,0-1.43-.64-1.43-1.43s.64-1.43,1.43-1.43,1.43,.64,1.43,1.43-.64,1.43-1.43,1.43Zm0-2.53c-.61,0-1.1,.49-1.1,1.1s.49,1.1,1.1,1.1,1.1-.49,1.1-1.1-.49-1.1-1.1-1.1Z"/><path class="cls-8" d="M27.3,8.52c.21,.14,.34,.37,.34,.63,0,.42-.34,.75-.75,.75-.15,0-.28-.04-.4-.11,0,0,.6,.12,.88-.4s-.06-.87-.06-.87"/><path class="cls-2" d="M29.15,10.91c.7,0,1.27-.57,1.27-1.27s-.57-1.27-1.27-1.27-1.27,.57-1.27,1.27,.57,1.27,1.27,1.27"/><path class="cls-10" d="M29.15,11.08c-.79,0-1.43-.64-1.43-1.43s.64-1.43,1.43-1.43,1.43,.64,1.43,1.43-.64,1.43-1.43,1.43Zm0-2.53c-.61,0-1.1,.49-1.1,1.1s.49,1.1,1.1,1.1,1.1-.49,1.1-1.1-.49-1.1-1.1-1.1Z"/><path class="cls-8" d="M29.61,9.04c.2,.14,.34,.37,.34,.63,0,.42-.34,.75-.75,.75-.15,0-.28-.04-.4-.11,0,0,.6,.12,.88-.4s-.06-.87-.06-.87"/><path class="cls-2" d="M48.54,23.06c-.86,0-1.55-.7-1.55-1.55s.7-1.55,1.55-1.55,1.55,.7,1.55,1.55-.7,1.55-1.55,1.55"/><path class="cls-10" d="M48.54,23.25c-.96,0-1.74-.78-1.74-1.74s.78-1.74,1.74-1.74,1.74,.78,1.74,1.74-.78,1.74-1.74,1.74Zm0-3.11c-.75,0-1.37,.61-1.37,1.37s.61,1.37,1.37,1.37,1.37-.61,1.37-1.37-.61-1.37-1.37-1.37Z"/><path class="cls-8" d="M49.15,20.73c.28,.18,.47,.5,.47,.86,0,.57-.46,1.03-1.03,1.03-.2,0-.39-.06-.54-.16,0,0,.81,.16,1.2-.55,.38-.71-.09-1.19-.09-1.19"/><path class="cls-2" d="M49.97,20.4c-.77,0-1.4-.63-1.4-1.4s.63-1.4,1.4-1.4,1.4,.63,1.4,1.4-.63,1.4-1.4,1.4"/><path class="cls-10" d="M49.97,20.58c-.88,0-1.59-.71-1.59-1.59s.71-1.59,1.59-1.59,1.59,.71,1.59,1.59-.71,1.59-1.59,1.59Zm0-2.8c-.67,0-1.22,.55-1.22,1.22s.55,1.22,1.22,1.22,1.22-.55,1.22-1.22-.55-1.22-1.22-1.22Z"/><path class="cls-8" d="M50.45,18.31c.23,.15,.38,.41,.38,.7,0,.46-.37,.84-.84,.84-.16,0-.31-.05-.44-.13,0,0,.66,.13,.97-.44,.31-.58-.07-.96-.07-.96"/><path class="cls-2" d="M39.02,12.26c-.74,0-1.33-.6-1.33-1.33s.6-1.33,1.33-1.33,1.33,.6,1.33,1.33-.6,1.33-1.33,1.33"/><path class="cls-10" d="M39.02,12.42c-.83,0-1.5-.67-1.5-1.5s.67-1.5,1.5-1.5,1.5,.67,1.5,1.5-.67,1.5-1.5,1.5Zm0-2.66c-.64,0-1.17,.52-1.17,1.17s.52,1.17,1.17,1.17,1.17-.52,1.17-1.17-.52-1.17-1.17-1.17Z"/><path class="cls-8" d="M39.5,10.29c.22,.14,.36,.39,.36,.66,0,.44-.35,.79-.79,.79-.15,0-.3-.04-.42-.12,0,0,.63,.12,.92-.42s-.07-.91-.07-.91"/><path class="cls-2" d="M51.04,17.89c-.7,0-1.27-.57-1.27-1.27s.57-1.27,1.27-1.27,1.27,.57,1.27,1.27-.57,1.27-1.27,1.27"/><path class="cls-10" d="M51.04,18.08c-.8,0-1.45-.65-1.45-1.45s.65-1.45,1.45-1.45,1.45,.65,1.45,1.45-.65,1.45-1.45,1.45Zm0-2.53c-.6,0-1.08,.48-1.08,1.08s.48,1.08,1.08,1.08,1.08-.48,1.08-1.08-.49-1.08-1.08-1.08Z"/><path class="cls-8" d="M51.48,15.99c.21,.14,.34,.37,.34,.63,0,.42-.34,.75-.75,.75-.15,0-.28-.04-.4-.11,0,0,.6,.12,.88-.4,.28-.52-.06-.87-.06-.87"/><path class="cls-2" d="M51.27,15.39c-.7,0-1.27-.57-1.27-1.27s.57-1.27,1.27-1.27,1.27,.57,1.27,1.27-.57,1.27-1.27,1.27"/><path class="cls-10" d="M51.27,15.57c-.8,0-1.44-.65-1.44-1.44s.65-1.44,1.44-1.44,1.44,.65,1.44,1.44-.65,1.44-1.44,1.44Zm0-2.53c-.6,0-1.09,.49-1.09,1.09s.49,1.09,1.09,1.09,1.09-.49,1.09-1.09-.49-1.09-1.09-1.09Z"/><path class="cls-8" d="M51.69,13.5c.2,.13,.34,.37,.34,.63,0,.42-.34,.75-.75,.75-.15,0-.28-.04-.4-.11,0,0,.6,.12,.88-.4s-.06-.87-.06-.87"/><path class="cls-2" d="M50.36,13.04c-.7,0-1.27-.57-1.27-1.27s.57-1.27,1.27-1.27,1.27,.57,1.27,1.27-.57,1.27-1.27,1.27"/><path class="cls-10" d="M50.36,13.21c-.79,0-1.44-.64-1.44-1.44s.64-1.44,1.44-1.44,1.44,.64,1.44,1.44-.65,1.44-1.44,1.44Zm0-2.53c-.6,0-1.09,.49-1.09,1.09s.49,1.09,1.09,1.09,1.09-.49,1.09-1.09-.49-1.09-1.09-1.09Z"/><path class="cls-8" d="M50.75,11.16c.21,.14,.34,.37,.34,.63,0,.42-.34,.75-.75,.75-.15,0-.28-.04-.4-.11,0,0,.6,.12,.88-.4,.28-.52-.06-.87-.06-.87"/><path class="cls-2" d="M48.45,11.35c-.7,0-1.27-.57-1.27-1.27s.57-1.27,1.27-1.27,1.27,.57,1.27,1.27-.57,1.27-1.27,1.27"/><path class="cls-10" d="M48.45,11.51c-.79,0-1.43-.64-1.43-1.43s.64-1.43,1.43-1.43,1.43,.64,1.43,1.43-.64,1.43-1.43,1.43Zm0-2.53c-.61,0-1.1,.49-1.1,1.1s.49,1.1,1.1,1.1,1.1-.49,1.1-1.1-.49-1.1-1.1-1.1Z"/><path class="cls-8" d="M48.91,9.48c.2,.13,.34,.37,.34,.63,0,.42-.34,.75-.75,.75-.15,0-.28-.04-.4-.11,0,0,.6,.12,.88-.4,.28-.52-.06-.87-.06-.87"/><path class="cls-2" d="M46.1,10.54c-.7,0-1.26-.57-1.26-1.27s.57-1.27,1.26-1.27,1.27,.57,1.27,1.27-.57,1.27-1.27,1.27"/><path class="cls-10" d="M46.1,10.71c-.79,0-1.43-.64-1.43-1.43s.64-1.43,1.43-1.43,1.43,.64,1.43,1.43-.64,1.43-1.43,1.43Zm0-2.53c-.61,0-1.1,.49-1.1,1.1s.49,1.1,1.1,1.1,1.1-.49,1.1-1.1-.49-1.1-1.1-1.1Z"/><path class="cls-8" d="M46.52,8.65c.2,.14,.34,.37,.34,.63,0,.42-.34,.75-.75,.75-.15,0-.28-.04-.4-.11,0,0,.6,.12,.88-.4,.28-.52-.06-.87-.06-.87"/><path class="cls-2" d="M43.61,10.39c-.7,0-1.27-.57-1.27-1.27s.57-1.27,1.27-1.27,1.27,.57,1.27,1.27-.57,1.27-1.27,1.27"/><path class="cls-10" d="M43.61,10.56c-.79,0-1.43-.64-1.43-1.43s.64-1.43,1.43-1.43,1.43,.64,1.43,1.43-.64,1.43-1.43,1.43Zm0-2.53c-.61,0-1.1,.49-1.1,1.1s.49,1.1,1.1,1.1,1.1-.49,1.1-1.1-.49-1.1-1.1-1.1Z"/><path class="cls-8" d="M44.01,8.53c.21,.14,.34,.37,.34,.63,0,.42-.34,.75-.75,.75-.15,0-.28-.04-.4-.11,0,0,.6,.12,.88-.4s-.06-.87-.06-.87"/><path class="cls-2" d="M41.3,10.91c-.7,0-1.27-.57-1.27-1.27s.57-1.27,1.27-1.27,1.27,.57,1.27,1.27-.57,1.27-1.27,1.27"/><path class="cls-10" d="M41.3,11.08c-.79,0-1.43-.64-1.43-1.43s.64-1.43,1.43-1.43,1.43,.64,1.43,1.43-.64,1.43-1.43,1.43Zm0-2.53c-.61,0-1.1,.49-1.1,1.1s.49,1.1,1.1,1.1,1.1-.49,1.1-1.1-.49-1.1-1.1-1.1Z"/><path class="cls-8" d="M41.75,9.04c.21,.14,.34,.37,.34,.63,0,.42-.34,.75-.75,.75-.15,0-.28-.04-.4-.11,0,0,.6,.12,.88-.4s-.06-.87-.06-.87"/><path class="cls-10" d="M32.61,3.19V1.8l.4,.35h-.27l-.12,1.04"/><path class="cls-10" d="M32.65,3.2h-.09V1.7l.57,.5h-.36l-.12,1Zm0-1.29v.51l.04-.31h.19l-.23-.2Z"/><path class="cls-10" d="M36.21,.5h-2.68l.45,.55,.02-.4,2.21-.15"/><path class="cls-10" d="M34.01,1.17l-.58-.71h2.78v.09s-2.17,.15-2.17,.15l-.03,.47Zm-.39-.62l.31,.38,.02-.32,.88-.06h-1.21Z"/><path class="cls-10" d="M32.61,19.9v-1.46l.42,.37h-.29l-.13,1.1"/><path class="cls-10" d="M32.66,19.91h-.1v-1.58l.6,.52h-.37l-.13,1.06Zm0-1.36v.53l.04-.33h.2l-.24-.21Z"/><path class="cls-10" d="M42.43,17.87c-.02-.27-.15-.46-.15-.46,0,0-.45,.65-.59,1.37-.06,.31-.03,.21-.07,.55,0,0,.11-.57,.27-.99,.11-.29,.23-.66,.33-.68,.08-.02,.21,.21,.21,.21"/><path class="cls-10" d="M41.67,19.34h-.1c.02-.16,.02-.22,.02-.27,0-.07,0-.12,.04-.3,.14-.72,.58-1.36,.6-1.39h.08s.14,.21,.16,.48l-.09,.03c-.05-.09-.13-.19-.16-.19-.06,.01-.18,.35-.25,.53l-.05,.13c-.15,.41-.26,.98-.26,.98Zm.56-1.73s.08,.02,.11,.06c-.02-.07-.05-.12-.07-.16-.02,.03-.04,.06-.07,.11h0s.01,0,.02,0Z"/><path class="cls-10" d="M35,103.05C15.7,103.05,0,87.35,0,68.05S15.7,33.06,35,33.06s35,15.7,35,35-15.7,35-35,35Zm0-69.6C15.92,33.46,.4,48.98,.4,68.05s15.52,34.6,34.6,34.6,34.6-15.52,34.6-34.6-15.52-34.6-34.6-34.6Z"/><path class="cls-10" d="M35,100.99c-18.16,0-32.94-14.78-32.94-32.94s14.78-32.94,32.94-32.94,32.94,14.78,32.94,32.94-14.78,32.94-32.94,32.94Zm0-65.48c-17.94,0-32.54,14.6-32.54,32.54s14.6,32.54,32.54,32.54,32.54-14.6,32.54-32.54-14.6-32.54-32.54-32.54Z"/><path class="cls-10" d="M35,93.84c-14.22,0-25.79-11.57-25.79-25.79s11.57-25.79,25.79-25.79,25.79,11.57,25.79,25.79-11.57,25.79-25.79,25.79Zm0-51.18c-14,0-25.39,11.39-25.39,25.39s11.39,25.39,25.39,25.39,25.39-11.39,25.39-25.39-11.39-25.39-25.39-25.39Z"/><path class="cls-10" d="M35,85.23c-9.47,0-17.17-7.7-17.17-17.17s7.7-17.17,17.17-17.17,17.17,7.7,17.17,17.17-7.7,17.17-17.17,17.17Zm0-33.95c-9.25,0-16.78,7.53-16.78,16.78s7.53,16.78,16.78,16.78,16.78-7.53,16.78-16.78-7.53-16.78-16.78-16.78Z"/><path class="cls-3" d="M34.14,76.38l-.57,6.89h.58s.6-7.05,.6-7.05l-.62,.16"/><path class="cls-3" d="M34.16,83.34h-.58s-.04-.01-.05-.03-.02-.03-.02-.05l.57-6.89s.02-.05,.05-.06l.62-.16s.04,0,.06,.01c.02,.01,.02,.03,.02,.06l-.6,7.05s-.03,.06-.07,.06Zm-.51-.14h.45s.59-6.89,.59-6.89l-.48,.12-.56,6.77Z"/><path class="cls-3" d="M27.87,74.66l-1.36,3.07,.82-.13,1.59-3.27-1.06,.33"/><path class="cls-3" d="M26.51,77.79s-.04,0-.05-.03c-.01-.02-.02-.04,0-.07l1.36-3.07s.02-.03,.04-.04l1.06-.33s.05,0,.07,.02c.02,.02,.02,.05,0,.07l-1.59,3.27s-.03,.03-.05,.04l-.82,.13s0,0-.01,0Zm1.41-3.08l-1.3,2.93,.67-.1,1.51-3.1-.88,.28Z"/><path class="cls-3" d="M22.4,63.22l-1.11-.87,4.92,.62,.32-.68v-1.64s-1.11,2.03-1.11,2.03l-4.08-.46,1.07,4.55-2.11,.99h.43s2.57-1.24,2.57-1.24l-.91-3.3"/><path class="cls-3" d="M20.74,67.83h-.43s-.06-.03-.06-.06,0-.06,.04-.07l2.06-.97-1-4.25-.1-.08s-.03-.05-.02-.08c.01-.03,.04-.04,.07-.04h0s-.01-.06-.01-.06c0-.02,0-.04,.01-.06,.01-.02,.03-.02,.06-.02l4.03,.45,1.09-1.99s.05-.04,.07-.03c.03,0,.05,.03,.05,.06v1.64s0,.02,0,.03l-.32,.68s-.04,.04-.07,.04l-4.69-.59,.92,.72s.02,.02,.02,.03l.91,3.3s0,.06-.03,.08l-2.57,1.25s-.02,0-.03,0Zm-.15-.13h.13s2.5-1.21,2.5-1.21l-.89-3.23-.83-.65,.97,4.14s0,.06-.04,.08l-1.85,.87Zm.85-5.39l4.73,.6,.3-.63v-1.37s-.98,1.8-.98,1.8c-.01,.02-.04,.04-.07,.03l-3.98-.45h0Z"/><path class="cls-3" d="M30.1,56.87l-.84-1.23,3.6,2.05,2.12-3.55-.03-1.35-2.62,4.37-3.04-1.63,.74,9.07,.77,.77-.69-8.5"/><path class="cls-3" d="M30.79,65.44s-.03,0-.05-.02l-.77-.77s-.02-.03-.02-.04l-.72-8.87-.03-.05s-.02-.06,0-.08c0,0,0,0,.01-.01v-.06s0-.05,.03-.06c.02-.01,.05-.01,.07,0l2.98,1.6,2.59-4.31s.05-.04,.07-.03c.03,0,.05,.03,.05,.06l.03,1.35s0,.02,0,.04l-2.12,3.55s-.06,.04-.09,.02l-3.35-1.91,.68,.99s.01,.02,.01,.03l.69,8.5s-.01,.05-.04,.07c0,0-.02,0-.03,0Zm-.7-.87l.62,.63-.67-8.3-.65-.95,.7,8.62Zm-.26-8.68l3.01,1.71,2.07-3.48-.02-1.1-2.5,4.17s-.06,.04-.09,.02l-2.47-1.33Z"/><path class="cls-3" d="M39.81,56.95l.83-1.26-3.02,1.61,.36,.62,1.83-.97"/><path class="cls-3" d="M37.98,57.98s-.04-.01-.06-.03l-.36-.62s-.01-.03,0-.05c0-.02,.02-.03,.03-.04l3.02-1.61s.06,0,.08,.01c.02,.02,.02,.06,0,.08l-.83,1.26s-.01,.02-.02,.02l-1.83,.97s-.02,0-.03,0Zm-.27-.66l.3,.51,1.76-.93,.68-1.03-2.73,1.46Zm2.1-.38h0Z"/><path class="cls-1" d="M23.29,27.54l-.32,.74,.53,.79,2.42-.42-.16-1.74-2.47,.63"/><path class="cls-10" d="M23.43,29.21l-.61-.92,.37-.86,2.53-.65,.16,.12,.17,1.86-2.62,.46Zm-.31-.95l.44,.66,2.21-.39-.13-1.46-2.26,.58-.26,.61Z"/><polygon class="cls-10" points="25.81 28.73 25.18 27.95 23 28.41 22.94 28.15 25.28 27.66 26.02 28.56 25.81 28.73"/><rect class="cls-10" x="24.98" y="27.23" width="1.04" height=".26" transform="translate(-11.01 35.48) rotate(-59.56)"/><path class="cls-11" d="M60.7,80.5c-.09-.47,.18-.92,.6-1,.43-.09,.85,.22,.94,.69,.09,.47-.18,.92-.6,1-.43,.09-.85-.23-.94-.69"/><path class="cls-11" d="M48.86,93.76c-.14-.46,.09-.93,.51-1.05,.42-.12,.86,.15,1,.61,.14,.46-.09,.93-.51,1.05-.42,.12-.86-.15-1-.61"/><path class="cls-11" d="M6.54,77.35c-.09-.47,.17-.92,.6-1,.43-.09,.85,.22,.94,.69,.09,.47-.17,.92-.6,1-.43,.09-.85-.22-.94-.69"/><path class="cls-11" d="M33.79,39.25c-.09-.47,.17-.92,.6-1,.43-.09,.85,.23,.94,.69,.09,.47-.17,.92-.6,1-.43,.09-.85-.22-.94-.69"/><path class="cls-10" d="M21.59,14.88s.5-.84,2.03-1.29c1.62-.47,2.58,0,3.57,.69s.89,1.64,1.93,1.84c.44,.08,.94-.2,.94-.79s-.6-.84-.99-.55,.6-.3,.6,.25-.15,.55-.6,.5-.83-.94-1.79-1.74c-1.14-.94-2.58-1.04-3.62-.84s-2.13,1.09-2.13,1.09l.05,.84"/><path class="cls-10" d="M49.05,14.91s-.5-.84-2.03-1.29c-1.62-.47-2.58,0-3.57,.69s-.89,1.64-1.94,1.84c-.44,.08-.98-.12-.94-.79,.02-.39,.13-.55,.69-.71,.46-.13-.26-.02-.26,.53s.12,.43,.57,.38c.45-.05,.83-.94,1.79-1.74,1.14-.94,2.58-1.04,3.62-.84,1.04,.2,2.13,1.09,2.13,1.09l-.05,.84"/><path class="cls-11" d="M45.12,38.37c.13,.03,.37-.14,.37-.14l.16,.06-.47,1.63s-.12-.05-.13-.04c-.07-.77-.47-1.84-1.49-1.93-.71-.04-1.33,.35-1.68,1.04-.36,.71-.64,1.75-.2,2.53,.47,.72,1.33,.89,2.19,.67l.37-.17,.13,.15c-.63,.53-1.57,.69-2.37,.46-1.07-.25-1.76-1.21-2.02-2.16-.27-.94,.21-1.89,.73-2.51,.83-.74,1.77-.89,2.74-.66,.68,.02,1.54,1.05,1.67,1.07"/><path class="cls-11" d="M41.13,98.88c-.13,.04-.25,.31-.25,.31l-.17,.02-.41-1.65s.13-.02,.13-.03c.45,.63,1.33,1.36,2.26,.93,.64-.32,.98-.97,.94-1.74-.04-.79-.32-1.84-1.1-2.29-.77-.39-1.6-.11-2.23,.51l-.24,.33-.19-.06c.28-.77,1.02-1.38,1.83-1.59,1.05-.32,2.12,.17,2.83,.86,.7,.68,.76,1.75,.63,2.54-.35,1.05-1.08,1.66-2.04,1.94-.6,.32-1.86-.14-1.99-.09"/><path class="cls-11" d="M28.61,37.31c-.45,.17-.61,.82-.4,1.33l.76,2.93s.1,.18,.3,.23c.2,.05,.47,.29,.47,.29l.03,.16c-.78,.22-1.95,.31-2.74,.64l-.07-.17c.21-.08,.35-.33,.3-.59l-.67-2.82-1.57,4.35-3.89-2.51,1.25,2.84c.1,.2,.19,.28,.31,.29,.11,.02,.14,.04,.47-.1l.06,.17c-.72,.34-1.05,.66-1.74,1.02l-.08-.11c.21-.14,.6-.5,.39-.94l-1.61-3.54c-.14-.16-.32-.13-.4-.1l-.09-.19c.48-.27,1.13-.58,1.69-.81l3.51,2.18,1.5-4.17,2.16-.55,.06,.17"/><path class="cls-11" d="M50.58,40.39c.58,1.07,.27,2.37-.42,3.33-.54,.74-1.35,1.05-2,1.11-1.03,0-1.93-.28-2.5-1.24-.4-.74-.47-1.65-.09-2.52,.39-.92,.93-1.45,1.78-1.88,.78-.39,2.53,.02,3.24,1.2"/><path class="cls-5" d="M49.32,40.31c.77,.6-.09,2.2-.65,3.04-.4,.49-.98,.95-1.61,.56-.78-.56-.46-1.62-.2-2.26,.43-.81,1.51-2.06,2.47-1.34"/><path class="cls-11" d="M19.25,95.45c-.55-1.05-.22-2.3,.47-3.23,.54-.71,1.33-1,1.96-1.04,1,.02,1.87,.3,2.4,1.25,.38,.72,.43,1.6,.05,2.45-.4,.89-.93,1.39-1.76,1.79-.76,.36-2.45-.06-3.12-1.22"/><path class="cls-5" d="M20.47,95.55c-.74-.6,.13-2.14,.68-2.94,.39-.47,.96-.91,1.58-.52,.75,.56,.42,1.57,.16,2.2-.43,.78-1.5,1.97-2.42,1.26"/><path class="cls-11" d="M52.49,41.47c.54,.43,1.29,1.02,1.83,1.4l-.28,3.71,3.61-.72s.84,.83,1.92,1.98c1.07,1.15,2.18,2.69,2.18,2.69,.29,.44,.51,1.17,.22,1.7-.37,.51-1.12,.94-1.59,1.13-.87,.39-1.64-.89-2.22-1.49-.43,.33-1.16,1.05-.62,1.67l-.12,.09c-1.12-1.45-2.73-3.28-3.88-4.62l.11-.09c.4,.34,.75,.24,1.12-.04l2.35-2.13-4.78,1.04,.25-4.1-1.86,2.23c-.2,.29-.02,.47,.3,.72l-.09,.16-1.73-1.21,.1-.13s.26,.21,.53,.2c.27-.01,.42-.19,.42-.19l1.81-2.14c.56-.68,.74-1.09,.35-1.74l.07-.12"/><path class="cls-11" d="M13.49,44.86l.65-.59,1.94-1.64,.12,.12c-.42,.45-.32,.85-.15,1.18l1.79,2.1c.26,.33,.86,.57,1.36,.29,.64-.29,.89-.97,.69-1.57-.43-.8-1.61-2.71-1.61-2.71-.14-.24-.34-.27-.74-.08l-.1-.14,1.36-.86,.06,.16c-.19,.21-.38,.4-.13,.75l1.67,2.82c.22,.66,.06,1.35-.47,1.85-.85,.77-2.21,1.43-3,.8l-2.25-2.41c-.36-.38-.61-.04-.89,.22l-.3-.26"/><path class="cls-11" d="M13.21,45.69c-.27,.27-.41,.54-.22,.72l2.65,2.68c.25,.27,.68,.02,.82-.14l.11,.11c-.58,.63-1.32,1.35-1.92,2.1l-.14-.1c.17-.24,.26-.42,.05-.62-.21-.2-2.6-2.36-2.6-2.36-.2-.21-.64-.25-.88-.08-.07,.07-.16,.14-.21,.22l-.21-.15c.93-1.2,1.3-1.62,2.24-2.64l.31,.25"/><path class="cls-11" d="M11.47,49.54l-.15,.15c-.85-.43-1.27-.25-1.84,.57,0,0,2.02,1.3,2.98,2.12,.52,.42,.88-.14,1.06-.37l.24,.11c-.74,.99-1.27,1.71-1.91,3.05l-.24-.14c.38-.81,.28-1.02-.14-1.29l-2.85-2.02c-.66,.7-.27,1.17,.04,1.57,.03,.09-.08,.11-.07,.2-.48-.37-1.17-.99-1.17-.99l1.02-1.55,1.71-2.25c.36,.2,.83,.48,1.32,.83"/><path class="cls-11" d="M24.32,96.18l.19,.1c-.16,.94,.13,1.29,1.08,1.59,0,0,.65-2.31,1.16-3.47,.25-.62-.43-.89-.7-.99l.07-.24c1.16,.42,2.01,.69,3.48,1.01l-.07,.27c-.88-.13-1.06,.04-1.19,.51l-1.14,3.42c.86,.43,1.24-.18,1.53-.59,.08-.05,.13,.04,.21,0-.21,.56-.6,1.41-.6,1.41l-1.78-.52-2.65-.98c.09-.4,.21-.93,.41-1.51"/><path class="cls-5" d="M59.36,48.18c.21,.27,.15,.52-.45,1.04l-2.56,2.2c-.4,.25-1.14-.54-.61-1.03,.93-.88,1.59-1.55,2.74-2.49,.43-.32,.72,.1,.88,.29"/><path class="cls-5" d="M60.55,49.98c1.33,1.43,.3,2.08-.17,2.34-.53,.2-1.13-.43-1.46-.9l1.63-1.44"/><path class="cls-11" d="M7.63,54.47l3.97,1.59-4.58,2.87c.61,.25,2.11,.85,2.3,.78,.26-.04,.44-.21,.54-.51l.18,.05c-.16,.57-.37,1.09-.56,1.92l-.19-.09c.06-.29-.02-.5-.16-.7-.14-.2-2.25-.88-3.52-1.32-.34-.12-1.18-.36-1.18-.36l4.88-2.97c-.65-.31-1.85-.77-2.49-.98-.3,0-.46,.24-.67,.53l-.2-.13,.92-1.81,.21,.07s-.1,.48-.02,.71,.57,.36,.57,.36"/><path class="cls-11" d="M64.38,55.39l-3.6,4.76c-.12,.2-.17,.57,.42,.43l3.6-.83c.32-.12,.46-.41,.36-.78l.25-.08,1.02,4.27c.12,.78-.04,1.72-.93,1.95-.68,.25-1.21-.06-1.66-.39l-.69-.83c-.58,.39-1.17,1.16-1.14,1.72,.03,.56,.17,.62,.17,.62l4.68,2.55-4.74,2.87c-.47,.29-.65,1.12,0,1.29l3.94,.78s.36-1.2,.1-1.49c-.14-.19-.82-.35-.82-.35l.04-.23,1.36,.23c-.16,1.21-.74,3.77-1.28,5.55l-1.37-.4,.04-.19c.27,.1,.8,.14,1.05,.02,.29-.16,.32-.49,.38-.8,.08-.35,.15-.87,.15-.87l-3.94-.88c-.43-.08-.66,.04-.87,.62l-.14-.03s.76-2.73,.98-5.24l.15,.02s-.12,.8,.43,.45l.75-.43,.02-2.12-.64-.43c-.39-.25-.52-.19-.54,.41h-.19c.04-1.77-.17-1.63,.06-3.32,.13-.96,.61-1.73,1.22-2.25l-1.16,.29s-.33,.14-.45,.31-.23,.47-.23,.47l-.12,.04s-.61-2.7-1.56-4.97l.16-.08c.08,.14,.39,.41,.59,.39,.19-.02,.37-.45,.64-.8-.3-.83-.47-1.62-.68-2.13-.85-.08-1.2-.01-1.3,.07-.1,.08-.06,.31,.02,.52l-.13,.07-.93-1.68,.12-.07s.33,.32,1.22,.4l5.17,.55"/><path class="cls-5" d="M62.37,55.7c-.3,.34-.77,.86-1.15,1.32l-.5-1.45c.44,.03,1.21,.11,1.65,.14"/><path class="cls-11" d="M3.25,65.93c0-.06,.01-.12,.02-.18,.13-1.15,.3-2.65,.3-2.65l.25,.04c-.07,.16,.07,.36,.13,.52,.74,.53,2,.54,2.86,.66,.28,.01,.78,.23,1.09,.03,.31-.21,.64-1,.5-1.55-.14-.55-.49-.84-.9-.92l-2.84-.64c-.36,.06-.53,.21-.61,.66l-.25-.04c.12-.7,.43-1.47,.56-2.14l.26,.09c-.07,.39-.13,.83,.13,.93,.25,.1,1.66,.42,2.33,.56,.81,.17,1.85,.43,1.96,1.42,.15,.96-.1,2.39-.81,2.86-.28,.18-.62,.19-1.14,.17-.69-.03-3.38-.35-3.38-.35-.17,.1-.23,.3-.25,.53h-.21"/><path class="cls-11" d="M3.33,66.45c-.01,.21,.17,.53,.2,.71l.36,.4,4.54-.02-2.76,4.52c1.51-.28,2.66-.18,2.65-1.34l.17-.02c.06,.47,.3,1.71,.4,2.25l-.12,.02c-.17-.41-.3-.84-.84-.8l-4.45,.77-.12-.13,2.75-4.39c.08-.14,.08-.24,.14-.37-.82-.12-1.78-.11-2.26-.12-.48-.01-.73,1.09-.73,1.09h-.12s-.11-1.55-.02-2.58h.21"/><path class="cls-5" d="M65.53,61.46c.15,.67,.52,1.5-.06,2.07-.49,.46-1.13,.38-1.44,0-.36-.46-.52-1.01-.55-1.67l2.05-.41"/><path class="cls-5" d="M64.83,68.61l-1.12,.73,.04-1.31,1.08,.58"/><path class="cls-11" d="M57.18,83.52c-.26,.29-.18,.44,.04,.63l2.56,2.17c.36,.32,.59-.01,.87-.31l.14,.1c-1.05,1.42-1.67,2.18-2.79,3.45l-1.06-.7,.12-.15c.65,.44,.87,.42,1.19,.15l.85-1.07-1.33-1.14-.37,.44c-.22,.33,0,.62,.39,1.05l-.13,.15s-1.22-1.07-1.75-1.48l.09-.13c.51,.39,.73,.23,1.01-.02l.24-.38-1.27-1.08c-1.05,1.18-1.19,1.57-.62,2.26l-.1,.11-.89-.86,2.64-3.32,.17,.12"/><path class="cls-11" d="M16.1,86.97c-.25-.2-.65-.43-.97-.14-.26,.23-2.41,2.27-2.41,2.27-.41,.47-.47,.77-.08,1.33l-.1,.09-2.32-2.73,.12-.09c.22,.2,.54,.54,.91,.2,0,0,2.78-2.31,2.91-2.46,.13-.15,.13-.49-.23-.88l.08-.09,2.19,2.42-.09,.1"/><path class="cls-11" d="M17.78,88.37c.64,.46,2.97,2.12,2.97,2.12l-.13,.15c-.19-.14-.6-.26-.78-.05-.16,.19-2.36,3.18-2.36,3.18-.22,.27-.14,.58,.12,.83l-.12,.13s-1.87-1.39-2.62-2.08c-.66-.61-1.23-2.05-.22-3.32,1.01-1.27,2.48-1.42,3.13-.95"/><path class="cls-11" d="M53.92,87.37c-.2,.17-.4,.48-.09,.85l2.36,2.71c.49-.43,.84-.94,.35-1.59l.09-.09,.87,.83c-1.36,1.41-2.08,2.03-3.47,3.22,0,0-.48-.45-.75-.73l.09-.11c.31,.2,.48,.33,.92,.16,.38-.16,.73-.63,.73-.63l-2.32-2.68c-.29-.28-.68-.13-.99,.08l-.08-.11,2.17-2.01,.1,.12"/><path class="cls-11" d="M12.95,83.29c-.13-.23-.4-.48-.82-.23l-3.19,1.93c.34,.55,.72,1.2,1.45,.84l.08,.11-.97,.71c-1.15-1.59-1.58-2.62-2.5-4.19,0,0,.53-.39,.85-.61l.09,.11c-.25,.27-.41,.42-.31,.88,.09,.4,.5,.83,.5,.83l3.15-1.9c.33-.24,.25-.65,.09-.99l.12-.06,1.6,2.48-.14,.08"/><path class="cls-5" d="M18.94,89.65l-2.8,3.59s-1.99-1.05-.64-3.05c1.41-1.96,2.52-1.22,3.44-.54"/><path class="cls-11" d="M33.89,95.13c.16,.11,.27-.5,.27-.5l.14,.04-.27,1.75-.12-.02c-.35-.8-1.17-1.95-2.05-1.54-.56,.27-.58,.97-.32,1.15,.27,.18,1.79,1.37,2.05,1.7,.26,.33,.44,.95,.26,1.41-.28,.62-.77,.74-1.35,.86-1.14,.15-1.8-.69-2.05-.65-.26,.04-.28,.15-.28,.15h-.09s.12-1.01,.17-1.52h.1c.12,.49,.53,1.2,1.07,1.42,.44,.14,.76,.19,.91-.27,.35-1.29-2.72-1.66-2.21-3.66,.17-.6,.53-.95,1.2-1.07,1.24-.2,1.84,.33,2.56,.75"/><path class="cls-11" d="M38.51,94.76c.54,.34,.65,1.13,.65,1.13l.29,2.9s.03,.35,.26,.5c.31,.19,.61,.14,.61,.14v.14c-.92,.08-2.13,.14-3.07,.19v-.12c.64-.05,.82-.18,.81-.45-.01-.26-.21-3.03-.21-3.03,0,0-.02-.42-.35-.71-.33-.29-.81-.44-1.39-.3-.62,.17-.66,.81-.66,.81,.02,.35,.12,2.82,.14,3.32,.03,.25,.1,.43,.62,.43l.38-.02v.13c-.8,.04-1.31,.1-2.02,.12v-.17c.62-.03,.69-.17,.68-.42-.01-.25-.15-3.21-.15-3.21,0,0,.02-.85,.45-1.19,.68-.53,2.29-.61,2.95-.19"/><path class="cls-12" d="M41.22,28.28c1.07,.13,1.99-.24,2.06-.82,.07-.58-.73-1.16-1.8-1.29-1.07-.13-1.99,.24-2.06,.82-.07,.58,.74,1.16,1.8,1.29"/><path class="cls-10" d="M41.65,28.44c-.15,0-.29,0-.45-.03h0c-1.16-.14-2-.77-1.92-1.44,.08-.67,1.05-1.08,2.21-.93,.74,.09,1.4,.4,1.72,.81,.16,.2,.23,.42,.2,.63-.04,.33-.3,.61-.74,.78-.29,.12-.65,.18-1.02,.18Zm-.59-2.16c-.8,0-1.45,.3-1.51,.73-.06,.5,.71,1.03,1.69,1.15h0c.49,.06,.97,.01,1.34-.13,.34-.14,.55-.34,.57-.57,.02-.14-.03-.29-.15-.44-.28-.35-.87-.63-1.54-.71-.14-.02-.27-.03-.41-.03Z"/><path class="cls-10" d="M41.74,27.94s-.08,0-.09,0v-.1s.37,.02,.61-.07c.24-.09,.46-.25,.47-.25l.06,.08s-.24,.17-.49,.27c-.18,.07-.43,.08-.56,.08Z"/><path class="cls-1" d="M47.25,27.54l.28,.75-.57,.76-2.39-.55,.25-1.73,2.44,.76"/><path class="cls-10" d="M47.02,29.2l-2.6-.59,.27-1.85,.17-.11,2.5,.78,.32,.88-.66,.89Zm-2.3-.8l2.19,.5,.47-.63-.23-.62-2.22-.69-.21,1.45Z"/><g><path class="cls-1" d="M47.53,28.29l-2.23-.59-.73,.8"/><polygon class="cls-10" points="44.67 28.6 44.47 28.42 45.25 27.55 47.56 28.16 47.5 28.42 45.34 27.85 44.67 28.6"/></g><rect class="cls-10" x="44.93" y="26.72" width=".26" height="1.04" transform="translate(-7.49 23.87) rotate(-27.48)"/><g><path class="cls-11" d="M33.33,27.98h4.47v-2.33h-4.47v2.33Z"/><path class="cls-10" d="M37.94,28.12h-4.74v-2.59h4.74v2.59Zm-4.47-.26h4.21v-2.06h-4.21v2.06Z"/></g><g><path class="cls-11" d="M36.96,26.77l.84-1.12"/><rect class="cls-10" x="36.68" y="26.08" width="1.4" height=".26" transform="translate(-6.05 40.29) rotate(-53)"/></g><g><path class="cls-13" d="M34.23,26.77l-.9-1.12"/><rect class="cls-10" x="33.65" y="25.5" width=".26" height="1.43" transform="translate(-8.97 26.95) rotate(-38.79)"/></g><g><path class="cls-11" d="M33.33,27.98l.9-1.21h2.73l.84,1.21"/><polygon class="cls-10" points="33.44 28.06 33.22 27.91 34.16 26.64 37.03 26.64 37.91 27.91 37.7 28.06 36.89 26.91 34.3 26.91 33.44 28.06"/></g><path class="cls-2" d="M34.18,26.29l.12,.25h2.3l.3-.57h-2.92l.07,.12h2.55l-.07,.12-2.35,.07"/><path class="cls-2" d="M44.89,27.15l-.12,1.01,.43-.46-.31-.55"/><path class="cls-2" d="M33.43,26.13v1.48l.57-.77-.57-.71"/><path class="cls-2" d="M40.36,27.17c.17,.04,.34-.06,.38-.23,.04-.17-.06-.34-.23-.38-.17-.04-.34,.06-.38,.23s.06,.34,.23,.38"/><path class="cls-2" d="M28.44,27.47c.17,0,.31-.14,.31-.31s-.14-.31-.31-.31-.31,.14-.31,.31,.14,.31,.31,.31"/><path class="cls-9" d="M45.35,27.93l-.4,.4,1.88,.5,.3-.45-1.79-.45"/><path class="cls-9" d="M23.28,28.37l.35,.5,1.93-.35-.45-.5-1.84,.35"/><path class="cls-1" d="M25.41,27.68l.3,.5-.1-.84-.2,.35"/><path class="cls-10" d="M34.52,8.48h1.38v-3.26h-1.38v3.26Z"/><path class="cls-10" d="M38.96,9.56l-.03-1.38h-7.69l.03,1.38h7.69"/><path class="cls-2" d="M35.19,6.02c.32,0,.58-.26,.58-.58s-.26-.58-.58-.58-.58,.26-.58,.58,.26,.58,.58,.58"/><path class="cls-10" d="M35.19,6.09c-.36,0-.64-.29-.64-.64s.29-.64,.64-.64,.64,.29,.64,.64-.29,.64-.64,.64Zm0-1.16c-.28,0-.51,.23-.51,.51s.23,.51,.51,.51,.51-.23,.51-.51-.23-.51-.51-.51Z"/><path class="cls-2" d="M35.19,7.17c.32,0,.58-.26,.58-.58s-.26-.58-.58-.58-.58,.26-.58,.58,.26,.58,.58,.58"/><path class="cls-10" d="M35.19,7.24c-.36,0-.64-.29-.64-.64s.29-.64,.64-.64,.64,.29,.64,.64-.29,.64-.64,.64Zm0-1.16c-.28,0-.51,.23-.51,.51s.23,.51,.51,.51,.51-.23,.51-.51-.23-.51-.51-.51Z"/><path class="cls-2" d="M35.19,8.32c.32,0,.58-.26,.58-.58s-.26-.58-.58-.58-.58,.26-.58,.58,.26,.58,.58,.58"/><path class="cls-10" d="M35.19,8.39c-.36,0-.64-.29-.64-.64s.29-.64,.64-.64,.64,.29,.64,.64-.29,.64-.64,.64Zm0-1.16c-.28,0-.51,.23-.51,.51s.23,.51,.51,.51,.51-.23,.51-.51-.23-.51-.51-.51Z"/><path class="cls-1" d="M35.19,9.47c.32,0,.58-.26,.58-.58s-.26-.58-.58-.58-.58,.26-.58,.58,.26,.58,.58,.58"/><path class="cls-10" d="M35.19,9.54c-.36,0-.64-.29-.64-.64s.29-.64,.64-.64,.64,.29,.64,.64-.29,.64-.64,.64Zm0-1.16c-.28,0-.51,.23-.51,.51s.23,.51,.51,.51,.51-.23,.51-.51-.23-.51-.51-.51Z"/><path class="cls-2" d="M34.03,9.47c.32,0,.58-.26,.58-.58s-.26-.58-.58-.58-.58,.26-.58,.58,.26,.58,.58,.58"/><path class="cls-10" d="M34.03,9.54c-.36,0-.64-.29-.64-.64s.29-.64,.64-.64,.64,.29,.64,.64-.29,.64-.64,.64Zm0-1.16c-.28,0-.51,.23-.51,.51s.23,.51,.51,.51,.51-.23,.51-.51-.23-.51-.51-.51Z"/><path class="cls-2" d="M32.87,9.47c.32,0,.58-.26,.58-.58s-.26-.58-.58-.58-.58,.26-.58,.58,.26,.58,.58,.58"/><path class="cls-10" d="M32.87,9.54c-.36,0-.64-.29-.64-.64s.29-.64,.64-.64,.64,.29,.64,.64-.29,.64-.64,.64Zm0-1.16c-.28,0-.51,.23-.51,.51s.23,.51,.51,.51,.51-.23,.51-.51-.23-.51-.51-.51Z"/><path class="cls-2" d="M31.71,9.47c.32,0,.58-.26,.58-.58s-.26-.58-.58-.58-.58,.26-.58,.58,.26,.58,.58,.58"/><path class="cls-10" d="M31.71,9.54c-.36,0-.64-.29-.64-.64s.29-.64,.64-.64,.64,.29,.64,.64-.29,.64-.64,.64Zm0-1.16c-.28,0-.51,.23-.51,.51s.23,.51,.51,.51,.51-.23,.51-.51-.23-.51-.51-.51Z"/><path class="cls-2" d="M38.68,9.47c.32,0,.58-.26,.58-.58s-.26-.58-.58-.58-.58,.26-.58,.58,.26,.58,.58,.58"/><path class="cls-10" d="M38.68,9.54c-.36,0-.64-.29-.64-.64s.29-.64,.64-.64,.64,.29,.64,.64-.29,.64-.64,.64Zm0-1.16c-.28,0-.51,.23-.51,.51s.23,.51,.51,.51,.51-.23,.51-.51-.23-.51-.51-.51Z"/><path class="cls-2" d="M37.52,9.47c.32,0,.58-.26,.58-.58s-.26-.58-.58-.58-.58,.26-.58,.58,.26,.58,.58,.58"/><path class="cls-10" d="M37.52,9.54c-.36,0-.64-.29-.64-.64s.29-.64,.64-.64,.64,.29,.64,.64-.29,.64-.64,.64Zm0-1.16c-.28,0-.51,.23-.51,.51s.23,.51,.51,.51,.51-.23,.51-.51-.23-.51-.51-.51Z"/><path class="cls-2" d="M36.36,9.47c.32,0,.58-.26,.58-.58s-.26-.58-.58-.58-.58,.26-.58,.58,.26,.58,.58,.58"/><path class="cls-10" d="M36.36,9.54c-.36,0-.64-.29-.64-.64s.29-.64,.64-.64,.64,.29,.64,.64-.29,.64-.64,.64Zm0-1.16c-.28,0-.51,.23-.51,.51s.23,.51,.51,.51,.51-.23,.51-.51-.23-.51-.51-.51Z"/><path class="cls-3" d="M39.71,64.6l3.74-3.83,1.08,2.04,3.9-.4-.87,.8-2.92,.33-.31-.77-1.03-1.88v1.09s-2.54,2.59-2.54,2.59l-1.04,.03"/><path class="cls-3" d="M39.71,64.67s-.05-.02-.06-.04c-.01-.02,0-.05,.01-.07l3.56-3.65v-.02s.02-.06,.05-.06c0,0,.02,0,.03,0l.1-.1s.04-.02,.06-.02c.02,0,.04,.02,.05,.03l1.06,2,3.85-.39s.06,.01,.07,.04c.01,.03,0,.06-.02,.08l-.87,.8s-.02,.02-.04,.02l-2.92,.33s-.06-.01-.07-.04l-.31-.77-.91-1.65v.83s0,.03-.02,.05l-2.54,2.59s-.03,.02-.05,.02l-1.04,.03h0Zm3.51-3.57l-3.35,3.44,.85-.02,2.5-2.55v-.86Zm.16-.17l.99,1.81,.3,.73,2.85-.32,.7-.65-3.7,.38s-.05-.01-.07-.03l-1.03-1.96-.04,.04Z"/><path class="cls-4" d="M34.14,76.38l-7.79,1.38-.07,.73,7.8-1.32,.06-.79"/><path class="cls-4" d="M26.29,78.56s-.03,0-.04-.02c-.02-.01-.02-.03-.02-.05l.07-.73s.02-.05,.05-.06l7.79-1.38s.04,0,.06,.02c.02,.01,.02,.03,.02,.05l-.06,.79s-.02,.06-.05,.06l-7.8,1.32s0,0-.01,0Zm.13-.74l-.05,.59,7.67-1.3,.05-.65-7.66,1.36Z"/><path class="cls-10" d="M36.07,83.49h0l-2.5-.02c-.06,0-.11-.02-.15-.07-.04-.04-.06-.1-.05-.15l.59-6.49-7.42,1.15c-.07,.01-.14-.02-.19-.08-.04-.06-.05-.13-.02-.2l1.35-3.08-7.51-6.65c-.05-.04-.07-.11-.06-.18s.05-.12,.11-.15l1.97-.92-1.03-4.4c-.01-.06,0-.13,.04-.18,.04-.05,.11-.07,.17-.07l3.94,.44,1.04-1.91c.03-.06,.09-.09,.15-.1,.06,0,.13,.01,.17,.06l3.13,3.32-.73-8.29c0-.07,.03-.14,.09-.18,.06-.04,.14-.04,.2,0l2.87,1.54,2.64-4.39c.04-.06,.1-.1,.17-.1,.07,0,.13,.04,.17,.1l2.57,4.43,2.9-1.5c.06-.03,.14-.03,.2,.01,.06,.04,.09,.11,.09,.18l-.85,8.28,3.18-3.28s.11-.07,.17-.06c.06,0,.12,.05,.15,.1l1.02,1.92,3.95-.38c.06,0,.13,.02,.17,.07s.06,.12,.04,.18l-1.1,4.38,1.95,.95c.06,.03,.1,.09,.11,.15,0,.07-.02,.13-.07,.18l-7.6,6.54,1.31,3.1c.03,.07,.02,.14-.03,.2-.05,.06-.12,.08-.19,.07l-7.41-1.26,.49,6.5c0,.06-.01,.11-.05,.15-.04,.04-.09,.06-.15,.06Zm-2.28-.41l2.06,.02-.49-6.53c0-.06,.02-.12,.06-.16,.05-.04,.11-.06,.17-.05l7.3,1.24-1.22-2.9c-.03-.08-.01-.17,.05-.23l7.48-6.44-1.83-.89c-.08-.04-.13-.14-.11-.23l1.07-4.26-3.8,.37c-.08,0-.16-.03-.19-.1l-.95-1.8-3.38,3.49c-.06,.06-.15,.08-.23,.04-.08-.04-.12-.12-.11-.2l.87-8.48-2.74,1.42c-.09,.05-.21,.01-.26-.08l-2.5-4.3-2.56,4.27c-.05,.09-.17,.12-.26,.07l-2.72-1.46,.74,8.49c0,.08-.04,.16-.12,.2-.08,.03-.17,.02-.23-.05l-3.33-3.54-.98,1.79c-.04,.07-.12,.11-.2,.1l-3.8-.43,1,4.28c.02,.09-.02,.19-.11,.22l-1.84,.86,7.39,6.55c.06,.06,.08,.15,.05,.23l-1.26,2.88,7.32-1.14c.06-.01,.12,0,.17,.05,.04,.04,.07,.1,.06,.16l-.59,6.53Z"/><path class="cls-10" d="M47.83,32.3s.14-.07,.27-.07,.28,.03,.28,.03c0,0-.03-.52-.31-.86-.28-.34-.48-.34-.48-.34,0,0,.17-.07,.34-.1,.17-.03,.38-.03,.38-.03,0,0-.52-.48-.93-.72-.41-.24-.79,.07-1.07-.1-.28-.17-.86-.38-1.38-.38s-.62,.1-.62,.1l.21-.17s-.72-.21-1-.21-.55,.1-.55,.1c0,0,.07-.07,.21-.14,.14-.07,.27-.14,.27-.14,0,0-.86-.17-1.48-.17s-.72,.17-.72,.17l.1-.27s-.41-.07-.89-.1c-.48-.03-.72,.14-.72,.14l.17-.17s-.55-.21-1.03-.21-.65,.1-.65,.1l.07-.21s-.62-.03-.96,0c-.34,.03-.48,.31-.48,.31,0,0,.03-.1,.14-.31,.1-.21,.31-.38,.31-.38,0,0-.93-.1-1.31,.1-.38,.21-.52,.38-.52,.38,0,0-.24-.34-.72-.65-.48-.31-1.27-.24-1.27-.24,0,0,.14,.17,.24,.28,.1,.1,.1,.27,.1,.27,0,0-.27,0-.83-.03s-.72,.21-.72,.21l.17,.24s-.31-.14-.69-.21-1.2,.03-1.1,.07,.38,.24,.38,.24c0,0-.38-.03-1.07-.14-.69-.1-1.14,.07-1.14,.07,0,0,.17,.1,.28,.17,.1,.07,.14,.17,.14,.17,0,0-.38-.07-.79-.17-.41-.1-1,0-1,0,0,0,.14,.07,.24,.17s.14,.24,.14,.24c0,0-.65-.17-1.31-.31s-1.45-.1-1.45-.1l.34,.21c.17,.1,.21,.27,.21,.27,0,0-.34-.03-.76-.1-.41-.07-.79,.1-.79,.1,0,0,.17,.1,.31,.14,.14,.03,.24,.17,.24,.17,0,0-.55-.17-1.1,.14-.55,.31-.72,.79-.72,.79,0,0,.14-.03,.31-.07s.24,.1,.24,.1c0,0-.72,0-.96,1.17-.24,1.17,.34,2.24,.34,2.24,0,0,0-.21,.03-.34,.03-.14,.17-.17,.17-.17,0,0,.21,.48,.45,.96,.24,.48,.58,.76,.58,.76,0,0,.21-.21,.34-.31l.28-.21s-.03,.38,.03,.69c.07,.31,.28,.45,.28,.45,0,0,.72-.31,.93-.65,.21-.34,.03-.69,.03-.69,0,0,.28,.17,.76,.31s1.31-.1,1.31-.1c0,0-.21-.14-.34-.27-.14-.14-.24-.31-.24-.31,0,0,.24,.21,.76,.41s1.24,.07,1.24,.07c0,0-.14-.14-.28-.24-.14-.1-.21-.24-.21-.24,0,0,.21,.1,.86,.21,.65,.1,1.14,0,1.14,0,0,0-.14-.07-.31-.24s-.24-.41-.24-.41c0,0,.17,.24,.72,.41s1.14,.17,1.14,.17c0,0-.14-.14-.24-.28-.1-.14-.17-.27-.17-.27,0,0,.21,.21,.89,.34s1.24,0,1.24,0c0,0-.14-.1-.24-.17-.1-.07-.17-.21-.17-.21,0,0,.31,.14,.86,.24,.55,.1,1.13,.1,1.13,.1,0,0-.14-.1-.34-.21-.21-.1-.34-.31-.34-.31,0,0,.14,.21,.59,.31,.45,.1,1.24,.07,1.24,.07,0,0-.17-.14-.24-.28s-.07-.21-.07-.21c0,0,.28,.1,.89,.38,.62,.27,1.24,.17,1.24,.17,0,0-.07-.07-.14-.17-.07-.1-.1-.24-.1-.24,0,0,.34,.27,.83,.45s1.07,.07,1.07,.07c0,0-.07-.1-.14-.24-.07-.14-.07-.24-.07-.24,0,0,.27,.34,.55,.55,.28,.21,1.07,.34,1.07,.34,0,0-.07-.07-.14-.21-.07-.14-.07-.28-.07-.28,0,0,.24,.28,.76,.58,.52,.31,1.17,.31,1.17,.31,0,0,0-.1-.1-.31s-.03-.41-.03-.41c0,0,.14,.24,.34,.45,.21,.21,.65,.41,.65,.41,0,0,.89,.07,1.17-.07,.28-.14,.45-.24,.45-.24,0,0,.1,.27,.31,.41,.21,.14,.62,.1,.62,.1l.17-.21s.48,0,.76-.45c.28-.45,.17-1.03,.17-1.03l.34,.24s.14-.76,.03-1.07c-.1-.31-.27-.48-.27-.48"/><path class="cls-10" d="M24.91,35.95s-.01,0-.02,0c0,0-.22-.15-.29-.47-.05-.23-.05-.5-.04-.63l-.22,.16c-.13,.1-.34,.3-.34,.31-.01,.01-.03,.01-.04,0-.01-.01-.35-.28-.59-.77-.21-.41-.39-.83-.44-.94-.04,.02-.1,.06-.12,.14-.03,.13-.03,.33-.03,.34,0,.02-.01,.03-.02,.03-.01,0-.03,0-.04-.02,0-.01-.59-1.09-.35-2.26,.2-.98,.75-1.16,.93-1.19-.03-.03-.09-.06-.17-.04-.17,.03-.31,.07-.31,.07-.01,0-.02,0-.03,0s-.01-.02,0-.03c0-.02,.18-.5,.74-.81,.42-.23,.83-.2,1.02-.17-.04-.03-.09-.07-.15-.08-.14-.04-.31-.14-.32-.14-.01,0-.02-.02-.02-.03,0-.01,0-.02,.02-.03,.02,0,.39-.18,.81-.11,.32,.05,.59,.08,.7,.1-.02-.05-.07-.15-.18-.21l-.34-.21s-.02-.02-.01-.04c0-.01,.02-.02,.03-.02,0,0,.8-.03,1.45,.1,.53,.11,1.07,.25,1.25,.29-.02-.05-.05-.11-.11-.17-.1-.1-.23-.17-.23-.17-.01,0-.02-.02-.02-.03,0-.01,.01-.03,.03-.03,.02,0,.6-.1,1.01,0,.31,.08,.6,.14,.72,.16-.02-.03-.05-.07-.1-.1-.1-.07-.27-.17-.27-.17-.01,0-.02-.02-.02-.03,0-.01,0-.02,.02-.03,.02,0,.46-.17,1.15-.07,.46,.07,.78,.11,.94,.12-.09-.07-.21-.14-.27-.16-.03-.01-.03-.03-.03-.05,.02-.07,.81-.15,1.15-.09,.25,.04,.47,.12,.59,.17l-.11-.15s0-.03,0-.04c0-.01,.19-.26,.75-.22,.43,.03,.7,.03,.79,.03,0-.05-.03-.15-.09-.22-.1-.1-.24-.27-.24-.28,0,0,0-.02,0-.03s.02-.02,.03-.02c.03,0,.81-.07,1.29,.25,.4,.26,.63,.54,.71,.63,.06-.06,.21-.2,.5-.36,.38-.21,1.29-.11,1.33-.11,.01,0,.02,.01,.03,.02,0,.01,0,.03-.01,.03,0,0-.2,.17-.3,.37-.02,.04-.04,.07-.05,.1,.08-.07,.2-.13,.36-.15,.34-.03,.96,0,.97,0,.01,0,.02,0,.03,.01,0,0,0,.02,0,.03l-.05,.14c.09-.03,.28-.08,.6-.08,.48,0,1.02,.2,1.04,.21,.01,0,.02,.01,.02,.02,0,.01,0,.02,0,.03l-.04,.04c.12-.04,.31-.08,.57-.06,.48,.03,.89,.1,.9,.1,0,0,.02,0,.02,.02,0,0,0,.02,0,.03l-.06,.17c.1-.05,.29-.11,.65-.11,.62,0,1.48,.17,1.49,.17,.01,0,.02,.01,.03,.03s0,.03-.02,.03l-.27,.14s-.02,.01-.04,.02c.1-.02,.23-.05,.37-.05,.28,0,.98,.2,1.01,.21,.01,0,.02,.01,.02,.02s0,.02-.01,.03l-.06,.05c.1-.02,.24-.04,.45-.04,.51,0,1.1,.2,1.39,.38,.12,.07,.25,.05,.41,.03,.2-.03,.42-.06,.65,.07,.41,.24,.93,.72,.93,.73,0,0,.01,.02,0,.04s-.02,.02-.03,.02c0,0-.21,0-.37,.03-.09,.02-.17,.04-.24,.07,.09,.04,.23,.12,.4,.33,.28,.35,.32,.86,.32,.88,0,.01,0,.02-.01,.03,0,0-.02,0-.03,0,0,0-.14-.03-.27-.03-.08,0-.17,.03-.22,.05,.06,.07,.17,.22,.25,.46,.1,.31-.03,1.05-.03,1.08,0,.01,0,.02-.02,.02,0,0-.02,0-.03,0l-.28-.2c.02,.18,.04,.62-.19,.98-.26,.42-.68,.46-.77,.46l-.16,.2s-.01,.01-.02,.01c-.02,0-.43,.03-.64-.11-.17-.11-.27-.31-.31-.39-.06,.04-.21,.12-.42,.22-.28,.14-1.15,.07-1.19,.07,0,0,0,0-.01,0-.02,0-.46-.21-.66-.42-.14-.14-.25-.29-.31-.38,0,.07-.01,.19,.05,.31,.11,.21,.11,.32,.11,.32,0,.02-.01,.03-.03,.03-.03,0-.67,0-1.19-.31-.36-.22-.59-.42-.7-.52,0,.05,.02,.11,.06,.17,.07,.13,.13,.2,.13,.2,0,.01,.01,.03,0,.04,0,.01-.02,.02-.03,.02-.03,0-.8-.14-1.08-.35-.19-.14-.37-.34-.48-.46,0,.03,.02,.07,.04,.11,.07,.13,.13,.24,.14,.24,0,0,0,.02,0,.03,0,.01-.01,.02-.02,.02-.02,0-.6,.1-1.08-.07-.34-.12-.62-.3-.75-.39,.02,.04,.04,.09,.07,.14,.07,.1,.13,.17,.13,.17,0,0,.01,.02,0,.03,0,.01-.01,.02-.03,.02-.03,0-.64,.1-1.26-.17-.46-.2-.73-.31-.84-.36,0,.03,.02,.08,.06,.14,.06,.13,.23,.26,.23,.26,.01,0,.01,.02,.01,.04,0,.01-.02,.02-.03,.02-.03,0-.8,.03-1.25-.07-.1-.02-.18-.05-.25-.08,0,0,.02,.01,.03,.02,.21,.1,.34,.21,.35,.21,.01,0,.02,.02,.01,.04,0,.01-.02,.02-.03,.02,0,0-.59,0-1.14-.1-.38-.07-.64-.16-.77-.21,.03,.04,.07,.08,.11,.11,.1,.07,.24,.17,.24,.17,.01,0,.02,.02,.01,.03,0,.01-.01,.02-.02,.03,0,0-.57,.14-1.25,0-.42-.08-.66-.19-.79-.27,.03,.04,.06,.09,.1,.14,.1,.13,.24,.27,.24,.27,0,0,.01,.02,0,.04,0,.01-.02,.02-.03,.02,0,0-.6,0-1.15-.17-.32-.1-.52-.22-.62-.31,.04,.08,.1,.18,.18,.26,.17,.17,.3,.23,.3,.23,.01,0,.02,.02,.02,.03,0,.01-.01,.03-.03,.03,0,0-.5,.1-1.15,0-.42-.07-.66-.13-.77-.17,.03,.04,.08,.1,.14,.15,.14,.1,.27,.24,.28,.24,0,0,.01,.02,0,.03s-.01,.02-.03,.02c-.03,0-.74,.14-1.26-.07-.29-.11-.49-.23-.61-.31,.04,.05,.08,.1,.13,.15,.13,.13,.34,.27,.34,.27,.01,0,.02,.02,.01,.03,0,.01-.01,.02-.02,.03-.03,0-.84,.24-1.33,.1-.33-.1-.57-.21-.68-.27,.04,.13,.08,.38-.07,.63-.21,.35-.91,.65-.94,.67,0,0,0,0-.01,0Zm-.31-1.2s.01,0,.02,0c.01,0,.02,.02,.02,.03,0,0-.03,.38,.03,.68,.05,.25,.2,.38,.25,.42,.11-.05,.72-.33,.9-.63,.19-.32,.03-.65,.03-.66,0-.01,0-.03,0-.04,.01-.01,.03-.01,.04,0,0,0,.28,.17,.75,.31,.39,.11,1.01-.03,1.22-.09-.07-.05-.2-.14-.29-.24-.14-.14-.24-.31-.25-.32,0-.01,0-.03,0-.04s.03-.01,.04,0c0,0,.24,.21,.75,.41,.41,.17,.97,.1,1.16,.08-.05-.05-.14-.13-.22-.19-.14-.11-.21-.25-.22-.25,0-.01,0-.03,0-.04,.01-.01,.03-.01,.04,0,0,0,.21,.1,.85,.2,.48,.08,.87,.04,1.04,.01-.06-.04-.14-.1-.24-.2-.18-.18-.25-.42-.25-.43,0-.02,0-.03,.02-.04,.01,0,.03,0,.04,.01,0,0,.17,.23,.71,.4,.42,.13,.87,.16,1.05,.17-.05-.05-.12-.14-.19-.22-.1-.14-.17-.27-.18-.28,0-.01,0-.03,.01-.04,.01,0,.03,0,.04,0,0,0,.21,.2,.88,.33,.53,.11,.98,.05,1.15,.01-.05-.04-.12-.09-.18-.13-.11-.07-.18-.21-.18-.22,0-.01,0-.03,0-.04,0-.01,.02-.01,.04,0,0,0,.31,.14,.85,.24,.4,.08,.82,.1,1.02,.1-.06-.04-.15-.09-.25-.14-.21-.11-.35-.31-.36-.32h0s0,0,0,0c0,0,0,0,0,0h0s0-.03,0-.04c.01-.01,.04,0,.05,0,0,0,.14,.2,.57,.3,.35,.08,.93,.08,1.15,.07-.06-.05-.14-.14-.19-.23-.07-.14-.07-.21-.07-.22,0-.01,0-.02,.01-.03,0,0,.02,0,.03,0,0,0,.28,.11,.9,.38,.49,.22,.99,.19,1.16,.18-.03-.03-.06-.07-.1-.13-.07-.11-.11-.25-.11-.25,0-.01,0-.03,.01-.04,.01,0,.03,0,.04,0,0,0,.35,.27,.82,.44,.39,.14,.85,.09,1,.07-.03-.04-.07-.12-.11-.2-.07-.14-.07-.25-.07-.26,0-.01,0-.03,.02-.03,.01,0,.03,0,.04,.01,0,0,.28,.34,.54,.54,.21,.16,.75,.28,.96,.32-.02-.03-.05-.08-.08-.14-.07-.14-.07-.28-.07-.29,0-.01,0-.03,.02-.03,.01,0,.03,0,.04,0,0,0,.24,.28,.75,.58,.43,.26,.97,.3,1.12,.3,0-.04-.03-.13-.1-.26-.11-.22-.04-.43-.04-.44,0-.01,.02-.02,.03-.02,.01,0,.03,0,.03,.02,0,0,.14,.24,.34,.44,.19,.19,.59,.38,.64,.4,.08,0,.89,.06,1.15-.07,.27-.14,.44-.24,.45-.24,0,0,.02,0,.03,0,0,0,.02,.01,.02,.02,0,0,.1,.27,.3,.4,.17,.12,.51,.1,.58,.1l.16-.2s.02-.01,.03-.01c0,0,.47,0,.73-.43,.27-.43,.17-1,.17-1.01,0-.01,0-.03,.01-.03,.01,0,.03,0,.04,0l.3,.21c.03-.17,.11-.75,.03-1-.1-.3-.27-.47-.27-.47,0,0-.01-.02,0-.03,0-.01,0-.02,.02-.02,0,0,.15-.07,.29-.07,.09,0,.19,.01,.24,.03-.02-.13-.08-.52-.3-.8-.26-.32-.45-.33-.46-.33-.02,0-.03-.01-.03-.03s0-.03,.02-.04c0,0,.18-.07,.35-.1,.11-.02,.22-.03,.3-.03-.15-.13-.54-.47-.86-.66-.21-.12-.42-.1-.61-.07-.17,.02-.32,.05-.46-.04-.29-.18-.87-.37-1.36-.37-.45,0-.58,.08-.59,.09h0s-.03,.01-.05,0c-.01-.01-.01-.03,0-.05,0,0,0,0,0,0l.15-.13c-.18-.05-.71-.19-.93-.19-.27,0-.54,.1-.54,.1-.02,0-.03,0-.04-.01s0-.03,0-.04c0,0,.07-.07,.22-.14l.19-.09c-.24-.04-.89-.15-1.38-.15-.58,0-.69,.15-.69,.16,0,.01-.03,.02-.04,.01-.01,0-.02-.02-.02-.04l.09-.24c-.11-.02-.46-.07-.85-.1-.46-.03-.7,.13-.7,.13-.01,0-.03,0-.04,0-.01-.01-.01-.03,0-.04l.14-.14c-.14-.05-.58-.19-.97-.19-.46,0-.64,.1-.64,.1-.01,0-.03,0-.04,0-.01,0-.01-.02-.01-.04l.06-.17c-.15,0-.63-.03-.92,0-.32,.03-.45,.29-.46,.29,0,.02-.03,.02-.04,.02s-.02-.02-.02-.04c0,0,.04-.11,.14-.31,.07-.14,.19-.27,.26-.34-.23-.02-.91-.06-1.21,.11-.37,.2-.5,.37-.51,.37,0,0-.02,.02-.03,.01-.01,0-.02,0-.03-.01,0,0-.24-.34-.71-.64-.39-.25-.99-.25-1.19-.24,.05,.06,.13,.16,.2,.22,.11,.11,.11,.29,.11,.3,0,.02-.01,.03-.03,.03,0,0-.28,0-.83-.03-.44-.03-.63,.12-.68,.18l.16,.22s0,.03,0,.04c0,.01-.03,.02-.04,0,0,0-.31-.14-.68-.2-.29-.05-.83,0-1.02,.03,.12,.07,.31,.21,.32,.22,.01,0,.02,.02,.01,.04,0,.01-.02,.02-.03,.02,0,0-.39-.04-1.07-.14-.52-.08-.9,0-1.05,.05,.06,.04,.15,.09,.21,.13,.11,.07,.15,.18,.15,.19,0,.01,0,.02,0,.03,0,0-.02,.01-.03,.01,0,0-.38-.07-.79-.17-.31-.08-.71-.04-.89-.01,.05,.03,.11,.08,.17,.13,.11,.11,.14,.25,.15,.26,0,.01,0,.02,0,.03,0,0-.02,.01-.03,0,0,0-.66-.17-1.31-.31-.5-.1-1.08-.11-1.32-.11l.25,.15c.18,.11,.22,.29,.22,.3,0,.01,0,.02,0,.03,0,0-.02,.01-.03,.01,0,0-.35-.04-.76-.1-.3-.05-.59,.03-.71,.08,.06,.03,.16,.08,.24,.1,.15,.04,.25,.18,.26,.18,0,.01,0,.03,0,.04,0,.01-.02,.02-.04,.01,0,0-.54-.16-1.07,.14-.42,.24-.62,.58-.68,.71,.06-.01,.15-.03,.25-.05,.16-.03,.25,.07,.28,.12,0,.01,0,.02,0,.03,0,0-.02,.02-.03,.02-.03,0-.7,.02-.93,1.14-.19,.92,.14,1.79,.28,2.1,0-.07,.01-.15,.03-.22,.04-.16,.19-.19,.2-.2,.02,0,.03,0,.04,.02,0,0,.21,.49,.45,.96,.2,.4,.47,.66,.55,.73,.06-.06,.21-.21,.33-.29l.28-.21s.01,0,.02,0Z"/><path class="cls-2" d="M47.42,31.72c-.21-.14-.52,0-.52,0,0,0,.38,.48,.59,.72s.28,.72,.28,.72c0,0-.28-.24-.49-.45-.21-.21-.59-.27-.59-.27,0,0,.31,.65,.49,1,.17,.34,.07,.96,.07,.96,0,0-.21-.14-.31-.31-.12-.2-.35-.27-.35-.27,0,0-.1,.21-.14,.45-.04,.24,.14,.45,.14,.45,0,0-.31,0-.52-.17-.21-.17-.24-.52-.24-.52,0,0-.17,.28-.24,.41-.07,.14-.45,.28-.45,.28,0,0-.46,.18-1.02,0-.56-.17-1-.87-1-.87,0,0-.21,.2-.28,.34s.03,.46,.03,.46c0,0-.52-.2-.94-.44s-.66-.81-.66-.81c0,0-.14,.07-.17,.21s-.01,.54-.01,.54c0,0-.43-.27-.89-.61-.53-.39-.97-.52-.97-.52,0,0,.03,.17,.14,.34,.1,.17,.29,.45,.29,.45,0,0-.55-.06-1.02-.31-.45-.25-.66-.48-.66-.48,0,0-.07,.1-.07,.24s.07,.44,.07,.44c0,0-.3,0-1.04-.26-.7-.25-.98-.49-.98-.49,0,0-.04,.17,.04,.34,.07,.17,.14,.24,.14,.24,0,0-.91-.14-1.36-.31-.45-.17-.73-.41-.73-.41,0,0,.04,.21,.14,.31,.1,.1,.52,.62,.52,.62,0,0-.5-.08-1.05-.21-.56-.14-.72-.55-.72-.55,0,0,0,.21,.07,.34,.07,.14,.17,.44,.17,.44,0,0-.34,.05-.93-.02s-1.06-.55-1.06-.55c0,0,.04,.21,.1,.34s.23,.3,.23,.3c0,0-.4-.1-.85-.17-.45-.07-.73-.31-.73-.31,0,0-.07,.21,0,.38,.07,.17,.17,.27,.17,.27,0,0-1.08,.03-1.46-.1-.38-.14-.66-.38-.66-.38,0,0,.04,.21,.14,.38,.1,.17,.55,.49,.55,.49,0,0-.9-.17-1.35-.38-.45-.21-.64-.41-.64-.41,0,0,0,.36,.1,.52s.37,.36,.37,.36c0,0-.55,.04-.91,0-.37-.05-.78-.31-.78-.31,0,0,0,.57-.1,.77-.1,.21-.37,.31-.37,.31,0,0-.16-.41-.1-.77,.05-.36,.31-.77,.31-.77,0,0-.27,0-.58,.3-.31,.31-.41,.63-.41,.63,0,0-.24-.57-.15-1.08,.1-.6,.21-.93,.21-.93l.04-.09s-.38,.1-.52,.45-.12,1.11-.12,1.11c0,0-.3-.62-.34-1.03-.03-.41,.22-.98,.22-.98,0,0-.21,.1-.38,.31-.17,.21-.37,.69-.37,.69,0,0-.07-.97,.2-1.52s1.14-.65,1.14-.65c0,0-.08-.27-.26-.34s-.52-.24-.52-.24c0,0,.35-.35,1.05-.35s1.5,.34,1.5,.34c0,0-.14-.17-.28-.31-.14-.14-.64-.46-.64-.46,0,0,1.24,.22,1.62,.29,.38,.07,.63,.21,.63,.21,0,0-.05-.16-.21-.27-.32-.25-1.16-.6-1.16-.6,0,0,.92,.07,1.32,.2,.37,.12,1.09,.47,1.09,.47,0,0,.07-.1,.03-.28s-.18-.39-.18-.39c0,0,.41,0,.85,.09,.41,.08,.93,.37,.93,.37,0,0,.03-.14-.07-.28-.1-.14-.49-.51-.49-.51,0,0,.54,0,1.09,.11,.54,.12,1.11,.43,1.11,.43,0,0,.03-.1-.07-.24-.1-.14-.25-.47-.25-.47,0,0,.46,.02,.9,.13,.44,.12,.89,.27,.89,.27,0,0,.03-.14-.04-.24-.07-.1-.25-.3-.25-.3,0,0,.73,0,1.12,.03s.52,.14,.52,.14c0,0-.03-.14-.14-.27s-.21-.44-.21-.44c0,0,.7,.34,.98,.54,.28,.21,.45,.62,.45,.62,0,0,.17-.17,.52-.45,.35-.27,.87-.34,.87-.34,0,0-.14,.28-.24,.45-.1,.17-.07,.52-.07,.52,0,0,.35-.24,.77-.45,.42-.21,.76-.13,.76-.13,0,0,0,.1-.1,.27-.1,.17-.03,.34-.03,.34,0,0,.21-.27,.77-.41,.56-.14,.97,0,.97,0,0,0-.17,.21-.24,.34-.07,.14,0,.31,0,.31,0,0,.19-.24,.75-.41,.56-.17,1.01-.07,1.01-.07,0,0-.1,.14-.17,.27s0,.28,0,.28c0,0,.49-.18,1.08-.29,.57-.1,.84-.03,.84-.03,0,0-.07,.17-.21,.31s-.02,.35-.02,.35c0,0,.24-.17,.87-.24,.63-.07,.77,.03,.77,.03,0,0-.14,.17-.28,.31s-.1,.31-.1,.31c0,0,.45-.21,.87-.38,.42-.17,.8,0,1.08,.17,.28,.17,.24,.41,.24,.41,0,0,.24-.27,.75-.18,.59,.1,.87,.32,.87,.32,0,0-.3,.17-.5,.17s-.39,.15-.39,.15c0,0,.45,.14,.73,.34,.28,.21,.31,.55,.31,.55,0,0-.24-.14-.45-.28"/><path class="cls-10" d="M29.55,32.48c-.23,0-.44-.1-.45-.1-.04-.02-.06-.07-.04-.12,.02-.04,.07-.06,.12-.04,.1,.05,.4,.15,.57,.04,.33-.21,.54-.57,.74-.93,.3-.52,.6-1.05,1.28-1.13,.8-.1,1.19,.51,1.21,.54,.03,.04,.01,.1-.03,.12-.04,.03-.1,.01-.12-.03-.01-.02-.35-.54-1.04-.45-.59,.07-.86,.54-1.15,1.05-.21,.37-.43,.76-.8,.99-.09,.06-.19,.08-.29,.08Z"/><path class="cls-10" d="M38.53,31.21c-.36,0-.74-.3-.76-.32-.04-.03-.05-.1-.02-.14,.03-.04,.1-.05,.14-.02,0,0,.34,.27,.64,.27,.55,0,.89-.22,1.24-.46,.37-.25,.76-.5,1.4-.5,.92,0,1.05,.77,1.05,.78,0,.05-.03,.1-.08,.11-.06,0-.1-.03-.11-.08,0-.02-.11-.61-.86-.61-.58,0-.92,.23-1.29,.47-.36,.24-.74,.49-1.35,.49Z"/><path class="cls-10" d="M40.95,32.17c-.24,0-.59-.03-.89-.17-.6-.28-.85-.98-.86-1.01-.02-.05,0-.11,.06-.13,.05-.02,.11,0,.13,.06,0,0,.23,.66,.76,.9,.45,.21,1.04,.14,1.05,.14,.05,0,.1,.03,.11,.09,0,.05-.03,.1-.09,.11-.01,0-.11,.01-.26,.01Z"/><path class="cls-10" d="M25.39,33.04c-.3,0-.44-.2-.48-.3-.02-.05,0-.11,.06-.13s.11,0,.13,.06c0,.02,.08,.18,.32,.17,.53-.03,.79-.48,1.08-.96,.3-.51,.62-1.04,1.28-1.08,.92-.05,1.09,.72,1.09,.72,.01,.05-.02,.11-.08,.12-.05,.01-.11-.02-.12-.08,0-.02-.14-.61-.89-.57-.56,.03-.83,.49-1.12,.98-.3,.5-.6,1.02-1.24,1.05-.01,0-.02,0-.04,0Z"/><path class="cls-10" d="M27.28,32.5c-.57,0-.82-.4-.83-.42-.03-.05-.01-.11,.03-.14,.05-.03,.11-.01,.14,.03,.01,.02,.24,.38,.79,.31,.57-.06,.79-.34,.8-.34,.03-.04,.1-.05,.14-.02,.04,.03,.05,.1,.02,.14-.01,.01-.27,.34-.93,.41-.05,0-.1,0-.15,0Z"/><path class="cls-10" d="M33.71,31.49c-.08,0-.13,0-.13,0-.05,0-.09-.04-.08-.09,0-.05,.05-.09,.09-.08,0,0,.43,.02,.7-.06,.42-.13,.69-.42,.97-.73,.34-.36,.68-.73,1.29-.83,.62-.1,1.07,.34,1.09,.36,.03,.03,.03,.09,0,.13-.03,.03-.09,.03-.13,0,0,0-.4-.4-.94-.31-.55,.09-.86,.42-1.19,.78-.29,.31-.59,.63-1.05,.78-.2,.06-.47,.07-.63,.07Z"/><path class="cls-10" d="M36.77,31.96c-.27,0-.68-.03-.95-.19-.49-.29-.9-.73-.91-.74-.03-.04-.03-.09,0-.13,.04-.03,.09-.03,.13,0,0,0,.4,.44,.87,.71,.37,.21,1.1,.15,1.1,.15,.05,0,.09,.03,.1,.08,0,.05-.03,.09-.08,.1-.01,0-.11,0-.26,0Z"/><path class="cls-10" d="M31.44,31.95c-.55,0-.99-.34-1.01-.35-.04-.03-.05-.09-.01-.13,.03-.04,.09-.05,.13-.02,0,0,.44,.34,.96,.31,.64-.04,.76-.03,.77-.03,.05,0,.09,.04,.09,.09,0,.05-.04,.09-.09,.09,0,0-.13,0-.75,.03-.03,0-.05,0-.08,0Z"/><path class="cls-10" d="M46.24,32.27s-.09-.03-.1-.08c0-.03-.14-.64-.87-.9-.59-.21-1,.06-1.47,.37-.38,.26-.78,.52-1.31,.54-.37,.01-.68-.27-.69-.28-.04-.04-.04-.1,0-.14,.04-.04,.1-.04,.14,0,0,0,.26,.24,.55,.23,.47-.02,.84-.26,1.2-.5,.47-.32,.96-.64,1.65-.39,.84,.31,.99,1.02,.99,1.05,.01,.05-.02,.11-.08,.12,0,0-.01,0-.02,0Z"/><path class="cls-10" d="M45.34,33.23c-.2,0-.56-.04-.91-.28-.54-.37-.79-1.18-.8-1.21-.02-.05,.01-.11,.07-.12,.05-.02,.11,.01,.12,.07,0,0,.24,.78,.72,1.11,.44,.3,.92,.24,.92,.24,.05,0,.1,.03,.11,.08,0,.05-.03,.1-.08,.11,0,0-.06,0-.15,0Z"/></g></svg>