<?xml version="1.0" encoding="UTF-8"?><svg id="Layer_1" xmlns="http://www.w3.org/2000/svg" viewBox="0 0 59.07 64.79"><defs><style>.cls-1{fill:#424242;}</style></defs><path class="cls-1" d="M29.54,64.79c-.11,0-.23-.02-.34-.06-9.66-3.33-22.28-12.74-26.07-28.32C-1.28,18.25,.24,8.4,.31,7.99c.06-.39,.35-.71,.73-.82,.03-.01,3.54-1.04,13.18-3.52C24.43,1.01,29.28,.03,29.33,.02c.13-.03,.27-.03,.41,0,.05,.01,4.9,.99,15.11,3.63,9.64,2.49,13.15,3.51,13.19,3.52,.38,.11,.66,.43,.73,.82,.07,.41,1.59,10.25-2.82,28.42-3.79,15.58-16.41,24.99-26.07,28.32-.11,.04-.22,.06-.34,.06ZM2.26,8.96c-.25,2.44-.81,11.8,2.87,26.97,3.55,14.59,15.28,23.48,24.4,26.74,9.12-3.26,20.85-12.15,24.4-26.74,3.68-15.17,3.12-24.53,2.87-26.97-1.4-.39-5.16-1.43-12.47-3.32-8.99-2.32-13.79-3.35-14.8-3.56-1.01,.21-5.81,1.24-14.8,3.56-7.31,1.88-11.07,2.92-12.47,3.32Z"/><path class="cls-1" d="M47.12,31.05c-.17-3.25-1.34-6.37-3.23-8.87-1.9-2.51-4.53-4.41-7.4-5.4-2.89-.99-6.01-1.1-8.87-.33-2.86,.75-5.41,2.35-7.29,4.5h-.01c.96,.51,2.02,.89,2.97,1.42l-5.25,1.64-5.26,1.66,1.66-5.26,1.66-5.25c.52,.96,.88,2.02,1.38,2.99h.03c2.66-2.48,6.04-4.11,9.54-4.65,3.5-.55,7.11-.03,10.22,1.43,3.13,1.46,5.74,3.83,7.48,6.69,1.74,2.86,2.56,6.18,2.4,9.43Z"/><path class="cls-1" d="M46.24,34.66l-1.64,5.25-1.66,5.26c-.52-.96-.88-2.03-1.39-2.99l-.03,.03c-2.67,2.46-6.06,4.06-9.56,4.57-3.5,.53-7.09-.01-10.21-1.48-3.13-1.47-5.73-3.86-7.44-6.73-1.72-2.86-2.54-6.2-2.36-9.44,.16,3.25,1.3,6.39,3.19,8.9,1.88,2.51,4.5,4.42,7.37,5.42,2.87,1.02,6,1.14,8.86,.39,2.86-.72,5.42-2.31,7.32-4.45h.01c-.98-.51-2.03-.9-2.98-1.42l5.26-1.66,5.25-1.64Z"/></svg>