<?xml version="1.0" encoding="UTF-8"?><svg id="Layer_1" xmlns="http://www.w3.org/2000/svg" viewBox="0 0 18.83 18.83"><defs><style>.cls-1{fill:#fff;}</style></defs><path class="cls-1" d="M9.41,0C4.22,0,0,4.22,0,9.41s4.22,9.41,9.41,9.41,9.42-4.22,9.42-9.41S14.61,0,9.41,0Zm-1.56,.86c-.97,.77-1.77,2.18-2.27,4H2.01C3.28,2.8,5.38,1.31,7.85,.86ZM1.73,5.35h3.72c-.27,1.15-.43,2.44-.45,3.82H.73c.04-1.38,.4-2.67,1.01-3.82ZM.73,9.66H5c.02,1.38,.18,2.67,.45,3.82H1.73c-.61-1.15-.97-2.44-1.01-3.82Zm1.28,4.31h3.57c.5,1.82,1.3,3.24,2.27,4-2.47-.45-4.57-1.94-5.84-4Zm7.16,4.11c-1.3-.25-2.43-1.83-3.09-4.11h3.09v4.11Zm0-4.6h-3.22c-.28-1.15-.45-2.44-.47-3.82h3.68v3.82Zm0-4.31h-3.68c.02-1.38,.18-2.67,.47-3.82h3.22v3.82Zm0-4.31h-3.09c.65-2.27,1.78-3.86,3.09-4.11V4.86Zm8.94,4.31h-4.04c-.02-1.38-.17-2.67-.45-3.82h3.49c.61,1.15,.97,2.44,1.01,3.82Zm-1.29-4.31h-3.33c-.49-1.77-1.26-3.16-2.2-3.94,2.33,.51,4.31,1.97,5.53,3.94ZM9.66,.73c1.4,.09,2.62,1.72,3.32,4.14h-3.32V.73Zm0,4.63h3.45c.28,1.15,.45,2.44,.47,3.82h-3.91v-3.82Zm0,4.31h3.91c-.02,1.38-.18,2.68-.47,3.82h-3.45v-3.82Zm0,8.45v-4.14h3.32c-.69,2.41-1.92,4.05-3.32,4.14Zm1.63-.2c.94-.78,1.71-2.17,2.2-3.94h3.33c-1.21,1.97-3.2,3.42-5.53,3.94Zm5.81-4.43h-3.49c.27-1.15,.43-2.44,.45-3.82h4.04c-.04,1.38-.4,2.68-1.01,3.82Z"/></svg>