<?xml version="1.0" encoding="UTF-8"?><svg id="Layer_1" xmlns="http://www.w3.org/2000/svg" viewBox="0 0 43.76 53.89"><defs><style>.cls-1{fill:#424242;}</style></defs><polygon class="cls-1" points="42.64 12.93 30.83 12.93 30.83 1.12 31.74 1.12 31.74 12.01 42.64 12.01 42.64 12.93"/><path class="cls-1" d="M38.58,53.89H5.17c-2.85,0-5.17-2.32-5.17-5.17V5.17C0,2.32,2.32,0,5.17,0H30.35c.85,0,1.64,.33,2.24,.93l10.23,10.23c.6,.6,.93,1.4,.93,2.24V48.71c0,2.85-2.32,5.17-5.17,5.17ZM5.17,1.61c-1.84,0-3.56,1.72-3.56,3.56l-.07,43.54c0,1.84,1.79,3.56,3.63,3.56H38.58c1.84,0,3.56-1.72,3.56-3.56l.04-35.05c0-.36-.19-1.04-.44-1.3L31.56,2.11c-.25-.25-.85-.5-1.21-.5H5.17Z"/><rect class="cls-1" x="7.33" y="26.49" width="29.1" height=".91"/><rect class="cls-1" x="7.33" y="32.58" width="29.1" height=".91"/><rect class="cls-1" x="7.33" y="38.67" width="29.1" height=".91"/><rect class="cls-1" x="7.33" y="44.77" width="29.1" height=".91"/><rect class="cls-1" x="7.33" y="20.39" width="29.1" height=".91"/><rect class="cls-1" x="7.33" y="14.3" width="19.96" height=".91"/><rect class="cls-1" x="7.33" y="8.2" width="19.96" height=".91"/></svg>