<?xml version="1.0" encoding="UTF-8"?><svg id="Layer_1" xmlns="http://www.w3.org/2000/svg" viewBox="0 0 99.76 60.92"><defs><style>.cls-1{fill:#005352;}</style></defs><g><path class="cls-1" d="M89.73,60.92h-23.72c-.46,0-.85-.31-.96-.76l-9.04-36.99c-.07-.3,0-.61,.18-.85,.19-.24,.47-.38,.78-.38h41.79c.3,0,.59,.14,.78,.38,.19,.24,.26,.55,.18,.85l-9.04,36.99c-.11,.44-.51,.76-.96,.76Zm-22.94-1.98h22.16l8.55-35.01H58.24l8.55,35.01Z"/><path class="cls-1" d="M98.77,19.54H56.98c-.55,0-.99-.44-.99-.99s.44-.99,.99-.99h41.79c.55,0,.99,.44,.99,.99s-.44,.99-.99,.99Z"/><path class="cls-1" d="M83.76,15.15c-.55,0-.99-.44-.99-.99v-1.51h-9.8v1.51c0,.55-.44,.99-.99,.99s-.99-.44-.99-.99v-2.5c0-.55,.44-.99,.99-.99h11.78c.55,0,.99,.44,.99,.99v2.5c0,.55-.44,.99-.99,.99Z"/><path class="cls-1" d="M77.87,54.97c-.55,0-.99-.44-.99-.99V28.89c0-.55,.44-.99,.99-.99s.99,.44,.99,.99v25.09c0,.55-.44,.99-.99,.99Z"/><path class="cls-1" d="M85.52,54.97c-.07,0-.13,0-.2-.02-.54-.11-.88-.63-.77-1.17l5.09-25.09c.11-.54,.63-.88,1.17-.77,.54,.11,.88,.63,.77,1.17l-5.09,25.09c-.1,.47-.51,.79-.97,.79Z"/><path class="cls-1" d="M70.23,54.97c-.46,0-.87-.32-.97-.79l-5.09-25.09c-.11-.54,.24-1.06,.77-1.17,.53-.11,1.06,.24,1.17,.77l5.09,25.09c.11,.54-.24,1.06-.77,1.17-.07,.01-.13,.02-.2,.02Z"/></g><path class="cls-1" d="M60.25,53.46H2.89c-1.59,0-2.89-1.3-2.89-2.89v-13.97c0-.62,.11-1.24,.32-1.82L11.95,3.17c.7-1.9,2.53-3.17,4.55-3.17H60.26c2.02,0,3.85,1.28,4.55,3.17l3.63,12.47-1.41,.52-3.63-12.47c-.48-1.31-1.74-2.19-3.14-2.19H16.5c-1.39,0-2.65,.88-3.14,2.19L1.74,35.29c-.15,.42-.23,.86-.23,1.3v13.97c0,.76,.62,1.39,1.39,1.39H60.25v1.51Z"/><rect class="cls-1" x=".83" y="35.04" width="55.16" height="1.51"/><path class="cls-1" d="M11.15,46.19h-2.91c-1.05,0-1.91-.86-1.91-1.91v-.07c0-1.05,.86-1.91,1.91-1.91h2.91c1.05,0,1.91,.86,1.91,1.91v.07c0,1.05-.86,1.91-1.91,1.91Zm-2.91-3.13c-.64,0-1.16,.52-1.16,1.16v.07c0,.64,.52,1.16,1.16,1.16h2.91c.64,0,1.16-.52,1.16-1.16v-.07c0-.64-.52-1.16-1.16-1.16h-2.91Z"/><path class="cls-1" d="M19.18,24.17c-.68-.16-1.33-.39-1.94-.67v-2.08c1.41,.76,2.67,1.14,3.78,1.14,.55,0,1-.12,1.34-.36,.34-.24,.51-.58,.51-1.01,0-.3-.1-.56-.28-.77-.19-.21-.43-.39-.71-.52-.28-.14-.68-.3-1.21-.5-.71-.26-1.28-.51-1.73-.75-.45-.24-.83-.58-1.14-1.02-.32-.44-.47-1.01-.47-1.7,0-1.02,.35-1.82,1.06-2.39,.71-.57,1.67-.86,2.9-.86,.58,0,1.14,.06,1.69,.19,.55,.12,1.06,.31,1.53,.55v2.04c-1.1-.61-2.16-.91-3.18-.91-.56,0-1.01,.1-1.33,.3-.32,.2-.48,.49-.48,.85s.17,.66,.5,.87c.33,.21,.84,.44,1.54,.69,.73,.27,1.32,.53,1.79,.78,.47,.25,.87,.61,1.21,1.08,.34,.47,.52,1.08,.55,1.83,0,1.07-.36,1.92-1.09,2.53-.73,.61-1.7,.92-2.92,.92-.61,0-1.25-.08-1.94-.24Z"/><path class="cls-1" d="M29.6,24.17c-.68-.16-1.33-.39-1.94-.67v-2.08c1.41,.76,2.67,1.14,3.78,1.14,.55,0,1-.12,1.34-.36,.34-.24,.51-.58,.51-1.01,0-.3-.1-.56-.29-.77-.19-.21-.43-.39-.71-.52-.28-.14-.68-.3-1.21-.5-.71-.26-1.28-.51-1.73-.75-.45-.24-.83-.58-1.14-1.02-.32-.44-.47-1.01-.47-1.7,0-1.02,.35-1.82,1.06-2.39,.71-.57,1.67-.86,2.9-.86,.58,0,1.14,.06,1.69,.19,.55,.12,1.06,.31,1.53,.55v2.04c-1.1-.61-2.16-.91-3.18-.91-.56,0-1.01,.1-1.33,.3-.32,.2-.48,.49-.48,.85s.17,.66,.5,.87c.33,.21,.84,.44,1.54,.69,.73,.27,1.32,.53,1.79,.78,.47,.25,.87,.61,1.21,1.08,.34,.47,.52,1.08,.55,1.83,0,1.07-.36,1.92-1.09,2.53-.73,.61-1.7,.92-2.92,.92-.61,0-1.25-.08-1.94-.24Z"/><path class="cls-1" d="M45.63,13.57c.84,.46,1.47,1.12,1.91,1.97,.43,.85,.65,1.85,.65,3s-.22,2.15-.65,3.01c-.43,.85-1.07,1.51-1.91,1.97-.84,.46-1.84,.69-3,.69h-4.19V12.88h4.19c1.16,0,2.16,.23,3,.69Zm-.58,7.78c.58-.64,.87-1.57,.87-2.8s-.29-2.16-.87-2.8c-.58-.64-1.39-.96-2.42-.96h-2.04v7.52h2.04c1.03,0,1.84-.32,2.42-.96Z"/></svg>