<?xml version="1.0" encoding="UTF-8"?><svg id="Layer_1" xmlns="http://www.w3.org/2000/svg" viewBox="0 0 63.8 69.98"><defs><style>.cls-1{fill:#005352;}</style></defs><path class="cls-1" d="M31.9,69.98c-.12,0-.24-.02-.36-.06-10.43-3.6-24.06-13.76-28.15-30.59C-1.38,19.71,.26,9.07,.33,8.63c.07-.42,.37-.77,.78-.89,.04-.01,3.82-1.12,14.24-3.8C26.39,1.09,31.63,.03,31.68,.02c.15-.03,.29-.03,.44,0,.05,.01,5.29,1.07,16.32,3.92,10.42,2.68,14.21,3.79,14.24,3.8,.41,.12,.71,.47,.78,.89,.07,.44,1.72,11.07-3.05,30.7-4.09,16.83-17.72,26.99-28.15,30.59-.12,.04-.24,.06-.36,.06ZM2.44,9.68c-.27,2.63-.88,12.75,3.1,29.13,3.83,15.76,16.5,25.36,26.36,28.89,9.85-3.52,22.52-13.12,26.36-28.89,3.98-16.38,3.37-26.49,3.1-29.13-1.51-.43-5.57-1.55-13.47-3.58-9.71-2.51-14.9-3.62-15.99-3.85-1.09,.23-6.28,1.34-15.99,3.85-7.9,2.04-11.96,3.16-13.47,3.58Z"/><path class="cls-1" d="M50.89,33.54c-.19-3.51-1.44-6.88-3.49-9.58-2.05-2.71-4.89-4.76-7.99-5.83-3.12-1.07-6.49-1.18-9.58-.36-3.09,.81-5.84,2.54-7.88,4.86h-.01c1.04,.55,2.18,.97,3.2,1.53l-5.67,1.77-5.68,1.79,1.79-5.68,1.79-5.67c.56,1.04,.95,2.18,1.49,3.23h.03c2.87-2.68,6.52-4.44,10.3-5.02,3.78-.59,7.68-.03,11.04,1.54,3.38,1.57,6.2,4.14,8.08,7.23,1.88,3.09,2.77,6.68,2.6,10.19Z"/><path class="cls-1" d="M49.94,37.43l-1.77,5.67-1.79,5.68c-.56-1.04-.95-2.19-1.5-3.23l-.03,.03c-2.89,2.65-6.55,4.39-10.33,4.93-3.78,.58-7.66-.01-11.02-1.6-3.38-1.59-6.19-4.17-8.04-7.27-1.86-3.09-2.74-6.69-2.55-10.2,.17,3.51,1.4,6.9,3.45,9.61,2.03,2.71,4.86,4.78,7.96,5.86,3.1,1.1,6.48,1.23,9.57,.42,3.09-.78,5.86-2.5,7.91-4.8h.01c-1.05-.55-2.19-.97-3.22-1.53l5.68-1.79,5.67-1.77Z"/></svg>