<?xml version="1.0" encoding="UTF-8"?><svg id="Layer_1" xmlns="http://www.w3.org/2000/svg" viewBox="0 0 65.43 63.73"><defs><style>.cls-1{font-family:Mont-Bold, Mont;font-size:15.7px;}.cls-1,.cls-2{fill:#424242;}.cls-3{letter-spacing:-.05em;}</style></defs><path class="cls-2" d="M37.32,61.04l-.24-1.23c7.25-1.39,13.43-6.23,16.55-12.94l1.14,.53c-3.29,7.08-9.81,12.18-17.45,13.64Z"/><path class="cls-2" d="M11.54,27.45l-.94-.56c-.98-.58-2.19-.6-3.17-.08l-.92,.49v-1.04C6.5,11.78,18.26,0,32.71,0s26.25,11.79,26.25,26.28h-.13c-.04,.17-.12,.34-.3,.46l-.25,.16-.37-.12c-.94-.47-2.13-.44-3.08,.12l-.15,.09h-.79l-.02-.62c-.07-11.75-9.56-21.3-21.15-21.3S11.56,14.61,11.54,26.36v1.1ZM32.71,3.8c11.97,0,21.82,9.61,22.38,21.6,.84-.28,1.76-.29,2.6-.06-.49-13.37-11.51-24.1-24.98-24.1S8.26,11.97,7.77,25.34c.83-.22,1.72-.21,2.54,.06C10.83,13.41,20.69,3.8,32.71,3.8Z"/><path class="cls-2" d="M8.94,48.5c-2.48,0-4.5-2.02-4.5-4.5v-14.32c0-2.48,2.02-4.5,4.5-4.5s4.5,2.02,4.5,4.5v14.32c0,2.48-2.02,4.5-4.5,4.5Zm0-22.06c-1.79,0-3.25,1.46-3.25,3.25v14.32c0,1.79,1.46,3.25,3.25,3.25s3.25-1.46,3.25-3.25v-14.32c0-1.79-1.46-3.25-3.25-3.25Z"/><path class="cls-2" d="M5.7,42.51h-.63c-2.8,0-5.07-2.27-5.07-5.07v-1.21c0-2.8,2.27-5.07,5.07-5.07h.63v11.35Zm-1.25-10.05c-1.81,.3-3.19,1.87-3.19,3.77v1.21c0,1.89,1.38,3.47,3.19,3.77v-8.75Z"/><path class="cls-2" d="M56.48,48.5c-2.48,0-4.5-2.02-4.5-4.5v-14.32c0-2.48,2.02-4.5,4.5-4.5s4.5,2.02,4.5,4.5v14.32c0,2.48-2.02,4.5-4.5,4.5Zm0-22.06c-1.79,0-3.25,1.46-3.25,3.25v14.32c0,1.79,1.46,3.25,3.25,3.25s3.25-1.46,3.25-3.25v-14.32c0-1.79-1.46-3.25-3.25-3.25Z"/><path class="cls-2" d="M60.36,42.51h-.63v-11.35h.63c2.8,0,5.07,2.27,5.07,5.07v1.21c0,2.8-2.27,5.07-5.07,5.07Zm.63-10.05v8.75c1.81-.3,3.19-1.87,3.19-3.77v-1.21c0-1.89-1.38-3.47-3.19-3.77Z"/><path class="cls-2" d="M34.97,63.73h-4.52c-1.6,0-2.9-1.3-2.9-2.9s1.3-2.9,2.9-2.9h4.52c1.6,0,2.89,1.3,2.89,2.9s-1.3,2.9-2.89,2.9Zm-4.52-4.54c-.91,0-1.64,.74-1.64,1.64s.74,1.64,1.64,1.64h4.52c.91,0,1.64-.74,1.64-1.64s-.74-1.64-1.64-1.64h-4.52Z"/><text class="cls-1" transform="translate(17.15 39.78)"><tspan class="cls-3" x="0" y="0">7</tspan><tspan x="7.38" y="0">/24</tspan></text></svg>