<?xml version="1.0" encoding="UTF-8"?><svg id="Layer_1" xmlns="http://www.w3.org/2000/svg" xmlns:xlink="http://www.w3.org/1999/xlink" viewBox="0 0 69.95 69.95"><defs><style>.cls-1{fill:none;}.cls-2{fill:#004990;}.cls-3{fill:#fff;}</style><clipPath id="clippath"><path class="cls-1" d="M-9.91-1230.26H-1.36s.04,0,.06,0H-.61l-.46,.46v9.03c0,.17-.13,.3-.3,.3l-4.22,1.9-4.32-1.9c-.16,0-.3-.14-.3-.3v-9.08l-.41-.41h.64s.04,0,.06,0h0Z"/></clipPath></defs><circle class="cls-2" cx="34.98" cy="34.98" r="34.98"/><g><g id="d"><path id="c" class="cls-3" d="M35.29,58.79v-23.46l4.24,4.24,16.61-3.7c.18,0,.18,.17,0,.17l-15.54,4.94-5.31,17.81Zm3-5.65c7.43-1.23,13.43-7.05,14.84-14.64l-1.41,.54c-1.42,6.34-6.55,11.46-13.08,12.87l-.36,1.23Z"/><path id="c-2" class="cls-3" d="M58.78,35.15h-23.46l4.24-4.24-3.7-16.61c0-.18,.17-.18,.17,0l4.94,15.54,17.81,5.31Zm-5.65-3c-1.23-7.43-7.05-13.43-14.64-14.84l.54,1.41c6.34,1.42,11.46,6.55,12.87,13.08l1.23,.36Z"/></g><g id="d-2"><path id="c-3" class="cls-3" d="M35.3,11.43v23.46l-4.24-4.24-16.61,3.7c-.18,0-.18-.17,0-.17l15.54-4.94,5.31-17.81Zm-3,5.65c-7.43,1.23-13.43,7.05-14.84,14.64l1.41-.54c1.42-6.34,6.55-11.46,13.08-12.87l.36-1.23Z"/><path id="c-4" class="cls-3" d="M11.81,35.07h23.46l-4.24,4.24,3.7,16.61c0,.18-.17,.18-.17,0l-4.94-15.54-17.81-5.31Zm5.65,3c1.23,7.43,7.05,13.43,14.64,14.84l-.54-1.41c-6.34-1.42-11.46-6.55-12.87-13.08l-1.23-.36Z"/></g><path class="cls-3" d="M32.26,17.06c-7.59,1.24-13.58,7.24-14.81,14.66l1.41-.53c1.41-6.36,6.52-11.48,12.87-12.72l.53-1.41Z"/></g></svg>