<?xml version="1.0" encoding="UTF-8"?><svg id="Layer_1" xmlns="http://www.w3.org/2000/svg" viewBox="0 0 62.14 71.92"><defs><style>.cls-1{fill:#005352;}</style></defs><path class="cls-1" d="M30.45,71.46l-.81-1.18c1.58-1.23,15.43-12.56,15.43-32.76S31.22,5.99,29.64,4.77l.81-1.18c1.64,1.27,15.99,13.01,15.99,33.93s-14.35,32.66-15.99,33.93Z"/><rect class="cls-1" x="29.36" y="4.18" width="1.37" height="15.7"/><rect class="cls-1" x="29.36" y="23.39" width="1.37" height="27.93"/><rect class="cls-1" x="20.23" y="36.8" width="5.36" height="1.46"/><rect class="cls-1" x="26.8" y="36.8" width="3.24" height="1.46"/><rect class="cls-1" x="29.52" y="36.8" width="14.69" height="1.46"/><rect class="cls-1" x="42.04" y="36.8" width="8.38" height="1.46"/><rect class="cls-1" x="49.21" y="36.8" width="11.95" height="1.46"/><path class="cls-1" d="M3.94,53.6c-2.17,0-3.94-1.87-3.94-4.18s1.77-4.18,3.94-4.18,3.94,1.87,3.94,4.18-1.77,4.18-3.94,4.18Zm0-6.9c-1.41,0-2.57,1.22-2.57,2.72s1.15,2.72,2.57,2.72,2.57-1.22,2.57-2.72-1.15-2.72-2.57-2.72Z"/><rect class="cls-1" x="51.13" y="20.86" width="6.51" height="1.46"/><rect class="cls-1" x="45.4" y="20.86" width="6.78" height="1.46"/><rect class="cls-1" x="29.5" y="20.86" width="16.72" height="1.46"/><path class="cls-1" d="M31.92,22.31h-10.05c-.88,0-1.69-.47-2.16-1.27l-1.36-2.3c-.22-.37-.59-.59-1-.59h-.91v-1.46h.91c.88,0,1.69,.47,2.16,1.27l1.36,2.3c.22,.37,.59,.59,1,.59h10.05v1.46Z"/><rect class="cls-1" x="11.05" y="16.7" width="4.04" height="1.46"/><path class="cls-1" d="M7.8,21.61c-2.17,0-3.94-1.88-3.94-4.18s1.77-4.18,3.94-4.18,3.94,1.88,3.94,4.18-1.77,4.18-3.94,4.18Zm0-6.9c-1.41,0-2.57,1.22-2.57,2.72s1.15,2.72,2.57,2.72,2.57-1.22,2.57-2.72-1.15-2.72-2.57-2.72Z"/><path class="cls-1" d="M17.17,41.54c-2.17,0-3.94-1.88-3.94-4.18s1.77-4.18,3.94-4.18,3.94,1.88,3.94,4.18-1.77,4.18-3.94,4.18Zm0-6.9c-1.41,0-2.57,1.22-2.57,2.72s1.15,2.72,2.57,2.72,2.57-1.22,2.57-2.72-1.15-2.72-2.57-2.72Z"/><path class="cls-1" d="M18.35,8.36c-2.17,0-3.94-1.88-3.94-4.18s1.77-4.18,3.94-4.18,3.94,1.88,3.94,4.18-1.77,4.18-3.94,4.18Zm0-6.9c-1.41,0-2.57,1.22-2.57,2.72s1.15,2.72,2.57,2.72,2.57-1.22,2.57-2.72-1.15-2.72-2.57-2.72Z"/><rect class="cls-1" x="29.36" y="55.46" width="1.37" height="15.41"/><path class="cls-1" d="M11.89,71.92c-2.17,0-3.94-1.87-3.94-4.18s1.77-4.18,3.94-4.18,3.94,1.87,3.94,4.18-1.77,4.18-3.94,4.18Zm0-6.9c-1.41,0-2.57,1.22-2.57,2.72s1.15,2.72,2.57,2.72,2.57-1.22,2.57-2.72-1.15-2.72-2.57-2.72Z"/><path class="cls-1" d="M18.02,54.19h-1.94c-.78,0-1.5-.37-1.99-1.01l-1.94-2.57c-.23-.3-.56-.47-.92-.47H7.19v-1.46h4.03c.78,0,1.5,.37,1.99,1.01l1.94,2.57c.23,.3,.56,.47,.92,.47h1.94v1.46Z"/><rect class="cls-1" x="19.48" y="52.73" width="4.69" height="1.46"/><rect class="cls-1" x="23.41" y="52.73" width="8.23" height="1.46"/><rect class="cls-1" x="30.64" y="52.73" width="12.96" height="1.46"/><rect class="cls-1" x="42.59" y="52.73" width="8.83" height="1.46"/><rect class="cls-1" x="50.76" y="52.73" width="6.85" height="1.46"/><rect class="cls-1" x="21.6" y="3.45" width="3.15" height="1.46"/><path class="cls-1" d="M30.17,71.6h-6.14c-.68,0-1.32-.28-1.81-.79l-1.85-1.96c-.22-.23-.53-.37-.84-.37h-4.4v-1.46h4.4c.67,0,1.33,.29,1.81,.79l1.85,1.96c.22,.23,.53,.37,.84,.37h6.14c16.88,0,30.61-14.63,30.61-32.62S47.04,4.91,30.17,4.91h-4.01v-1.46h4.01c17.63,0,31.98,15.29,31.98,34.07s-14.34,34.07-31.98,34.07Z"/></svg>