<?xml version="1.0" encoding="UTF-8"?><svg id="Layer_1" xmlns="http://www.w3.org/2000/svg" viewBox="0 0 81.18 69.15"><defs><style>.cls-1{fill:#424242;}</style></defs><g><path class="cls-1" d="M73.1,48.48h-19.11c-.37,0-.69-.25-.78-.61l-7.28-29.81c-.06-.24,0-.49,.15-.68,.15-.19,.38-.31,.63-.31h33.67c.25,0,.48,.11,.63,.31,.15,.19,.21,.44,.15,.68l-7.28,29.81c-.09,.36-.41,.61-.78,.61Zm-18.48-1.6h17.86l6.89-28.21h-31.64l6.89,28.21Z"/><path class="cls-1" d="M80.38,15.14H46.7c-.44,0-.8-.36-.8-.8s.36-.8,.8-.8h33.67c.44,0,.8,.36,.8,.8s-.36,.8-.8,.8Z"/><path class="cls-1" d="M68.29,11.6c-.44,0-.8-.36-.8-.8v-1.22h-7.9v1.22c0,.44-.36,.8-.8,.8s-.8-.36-.8-.8v-2.02c0-.44,.36-.8,.8-.8h9.49c.44,0,.8,.36,.8,.8v2.02c0,.44-.36,.8-.8,.8Z"/><path class="cls-1" d="M63.54,43.69c-.44,0-.8-.36-.8-.8V22.68c0-.44,.36-.8,.8-.8s.8,.36,.8,.8v20.21c0,.44-.36,.8-.8,.8Z"/><path class="cls-1" d="M69.7,43.69c-.05,0-.11,0-.16-.02-.43-.09-.71-.51-.62-.94l4.1-20.21c.09-.43,.51-.71,.94-.62,.43,.09,.71,.51,.62,.94l-4.1,20.21c-.08,.38-.41,.64-.78,.64Z"/><path class="cls-1" d="M57.38,43.69c-.37,0-.7-.26-.78-.64l-4.1-20.21c-.09-.43,.19-.85,.62-.94,.43-.09,.85,.19,.94,.62l4.1,20.21c.09,.43-.19,.85-.62,.94-.05,.01-.11,.02-.16,.02Z"/></g><g><path class="cls-1" d="M13.77,31.82L.42,18.47c-.27-.27-.42-.63-.42-1.01s.15-.74,.42-1.01L16.45,.42c.27-.27,.63-.42,1.01-.42s.74,.15,1.01,.42l13.35,13.35L13.77,31.82ZM1.68,17.46l12.09,12.09,15.78-15.78L17.46,1.68,1.68,17.46Z"/><path class="cls-1" d="M11.93,23.69l-4.39-4.39,4.39-4.39,4.39,4.39-4.39,4.39Zm-2.12-4.39l2.12,2.12,2.12-2.12-2.12-2.12-2.12,2.12Z"/><path class="cls-1" d="M19.3,16.33l-4.39-4.39,4.39-4.39,4.39,4.39-4.39,4.39Zm-2.12-4.39l2.12,2.12,2.12-2.12-2.12-2.12-2.12,2.12Z"/><rect class="cls-1" x="10.43" y="25.67" width="32.1" height="1.6" transform="translate(-10.97 26.47) rotate(-45)"/><path class="cls-1" d="M52.31,69.15c-4.31,0-8.63-1.64-11.91-4.93L14.38,38.21l-1.4-7.38,1.58-.3,1.31,6.89,25.66,25.66c5.94,5.94,15.62,5.94,21.56,0,3.91-3.91,5.39-9.64,3.88-14.97l1.54-.44c1.68,5.88,.03,12.22-4.29,16.54-3.28,3.28-7.6,4.93-11.91,4.93Z"/><polygon class="cls-1" points="48.27 26.7 37.43 15.87 30.54 14.56 30.84 12.98 38.21 14.38 49.4 25.57 48.27 26.7"/></g></svg>