<?xml version="1.0" encoding="UTF-8"?><svg id="Layer_1" xmlns="http://www.w3.org/2000/svg" viewBox="0 0 79.32 67.32"><defs><style>.cls-1{fill:#005352;}</style></defs><path class="cls-1" d="M62.71,49.14c-.09,0-.18-.02-.27-.04-5.41-1.86-12.47-7.14-14.59-15.86-2.46-10.11-1.61-15.61-1.57-15.84,.05-.31,.28-.57,.58-.66,.08-.02,1.96-.58,7.31-1.95,5.66-1.46,8.27-1.99,8.38-2.01,.11-.02,.22-.02,.32,0,.11,.02,2.72,.55,8.38,2.01,5.34,1.38,7.23,1.93,7.31,1.95,.3,.09,.53,.34,.58,.66,.04,.23,.89,5.73-1.57,15.84-2.12,8.72-9.19,14-14.59,15.86-.09,.03-.18,.04-.27,.04Zm-14.87-30.97c-.14,1.55-.36,6.63,1.6,14.68,1.93,7.94,8.29,12.79,13.27,14.6,4.98-1.81,11.34-6.66,13.27-14.6,1.95-8.05,1.74-13.12,1.6-14.68-.88-.25-2.95-.81-6.73-1.79-4.84-1.25-7.48-1.82-8.13-1.96-.65,.14-3.3,.71-8.13,1.96-3.79,.97-5.85,1.54-6.73,1.79Z"/><g><path class="cls-1" d="M13.41,30.98L.41,17.98c-.26-.26-.41-.61-.41-.98s.14-.72,.41-.98L16.01,.41c.26-.26,.61-.41,.98-.41s.72,.14,.98,.41l13,13L13.41,30.98ZM1.63,17l11.77,11.77,15.36-15.36L17,1.63,1.63,17Z"/><path class="cls-1" d="M11.62,23.06l-4.28-4.28,4.28-4.28,4.28,4.28-4.28,4.28Zm-2.07-4.28l2.07,2.07,2.07-2.07-2.07-2.07-2.07,2.07Z"/><path class="cls-1" d="M18.78,15.89l-4.28-4.28,4.28-4.28,4.28,4.28-4.28,4.28Zm-2.07-4.28l2.07,2.07,2.07-2.07-2.07-2.07-2.07,2.07Z"/><rect class="cls-1" x="10.15" y="24.99" width="31.24" height="1.56" transform="translate(-10.67 25.77) rotate(-45)"/><path class="cls-1" d="M50.92,67.32c-4.2,0-8.4-1.6-11.6-4.8L14,37.2l-1.36-7.18,1.53-.29,1.27,6.71,24.98,24.98c5.79,5.79,15.2,5.79,20.99,0,3.8-3.8,5.25-9.39,3.77-14.57l1.5-.43c1.63,5.73,.03,11.9-4.17,16.1-3.2,3.2-7.4,4.8-11.6,4.8Z"/><polygon class="cls-1" points="46.99 26 36.43 15.45 29.73 14.17 30.02 12.64 37.2 14 48.09 24.89 46.99 26"/></g></svg>