<?xml version="1.0" encoding="UTF-8"?>
<svg id="Layer_1" xmlns="http://www.w3.org/2000/svg" xmlns:xlink="http://www.w3.org/1999/xlink"
     viewBox="0 0 90.94 66.77">
    <defs>
        <style>
            ".cls-1{mask:url(#mask-11);}.cls-2{mask:url(#mask-10);}.cls-3{mask:url(#mask);}.cls-4{fill-rule:evenodd;}.cls-5{mask:url(#mask-3);}.cls-6{mask:url(#mask-2);}.cls-7{mask:url(#mask-5);}.cls-8{mask:url(#mask-4);}.cls-9{mask:url(#mask-1);}.cls-10{mask:url(#mask-7);}.cls-11{mask:url(#mask-6);}.cls-12{mask:url(#mask-8);}.cls-13{mask:url(#mask-9);}"
        </style>
        <mask id="mask" x="0" width="311.81" height="66.77" maskUnits="userSpaceOnUse"/>
        <mask id="mask-1" x="0" width="311.81" height="66.77" maskUnits="userSpaceOnUse"/>
        <mask id="mask-2" x="0" width="311.81" height="66.77" maskUnits="userSpaceOnUse"/>
        <mask id="mask-3" x="0" width="311.81" height="66.77" maskUnits="userSpaceOnUse"/>
        <mask id="mask-4" x="0" width="311.81" height="66.77" maskUnits="userSpaceOnUse"/>
        <mask id="mask-5" x="0" width="311.81" height="66.77" maskUnits="userSpaceOnUse"/>
        <mask id="mask-6" x="0" width="311.81" height="66.77" maskUnits="userSpaceOnUse"/>
        <mask id="mask-7" x="0" width="311.81" height="66.77" maskUnits="userSpaceOnUse"/>
        <mask id="mask-8" x="0" width="311.81" height="66.77" maskUnits="userSpaceOnUse"/>
        <mask id="mask-9" x="0" width="311.81" height="66.77" maskUnits="userSpaceOnUse"/>
        <mask id="mask-10" x="0" width="311.81" height="66.77" maskUnits="userSpaceOnUse"/>
        <mask id="mask-11" x="0" width="311.81" height="66.77" maskUnits="userSpaceOnUse"/>
    </defs>
    <g>
        <path class="cls-4"
              d="M30.7,53.51c-.05,.1-.14,.18-.24,.23m2.37-16.91c.25,0,.45-.2,.45-.45,0-.25-.2-.45-.44-.45,0,0,0,0,0,0-.25,0-.45,.2-.45,.45,0,0,0,0,0,0,0,.25,.2,.45,.45,.45"/>
        <g class="cls-3">
            <path class="cls-4"
                  d="M48.16,27.04h4.89v-8.61h-4.89v8.61Zm4.89,4.09c-.09,.93-.4,1.7-1.04,2.14l-3.85,2.3v-8.09h4.89v3.65Zm-9.84-4.09h4.51v-8.61h-4.51v8.61Zm4.51,8.79l-1.78,1.06h-.03c-.13,.11-.3,.16-.47,.17-.17,0-.34-.06-.47-.17l-1.76-1.06v-8.35h4.51v8.35h0Zm-6.34-8.79h1.39v-3.15h-1.39v3.15Zm1.39,8.53l-3.85-2.3c-.64-.44-.96-1.21-1.04-2.14v-3.65h4.89v8.09h0Zm-4.89-13.82h1.69v-3.32h-1.69v3.32Zm2.11-2.08l.2-.21-.12-.23,.26,.03,.16-.27,.15,.27,.26-.02-.12,.23,.2,.21-.25,.05v.28l-.24-.18-.24,.18v-.28l-.25-.05Zm1.2,3.47c-.01-.08-.12-.11-.17-.11-.15,0-.21,.25-.34,.26-.09,0-.16,.01-.16-.1,0-.08,.19-.15,.27-.22-1.04,0-1.06,.48-1.22,.48-.27,0,.23-.5,.37-.65-.21-.03-.33-.29-.56-.42,.11-.16,.17-.09,.31,.02,0-.11,.08-.24,.32-.24,.47,0,.33,.45,.41,.45s0-.45,.31-.45c.46,0,1.04,1.19,.51,1.19-.22,0-.04-.17-.05-.2h0Zm-1.12,2.54l.26,.03,.16-.27,.15,.27,.26-.02-.12,.23,.2,.21-.25,.05v.28l-.24-.18-.24,.18v-.28l-.25-.05,.2-.21-.12-.23h0Zm-1.9-3.21l.26,.03,.16-.27,.15,.27,.26-.02-.12,.23,.2,.21-.25,.05v.28l-.24-.18-.24,.18v-.28l-.25-.05,.2-.21-.12-.23Zm-.28,4.57h1.69v-3.15h-1.69v3.15Zm3.88-4.13l.2-.21-.12-.23,.26,.03,.15-.27,.15,.27,.26-.02-.12,.23,.2,.21-.25,.05v.28l-.24-.18-.24,.18v-.28l-.25-.05h0Zm-.38-1.16h1.39v-3.32h-1.39v3.32Zm12.12-3.76h0s-16.07,0-16.07,0h0s0,0,0,0v12.98c.01,1.25,.54,2.35,1.27,2.68l6.18,3.69c.27,.31,.74,.34,1.05,.07,0,0,0,0,.01,0l6.28-3.75c.73-.34,1.26-1.43,1.26-2.68v-12.97s.01,0,.01,0h0Z"/>
        </g>
        <g class="cls-9">
            <path class="cls-4"
                  d="M42.51,30.46c-.02-.05-.61,.19-.45,.18,.02-.17,.34-.53,.49-.66-.03-.2-.29-.02-.56,.12,.92-1.31,.33-.77-.18-.68,.82-.88,.6-.87,0-.59,.47-.37,.57-.82,.5-.95-.44,.59-.85,.5-.85,1.05,0,.36-.13,.96-.32,1.15-.24,.26-.06-.97-.68-.97-.2,0-.67-.02-.82,.23,.13,0,.32,.33,.32,.46s.12,.49-.1,.49-.46-.45-.46-.67-.01-.17-.01-.48c0-.52-.84-1.25-1.19-1.25,0,.36,.47,.45,.47,.91-.2,0-.49-.37-.49-.14s.3,.27,.3,.47-.34-.07-.34,.15c0,.19,.19,.16,.23,.34-.14-.04-.27-.02-.29,.05-.02,.06,.04,.14,.15,.2-.05,.04-.09,.15-.09,.46,0,1.03,.64,1.5,1.11,1.5,.34,0,.28-.23,.32-.35,.01,.18,.18-.08,.18,.22s-.33,.18-.33,.45c0,.36,.52-.01,.52,.39,0,.49-.06,.48-.06,.67,0,.13,.54-.18,.51-.24,.13,.05,.12,.43,.36,.42,.16,0,.19-.39,.31-.43-.07,.02,.49,.36,.49,.19,0-.48-.19-.28-.19-.6,0-.3,.66-.24,.56-.4-.09-.13-.15-.05-.22-.28,.01,.04-.52-.76,.11-.35,.66,.43,.74-1.01,.7-1.08m17.14,3.39c.29,0,.53-.21,.53-.46s-.24-.47-.53-.47-.53,.21-.53,.47,.24,.46,.53,.46m-2.14,1.27c.29,0,.53-.21,.53-.46s-.24-.47-.53-.47-.53,.21-.53,.47,.24,.46,.53,.46m-25.39,2.93c.29,0,.53-.21,.53-.46s-.24-.47-.53-.47-.53,.21-.53,.47,.24,.46,.53,.46m1.65,.14c.29,0,.53-.21,.53-.47s-.24-.46-.53-.46-.53,.21-.53,.46,.24,.47,.53,.47m45.72-22.16c.79,.93,.95,2.43,.39,3.5-.31-.03-.25-.42-.31-.65-.56-1.04-1.01-2.37-.5-3.55,.37,.06,.22,.51,.42,.7m-67.08,1.27c-.17,.68-.17,1.61,0,2.23-.14,.14-.11-.14-.25-.11-1.09-.79-.59-2.34-.87-3.44,.06-.08,.2-.11,.28-.06,.5,.34,.73,.82,.84,1.38m69.5,.08c.17,.31-.14,.62-.37,.76-.25,.06-.53-.08-.7-.31-.09-.31,.08-.59,.34-.74,.28-.03,.56,.03,.73,.28m-71.2,1.24c-.06,.25-.14,.51-.36,.62-.17,0-.42,0-.53-.14-.17-.14-.2-.4-.11-.59,.11-.2,.34-.23,.53-.25,.2,.09,.39,.14,.48,.37m72.3,.48c.06,.17,.06,.28,0,.45-.2,.25-.48,.37-.75,.25-.2-.11-.25-.31-.31-.48,.06-.23,.28-.42,.47-.51,.25,0,.42,.14,.59,.28m-1.6,.03c.23,.11,.06,.4,.03,.56-.14,.14-.33,.36-.59,.28-.14-.14-.31-.14-.36-.34,0-.28,.11-.56,.39-.65,.22-.06,.36,.06,.53,.14m-2.04,.42c0,.31,.03,.71-.34,.76-.34,.11-.56-.17-.64-.4-.02-.29,.15-.57,.42-.68,.22,0,.42,.14,.56,.31m-65.6,.14c.09,.28-.2,.45-.36,.59-.2,.06-.45-.11-.56-.31-.19-.2,.06-.37,.11-.54,.28-.25,.7-.06,.81,.26m-1.68,.09c0,.22-.11,.45-.31,.54-.23,.08-.45-.08-.56-.26-.14-.28,.03-.53,.25-.65,.31-.11,.51,.17,.62,.37m60.5,.11c.28,.59,.5,1.3,.56,2.03-.11,.54,.08,1.24-.31,1.61-.39-.14-.42-.62-.67-.87-.5-.99-.06-2.14,.11-3.11,.22-.08,.22,.2,.31,.34m-61.82,.34c.08,.34-.17,.51-.36,.7-.34,.09-.56-.17-.7-.4-.02-.28,.12-.54,.36-.68,.29-.03,.56,.12,.7,.37m66.24,.82c.37,.82,.39,1.81,.14,2.71l-.17,.14c-.39-.76-.95-1.47-1.15-2.28,0-.59,.11-1.13,.34-1.61,.19-.14,.31,.03,.39,.2,.03,.31,.17,.68,.45,.85m3.53-.51c-.03,.28-.14,.59-.42,.68-.28,.06-.56-.03-.64-.34-.08-.28,.08-.54,.31-.68,.31-.17,.62,.11,.76,.34m-68.43,.88c-.02,.25-.18,.46-.42,.54-.22,.17-.39-.11-.59-.2-.08-.23-.14-.42,0-.65,.08-.17,.28-.17,.45-.23,.25,.14,.5,.26,.56,.54m1.23-.14c.11,.28-.2,.42-.31,.57-.34,.11-.5-.14-.64-.34-.06-.28,.11-.45,.31-.62,.34-.08,.5,.14,.64,.4m67.98-.09c-.03,.37-.59,.73-.65,1.1-.31,.76-.98,1.33-1.74,1.58-.17,.14-.39,.34-.64,.37-.06-.56,.45-1.07,.75-1.58,.59-.76,1.4-1.24,2.27-1.47m-69.77,1.19c.42,.48,.64,.9,1.15,1.33,.03,.11-.06,.28-.2,.28-1.37-.08-2.3-1.5-2.97-2.48,.08-.31,.45-.06,.65-.08,.48,.37,1.01,.48,1.37,.96m70.17,.4c-.06,1.21-.64,2.45-1.74,3.05-.31,.11-.64,.42-.95,.23,.59-1.21,1.49-2.2,2.47-3.27h.22Zm-5.38,.82c.08,.42-.14,.68-.48,.82-.31,.03-.5-.23-.64-.45-.03-.27,.13-.53,.39-.62,.08-.09,.22-.09,.34-.09,.17,.06,.25,.2,.39,.34m-66.33,.26c.53,.37,1.01,.87,1.51,1.33-.36,.25-.81,.03-1.23,.03-.95-.34-1.6-1.16-2.58-1.44,.03-.31,.39-.2,.59-.28,.62-.06,1.12,.23,1.71,.37"/>
        </g>
        <g class="cls-6">
            <path class="cls-4"
                  d="M40,15.5c-1.57-.62-2.61,1.02-4.2,.82-.2,.11-.14,.31-.25,.45-.08,.08-.23,.03-.31-.03-.08-.68-.31-1.3-.39-1.95-.17-.28-.08-.68-.22-.96-.9-2.45,2.19-.59,2.8-2.03,.53-1.24-1.04-1.38-1.51-2.26v-.37c-.45-.45-.93-.59-1.21-1.18,.2-.71,.28-1.47,.08-2.17-.03-.17-.14-.4-.39-.31-.53,.73-.93,1.33-1.43,2.03-.53-.4-1.04-.9-1.65-1.24-.42-.06-.81-.48-1.29-.31-.08,.17,0,.31,.09,.42,.03,1.1,.59,1.98,1.37,2.76l.08,.43c-.5,1.16-.36,2.48-.5,3.72-1.26,3.22-3.31,6.32-6.08,8.55-1.6,1.81-3.51,3.56-3.76,6.04-.08,.4,.06,.87-.25,1.16-.93-.34-1.85-.79-2.61-1.38-1.29-.91-3.14-.79-3.98-2.43-.34-.65,.09-1.3,.39-1.78,.95-.9,.81-2.51,.31-3.61-.11-.03-.14,.11-.22,.14-.09,1.67-1.4,2.82-.9,4.66,.11,.53,.39,.87,.53,1.38-.2-.06-.48-.06-.65-.14-.62-.08-1.23-.34-1.88-.26-1.29,.59-3.05-.14-4.09,1.05-.17,.03-.39,.06-.33,.31,.62,0,1.2,.17,1.82,.14,.98,.17,1.63-.65,2.3-1.02h.17c.28-.28,.76-.11,1.12-.17,1.76,.2,3.14,1.05,4.6,1.92v.11c-.56,.25-1.2,.42-1.77,.73-.64,.48-1.37,1.1-1.57,1.89-.45,.71,.14,1.33,.42,1.92,.03,.28,.06,.62,.31,.73,.9-.96,.06-2.15,.2-3.25,.22-.85,1.01-1.24,1.82-1.47,1.6-.68,2.75,.62,4.03,1.35-.03,1.3,.14,2.54-.14,3.81-.39,.14-.9,.22-1.32,.2-2.21,.17-3.95,1.38-5.94,2.06-.89,.31-1.96,.28-2.86,.62,.7,.2,1.43-.06,2.16-.08,2.74-.4,4.85-2.51,7.82-2.14l.06,.09c-.33,.7-.78,1.3-1.32,1.83-.08-.31-.11-.57-.39-.74-.22-.11-.48,0-.64,.23-.08,.14-.08,.31,0,.42,.14,.25,.36,.31,.62,.4-.06,.25-.37,.37-.53,.59-.79,1.33-2.38,.79-3.31,1.72-.14,.2-.64,.31-.42,.62,1.06,.11,2.1-.17,2.88-.73,1.04-1.16,2.13-2.26,3.17-3.36,.17,.9-.09,1.84-.62,2.57-.25-.14-.45-.34-.76-.42-.28,.06-.48,.34-.5,.56,.11,.2,.22,.42,.42,.56-.95,.68-2.16,.73-3.25,1.04-2.04,.25-4.03,.42-6.11,.45-.98-.06-2.1,.28-3.03,0-1.07,.2-2.22-.14-3.08,.45-.11,.14,.03,.28,.03,.42,1.29,.85,3.06,.17,4.51,.42h11.04c.81-.03,1.63-.06,2.27-.42,1.43-.82,2.22-2.29,2.94-3.73,.28-.53,.48-1.1,.59-1.69,.29-.95,1.12-1.63,2.1-1.72,.14,1.47-.14,2.94-.48,4.29-.17,.9-.76,1.78-.39,2.74,.08,.45,.56,.45,.92,.51,3.39-.06,6.78-.2,10.37,.06,.65,.11,1.21,.31,1.91,.28,.06-.08,.25-.11,.17-.28-.08-.31-.31-.71-.67-.79-.05-.17-.31-.11-.39-.23-1.79-1.02-3.95-.48-6.05-.45-1.09,.11-2.19,.31-3.11-.31-.42-.51-.11-2.12-.11-2.12,0-.64,1.54-5.08,1.74-5.45,.06-.42,.22-.82,.17-1.3,.22-.56,.17-1.3,.17-1.92,.11-.9,.56-1.75,.87-2.62,.17-.42,.31-.87,.48-1.3,.17-.54,.22-1.04,.56-1.47,.92,.58,1.81,.56,2.25,1.6l.39,2.35c0,.14,.11,.42,.31,.26,.73-.48,.51-1.55,.51-2.29,.17-.88-.45-1.3-.7-2.06-.2-.14-.52-.81-.52-.81-.11-.62-1.47-1.05-1.16-1.81,.17-.65,.33-1.24,.95-1.61,.09,.06,.13,.13,.14,.2l.33-.24,.04-2.36c.91,0,2.26,.11,3.19,.11,.25,.08,.45,.28,.73,.31l.22-.31,2.27-.44c-.96,.11-1.55-1-2.47-1"/>
        </g>
        <g class="cls-5">
            <path class="cls-4"
                  d="M42.46,16.5c.07,0,.14-.02,.21-.04l-.21,.04Zm-24.41,7.86c.03,.34-.17,.54-.42,.65-.22-.08-.39-.11-.53-.34-.11-.31,.17-.54,.39-.65,.23,.06,.5,.08,.56,.34m-1.82,0c.17,.17,.2,.45,.11,.65-.19,.17-.5,.31-.67,.09-.17-.17-.34-.37-.19-.59,.19-.2,.53-.37,.76-.14m39.01,.31l.02,.04m21.33,.44c.11,.31-.14,.54-.36,.65-.28-.09-.64-.14-.64-.51,.03-.23,.22-.37,.42-.42,.25-.08,.48,.11,.59,.28m1.49-.06c.08,.14,.28,.37,.05,.51-.11,.09-.2,.11-.28,.23-.31,.06-.59-.06-.67-.34-.06-.31,.19-.45,.42-.59,.19-.06,.34,.09,.48,.2m-68.88,.34c-.11,.34-.39,.48-.75,.37-.1-.11-.17-.23-.23-.37,.03-.2,.09-.4,.31-.48,.34,.03,.59,.17,.67,.48m9.45,.48c-.03,.22-.28,.42-.48,.54-.28,.03-.48-.2-.62-.4,0-.23,.11-.51,.33-.56,.31-.11,.65,.11,.76,.42m-1.65-.2c.08,.08,.17,.31,.08,.45-.17,.14-.42,.4-.7,.22-.17-.14-.37-.25-.31-.54,.11-.11,.25-.28,.42-.34,.22-.06,.33,.08,.5,.2m65.38,.34c0,.22-.22,.45-.36,.54-.22,.09-.48,.03-.62-.14-.17-.06-.11-.28-.11-.42,.13-.18,.32-.31,.53-.37,.25,.06,.42,.23,.56,.4m1.79,.25c-.08,.25-.28,.48-.53,.51-.17-.03-.48-.08-.42-.34,0-.2,.11-.4,.25-.45,.28-.14,.62,0,.7,.28m-71.76,.4c.06,.34-.06,.56-.34,.68-.19,.11-.39-.03-.53-.14-.14-.14-.25-.37-.14-.57,.05-.25,.31-.2,.48-.31,.25,.03,.39,.14,.53,.34m1.37,.25c.08,.23-.17,.31-.22,.48-.14,.09-.34,.17-.5,.06-.2-.17-.42-.42-.22-.68,.22-.42,.81-.2,.95,.14m66.94-.14c.03,.28-.22,.48-.39,.65-.25,.05-.49-.1-.56-.34-.03-.23,.11-.39,.31-.54,.25-.03,.5,0,.64,.23m2.3,.45c-.06,.26-.03,.54-.31,.7-.23,.06-.5,.03-.67-.11-.17-.14-.19-.4-.11-.59,.14-.23,.39-.4,.67-.34,.2,.11,.25,.26,.42,.34m-71.68,.59c.11,.23-.14,.28-.23,.4-.2,.11-.39,.03-.56-.06-.2-.11-.11-.39-.08-.54,.25-.48,.76-.14,.87,.2m69.91,.54c.11,.03,.06,.2,.03,.25-.67,.34-1.68,.42-2.27-.11-.34-.28-.75-.4-1.12-.62,.14-.37,.64-.34,1.01-.42,.81,.11,1.46,.87,2.35,.9m-68.57-.25c.06,.22-.11,.31-.17,.48-.11,.17-.34,.11-.48,.06-.25-.17-.36-.48-.2-.71,.31-.31,.67-.14,.84,.17m2.47,.17c.11,.25-.05,.48-.28,.62-.2,.11-.36-.05-.53-.08-.14-.2-.39-.42-.14-.65,.25-.42,.76-.2,.95,.11m32.4,1.19c-.05,.56-.98-.08-.85,.67,.13,.54,.24,1.18,.56,1.58,.27,.38,.13,.96,.11,1.42-.24,.4-.64,.7-1.07,.91-.8-.08-1.97,.4-2.34-.59-.16-.43-.45-.86-.45-1.34,.08-.06,.19-.06,.27-.14,0-.19-.21-.29-.19-.48,.9-.16-.37-.97,.4-1.02,.64,.67,1.68,.46,2.24,1.18,.13,.11,.24,.27,.4,.35-.11-.67-.43-1.34-.53-2.06-.08-.38,.05-.72,.32-.94,.48-.38,.88,.16,1.14,.45m-29.93-.18c.08,.28-.14,.45-.31,.59-.25,.11-.39-.17-.51-.31-.09-.28,.11-.42,.28-.56,.2,0,.42,.09,.53,.28m17.29,.28c.34,1.1,.22,2.23-.34,3.16-.03,.22,.06,.59-.25,.56-.76-1.04-.2-2.51,.11-3.61,.06-.28,.39-.4,.48-.11m23.99,.54c.39,.79,.42,1.83,.06,2.62l-.22,.23c-.31-.65-.56-1.3-.64-2,.14-.51,.31-.96,.33-1.5,.4-.08,.37,.42,.48,.65m-39.09,.31c-.17,.34-.64,.42-.95,.65-.67,.51-1.65,.62-2.49,.48,.73-1.02,1.85-1.61,3.19-1.33,.06,.11,.2,.06,.25,.2m-11.52,1.02c1.04,.73,1.32,1.75,1.93,2.76,.08,.11,.36,.14,.25,.37-.22,.17-.45-.17-.76-.11-1.06-.48-1.74-1.66-1.71-2.91,0-.11,.17-.11,.28-.11m49.51,.87c.03,.28-.03,.57-.25,.65-.27,.09-.56-.06-.64-.33,0,0,0,0,0,0-.08-.2,.08-.31,.14-.45,.22-.23,.62-.11,.76,.14"/>
        </g>
        <g class="cls-8">
            <path class="cls-4"
                  d="M69.62,33.84c0-.54,.14-1.04,.19-1.55,.08-.17,.14-.37,.11-.59,.67-.9,2.05-.62,3.11-.54,.42,.23,.95,.2,1.4,.31,.2-.14,.48-.17,.7-.14,.9-.48,.31-1.52,.36-2.34l-.34-.85c-.09-.18-.17-.37-.23-.57-.17-.2-.28-.56-.45-.76-.48-1.24-1.4-1.95-2.19-2.93-1.43-1.86-3.67-2.91-5.91-3.64-2.21-.76-4.46,.23-6.45,.93-.62-.17-.92-.65-1.09-1.18-.1-1.03,.08-2.06,.53-2.99,.08-.71,.56-1.24,.76-1.89,.5-1.58,1.03-3.13,1.15-4.85,.06-1.04-.73-1.78-1.51-2.23-.53-.14-1.15-.11-1.54,.31-.37,.76-1.15,1.27-1.82,1.64-.06,.48,.53,.17,.73,.34,.62,.11,1.32-.08,1.82,.31,.06,1.13-.59,2.06-1.18,2.91-.95,1.41-1.96,2.85-2.55,4.4l-.11-.11,.14,6.9c.89,1.49,2.01,3.18,3.68,3.74,.9,.73,2.02,1.61,3.22,.96,.65-.2,.7,.71,1.01,1.07,.34,1.04-.42,1.78-.47,2.74l-.73,1.55c-.84,1.64-1.6,3.39-2.89,4.77-.42,0-.67,.45-1.09,.48-.22,.31-.67,.09-.95,.2-.87,.37-2.1,.14-2.69,.96,.05,.08,.14,.11,.22,.14,1.71,.03,3.62,.14,5.44,.06,.22-.08,.42-.28,.45-.54-.25-.48,.08-.9,.31-1.27,.14-.68,.59-1.1,.79-1.75,.59-1.16,1.26-2.29,1.9-3.44l.87-1.41c.2-.48,.53-1.07,.87-1.58,.22-.23,.34-.48,.5-.76,.03-.28-.11-.4-.28-.59,.2-.2,.51-.14,.76-.2,.7,.42,1.43,1.1,1.57,1.86l.25,.73,.11,.34-.06,.93,.11,.87c.14,1.35-.11,2.74-.25,4.09-.48,1.64-2.35,1.47-3.7,1.83-.34,.22-.98,.11-.98,.68,1.62,.34,3.53,.14,5.27,.11,.28-.11,.34-.37,.48-.62,.06-.37,.42-.68,.31-1.07-.31-.4-.03-1.02-.11-1.55,.06-.14,.06-.34,0-.54,.22-.82,.17-1.81,.33-2.6l.11-1.07Zm13.79-1.1c-.9,1.27-1.85,2.71-3.42,3.16-.11,0-.23,.05-.28-.09,.95-1.02,1.46-2.6,2.94-2.96,.22-.11,.53-.23,.75-.11m-76.5,1.38c-.14,.11-.03,.37-.28,.4-.22,.11-.47-.03-.59-.26-.11-.28,.14-.56,.36-.62,.22,.11,.45,.2,.5,.48m8.07,.4c.08,.25-.2,.25-.34,.31-1.18,.42-2.38,.03-3.22-.82,0-.11,0-.23,.11-.25,1.15,.28,2.5,.06,3.45,.76m-6.53-.37c.05,.11,.08,.31,.05,.42-.17,.25-.42,.31-.7,.25-.17-.08-.25-.2-.37-.37,.03-.28,.25-.45,.48-.54,.23,.03,.39,.08,.53,.22m26.25,.14c.06,.25-.17,.42-.33,.54-.22,.06-.46-.03-.59-.22-.08-.2,0-.48,.2-.54,.25-.06,.64-.03,.73,.23m49.77,.11c.09,.28-.17,.42-.36,.59-.17,.09-.36,0-.53-.09-.03-.14-.19-.25-.14-.45,.11-.25,.36-.37,.64-.34,.14,.11,.25,.14,.39,.28m1.85-.11c.17,.25,.03,.45-.11,.65-.1,.18-.32,.26-.51,.17-.17-.17-.39-.26-.42-.51,0-.23,.25-.4,.42-.48,.28-.11,.39,.17,.62,.17m-80.59,.82c.03,.2-.14,.31-.2,.48-.14,.06-.28,.17-.45,.11-.19-.09-.34-.25-.42-.45,.05-.27,.25-.48,.5-.56,.22,.06,.48,.17,.56,.42"/>
        </g>
        <g class="cls-7">
            <path class="cls-4"
                  d="M64.74,35.11c.06,.11,.03,.25,.03,.37-.17,.23-.39,.42-.67,.28-.17-.17-.37-.34-.28-.59,.23-.31,.7-.42,.93-.06m-54.5,.42c-.05,.2-.14,.4-.39,.42-.25,.03-.34-.2-.48-.31,0-.25-.03-.51,.22-.65,.34-.11,.64,.17,.64,.54m-2.69,.05c.08,.28-.11,.48-.28,.62-.34,.11-.62-.14-.76-.4,.03-.25,.22-.56,.5-.65,.25,0,.39,.28,.53,.42m59.04-.06c.06,.28-.03,.56-.31,.68-.34,.11-.62-.17-.76-.4,.14-.23,.17-.54,.5-.59,.25,0,.42,.11,.56,.31m-57.72,.11c.08,.2-.08,.28-.14,.42-.14,0-.22,.17-.39,.11-.11-.14-.34-.2-.36-.4-.03-.28,.17-.42,.36-.54,.28-.03,.45,.17,.53,.4m74.06,.23c-.08,.23-.25,.34-.48,.45-.22,.06-.36-.14-.53-.23-.14-.11-.09-.37-.03-.51,.28-.48,1.04-.26,1.04,.28m2.13,.11c-.08,.31-.39,.45-.67,.48-.25-.11-.53-.31-.34-.65,.11-.11,.17-.23,.34-.25,.34-.11,.59,.14,.67,.42m-13.31,.2c.14,.37-.19,.48-.42,.65-.19-.03-.37-.11-.53-.23-.06-.31,.1-.62,.39-.73,.25,0,.39,.11,.56,.31m-7.7,.34c.14,.06,.08,.25,.06,.34-.17,.11-.39,.4-.64,.23-.2-.11-.34-.28-.28-.54,.14-.31,.73-.34,.87-.03m1.57,.2c.03,.22-.03,.34-.22,.45-.2,.2-.42-.03-.62-.09-.06-.11-.11-.28-.03-.42,.09-.12,.22-.2,.36-.23,.2,.06,.42,.06,.51,.28m-47.55,.03c.17,.17-.03,.37-.06,.54-.14,.17-.45,.31-.7,.14-.28-.11-.25-.48-.19-.7,.17-.06,.17-.25,.39-.25,.25,.03,.39,.14,.56,.28m56.69,.11c.06,.28-.23,.4-.42,.45-.33,.11-.5-.14-.64-.37,0-.17,.17-.28,.22-.42,.39-.17,.64,.11,.84,.34m-1.51,0c.11,.28-.2,.42-.31,.57-.21,.09-.45,.05-.62-.11-.14-.08-.14-.26-.14-.42,.17-.14,.25-.31,.45-.36,.25,0,.5,.14,.62,.34m12.64,.34c.06,.4-.45,.2-.64,.31-1.18,.7-2.69,.17-3.81-.26,.09-.37,.5-.22,.73-.37,1.2-.76,2.44,.17,3.64,.23l.08,.08Zm-76.7-.34l-.11,.2c-1.04,.62-2.38,1.05-3.61,.65l-.11-.17c1.04-.76,2.41-.96,3.76-.76l.08,.08Zm68.43,.2c0,.23-.11,.42-.28,.54-.28,.09-.65,0-.73-.31-.08-.23,.14-.45,.37-.54,.2,0,.53,.03,.64,.31m-63.41,.11c-.11,.23-.05,.45-.34,.57-.28,.11-.62-.14-.7-.37-.08-.31,.14-.39,.28-.54,.34-.17,.59,.08,.76,.34m-1.99,.14c.08,.2-.08,.31-.14,.45-.14,.17-.39,.14-.56,.09-.19-.17-.39-.37-.31-.68,.17-.14,.25-.23,.45-.31,.25,.06,.5,.17,.56,.45m67.36,.65c-.03,.25-.21,.45-.45,.51-.23,.03-.42-.14-.53-.28-.09-.18-.04-.41,.11-.54,.05-.08,.25-.08,.36-.14,.25,.03,.45,.21,.51,.45m-69.44-.31c.08,.23-.11,.31-.14,.48-.09,.48-.39,.79-.62,1.21-.53,.65-1.29,.65-2.05,.85l-.11-.23c.81-1.05,1.68-1.86,2.83-2.37l.08,.06Zm68.04,.62c.06,.34-.23,.4-.42,.53-.23,0-.45-.13-.56-.34-.08-.31,.19-.42,.36-.56,.28-.06,.53,.14,.62,.37m-64.81,0c-.03,.05,.03,.11,.08,.14-.03,.31-.25,.4-.42,.54-.24,0-.47-.1-.62-.28-.11-.26,0-.57,.28-.65,.25-.03,.59,0,.67,.26m69.97,.85c.28-.03,.34-.37,.65-.42,.28-.06,.53,.11,.67,.31,.11,.34-.14,.51-.36,.65-.2,.14-.62-.17-.59,.2,.2,.14,.36,.34,.39,.56-.06,.11-.25,.09-.33,.03-.81-.34-1.68-.9-2.02-1.75-.11-.25-.64-.45-.33-.68,.81-.06,1.48,.59,1.93,1.1m2.69-.88c.14,.14,.08,.4-.03,.54-.14,.28-.56,.17-.81,.14-.14-.14-.28-.28-.22-.51,.1-.16,.24-.29,.42-.37,.25-.06,.45,.06,.65,.2m-10.17,1.52c.25,.31,.5,.79,.61,1.13-.05,.09-.19,.06-.25,.06-.95-.54-2.19-1.13-2.55-2.26-.08-.11-.31-.26-.28-.45,.73-.14,1.43,.4,1.93,.79,.2,.28,.42,.42,.53,.73m-64.06-1.07c.11,.25-.11,.45-.25,.56-.31,.06-.48-.06-.65-.23-.19-.31,.17-.57,.4-.68,.22-.03,.36,.2,.5,.34m67.56,.65c.03,.17-.2,.28-.28,.4-.22,.03-.45,.11-.65-.09-.06-.14-.19-.37-.03-.51,.31-.4,.76-.09,.95,.2m6.98,.4c.08,.34-.17,.57-.39,.71-.28,.08-.5-.11-.67-.25-.14-.17-.03-.34,0-.54,.19-.17,.45-.31,.73-.2,.11,.08,.23,.14,.34,.28m-19.39,3.89c0,.34-.62,.25-.87,.51-.87,.45-1.91,.45-2.94,.42v-.17c1.01-.84,2.46-1.16,3.81-.76m-40.88,1.21c-.03,.26-.17,.4-.42,.48-.2,0-.38-.11-.48-.28-.11-.34,.17-.48,.37-.62,.25,.03,.48,.23,.53,.42m40.41,.31c-.06,.26-.14,.54-.42,.65-.25,.06-.42-.08-.62-.2-.14-.11-.06-.31-.08-.45,.2-.51,.92-.51,1.12,0m5.58,.11c-.7,.45-1.49,.99-2.41,.99l-1.51-.03-.14-.11c.93-1.13,2.61-1.13,4.06-1.02v.17Zm-53.66,.68c0,.26-.11,.45-.36,.54-.28,.06-.48-.06-.59-.25-.11-.26,0-.51,.23-.65,.31-.2,.62,.14,.73,.37m1.4,.28c.08,.14-.05,.23-.11,.37-.17,.08-.39,.14-.53,0-.2-.11-.25-.31-.17-.48,.09-.17,.25-.14,.34-.25,.19,.08,.39,.17,.47,.37m-10.73,2.85c-.28,.34-.73-.09-1.04-.26-.98-.56-.95-1.66-1.93-2.31,.11-.34,.36,.03,.56-.03,.17,.11,.39,.23,.59,.31,.95,.54,1.17,1.44,1.82,2.29"/>
        </g>
        <g class="cls-11">
            <path class="cls-4"
                  d="M46.16,48.54c-.11,.34-.34,.62-.31,.99l-.11,.06c.08-.42-.34-.68-.22-1.13-.23-.34-.23-.77-.42-1.13-.25-.45,.22-.65,.42-.96,.39,.17,.53,.54,.81,.87,.17,.48-.2,.85-.17,1.3m44.55-10.41c-.45-.82-1.21-1.16-2.1-1.16-.73,.06-1.26,.54-1.57,1.16-.17,.62,.06,1.19,.53,1.55,.2,.08,.45,.06,.56-.14,.14-.37-.25-.37-.31-.65-.11-.4,.03-.73,.31-.99,.28-.28,.76-.14,1.09-.14,.34,.23,.67,.42,.84,.82,.17,.48,.17,1.01,0,1.5-.31,.71-1.01,1.27-1.73,1.41-2.33,.34-27.86,.22-27.86,.22-3,.28-6.42-.56-8.99,1.02-1.18,.56-1.76,1.86-2.07,3.02-.76,.68-1.57,1.47-2.18,2.23l-.09-.08c.14-.68,.45-1.27,.59-1.95,.42-.57,.42-1.33,.73-1.95,1.07-1.72,2.07-3.47,3.73-4.68,.7-.93,1.93-.76,3-.76,1.15,.54,2.5,.7,3.9,.57,.06-.05,.09-.12,.08-.2-.39-.37-1.04-.51-1.48-.87-1.12-.54-2.19,.17-3.36,.09-.06-.06-.11-.09-.08-.17,1.07-.79,2.27-1.35,3.47-1.86,.98-.54,2.02-.82,3.05-1.21,.42,0,.81-.37,1.2-.11l1.49-.4c.06,.03,.11,.11,.22,.09,1.26-.42,2.86-.03,4.29-.05l.2,.17,1.34,.34c.5,.06,.73,.65,1.26,.68,.28-.39-.31-.56-.45-.82,.62-.14,1.32,.03,1.88,.28l-.28,.31c-.17,.31,.08,.54,.33,.65,.2,.06,.34-.09,.48-.14,.37-.25-.03-.51,.08-.73,2.07,.37,4.07,.88,5.97,1.69,.53,.17,1.04,.56,1.63,.54-.59-.54-1.4-.82-2.13-1.13-.48-.28-1.15-.31-1.51-.71,.08-.14,.28-.09,.37-.2,.95-.11,1.77-.82,2.44-1.58,.06-.17,.36-.11,.33-.34-.25-.28-.67,.09-1.01,.06-1.18,.22-1.68,1.61-2.86,1.86-1.43-.34-2.89-.68-4.32-1.04-.7-.11-1.46-.17-2.1-.45l-1.57-.14h-2.86c-.03-.06-.11-.08-.08-.17,1.01-.25,1.88-.85,2.89-1.1l7.51-3.44c.78-.7,1.48-1.5,2.13-2.31,.02-.23-.1-.44-.31-.54-.2-.08-.42-.06-.56,.11-.33,.26,0,.56,0,.88-.33,.45-.87,.85-1.29,1.1-.11-.03-7.73,3.47-7.73,3.47-1.12,.48-2.24,1.01-3.42,1.27l-1.63,.25c-.11,.34-.39,.54-.7,.65-.45,.09-.81,.37-1.29,.37-3.64,1.41-7.43,2.91-10.31,5.79,.17-.34,.25-.76,.28-1.19-.06-.42-.03-.9-.31-1.24-.06-.16-.27-.61-.2-.78l-.41,.27c-.25,.62-.48,1.75-.22,2.4,.08,.51,.5,1.1,.11,1.55-1.34,1.64-2.1,3.61-3,5.47-.34-.06-.51-.37-.65-.68,.95-1.21,1.71-2.57,1.99-4.12,.19-.14,.06-.51,.25-.68-.06-.45,.25-.9,.03-1.27,.18-.62-.82-1.19-.18-1.58l-.53,.25c-1.21,1.58,.63,3.95-.75,5.48v.11c-.39,.51-.59,1.02-1.12,1.35-.67-.28-.92-1.04-1.32-1.61-.62-.59-.62-1.81-.25-2.62,.25-.82-.17-1.53-.25-2.26l-.28-.17c-.67,.87-.93,2.26-.39,3.3,.28,.51,.31,1.21,.73,1.64,.25,.82,.75,1.35,1.2,2.09,.11,.28-.17,.34-.31,.48-.31-.2-.25-.65-.53-.85-.93-1.98-2.13-3.56-3.59-5.16-.06-.26-.31-.48-.17-.76,.53-.51,.65-1.5,.37-2.15-.06-.14-.22-.31-.2-.45l-.42-.34c.06,.99-.59,1.86-.31,2.91v.06c-2.91-2.19-6.03-4.08-9.33-5.64l-.26,.72c.82,.21,3,1.53,3,1.53,.98,.37,1.88,.96,2.8,1.5,3.81,2.12,6.33,5.61,8.04,9.51,.03,.31,.31,.65,.11,.96-.59-.9-1.43-1.41-2.13-2.14-.2-1.33-.98-2.6-2.13-3.13-.42-.62-1.32-.68-2.02-.88l-10.2-.06c-8.29-.11-15.86,.26-24.1,.11-1.15-.11-2.55-.51-2.89-1.72-.22-.42-.22-1.16,0-1.55,.31-.54,.87-.71,1.43-.76,.45,.06,.76,.48,.95,.79,0,.37-.31,.7-.45,1.02,.03,.11,.14,.34,.34,.25,.36-.14,.64-.54,.73-.9,.03-.2,.11-.48-.09-.62-.17-.59-.79-1.02-1.31-1.16-.7-.06-1.43,.14-1.91,.65-.67,.56-.64,1.58-.45,2.37,.45,1.24,1.76,2.09,3.03,2.26l27.27,.11c2.66,.14,5.66-.31,8.35,.23,.98,.31,2.02,1.04,2.27,2.14-.03,.06-.11,.03-.19,.03-2.22-1.44-5.13-1.98-7.96-1.64-1.12-.06-2.13,.37-3.14,.65-.53,.11-1.04-.14-1.37-.45-1.01-.9-2.77-.85-4.06-.51,0,.09-.03,.17,.03,.2,1.37-.11,2.19,1.07,3.42,1.21,.28,.06,.5-.25,.76-.03-1.29,.62-2.52,1.35-3.89,1.75-.42-.08-.65-.48-.98-.71-.53-.59-1.51-.34-2.24-.4-.25,.06-.48-.11-.65,0,.22,.45,.73,.7,1.21,.93,.7,.31,1.51-.03,2.16,.4-.17,.2-.39,.26-.59,.4-1.32,.51-2.41,1.69-3.87,1.61-1.54,.17-3.11-.28-4.15-1.36-.45-1.1-1.6-1.69-2.83-1.64-.08,.05-.19,.05-.17,.2,.62,.37,1.09,1.1,1.71,1.52,.39,.48,1.15,0,1.51,.54,.53,.37,1.21,.68,1.82,.79,.45,.2,.95,.28,1.46,.4l-.19,.11c-2.55,.85-5.49,.93-8.35,.82-.84-.03-1.65-.28-2.5-.26,.14,.17,.42,.31,.67,.4-.22,.14-.48,.2-.76,.23-.34,.09-.73,.11-1.07,.28-.45-.03-.84,.14-1.2,.28-.48,.51-1.04,1.05-1.6,1.3,0,.11-.03,.28,.11,.28,.53-.23,1.21-.06,1.74-.28,.92-.09,1.46-1.1,2.18-1.52,.78-.62,1.91-.48,2.86-.34,.56,.14-.06,.37,.11,.73,.23,.2,.42,.42,.73,.34,.05-.06,.12-.11,.2-.14,.17-.23,.14-.48,.03-.71,.39-.26,.93,.03,1.35-.14,1.07-.03,2.13-.26,3.17-.29,.17-.03,.36-.2,.53-.03-.08,.23-.36,.26-.25,.57,.05,.25,.34,.37,.56,.42,.28-.11,.53-.31,.42-.68-.06-.2-.28-.23-.42-.31,.59-.28,1.26-.37,1.85-.65,.41-.08,.8-.22,1.18-.4,.36-.03,.67-.37,1.01-.22-.14,.47-.34,.93-.59,1.35-.45,1.5-.78,3.47,0,4.91,.08,.03,.11-.03,.17-.06-.59-1.49-.25-3.22,.25-4.63,.39-2.4,2.86-3.11,4.62-4.01l.08,.11c-.47,1.24-1.17,2.43-1.06,3.92,.05,.25-.11,.51,0,.68,.47-.26,.78-.82,1.04-1.3,.2-1.27-.53-2.85,.76-3.78,2.3-.9,4.45-2.09,7.12-2.12,.08,.08,.28-.06,.31,.11-.56,.62-1.37,1.21-1.62,1.98-.9,1.24-.87,3.36-.48,4.88,.25,.88-.5,1.36-.87,2.03-.17,.24-.22,.65-.38,.92l.55,.06c.48-.51,.93-1.13,.95-1.86,.05,.28,.31,.51,.53,.57,.2-.31-.17-.54-.19-.85,.45-.26,.65,.31,1.01,.42,.59,.14,1.09,.4,1.71,.4l.2-.2c-.62-.96-1.85-1.13-2.91-1.19-.56-.93-.56-2.09-.5-3.22,.11-.59,.22-1.21,.56-1.75,.14-.39,.53-.76,.78-1.07,.49-.47,1.1-.8,1.77-.96h.08c0,.06,.03,.09,.03,.09-.76,.59-.84,1.41-1.29,2.14-.48,.7-.7,1.66-.25,2.45,.17,.37,.08,.93,.48,1.19,.36-.51,.39-1.16,.59-1.72-.08-.93-.64-1.81-.11-2.71,.28-.7,.87-.99,1.51-1.24,1.54-.14,2.89,.65,4.23,1.24,.28,.2,.76,.37,.81,.76-.03,.76-.45,1.52-1.04,1.89-.76,.45-1.85,.51-2.55-.03-.42-.42-.59-1.16-.45-1.72,.31-.34,.73-.62,1.23-.45,.28,.14,.53,.42,.9,.25,.14-.08,.2-.31,.11-.45-.31-.17-.42-.59-.84-.65-.53-.09-1.18-.06-1.54,.31-.57,.48-.82,1.25-.64,1.98,.2,.9,.87,1.55,1.74,1.81,1.29,.31,2.64-.09,3.45-1.19,.34-.37,.42-.76,.62-1.21,1.35,.82,2.36,2.26,2.89,3.73,0,.48,.14,.99,.03,1.41l.98,.09c-.08-.23,0-.48,.09-.68,.36-1.86,1.51-3.42,2.89-4.63,.48-.28,.36,.37,.48,.57,.42,1.07,1.4,1.83,2.44,2.14,1.18,.2,2.3-.08,3.02-.99,.36-.68,.81-1.67,.2-2.37-.37-.47-.94-.74-1.54-.73-.73,0-1.18,.51-1.54,1.05,0,.22-.03,.48,.17,.59,.11,0,.34,.03,.42-.14,.06-.43,.42-.62,.76-.85,.31-.17,.65,0,.9,.17,.31,.25,.37,.68,.39,1.1-.06,.54-.42,1.1-.92,1.33-.81,.42-1.99,.23-2.69-.25-.34-.37-.53-.79-.79-1.24-.05-.45-.22-.85,0-1.3,1.23-.73,2.52-1.27,4.01-1.41,.59,.11,1.09,.51,1.48,.93,1.29,1.33-.28,3.22,.62,4.68,.34-.05,.34-.51,.47-.79,.42-1.02-.11-2.12-.36-3.1-.34-.62-.53-1.16-1.06-1.67,.14-.06,.2-.06,.34-.06,.59,.39,1.23,.85,1.71,1.47,.85,1.39,1.23,3.01,1.09,4.63-.22,.84-1.12,1.24-1.82,1.55-.28,.23-.61,.56-.75,.9,.33,.2,.81,0,1.15-.14,.53-.2,.84-.88,1.21-1.19,.06,.03,.03,.11,.06,.17,.03,.31-.14,.73,.14,.82,.14-.4,.17-.96,.25-1.44,.36,.39,.42,.9,.53,1.41,.25,.51,.67,1.19,1.34,1.27,.17-.25-.03-.51-.08-.73-.08-.71-.67-1.07-1.06-1.58-.98-1.36-.53-3.47-1.29-5-.28-.82-.87-1.41-1.51-2.09l.11-.11c1.37-.03,2.52,.42,3.78,.68,1.54,.76,3.78,.59,4.51,2.6,.31,1.13,.81,2.17,1.6,3.05l.09-.06c.17-.28,.17-.76,0-1.05-.17-1.41-1.4-1.75-2.05-2.93l.08-.11c.67,.2,1.37,.37,2.05,.65,2.24,.62,3.81,2.82,4.09,5.11,0,1.8-.33,3.3-1.04,4.82-.08,.23-.48,.48-.23,.68,.31-.23,.37-.59,.53-.85,.92-1.55,1.4-3.7,.92-5.67-.03-.37-.45-.65-.25-1.02,.14,.17,.31,.2,.48,.25,.17-.11,.42-.11,.53-.31,.03-.17,.14-.37,0-.51-.17-.26-.53-.26-.81-.2-.14,.17-.31,.4-.34,.62-.28-.48-.56-1.1-1.01-1.49l.06-.09c1.26,.42,2.41,1.04,3.7,1.38,.28,.17,.59,.31,.98,.31,1.09,.42,2.3,.59,3.45,.87,.84-.08,1.54,.31,2.38,.11v-.06l-.03,.03c-.31-.4-.98-.03-1.34-.31-1.93-.2-3.78-.7-5.52-1.38,.03-.08,.14-.06,.22-.06,.28-.14,.48-.39,.45-.7-.14-.2-.36-.31-.65-.31-.17,.08-.39,.28-.42,.48,.03,.23,.22,.48,.42,.54-.05,.06-.17,.03-.25,.03-.87-.39-1.71-.76-2.55-1.16-.31-.06-.56-.31-.87-.37-.64-.31-1.29-.62-1.93-.87-1.79-.93-3.78-1.44-5.69-2.12-.42-.11-.81-.23-1.21-.34-.7-.2-1.4-.37-2.1-.56-2.38-.59-5.58-.65-7.65,.65-.34-.11-.53,.42-.7,.09,.59-1.55,2.3-2.06,3.84-2.12,11.24-.11,21.77-.2,32.84-.37,1.29,0,2.55-.45,3.22-1.61,.48-.68,.56-1.84,.19-2.6"/>
        </g>
        <g class="cls-10">
            <path class="cls-4"
                  d="M76.56,46.77c0,.08,.17,.11,.11,.25-.98,.88-2.35,1.13-3.75,1.19-.11,.03-.23,.11-.36,.08-.09-.06-.11-.14-.06-.2,1.01-1.1,2.55-1.67,4.06-1.33m-4.51,.45c.11,.4-.14,.62-.45,.76-.31-.03-.47-.23-.61-.45-.08-.22,.11-.34,.2-.48,.22-.23,.76-.23,.87,.17m-53.27,.06c.06,.2,.03,.45-.14,.59-.11,.14-.36,.17-.51,.14-.2-.03-.31-.25-.36-.42,0-.25,.14-.4,.36-.54,.22,0,.48-.03,.65,.23m-5.02,1.83v.2c-.64,.14-1.31-.01-1.82-.42-.39-.57-.84-1.13-1.48-1.41,0-.09-.17-.2,0-.26,1.4,0,2.24,1.13,3.31,1.89m67.06-1.86c-.65,.96-1.21,2.15-2.35,2.57-.19,0-.36,.28-.53,.08,.45-1.08,1.4-2.23,2.5-2.68,.11,0,.28-.03,.39,.03m-60.41,.34c.03,.31-.2,.37-.39,.54-.22,.03-.34-.14-.48-.31-.11-.28,.14-.4,.28-.54,.22-.06,.48,.11,.59,.31m63.95,.17c-.25,.37-.14,.9-.39,1.3-.56,.65-1.04,1.38-1.93,1.52-.14-.28,.2-.56,.34-.82,.39-.85,.95-1.81,1.85-2.17l.14,.17h0Zm-79.27,.26c.08,.2,.17,.4,0,.62-.18,.15-.42,.19-.64,.11-.24-.13-.34-.43-.22-.68,.17-.25,.67-.4,.87-.06m-1.6,.34c.03,.14,.11,.25,.08,.4-.08,.14-.22,.31-.39,.34-.31,.06-.5-.11-.64-.37-.03-.25,.06-.48,.28-.59,.25-.11,.53,.03,.67,.23m3.3,.17c.06,.23,.11,.62-.22,.68-.39,.17-.62-.11-.84-.34,0-.26,.14-.45,.34-.56,.28-.03,.53,0,.73,.23m4.6,.37c-.03,.2,.03,.48-.2,.54-.14,.14-.39,.09-.53,.06-.06-.17-.37-.31-.2-.51,.11-.14,.22-.22,.39-.31,.17,.09,.42,0,.53,.23m75.66,.2c-.08,.2-.2,.45-.42,.45-.25-.03-.5-.06-.64-.31-.11-.31,.14-.48,.36-.56,.28,0,.65,.11,.7,.42m-5.13,.14c.03,.23-.23,.4-.34,.48-.39,.17-.73-.11-.87-.42,.06-.25,.25-.42,.48-.51,.36-.03,.56,.17,.73,.45m3.47-.06c0,.19-.09,.37-.25,.48-.23,.08-.51,.06-.67-.11-.25-.23-.06-.42,.11-.59,.25-.14,.73-.11,.81,.23m-81.04,.48c.06,.31-.05,.59-.34,.7-.25,0-.53-.14-.62-.4-.03-.25,.05-.51,.28-.59,.28-.09,.5,.09,.67,.28m76.16,.31c.08,.31-.08,.59-.39,.73-.22,.06-.37-.06-.53-.2-.11-.14-.25-.45-.03-.59,.22-.42,.78-.25,.95,.06m-61.09,.31c.11,.31-.22,.37-.31,.54-.11,.06-.34,.09-.42-.03-.14-.17-.31-.34-.23-.59,.14-.11,.2-.23,.36-.28,.31-.08,.42,.2,.59,.37m67.11,.2c.06,.2-.11,.28-.14,.42-.17,.14-.45,.17-.64,.11-.25-.14-.25-.37-.25-.62,.17-.11,.2-.26,.39-.31,.25,0,.56,.11,.64,.4m-1.74,.08c.11,.34-.2,.51-.42,.59-.11,.03-.28-.06-.31,.11,.73,.37,1.18,.96,1.74,1.5v.23c-1.01-.03-2.05-.28-2.77-1.07-.2-.14-.53-.14-.76-.34,.37-.37,1.04-.22,1.54-.25,.36-.4-.42-.68,.06-1.01,.17-.03,.28-.2,.5-.14,.2,.09,.31,.23,.42,.4m-11.46,.03c.06,.14-.11,.31-.14,.45-.16,.16-.41,.2-.62,.11-.14-.2-.37-.37-.28-.65,.23-.42,.95-.34,1.04,.08m-62.66,.99c-.08,.25-.2,.42-.48,.45-.22-.03-.42-.11-.5-.34-.03-.2,.11-.31,.14-.45,.31-.25,.87-.09,.84,.34m2.27-.37c0,.4-.42,.62-.56,1.01-.42,.93-1.18,1.78-2.24,1.86-.11-.25,.36-.56,.48-.82,.45-.96,1.34-1.47,2.16-2.06h.17Zm59.71,.39c.03,.31-.25,.54-.48,.65-.25,.09-.45-.11-.59-.22-.22-.23-.08-.45,.03-.68,.34-.34,.81-.06,1.04,.25m1.74,.2c-.02,.29-.22,.54-.5,.62-.06-.09-.19-.03-.28-.06-.2-.11-.36-.28-.36-.51,.14-.14,.2-.37,.39-.4,.25-.03,.67,0,.76,.34m-57.11-.03c.03,.31-.19,.48-.42,.59-.25,.03-.42-.14-.53-.34-.06-.25,.19-.42,.34-.56,.34-.11,.42,.14,.62,.31m1.93,.11c-.09,.25-.25,.42-.53,.48-.19-.06-.42-.11-.51-.34-.03-.28,.2-.42,.39-.56,.28,0,.59,.11,.65,.42m61.2,1.98c.14,.11,.39,.25,.34,.45-.45,.2-.81-.31-1.23-.4-.67-.68-1.18-1.41-1.46-2.26,.25-.26,.53,.06,.76,.14,.64,.54,1.26,1.24,1.6,2.06m1.04-1.98c.08,.2,.06,.42-.06,.62-.17,.28-.53,.23-.78,.17-.14-.17-.39-.4-.22-.65,.08-.22,.34-.28,.53-.37,.2-.03,.34,.14,.53,.23m-59.66,.73c.03,.23,.08,.57-.2,.7-.25,.06-.59-.03-.67-.34-.14-.34,.17-.4,.34-.56,.22-.06,.36,.06,.53,.2m52.51,1.83c.41,.59,.67,1.28,.73,2.01-.08,.2,.14,.39-.03,.53h-.11c-1.26-.9-1.54-2.17-2.02-3.44-.11-.06-.14-.17-.11-.28,.28-.25,.48,.26,.76,.34l.79,.85Zm-48.87-.96s0,.06,.03,.06c-1.12,.79-2.69,1.27-3.98,.51-.03-.09,.03-.23,.14-.26,.81-.25,1.6-.65,2.47-.54l1.34,.23h0Zm-6.39,.14c-.95,.59-1.82,1.75-3,2.03-.23,.09-.37,.4-.64,.23,.5-1.52,2.16-2.34,3.64-2.48v.23h0Zm53.61,1.27c.08,.23,0,.54-.22,.59-.14,.14-.42,.14-.53,0-.25-.11-.25-.37-.25-.57,.08-.2,.28-.22,.42-.31,.25,.06,.45,.06,.59,.28m-2.32,.14c-.17,.4-.64,.62-1.01,.73-.95,.34-1.82-.11-2.66-.34,.03-.22,.31-.14,.45-.28,.92-.2,1.88-.39,2.86-.14,.09-.06,.28-.09,.36,.03m-51.28,.82c-.08,.11-.11,.37-.34,.45-.2,.08-.39,0-.56-.11-.06-.17-.25-.31-.11-.51,.06-.2,.28-.26,.45-.31,.28,.03,.51,.2,.56,.48m1.65,.25c-.08,.17-.17,.42-.39,.54-.23,.05-.39-.06-.56-.2-.08-.17-.17-.37-.08-.57,.06-.14,.25-.17,.39-.25,.28-.03,.53,.25,.64,.48m51.42,.28c.03,.23-.08,.37-.19,.54-.14,.2-.42,.22-.62,.11-.2-.03-.25-.25-.34-.39-.17-.23,.11-.37,.2-.56,.31-.26,.81-.11,.95,.31m1.23-.06c.03,.14,.11,.28,.06,.4-.17,.14-.28,.51-.62,.37-.17,.05-.25-.17-.34-.23-.11-.28-.03-.7,.34-.76,.25-.09,.42,.14,.56,.23m-53.66,.82c.05,.31-.06,.59-.28,.76-.31,.06-.7,.06-.81-.31-.03-.28,0-.65,.34-.82,.28-.03,.61,.03,.76,.37m1.6-.11c-.06,.79-.22,1.75-1.01,2.2-.45,.09-.9,.51-1.35,.23v-.14c.59-.85,1.65-1.5,2.35-2.29m46.43,.65c.11,.17-.08,.31-.17,.45-.17,.2-.48,.11-.67,.03-.2-.08-.23-.37-.14-.56,.06-.17,.22-.26,.36-.31,.25-.03,.48,.2,.62,.4m-43.63,1.3c.39,.65,.17,1.52,.39,2.23-.48,.06-.67-.48-.98-.76-.62-.85-.53-1.98-.81-2.96,.04-.07,.13-.09,.2-.06,.42,.28,.73,.82,1.07,1.19-.06,.2,.17,.2,.14,.37m45.03-1.07c0,.23-.25,.28-.39,.42-.2-.03-.38-.12-.53-.25-.08-.28,.14-.37,.28-.51,.28-.11,.56,.03,.64,.34m3.34,2.51c0,.08-.03,.25-.17,.19h-.11c-.81-.73-1.62-1.55-1.51-2.68l.17-.03c.75,.65,1.6,1.35,1.63,2.51m-2.1-.9c.03,.23-.11,.4-.25,.54-.31,.09-.79,.06-.84-.37-.03-.28,.28-.42,.42-.56,.34-.09,.56,.14,.67,.4m-1.85,.59c-.39,1.04-1.46,1.58-2.18,2.37-.14-.09-.09-.31-.06-.42,.28-1.07,1.12-2.12,2.16-2.54,.45,.06,0,.37,.08,.59m2.1,.85c0,.25-.25,.37-.39,.51-.22-.03-.45-.08-.62-.31-.03-.28,.19-.37,.36-.51,.26-.06,.53,.07,.65,.31M49.81,9.95h-.31c-.81,0-.12,.98,.31,.98,.54,0,.58-.98,0-.98Zm-2.51,.98c.81,0,.04-.98-.39-.98h-.81c-.81,0-.04,.98,.39,.98h.81Zm-3.41,0c.81,0,.04-.98-.39-.98h-.81c-.81,0-.04,.98,.39,.98h.81Zm5.87-1.21c.38,0,.69,.31,.69,.7,0,0,0,0,0,0,0,.38-.31,.69-.69,.7,0,0,0,0,0,0h-8.31c-.38,0-.69-.31-.69-.7,0-.38,.31-.7,.69-.7,0,0,0,0,0,0h8.31Zm.06,12.88c0,.37,.49,.12,.86,.12s.86,.24,.86-.12c0-.52-.49-.34-.86-.34s-.86-.18-.86,.34Zm1.56,.87c.36,0,.39-.49,.39-.92,0-.96-.76,0-1.15-.91-.28,.77-1.07,.06-1.07,.88,0,.57,0,.94,.56,.94h1.27Zm-2.34-4.22l1.59,.61,1.56-.61-.62,2.34,1.24-.26-.42,1.42,.42,1.36-1.1-.3,.48,2.52-1.56-.61-1.59,.61,.65-2.52-1.26,.35,.34-1.42-.34-1.36,1.21,.2-.59-2.34Zm-3.72,3.44v-.3l-.27-.05,.21-.22-.13-.24,.27,.03,.17-.29,.16,.28,.28-.02-.13,.24,.21,.22-.27,.05v.3l-.25-.19-.25,.19Zm-1.23,1.59v-.3l-.27-.05,.21-.22-.13-.24,.27,.03,.17-.29,.16,.28,.28-.02-.13,.24,.21,.22-.27,.05v.3l-.25-.19-.25,.19Zm2.09-.2v-.3l-.27-.05,.21-.22-.13-.24,.27,.03,.17-.29,.16,.28,.28-.02-.13,.24,.21,.22-.26,.05v.3l-.25-.19-.25,.19Zm.25,1.19v-.17l-.15-.03,.12-.12-.07-.14,.15,.02,.09-.16,.09,.16h.16s-.07,.12-.07,.12l.12,.12-.15,.03v.17l-.14-.11-.14,.11Zm-1.94,1.36v-.51l-.46-.08,.36-.37-.22-.41,.47,.05,.28-.5,.27,.49,.47-.04-.22,.41,.36,.37-.45,.09v.51l-.43-.32-.43,.32Zm.99-26.62l.99,2.43,2.5-.73-1.27,2.29,2.13,1.51-2.57,.43,.15,2.62-1.93-1.75-1.94,1.75,.16-2.62-2.57-.43,2.13-1.51-1.27-2.29,2.5,.74,.99-2.43Zm-9.04,54.43c-.3,.11-.41,.19-.34,.5l.35,1.49c.06,.28,.09,.71-.1,.98-.22,.32-.68,.52-1.01,.6-.24,.06-.77,.16-1.2-.02-.28-.12-.46-.25-.58-.75l-.37-1.56c-.09-.39-.24-.37-.56-.32l-.03-.12,1.88-.45,.03,.12c-.37,.1-.54,.15-.44,.56l.37,1.56c.06,.27,.22,.91,1.02,.72,.98-.24,.82-.95,.75-1.25l-.34-1.42c-.07-.28-.17-.43-.65-.33l-.03-.12,1.22-.29,.03,.12h0Zm2.78,.31c-.17-.31-.63-.77-1.28-.62-.29,.06-.57,.28-.5,.58,.06,.25,.18,.33,.7,.42l.89,.16c.21,.04,.69,.21,.8,.72,.09,.41-.14,1.06-1.17,1.29-.53,.12-.81,.02-.99,.05-.12,.03-.12,.12-.13,.2l-.16,.04-.25-1.16,.16-.04c.22,.45,.66,.9,1.36,.75,.67-.15,.59-.62,.58-.68-.07-.31-.35-.37-.75-.43l-.41-.07c-1.04-.17-1.13-.57-1.17-.79-.06-.29-.03-.96,1.03-1.2,.45-.1,.74,0,.91-.04,.13-.03,.14-.11,.15-.2l.17-.04,.22,1.02-.16,.03h0Zm3.7,1.85l-2.03,.19v-.12c.4-.07,.54-.09,.5-.49l-.24-2.52c-.4,.06-.98,.14-1.02,.91l-.17,.02-.07-.96,3.41-.33,.1,.96h-.17c-.19-.74-.77-.7-1.17-.69l.24,2.52c.04,.41,.18,.4,.6,.38v.12s.01,0,.01,0Zm2.28-1.7c.75,.01,1.05-.09,1.06-.71,0-.48-.22-.7-.68-.7-.31,0-.33,.05-.36,.19l-.02,1.22Zm2.47,1.7l-1.17-.02-1.15-1.52h-.15s-.02,.94-.02,.94c0,.38,.12,.4,.49,.45v.12s-1.93-.04-1.93-.04v-.12c.39-.03,.5-.04,.51-.43l.04-2.12c0-.41-.17-.43-.49-.45v-.12s1.84,.04,1.84,.04c.4,0,1.61,.07,1.59,.87-.01,.59-.6,.73-.91,.8l1.12,1.39c.06,.07,.14,.1,.23,.1v.12s0,0,0,0Z"/>
        </g>
        <g class="cls-12">
            <path class="cls-4"
                  d="M49.83,55.73l-.43-1.23-.68,1.09,1.11,.14Zm1.59,1.34l-1.84-.23v-.12c.37,.02,.47,.03,.49-.13,.02-.13-.12-.5-.18-.67l-1.28-.16c-.2,.32-.32,.51-.33,.58-.02,.18,.25,.23,.44,.26v.12s-1.17-.14-1.17-.14l.02-.12c.31,0,.41-.15,.62-.49l1.58-2.45,.16,.02,.95,2.66c.19,.54,.26,.71,.54,.74v.12Zm3.31,.68l-3.25-.6,.02-.12c.32,.02,.49,.04,.54-.25l.41-2.28c.05-.31-.17-.36-.42-.43l.02-.12,1.96,.36-.02,.12c-.4-.06-.57-.08-.65,.33l-.4,2.23c-.04,.23,.07,.29,.45,.36,.85,.16,1.23-.18,1.59-.66l.16,.03-.42,1.03h0Zm2.16,.48l-1.96-.41,.03-.12c.31,.04,.53,.07,.59-.22l.47-2.27c.06-.31-.2-.38-.45-.45l.03-.11,1.96,.41-.02,.12c-.27-.05-.53-.1-.6,.22l-.47,2.27c-.06,.3,.16,.36,.46,.44l-.02,.12Zm2.35-.8l-.46-1.22-.65,1.1,1.11,.11Zm1.62,1.31l-1.84-.19v-.12c.37,.01,.47,.02,.49-.14,.01-.13-.13-.5-.19-.66l-1.28-.13c-.19,.33-.31,.51-.31,.59-.02,.18,.25,.22,.45,.25v.12s-1.17-.12-1.17-.12v-.12c.32,0,.42-.16,.63-.5l1.53-2.48,.16,.02,1.01,2.64c.2,.54,.28,.71,.55,.73v.12Zm-15.62-38.48c-.34,0-.79,.23-.79-.17,0-.56,.38-.44,.72-.44s.86-.13,.86,.44c0,.4-.45,.17-.79,.17m1-.22c0-1.15-.64-.07-1-1.05-.26,.83-1.04,.13-1.04,1.02,0,.34,.09,.54,.25,.65v.34c0,.09,.07,.16,.16,.16h1.22c.09,0,.16-.07,.16-.16v-.37c.16-.15,.26-.36,.25-.59m10.03,14.14c.29,0,.53-.21,.53-.46s-.24-.47-.53-.47-.53,.21-.53,.47,.24,.46,.53,.46m-2.48-17.07s-.25,.42-.25,.5c0,.15,.11,.28,.25,.28s.25-.12,.25-.28c0,0-.26-.5-.26-.5m-16.93,0s-.25,.42-.25,.5c0,.15,.11,.28,.25,.28s.25-.12,.25-.28c0,0-.26-.5-.26-.5m4.23,0s-.25,.42-.25,.5c0,.15,.11,.28,.25,.28s.25-.12,.25-.28c0,0-.26-.5-.26-.5m4.23,0s-.25,.42-.25,.5c0,.15,.11,.28,.25,.28s.25-.12,.25-.28c0,0-.26-.5-.26-.5m4.23,0s-.25,.42-.25,.5c0,.15,.11,.28,.25,.28s.25-.12,.25-.28c0,0-.26-.5-.26-.5m-12.69,5.81s.25,.42,.25,.5c0,.15-.11,.28-.25,.28s-.25-.12-.25-.28c0,0,.26-.5,.26-.5m0,5.65s.25,.42,.25,.5c0,.15-.11,.28-.25,.28s-.25-.12-.25-.28c0,0,.26-.5,.26-.5m.68,4.47s.25,.42,.25,.49c0,.15-.11,.28-.25,.28s-.25-.13-.25-.28c0,0,.26-.49,.26-.49m3.55,2.38s.25,.42,.25,.5c0,.15-.11,.28-.25,.28s-.25-.12-.25-.28c0,0,.26-.5,.26-.5m12.91-12.49s-.25,.42-.25,.5c0,.15,.11,.28,.25,.28s.25-.12,.25-.28c0,0-.26-.5-.26-.5m0,5.65s-.25,.42-.25,.5c0,.15,.11,.28,.25,.28s.25-.12,.25-.28c0,0-.26-.5-.26-.5m-.68,4.47s-.25,.42-.25,.49c0,.15,.11,.28,.25,.28s.25-.13,.25-.28c0,0-.26-.49-.26-.49m-3.55,2.38s-.25,.42-.25,.5c0,.15,.11,.28,.25,.28s.25-.12,.25-.28c0,0-.26-.5-.26-.5m-4.32,2.52s-.25,.42-.25,.49c0,.15,.11,.28,.25,.28s.25-.13,.25-.28c0,0-.26-.49-.26-.49m6.88-8.42c.05,.08,.19,.11,.36,.05l.16-.45s-.19-.21-.3-.18c-.45,.11-.93,.16-1.2,.59,0,.29,.21,.56,.43,.7,.16-.05,.19,.11,.29,.19,.03,.14-.05,.24-.19,.24-.32-.32-.88,.11-1.12-.3,.11-.4,.32-.86-.03-1.23,.03-.08,.16-.16,.08-.24-.13-.37-.53-.08-.77-.08-.4-.06-.72,.16-.96,.48,.03,.13,.08,.27,.21,.4,.11-.03,.16,0,.19,.11l-.27,.16c.08,.08,.08,.19,.11,.3-.19,.08-.37-.19-.45-.32,0-.21,.03-.59-.27-.64-.05,0-.23,.08-.23,.08-.06,.08-.11,.25-.11,.44s.1,.48,.1,.48c0,0,.82,.61,1.01,.98-.24,.48-.24,1.15-.8,1.42-.16,.11-.16,.27-.16,.43l.13,.11c.35-.19,1.01-.24,.96-.83,.13-.24,.26-.51,.5-.7,.25-.05,.5,.07,.61,.3-.08,.4-.34,.67-.72,.8-.05,.06-.03,.13-.03,.22,.11,.19,.4,.11,.56,.08,.45-.3,.64-.83,1.04-.99,.05,.27-.53,.35-.16,.62,.24-.05,.56,.03,.72-.29-.19-.45,.64-.67,.13-1.07,0-.4,.42-.56,.4-.99-.16-.43-.66-.43-.8-.83,.16-.11,.4-.08,.56,0m-19.44,4.88c.29,0,.53-.21,.53-.46s-.24-.47-.53-.47-.53,.21-.53,.47,.24,.46,.53,.46M5.48,50.41c.28,0,.51-.22,.52-.5,0-.28-.24-.5-.52-.5-.28,0-.51,.22-.52,.5,0,.27,.23,.5,.52,.5m17.47,3.89h-.03l-.03-.04h0v.03s0,0,.01,.01h0s-.05,0-.05,0h0s.01,0,.01-.01v-.06s0-.01-.01-.01h0s.05,0,.05,0c.01,0,.05,0,.05,.02,0,.02-.02,.02-.03,.02l.03,.04s0,0,0,0h0Zm.07-.06s-.01-.03-.03-.03c0,0-.02,0-.02,.01s0,.01,.02,.02h.03s.02,.02,.02,.04c0,.01,0,.03-.04,.03-.01,0-.02,0-.03,0s0,0,0,0h0v-.03h0s.01,.03,.03,.03c.02,0,.02-.01,.02-.02,0,0,0-.01-.02-.01h-.01s-.03-.03-.03-.04c0,0,0-.03,.04-.03,.01,0,.02,0,.03,0,0,0,0,0,0,0h0v.03h0Zm.18-.03s0,0-.01,.01l-.03,.08h0l-.03-.07-.03,.07h0l-.04-.08s0,0-.01,0h0s.05,0,.05,0h0s-.01,0-.01,.01h0s.02,.05,.02,.05l.02-.04h0s0-.02-.01-.02h0s.05,0,.05,0h0s-.01,0-.01,0h0s.02,.06,.02,.06l.02-.05s0,0,0,0c0,0,0,0-.01,0h0s.03,0,.03,0h0s0,0,0,0Zm0,.09s.04,0,.04-.04c0,0,0,0,0,0h0s-.03,0-.03-.03c0,0,0-.03,.04-.03,.01,0,.04,0,.04,.04,0,.03-.02,.05-.07,.06h0s0,0,0,0Zm.1-.06s.03,0,.04,0c0,0,.02,.01,.02,.03,0,.02-.02,.03-.05,.03-.01,0-.02,0-.02-.01,0,0,0,0,.01,0,.01,0,.02,.01,.03,.01,0,0,.02,0,.02-.01,0,0,0-.02-.02-.02-.01,0-.02,0-.04,0l.02-.05h.05s-.05,.01-.05,.01h0Z"/>
        </g>
        <g class="cls-13">
            <path class="cls-4"
                  d="M54.67,31.56c-.1,1.13-.49,2.07-1.27,2.6l-7.36,4.68h-.04c-.16,.13-.36,.2-.57,.2-.21,0-.42-.07-.58-.21l-7.35-4.67c-.78-.53-1.17-1.47-1.27-2.6v-14.6h18.43v14.6Zm.55-15.12h0s-19.53-.01-19.53-.01h0s0,.01,0,.01v14.92c.01,1.52,.66,2.85,1.55,3.26l7.51,4.77c.33,.38,.91,.41,1.29,.08,0,0,0,0,0,0l7.63-4.84c.89-.41,1.53-1.74,1.53-3.26l.02-14.92h0Z"/>
        </g>
        <g class="cls-2">
            <path class="cls-4"
                  d="M48.08,38.19l.24-.11c-.08,.03-.16,.07-.24,.11m-16.59,19.47l-.71-1.09-.4,1.22,1.11-.13h0Zm1.86,.93l-1.84,.21v-.12c.34-.06,.44-.08,.42-.24-.01-.13-.24-.46-.33-.6l-1.28,.15c-.12,.36-.19,.57-.18,.64,.02,.18,.29,.17,.49,.15v.12s-1.14,.13-1.14,.13v-.12c.29-.07,.35-.25,.48-.62l.96-2.76,.16-.02,1.55,2.36c.32,.48,.43,.63,.7,.59v.12Z"/>
        </g>
    </g>
    <g class="cls-1">
        <path class="cls-4"
              d="M64.96,52.66c-.25,.51-.65,.88-1.21,.96,.03-.68,.65-1.16,.42-1.92-.37-.54-1.09-.7-1.77-.56-.25,.17-.14,.45-.23,.71l-.11,.93c-.56,0-.59-.51-.75-.9,.03-.59,.28-1.18,.87-1.47,.45-.23,1.18-.2,1.62,.06,.37,.08,.79,.25,.92,.59,.42,.4,.31,1.1,.23,1.61Zm-2.27,.28c.31-.31-.08-2.09,.79-.93,0,.23,.03,.57-.2,.73-.14,.11-.36,.34-.59,.2Zm.31,.71c.03,.45-.39,.34-.62,.51h-.67c-.14-.23-.08-.56-.08-.79,.45,.08,.95,.08,1.37,.28h0Zm.78,3.44c-.22,.28-.03,.73-.31,.99,0,.51-.42,.76-.79,.96-3.33,.73-6.61-.39-9.83-.96-4.51-.99-9.78-1.27-14.38-.23-2.13,.4-4.25,.89-6.33,1.5-1.29,.17-2.69,.37-3.92-.03-1.01-.48-.59-1.78-.9-2.68,.06-.71-.2-1.27-.22-1.95-.08-.23-.14-.51-.11-.74,.42,.06,.84,.37,1.29,.48,2.35,.45,4.46-.31,6.64-.7,2.1-.45,4.26-.82,6.47-.99,2.52-.03,5.1-.17,7.51,.26,.78,.03,1.46,.23,2.21,.28,1.57,.2,3.03,.62,4.62,.73,.25,.08,.56,.08,.84,.14,2.52,.39,5.35,1.1,7.76,0,0,1.02-.42,1.95-.56,2.93h0Zm-14.23,2.06c.14,.4,.39,.77,.25,1.24-.28,.54-.84,.54-1.34,.65-.25,.03-.45-.06-.65-.2,.03-.11-.03-.2-.11-.28,.08-.37-.65-.74-.14-1.05,.45-.42,1.51-1.38,1.99-.37Zm.62,.11c.34,.08,.36,.45,.39,.73-.03,.62-.36,1.16-.95,1.38-.31,.17-.79,.23-1.09,.11,.67-.03,1.4-.28,1.68-.96l-.03-1.27h0Zm.73,3.75c-.06,.03-.06,.09-.06,.11-.81,.03-1.34-.45-1.96-.87l-.03-.14c.76,.06,1.38,.54,2.05,.9Zm-1.04,2.6c-.03,.08-.17,.08-.22,.03-.84-1.07-1.23-2.2-1.77-3.39l.11-.03c.67,1.1,1.2,2.31,1.88,3.39Zm-1.4-.68l-.14,.06c-.14-.11-.08-.42-.05-.59,.17,.14,.31,.34,.2,.53h0Zm-.79-1.69c.03,.28,.31,.39,.14,.65-.05-.11-.22-.37-.14-.65h0Zm-1.79,2.29c-.53,.03-1.35,.34-1.85-.11,.03-.23-.22-.34-.2-.56,.45-.17,.84,.37,1.26-.03,.65,.03,1.32-.08,1.96,.06,.31,.09,.79-.51,.84,.09-.22,.93-1.34,.28-2.02,.57h0Zm-1.23-3.36l.14-.23c-.23,.68-.56,1.38-.93,2.03-.17-.68,.53-1.21,.79-1.81h0Zm.78-.54c.37-.4,.7,.23,.84,.54,.42,.62,1.51,1.19,1.09,2.03-.53,.48-1.37,.03-1.96,.4-.31-.03-.84,.06-1.01-.25,.31-.91,.59-1.92,1.04-2.71Zm-.08-1.07h-.11l.17-.17c.09,.06-.03,.11-.06,.17Zm.64,.05c.11-.17,.25-.42,.45-.42,0,.03,.03,.06,.06,.09-.17,.14-.31,.28-.5,.34Zm.39,.42c.05-.06,.19-.06,.25,0h-.25Zm.75,.88c-.03,.06,.03,.14-.06,.2l-.64-.51c.31-.06,.53,.08,.7,.31Zm1.12-3.47c-.34,.11-.59,.51-.93,.59,.17-.31,.59-.62,.93-.59Zm-1.4-.37c-.06-.25,.25-.06,.36-.17l.87,.06c-.45-.06-1.01,.99-1.23,.11Zm-2.04,.79c.14-.4,.17-.73,.42-1.04,.28,0,.53,0,.76,.11,.06,.57,.76,1.33,0,1.81-.25,.11-.62,.36-.9,.11-.36-.31-.42-.59-.28-.99Zm-.42,1.75c-.03-.11,.06-.25,.08-.4,.14-.14,.28,.11,.34,.2-.09,.15-.25,.22-.42,.2Zm-.06-1.3h.03v-.31h-.03v.31Zm-.31-.85c-.37-.09-.56-.51-.95-.51,.34-.11,.67-.08,1.06-.03,.14,.2-.08,.37-.11,.54h0Zm-.31,2.29c.08-.37,.25-.85,.45-1.19-.03,.37-.2,.88-.45,1.19Zm-.61,0c-.48-.06-.93-.2-1.35-.34-.28-.28,0-.59,0-.9,.39-.62,1.51-.93,2.05-.37-.08,.62-.31,1.16-.7,1.61Zm.25,.76v.11h-.06v-.14h.11s-.09,0-.11,.03h.06Zm-.7,1.64c-.4,.91-.86,1.8-1.37,2.65-.05,.14-.28,.17-.45,.2,0-.4,.39-.71,.56-1.04,.59-.76,.75-1.58,1.43-2.31,.17,.17-.17,.28-.17,.51Zm-2.66-.28c.67-.28,1.37-.87,2.13-.62-.53,.42-1.4,.59-2.13,.62Zm1.01-1.95c-.14-.99,.25-1.84,.9-2.54,.39-.08,.84-.17,1.2,.06-.73,.2-1.66,.37-1.82,1.3,.03,.37-.08,.57,.09,.87,.31,.54,1.01,.31,1.4,.74,0,.14-.11,.31-.25,.34-.48-.28-1.07-.39-1.51-.76Zm-13.14-9.06c.08-.23,0-.56,.31-.62,.19-.06,.5-.06,.53,.17-.03,.34-.05,.68-.14,.99-.39,.03-.59-.2-.7-.54Zm.08,.95c.42,.31,1.01,.17,1.51,.25,.08,.31,.08,.7-.14,.96-.48-.11-1.09-.06-1.35-.51,.06-.2-.08-.48-.03-.7Zm-1.32-.81c.08-.51,.2-1.04,.67-1.41,.67-.37,1.6-.28,2.21,.09,.19,.11,.34,.28,.45,.54,.14,.48-.09,.99-.42,1.27h-.28c0-.45,0-.9,.17-1.27-.03-.34-.31-.37-.53-.51-.48-.14-.9,.09-1.26,.28-.28,.34-.53,.76-.36,1.24,.2,.31,.03,.73,.14,1.07l-.08,.11c-.34-.37-.78-.76-.7-1.41h0Zm26.29,12c.67,.3,2.02,.6,2.99,.71-.09,.38-.77,.02-.69,.56-.87-.34-1.88-.51-2.52-1.18,.06-.03,.11-.11,.23-.09Zm-17.5,.45l-.39-.37c.2-.25,.62-.11,.93-.28,.73-.23,1.57-.51,2.38-.34-.84,.68-1.93,.76-2.92,.99Zm30.26-12.87c-.33-.87-1.04-1.47-1.91-1.75-.9-.2-1.85-.06-2.44,.62-1.01,.82-.31,2.17-.28,3.27,0,.23,.03,.39-.2,.51-4.06-.37-7.85-1.38-11.88-1.81-.93-.16-1.86-.12-2.74-.31l-1.13-.12c-3.5,.11-7,.31-10.28,1.16-.7,.22-1.49,.28-2.19,.53-.5-.08-.92,.28-1.4,.14l-.92,.22c-.1,.01-.21,0-.31-.02-.45-1.16,.9-1.86,.48-2.99-.36-.65-1.09-1.27-1.93-1.16-.95-.11-1.79,.42-2.24,1.16-.64,1.41,.17,2.88,.42,4.26-.06,.45,.45,.96,0,1.33-.9-.62-2.07-.96-3.17-.65-.34,.17-.95-.06-1.12,.34,1.21,.65,2.75,.56,4.09,.51,.17-.06,.28-.09,.42,.03,.11,.74-.14,1.72,.31,2.37,.51,.68,1.34,.85,2.16,.93,2.58-.08,4.88-.84,7.23-1.44,.37-.03,.65-.22,1.04-.22,1.26-.28,2.63-.51,3.98-.54-.59,.76-.92,1.61-1.18,2.54-.34,.76,.59,.87,.87,1.3-.87,.26-1.49,.85-2.3,1.19-1.79-.06-3.31,.62-4.99,.82-.03,.37,.59,.25,.65,.62-.08,.25-.34,.28-.53,.42-.03,.17,0,.2,.17,.22,.17-.2,.53-.06,.7-.26,.56,0,1.04-.17,1.57-.2,.48-.2,1.01-.22,1.43-.56,.59-.17,.95-.56,1.54-.73,.84,0,1.6-.28,2.38-.34v.17c-.64,1.05-1.3,2.08-1.99,3.1-.11,.2,.03,.4,.2,.45,.39,.11,.78,0,1.09-.17,.59-1.02,1.12-1.98,1.6-3.02,.2-.96,.9-1.47,1.6-2.12,.11-.06,.28-.23,.39-.06-.56,.65-.92,1.27-1.34,1.98-.23,.79-.28,1.8,.42,2.45,.34,.28,.84,.2,1.29,.23,1.09-.56,2.49,.34,3.33-.73,.5-.09,.59,.51,.87,.79,.48,.14,.98,.62,1.46,.28-.03-.31-.36-.59-.53-.87-.33-.59-.76-1.07-1.06-1.61-.14-.39-.39-.65-.45-1.05,.51,.17,.95,.51,1.51,.6,.48,.2,1.07,.17,1.52,.45,.36,.48,.92,.76,1.4,1.07,.7,.34,1.49,.4,2.22,.68,.28,.03,.7,.25,.89,0-.11-.14-.25-.22-.42-.31-.09-.37,.5-.17,.7-.45-.07-.14-.19-.2-.33-.22-.4-.22-1.4-.29-1.66-.44-.34-.06-.65-.2-.98-.31-1.68,0-2.61-1.52-3.95-2.09,.31-.28,.78-.51,.98-.93,.25-.4,.34-1.05,.08-1.49-.25-.88-1.37-.76-2.02-1.24l.08-.09c1.09-.05,2.05,.2,3.03,.4,2.69,.37,5.18,1.38,7.99,1.44,1.54,0,3.47,.09,4.23-1.41,.14-.87,.31-1.75,.45-2.62,.34-1.41,1.26-2.71,1.12-4.26h0Z"/>
    </g>
</svg>