<?xml version="1.0" encoding="UTF-8"?><svg id="Layer_1" xmlns="http://www.w3.org/2000/svg" viewBox="0 0 21.02 21.02"><defs><style>.cls-1{fill:#048f89;}</style></defs><path class="cls-1" d="M17.81,21.02H.7c-.38,0-.7-.31-.7-.7V3.21c0-.38,.31-.7,.7-.7H12.43c.38,0,.7,.31,.7,.7s-.31,.7-.7,.7H1.39v15.73h15.73V8.59c0-.38,.31-.7,.7-.7s.7,.31,.7,.7v11.73c0,.38-.31,.7-.7,.7Z"/><path class="cls-1" d="M20.32,7.18c-.38,0-.7-.31-.7-.7V1.39h-5.09c-.38,0-.7-.31-.7-.7s.31-.7,.7-.7h5.79c.38,0,.7,.31,.7,.7V6.48c0,.38-.31,.7-.7,.7Z"/><path class="cls-1" d="M9.25,12.46c-.18,0-.36-.07-.49-.2-.27-.27-.27-.71,0-.98L19.83,.2c.27-.27,.71-.27,.98,0,.27,.27,.27,.71,0,.98L9.75,12.26c-.14,.14-.31,.2-.49,.2Z"/></svg>