<?xml version="1.0" encoding="UTF-8"?><svg id="Layer_1" xmlns="http://www.w3.org/2000/svg" viewBox="0 0 79.06 64.77"><defs><style>.cls-1{fill:#424242;}</style></defs><path class="cls-1" d="M60.97,51.15h-2.24v-1.82h2.24c8.97,0,16.27-7.3,16.27-16.27s-7.3-16.27-16.27-16.27c-.48,0-.97,.02-1.46,.07l-1,.09v-1c0-7.83-6.3-14.13-14.05-14.13-5.9,0-11.06,3.56-13.14,9.07l-.37,.97-.92-.49c-1-.53-2.08-.89-3.2-1.06-2.69-.42-5.38,.24-7.58,1.85-2.2,1.61-3.64,3.97-4.05,6.66-.22,1.41-.13,2.89,.26,4.28l.33,1.19-1.43-.03c-6.91,0-12.53,5.62-12.53,12.53s5.62,12.53,12.53,12.53v1.82c-7.92,0-14.36-6.44-14.36-14.36s5.95-13.86,13.45-14.33c-.23-1.3-.24-2.63-.04-3.92,.49-3.17,2.19-5.96,4.78-7.86,2.59-1.9,5.76-2.67,8.93-2.18,1,.15,1.96,.43,2.88,.82C32.55,3.63,38.12,0,44.46,0c8.45,0,15.39,6.64,15.85,14.99,.22,0,.44-.01,.66-.01,9.97,0,18.09,8.12,18.09,18.09s-8.11,18.09-18.09,18.09Z"/><g><path class="cls-1" d="M46.87,42.13h-2.11v-8.77c0-4-3.53-7.25-7.87-7.25s-7.87,3.25-7.87,7.25v8.77h-2.11v-8.77c0-5.16,4.48-9.36,9.98-9.36s9.98,4.2,9.98,9.36v8.77Z"/><path class="cls-1" d="M48.13,64.77H25.66c-1.62,0-2.94-1.34-2.94-2.98v-17.09c0-1.3,.82-2.44,2.04-2.84,.02,0,.04-.01,.07-.02l7.92-2.01c2.71-.69,5.58-.69,8.29,0l7.92,2.01s.05,.01,.07,.02c1.22,.4,2.04,1.54,2.04,2.84v17.09c0,1.64-1.32,2.98-2.94,2.98Zm-22.75-20.9c-.33,.12-.56,.45-.56,.82v17.09c0,.48,.37,.87,.83,.87h22.48c.46,0,.83-.39,.83-.87v-17.09c0-.37-.22-.7-.56-.82l-7.88-2c-2.37-.6-4.88-.6-7.25,0l-7.88,2Z"/></g></svg>