<?xml version="1.0" encoding="UTF-8"?><svg id="Layer_1" xmlns="http://www.w3.org/2000/svg" viewBox="0 0 69.6 62.93"><defs><style>.cls-1{fill:#424242;}</style></defs><g><path class="cls-1" d="M39.52,56.72H22.18c-.33,0-.62-.23-.7-.55l-6.6-27.04c-.05-.22,0-.44,.13-.62,.14-.18,.35-.28,.57-.28h30.55c.22,0,.43,.1,.57,.28,.14,.17,.19,.4,.13,.62l-6.6,27.04c-.08,.32-.37,.55-.7,.55Zm-16.77-1.45h16.2l6.25-25.59H16.5l6.25,25.59Z"/><path class="cls-1" d="M46.12,26.48H15.58c-.4,0-.72-.32-.72-.72s.32-.72,.72-.72h30.55c.4,0,.72,.32,.72,.72s-.32,.72-.72,.72Z"/><path class="cls-1" d="M35.16,23.27c-.4,0-.72-.32-.72-.72v-1.11h-7.16v1.11c0,.4-.32,.72-.72,.72s-.72-.32-.72-.72v-1.83c0-.4,.32-.72,.72-.72h8.61c.4,0,.72,.32,.72,.72v1.83c0,.4-.32,.72-.72,.72Z"/><path class="cls-1" d="M30.85,52.37c-.4,0-.72-.32-.72-.72v-18.34c0-.4,.32-.72,.72-.72s.72,.32,.72,.72v18.34c0,.4-.32,.72-.72,.72Z"/><path class="cls-1" d="M36.44,52.37s-.1,0-.15-.01c-.39-.08-.65-.46-.57-.85l3.72-18.34c.08-.39,.46-.64,.85-.57,.39,.08,.65,.46,.57,.85l-3.72,18.34c-.07,.34-.37,.58-.71,.58Z"/><path class="cls-1" d="M25.27,52.37c-.34,0-.64-.24-.71-.58l-3.72-18.34c-.08-.39,.17-.77,.57-.85,.39-.08,.77,.17,.85,.57l3.72,18.34c.08,.39-.17,.77-.57,.85-.05,0-.1,.01-.15,.01Z"/></g><g><path class="cls-1" d="M63.4,62.93c-3.42,0-6.2-3.03-6.2-6.76V18.54c0-1.55-1.11-2.82-2.48-2.82H4.04c-1.37,0-2.48,1.27-2.48,2.82V58.54c0,1.55,1.11,2.82,2.48,2.82,.43,0,.78,.35,.78,.78s-.35,.78-.78,.78c-2.23,0-4.04-1.97-4.04-4.38V18.54c0-2.42,1.81-4.38,4.04-4.38H54.73c2.23,0,4.04,1.97,4.04,4.38V56.17c0,2.86,2.08,5.2,4.63,5.2s4.63-2.33,4.63-5.2V4.38c0-1.55-1.11-2.82-2.48-2.82h-22.33c-1.72,0-3.12,1.58-3.12,3.52,0,2.8-2.1,5.09-4.68,5.09H12.17c-.43,0-.78-.35-.78-.78s.35-.78,.78-.78h23.26c1.72,0,3.12-1.58,3.12-3.52,0-2.8,2.1-5.08,4.68-5.08h22.33c2.23,0,4.04,1.97,4.04,4.38V56.17c0,3.73-2.78,6.76-6.2,6.76Z"/><path class="cls-1" d="M63.4,62.93H4.04c-.43,0-.78-.35-.78-.78s.35-.78,.78-.78H63.4c.43,0,.78,.35,.78,.78s-.35,.78-.78,.78Z"/></g></svg>