<?xml version="1.0" encoding="UTF-8"?><svg id="Layer_1" xmlns="http://www.w3.org/2000/svg" xmlns:xlink="http://www.w3.org/1999/xlink" viewBox="0 0 165.26 143.63"><defs><style>.cls-1{fill:#006b66;}.cls-2{fill:#048f89;}.cls-3{filter:url(#drop-shadow-80);}</style><filter id="drop-shadow-79" filterUnits="userSpaceOnUse"><feOffset dx="0" dy="3"/><feGaussianBlur result="blur" stdDeviation="5"/><feFlood flood-color="#515050" flood-opacity=".75"/><feComposite in2="blur" operator="in"/><feComposite in="SourceGraphic"/></filter><filter id="drop-shadow-80" filterUnits="userSpaceOnUse"><feOffset dx="0" dy="1"/><feGaussianBlur result="blur-2" stdDeviation="1"/><feFlood flood-color="#757575" flood-opacity=".75"/><feComposite in2="blur-2" operator="in"/><feComposite in="SourceGraphic"/></filter></defs><g class="cls-3"><path class="cls-2" d="M91.91,126.42h-13.29v17.21h13.28c.23-.02,5.46-.58,5.46-8.59s-5.22-8.6-5.45-8.62Zm-.32,13.68h-9.41v-10.14h9.41c.38,.1,2.23,.81,2.23,5.07s-1.85,4.97-2.23,5.07h0Z"/><path class="cls-2" d="M68.58,135.21c1.19-.96,1.87-2.41,1.84-3.93,0-3.07-2.37-4.44-3.63-4.79l-.23-.07h-15.15v17.2h3.55v-7.39h9.76c.56,.14,2,1.78,2.3,7.39h3.55c-.18-3.74-.85-6.56-1.99-8.42Zm-2.59-2.52h-11.02v-2.71h11.02c.78,.38,1.1,1.22,.72,2-.15,.31-.4,.56-.72,.72Z"/><path class="cls-2" d="M15.25,140.23H7.63l11.43-13.81H3.71l-2.86,3.4H11.44L0,143.63H16.13l2.91-3.4"/><path class="cls-2" d="M44.69,130.03v-3.6H25.62v17.21h19.07v-3.4h-15.25v-3.4h11.44v-3.39h-11.44v-3.41h15.25Z"/><path class="cls-2" d="M112.03,143.63h9.53l-7.62-17.21h-3.81l-7.63,17.21h4.35l5.18-12.09,3.69,8.7h-3.69v3.39Z"/><path class="cls-2" d="M139.22,126.42l-2.53,5.79-2.65,6.12-5.19-11.91h-4.35l7.63,17.21h3.81l7.63-17.21h-4.35Z"/><path class="cls-2" d="M155.73,143.63h9.53l-7.53-17.2h-3.79s-7.76,17.2-7.76,17.2h4.37l5.26-12.09,3.64,8.72h-3.71s0,3.38,0,3.38Z"/><path class="cls-2" d="M134.16,13.02s-6.24-1.83-24.03-6.42C91.29,1.75,82.62,0,82.62,0c0,0-8.68,1.75-27.52,6.61-17.79,4.59-24.03,6.42-24.03,6.42,0,0-2.93,17.98,5.14,51.18,6.52,26.8,27.88,44.02,46.41,50.41,18.53-6.39,39.89-23.61,46.41-50.41,8.07-33.2,5.13-51.18,5.13-51.18Zm-9.94,50.3c-5.84,24.12-24.99,39.61-41.6,45.36-16.61-5.74-35.76-21.24-41.6-45.36-7.24-29.87-4.6-46.05-4.6-46.05,0,0,5.59-1.65,21.54-5.78,16.89-4.37,24.67-5.94,24.67-5.94,0,0,7.78,1.58,24.67,5.94,15.95,4.12,21.54,5.78,21.54,5.78,0,0,2.63,16.17-4.6,46.05Z"/><g><path class="cls-1" d="M106.01,67.25h0c-.06,.13-.13,.27-.19,.4-.72,1.47-1.55,2.88-2.49,4.22-.51,.74-1.05,1.45-1.63,2.14-.61,.04-1.23,.05-1.86,.05-1.02,0-2.03-.05-3.02-.14,.14-.14,.29-.27,.44-.39,1.04-.87,2.29-1.44,3.62-1.66,1.25-1.46,1.48-3.54,.59-5.25h0c-.09-.17-.19-.34-.3-.49h0c-.25-.35-.54-.67-.87-.95-.31-.25-.61-.51-.9-.79-2.03-1.98-3.32-4.6-3.64-7.41,.18-.14,.36-.29,.54-.43s.35-.29,.53-.44,.3-.26,.44-.39h0s.1-.08,.14-.13c.14-.13,.29-.26,.42-.4,.1-.09,.19-.18,.28-.27h0c.05,.26,.11,.52,.17,.78,.03,.13,.06,.26,.09,.38s.07,.25,.1,.38,.06,.21,.09,.33c0,.02,.01,.05,.02,.07,.07,.24,.15,.49,.23,.72,.04,.12,.08,.25,.13,.37,1.04,2.85,2.71,5.42,4.9,7.52h0l.31,.29c.15,.14,.31,.28,.46,.41,.21,.18,.42,.35,.64,.52,.05,.04,.11,.09,.16,.13s.09,.07,.14,.11l.3,.22,.06,.05,.09,.07Z"/><path class="cls-1" d="M75.44,72.18c0,.99-.04,1.98-.13,2.97-1.35,1.7-2.88,3.26-4.55,4.66,1.77-3.45,2.9-7.2,3.32-11.05,.13-1.19,.2-2.38,.2-3.57,0-.47,0-.94-.03-1.4h.08c.5,1.84,.83,3.73,.99,5.64h0c.08,.91,.12,1.83,.12,2.76Z"/><path class="cls-1" d="M56.93,33.02c-.1,.05-.2,.1-.31,.15-.1,.05-.21,.1-.3,.15-.13,.07-.26,.14-.39,.21-.09,.05-.18,.1-.26,.16l-.31,.19c-.12-.32-.25-.65-.38-.97-.25-.62-.52-1.23-.8-1.84h0c-.3-.67-.62-1.33-.96-1.98-.06-.12-.12-.25-.19-.37,.51,.5,1.02,1,1.55,1.48h0c.08,.08,.17,.15,.25,.23,.22,.21,.45,.41,.68,.61,.31,.28,.64,.54,.95,.81l.11,.09h0c.11,.33,.21,.65,.32,.98,.01,.03,.02,.06,.03,.09Z"/><path class="cls-2" d="M111.15,67.42c-1.43-2.05-2.19-4.49-2.19-6.99,0-.8,.08-1.6,.23-2.38,.99-3.98-.09-8.2-2.86-11.23,3.35-3.54,3.2-9.12-.34-12.47-1.44-1.36-3.29-2.2-5.26-2.38h0c-.26-.03-.54-.04-.81-.04-1.86,0-3.67,.58-5.17,1.68l-.02,.02c-2.47,1.8-3.02,5.27-1.22,7.74,.49,.67,1.12,1.22,1.85,1.62l-.25,.04-.27,.05c-.09,.02-.18,.04-.26,.06s-.18,.04-.26,.06-.18,.04-.27,.07l-.08,.02-.31,.09h0c-.09,.03-.18,.06-.27,.09l-.05,.02c-.28,.09-.55,.2-.82,.31h0l-.1,.04c-.12,.05-.25,.1-.37,.15l-.21,.08-.08,.03-.19,.07-.24,.08-.21,.07-.28,.09-.2,.07c-.27,.08-.55,.17-.82,.24l-.24,.06c-.33,.08-.65,.16-.98,.22-2.62,.52-5.32,.51-7.94-.03-.42-.09-.83-.19-1.25-.3l-.36-.1c-.12-.03-.24-.07-.35-.11-.04,0-.07-.02-.1-.03-.11-.03-.22-.07-.33-.11s-.26-.09-.39-.14l-.3-.11-.2-.08-.11-.04-.29-.12h0c-.12-.05-.23-.1-.35-.15s-.23-.1-.35-.16c-.46-.22-.91-.45-1.35-.7-.12-.07-.24-.14-.35-.21l-.17-.1-.25-.15c-4.14-2.44-8.07-5.23-11.73-8.34-.76-.65-1.51-1.3-2.25-1.98l-.13-.12c-.29-.26-.57-.52-.85-.79-1.39-1.31-2.73-2.66-4.02-4.06h-.01c-.08-.1-.15-.18-.23-.26-.24-.25-.48-.51-.72-.77,.55,1.16,1.06,2.35,1.53,3.55,.19,.5,.39,1.01,.56,1.53,.1,.27,.19,.55,.28,.82h0c.11,.33,.21,.65,.32,.98,0,.03,.02,.06,.03,.09h0c-.1,.05-.21,.09-.31,.14s-.2,.1-.3,.15c-.13,.07-.27,.14-.39,.21-.09,.05-.18,.1-.26,.16l-.31,.19c-1.75,1.13-3.18,2.69-4.16,4.52-.05,.09-.09,.17-.14,.26,.06,.32,.1,.64,.1,.96,0,.2-.01,.41-.04,.61-.25,.23-.5,.45-.76,.67l-.21,.18c-.11,.09-.21,.18-.32,.27-1.1,.92-2.25,1.8-3.43,2.64l-.12,.08c-.11,.08-.23,.16-.35,.24-.03,.02-.06,.04-.09,.06h.01s.03,.03,.04,.05l.29,.27c.19,.17,.39,.34,.58,.51l.36,.3,.26,.21c.16,.13,.32,.26,.48,.38,.09,.07,.18,.14,.26,.21s.15,.12,.23,.17c.12,.09,.24,.18,.36,.26s.19,.14,.29,.21l.36,.26,.04,.03c.11,.08,.21,.15,.33,.23l.04,.03,.21,.14c.08,0,.16,0,.24,.01,.18,0,.37,.01,.55,.01h.51c.17,0,.34-.02,.51-.03s.29-.03,.42-.04c.1-.01,.2-.02,.29-.04l.24-.04,.24-.04c.16-.03,.32-.06,.48-.1l.24-.06,.19-.05c.1-.02,.19-.05,.28-.08l.21-.07,.23-.07h0c.13-.04,.27-.08,.4-.12l.14-.03h.02c.18-.04,.35-.08,.53-.11l.24-.03h.13s.09-.01,.09-.01h.15c.09-.01,.18-.03,.26-.03h.53c.11,0,.22,0,.34,.01h.13s.16,.03,.16,.03c.24,.02,.47,.06,.71,.11,.08,.02,.17,.04,.25,.06,.06,.01,.11,.03,.17,.04l.15,.04,.12,.04h0c.06,.02,.12,.04,.18,.06s.07,.03,.11,.04,.12,.04,.18,.07h0c.08,.03,.16,.06,.23,.09l.23,.1h0c.07,.03,.15,.07,.21,.11l.17,.09s.09,.05,.14,.07l.18,.1c.06,.03,.12,.07,.18,.11l.18,.12c.14,.1,.28,.21,.42,.32,.13,.1,.25,.21,.37,.31l.02,.02c.12,.11,.24,.21,.35,.33,.06,.06,.11,.12,.17,.18,.11,.12,.22,.25,.33,.38,.05,.06,.1,.13,.15,.19,.24,.32,.45,.65,.64,1l.07,.14c.07,.13,.13,.27,.19,.41,.03,.07,.06,.13,.08,.21s.04,.1,.06,.15c0,.02,.01,.03,.02,.05s.02,.06,.03,.1,.03,.09,.05,.14c.03,.09,.06,.18,.08,.27,.02,.06,.03,.11,.04,.17s.03,.1,.04,.15,.03,.13,.04,.19c.08,1.14,.25,2.28,.53,3.39,.14,.6,.3,1.18,.49,1.76,.05,.15,.1,.29,.15,.44,.38,1.09,.86,2.14,1.43,3.15,.04,.07,.08,.14,.12,.21,.21,.37,.4,.74,.59,1.12,.72,1.43,1.26,2.94,1.62,4.5,.89,4.23,.39,8.64-1.45,12.55-1.88,.19-3.62,1.07-4.87,2.48-.16,.18-.31,.37-.45,.56,.77,.13,1.54,.22,2.33,.29,.31,.03,.64,.05,.94,.07h.11c.58,.03,1.18,.05,1.77,.05,.39,0,.78,0,1.17-.02,.7-1.02,1.33-2.07,1.91-3.16l.16-.31c2.31-4.52,3.52-9.53,3.52-14.61,0-.47-.01-.94-.03-1.4h.08c.5,.02,1.01,.03,1.52,.03h.45c.56,0,1.12-.03,1.67-.07h0c.41-.03,.82-.06,1.22-.1l.41-.05,.4-.05c.4-.05,.8-.11,1.2-.18,.12-.02,.25-.04,.37-.07,.37-.07,.74-.14,1.11-.21,.25-.05,.49-.11,.73-.17s.42-.1,.64-.16l.64-.17c.21-.06,.42-.12,.64-.19s.41-.13,.62-.2h0c.35-.12,.71-.24,1.06-.37h0c.2-.07,.39-.15,.58-.21,.39-.15,.78-.32,1.16-.49,.58-.25,1.14-.52,1.69-.81h0c.37-.19,.74-.39,1.1-.59,1.45-.81,2.83-1.74,4.13-2.77,.18-.14,.36-.29,.54-.42s.35-.29,.53-.44,.3-.26,.44-.39h0s.1-.08,.14-.13c.15-.13,.29-.26,.42-.4l.28-.27h0c.05,.26,.11,.52,.16,.77,.03,.13,.06,.26,.09,.38s.07,.26,.1,.38,.06,.21,.09,.33l.02,.07c.07,.24,.15,.49,.23,.72,.04,.12,.08,.25,.13,.37,1.04,2.85,2.72,5.42,4.9,7.52h0l.31,.29c.15,.14,.31,.28,.46,.41,.21,.18,.42,.35,.64,.52l.16,.13s.09,.07,.14,.11l.3,.22s.04,.03,.06,.05l.09,.06h0c.56,.39,1.08,.84,1.56,1.33,.06,.06,.11,.13,.16,.19,.02,.02,.04,.04,.05,.06,.05,.06,.1,.12,.15,.19h0s.14,.21,.14,.21l.04,.05c.04,.05,.07,.1,.1,.15s.07,.1,.1,.15c.01,.02,.02,.04,.03,.06,.06,.08,.11,.18,.16,.26,0,0,0,.01,.01,.02v.02s.06,.08,.06,.08c.03,.05,.05,.1,.08,.15,0,.01,.01,.03,.02,.04l.03,.06,.02,.04c.03,.06,.06,.11,.08,.17,.01,.02,.02,.04,.03,.07,.01,.02,.02,.04,.03,.07h0s0,.02,.01,.02c0,0,0,.01,0,.02h0s.03,.07,.04,.09c0,.01,0,.03,.01,.04l.03,.08,.04,.12v.04s.03,.04,.03,.06c.01,.03,.02,.06,.03,.09,0,.01,0,.03,.01,.04,0,.02,0,.03,.01,.05,0,.02,.01,.04,.02,.05,.03,.09,.06,.18,.08,.27,.01,.06,.03,.11,.04,.17,0,.02,.01,.03,.01,.05v.05s0,.04,.01,.06c.01,.06,.03,.11,.04,.17l.03,.17c.02,.1,.04,.21,.05,.31,.05,.34,.07,.68,.07,1.02,0,.39-.03,.77-.09,1.15-.02,.12-.04,.25-.07,.37-.01,.08-.03,.16-.05,.24v.02s0,.02,0,.04c-.01,.05-.03,.1-.04,.15s-.03,.1-.04,.15l-.04,.15c-.03,.1-.07,.19-.1,.29v.15s-.01,.03-.01,.03v.03h-.01l-.07,.17c-.03,.06-.05,.11-.08,.17l-.02,.05s-.01,.03-.02,.05c-1.86,.55-3.43,1.8-4.39,3.49,.32,.02,.64,.03,.96,.04h.75c1.14,0,2.28-.06,3.41-.18,.02-.03,.03-.05,.05-.07,.71-1.15,1.35-2.34,1.91-3.57,.81-1.77,1.45-3.6,1.92-5.49,.04-.16,.08-.33,.12-.5s.08-.32,.11-.49c-.96-.76-1.8-1.65-2.5-2.65Zm-10.46-24.93h0c-.51,.3-1.08,.45-1.67,.45-.11,0-.22,0-.34-.02-.41-.04-.81-.16-1.17-.35h0c-1.63-.83-2.27-2.83-1.44-4.46,.83-1.63,2.83-2.27,4.46-1.44,1.63,.83,2.27,2.83,1.44,4.46-.29,.56-.73,1.03-1.28,1.35h0Z"/><path class="cls-1" d="M98.68,42.92h-.12s-.04-.01-.04-.01h-.08c-.09,0-.18-.02-.28-.02h-.26c-.1-.01-.19-.01-.29-.01h-.95l-.3,.02h0c-.2,.02-.39,.04-.59,.06l-.14,.02-.21,.03h-.04c-2.69-1.45-3.7-4.81-2.25-7.51,.39-.73,.95-1.36,1.62-1.85-1.98,2.33-1.7,5.83,.63,7.81,.62,.53,1.36,.91,2.15,1.13h0c.36,.19,.75,.3,1.15,.34Z"/></g></g></svg>