<?xml version="1.0" encoding="UTF-8"?><svg id="Layer_1" xmlns="http://www.w3.org/2000/svg" viewBox="0 0 84.26 68.33"><defs><style>.cls-1{fill:#15385d;}</style></defs><path class="cls-1" d="M49.94,34.87c-.16-1.79-.81-3.42-1.79-4.88,0-.16,.16-.33,.16-.49-.16,0-.49,0-.49,.16q0-.16-.16-.33c-1.14-1.46-2.6-2.6-4.39-3.09,0-.33-.33-.33-.49-.33,0,0,0,.16-.16,.33h-.16c0-.16-.16-.16-.33-.33,0,.16,0,.33,.16,.49,0,0-.16,0-.16,.16s0,.33,.16,.33h.16v3.58c-.33,0-.49,.16-.65,.16,.16,.16,.33,.16,.49,.33v3.9c-.16,0-.33,.16-.33,.49,0,.16,.16,.16,.33,.16v.16q-.16,0-.16,.16,.16,0,.33-.16h.16c0,.16,.16,.16,.16,.16,.16,.16,.33,0,.49-.16h2.6c0,.16,.16,.33,.16,.49,.16-.16,.16-.33,.16-.49h2.93c0,.16,.16,.33,.49,.33,.16,0,.16-.16,.16-.33h.16c-.16,.16,0,.16,.16,.16,0,0,0-.16-.16-.16v-.16c.16,0,.16-.16,.16-.16,.16-.33,0-.65-.16-.49m-2.6-5.37c1.3,1.79,2.11,3.74,2.44,6.02h-7.32v-9.27c1.95,.49,3.58,1.63,4.88,3.25"/><path class="cls-1" d="M49.46,35.26c-.16-2.11-.98-4.07-2.28-5.69-.49-.81-1.14-1.46-1.95-1.95s-1.63-.81-2.44-1.14h-.16v8.78h6.83Zm-2.6-5.53v.16c0,.16,.16,.16,.33,.16,0,.16-.16,.33-.16,.49,.16,0,.33,0,.49-.16,0,.16,0,.33,.16,.33h.16c.81,1.3,1.3,2.6,1.46,4.07-.16,0-.16-.16-.33-.16,0,.33,.16,.33,.16,.49h-2.44c0-.16-.16-.16-.16-.33q-.16,0-.33,.16c-.16-.16-.16-.33-.33-.49-.16,.16-.16,.33-.16,.49-.16-.16-.16-.33-.33-.16-.16,0-.16,.16-.16,.33h-2.11q.16-.16,.16-.49c-.16,0-.33,0-.49,.16v-3.42c.16,0,.33,0,.33-.16s0-.16-.16-.33c.16,0,.33-.16,.49-.16-.16-.16-.33-.16-.33-.16q.16-.16,.16-.33c0-.16-.16-.16-.33-.16v-2.93c.16,0,.16,.16,.33,.16,0-.16,0-.33-.16-.49,1.46,.49,2.76,1.63,3.74,2.93"/><path class="cls-1" d="M48.14,33.75l.33-.33c-.16,.16-.33,0-.33,0,.16-.16,.16,0,.16-.16q-.16-.16-.33-.16c-.16,.16-.98,0-.98-.49q.16,.16,.33,.16c.49,.16,.81,0,.81-.16,0-.33-.33-.49-.65-.81-.16-.16-.16-.33-.33-.33-.16-.16,0-.49-.33-.98,0-.16,0-.33-.16-.49-.16,.49-.16,.98,.33,1.46,.33,.49,1.14,.65,.98,1.14l-.16,.16c-.16,0-.33-.16-.49-.16l-.16-.16c-.33-.33-.65-.65-.81-.98-.33-.33-.33-.81-.16-1.14s0-1.14-.33-1.3v-.33h-.33c0-.16,0-.33-.16-.33,0,0-.16,0-.16-.16l-.16,.16h-.33q0,.16-.33,.16c-.16,0-.16,.16-.16,.16,0,0,0,.16,.16,.16l.16,.16,.16-.16q.16-.16,.33,.16,0,.16-.16,.16h-.33c-.16,0-.16,.16-.16,.16,0,0,.16,.16,.33,.16s.49-.16,.49,.16c0,.49-.49,.33-.49,.81,0-.16-.16-.16-.16-.33-.16-.16-.16-.33-.33-.49s-.16-.16-.33-.16c0-.16-.16-.16-.16-.33s.16-.16,.16-.49c0-.16-.16-.16-.16-.16l.16,.16h-.16v.16c0-.16-.16-.16-.16-.16h-.16c0-.16-.16-.16-.16-.16h.16v.16c0,.16,.16,.16,.16,.16-.16-.16-.16,0-.16,.16v.16c-.16,0-.16,.16,0,.16v-.16h.16q-.16,.16,0,.16c-.33,.16-.49,.16-.49-.16,0,.16,0,.33,.16,.33h.16v.16q0,.16,.16,.16v.16c.16,.33,.33,.65,.65,.81-.16,0-.33,.33-.33,.49-.16,.16-.33,.16-.49,.16,0,0-.16,0-.16-.16v.16h-.16v.16q0,.16,.33,.16s-.16,.16-.16,0c-.16,0-.16-.16-.16,0v.16c0-.16-.16,0-.16,.16s0-.16,.16-.16v.16q.16,.16,.33-.16c0,.16-.16,.33,0,.33h.16c0,.16,.16,.16,.16,.16v-.16h.16v-.16l.16,.16s.16,0,.16-.16c.16,0,.33-.16,.49-.16,0-.16,.16-.16,.16-.16q.16,0,.33,.16c0-.16,.16-.16,.16-.33,0,.65,.81,.65,.98,.98-.33,0-.49-.16-.81,0-.16,0-.49,.16-.49,.49s.16,.49,.49,.65h-.81c-.16,0-.16-.33-.49-.16,0,0-.16,0-.16,.16-.16,0-.16,.16-.16,.16l.16-.16v.16s0,.16,.16,.16h.16c0,.16-.33-.16-.16,.16v.16c0,.16,.16,.16,.16,.16,0,0-.16,0-.16-.16h.16v.16c0,.16,.16,.16,.16,.16,0,0-.16,0-.16-.16h.16v-.16c0,.16,.16,.16,.16,.16,0,0,.16,0,.16-.16s.16,0,.16,.16q0-.16,.16,0l.16-.16s.16,.16,.33,0l.16-.16-.33-.49c-.16-.33,.33-.49,.65-.49,0,.33,.33,.65,.81,.98,.33,.16,.49-.16,.49-.16v.49c0,.16-.16,0-.33,0h-.16s-.16,0-.16,.16l.16-.16c0,.16,.33,.16,.33,.16-.16,0-.33,.16-.16,.16h.16s0,.16,.16,.16h.16c.16,0,0-.16,.16-.16v.16h.16c-.33,0-.16,0-.16,0,0,0-.16,0-.16-.16h.16c.16-.16,0-.16,0-.33s.16,0,.16-.16l.16-.16c.16-.33,0-.33,0-.49"/><path class="cls-1" d="M39.84,38.97h-.16v-.33c0-.49-.33-.98-.81-.98h-.16c-1.14,.33-2.11,.65-3.25,.65-.81,0-1.46-.16-2.11-.49l-.16,.49c0-.16-.16-.33-.49-.33-.16-.16-.33,0-.33,.33,0,.16,.16,.33,.33,.49,.16,0,.16-.16,.33-.16l-.16,.49c.16,0,.16,.16,.16,.16,0,2.76,1.95,5.53,4.72,6.34,.49-.16,.98,0,.98,.49,0,.16-.16,.33-.33,.49-.16,0-.33-.16-.33-.16,0-.16,.49-.16,.49-.16,0-.16,0-.33-.16-.33h-.16c-.33-.16-.65,0-.65,.33s.33,.65,.65,.65,1.14-.16,.98-.98c.16,0,.33,0,.49-.16v-.49h-.16l.16-5.53h.16c.16,0,.49-.16,.49-.33-.16-.49-.33-.49-.49-.49m-5.69,.33l3.74,5.37c-2.28-.65-3.9-2.93-3.74-5.37m3.9,4.88l-3.42-5.04h.81l2.76,4.07c0,.33,0,.65-.16,.98m-2.11-5.04c.33-.16,.49-.16,.81-.16l1.79,2.6c0,.49,0,.81-.16,1.3l-2.44-3.74Zm2.93-.33c-.33,0-.49,.16-.49,.33s0,.33,.16,.33h.33l-.16,1.46-1.63-2.28c.49-.33,1.14-.49,1.63-.65,.16,.16,.33,.33,.16,.81"/><path class="cls-1" d="M39.4,28.76c.65,0,1.14-.16,1.14-.49,0-.81-2.11-.33-2.11-.81,0-.16,.16-.16,.16-.16,1.14-.16,1.14-.98,1.95-1.14-.98-.16-1.14,.65-1.46,.65,.16,0,.33-.16,.33-.49-.33,.33-.65,.33-.81,.65,0,0-.16,.16,0,.16-.16,0-.33,.16-.33,.33,0,.81,2.11,.16,2.11,.81,0,.16-.49,.33-.98,.33-.33,0-.49-.33-1.46-.16,0-.16,.33-.49,.16-.49,.16,0,.16-.16,.16-.16l-.16-.16v-.16l-.16-.16q-.16,0-.16-.16h-.33v.16c-.16,0-.16,.16-.16,.16q0,.16,.16,.16-.33,.16-.33,.33s0,.16,.16,.16c0,.16-.16,.33-.16,.49l-.16-.16-.16-.16c0-.16,.16-.16,.16-.33v-.16h-.33s.16,0,.16,.16-.16,0-.16,.16v.16q0-.16-.16-.16c0-.33-.16-.33-.16-.33v.16q0,.16,.16,.16-.16-.16-.16,0v.16c-.16,0-.16,.16,0,.16v.16c0,.16-.33,.16-.16,0-.16,.16,.16,.16,.33,.16,0,0,0,.16,.16,.16s0,.16,.16,.16v-.33q.16,.16,.16,.33c-.16,.16-.49,.16-.65,.16h-.33c-.16,.16-.49,.16-.49,.16,0,0,0-.16-.16-.16l-.16-.16c0-.16-.16-.16-.16,0,0,0,.16,0,.16,.16v.16s0,.16,.16,.16h-.16l-.16-.16h-.16c-.16,0-.16,.16-.16,.33,0,0,0-.16,.16-.16v.16c0,.16,.16,.16,.33,0,0,.16-.16,.16-.16,.16,0,.16,.16,.16,.16,.16l-.16-.16h.16c.16,0,.16-.16,.16-.16,0,0,0,.16,.16,.16s.16-.16,.16-.16l.16,.16s.16,0,.16-.16v.16l.16-.16v.16h.16s0,.16,.16,.16c0-.33,.16-.16,.49-.33,0,0,0,.16-.16,.16,.16,0,.16-.16,.16-.16v-.33q.16,0,.16-.16v.16c.16,0,.33-.16,.33-.16,.49-.16-.16-.49,.65-.49q.16,0,.16-.16c0,.16,0,.49,.16,.49s.16,0,.16,.16h-.16c-.16,.16-.16-.33-.49-.16-.16,0-.16,.16-.16,.16l.16-.16s0,.16,.16,.16h-.16c0,.16-.16,0-.16,.16v.16q0,.16,.16,.16s-.16,0-.16-.16v.16c.16,0,.16,.16,.33,0,0,0-.16,0-.16-.16h.33l.16,.16c.16,0,0-.16,.16-.16h.49q0-.16-.16-.33c-.16,0,0-.16-.16-.16,.16,0,.16,.16,.49,.16s0,0,.16-.16,.33,0,.33,0c0,0,.16,0,.16,.16v.16c0,.16-.16,0-.16,0h-.33c-.16-.16-.33,0-.33,0h.33s-.16,.16,0,.33h.16q0,.16,.16,.16v-.16h.16c.16,0,0-.16,.16-.16v.16h.16c0,.16,.16,.16,.16,.16,0,0-.16,0-.16-.16v-.16l-.33-.16c0-.16,.16,0,.16-.16,0,0,0-.16-.16-.16h.16c-.16,0-.16-.16-.16-.16l.16-.16c0,.16-.16,.16-.16,0,0,0,0-.16-.16-.16,.16,.33,0,.16-.33,.16Zm-1.95-.98h-.16c-.16-.16,0-.16-.16-.16,.16,0,.33,0,.33,.16m.16,.16h-.16v.16l-.16,.16c-.16,0-.16-.16,0-.16,0,0,0-.16,.16-.16h.16c-.16,0-.16-.16-.16-.16,0,0,.16,0,0-.16h-.16v.16h.33v.16Zm.16,0c-.16,0-.16-.16-.16-.16l.16,.16Z"/><path class="cls-1" d="M34.81,31.24l-.33-.33v-.16c0-.16,.16-.16,.16-.33v-.16c0-.16-.16-.16-.16-.16l.16,.16-.33,.16v.16s0-.16-.16-.16c0-.16-.16-.16-.16-.16h.16v.16c0,.16,.16,.16,.16,.16-.16-.16-.16,0-.16,.16v.16c-.16,0-.16,.16,0,.16v-.33h.16q-.16,.16,0,.16-.33,.16-.49,.16s-.16,0-.16-.16c0,.33,.16,.49,.49,.33,0,0,0,.16,.16,.16q0,.16,.16,.16v-.16q.16,.16,.33,.16c-.16,.16,0,.33,.16,.16q0,.16,.16,.33h-.65s-.49,.16-.49,0c0,0,0-.16-.16-.16h-.16q-.16-.16-.16,0s.16,0,.16,.16v.16s0,.16,.16,.16h-.16q0-.33-.16-.33h-.16s-.16,.16-.16,.33c0,0,0-.16,.16-.16v.16c0,.16,.16,.16,.33,0,0,.16-.16,.16-.16,.16,0,.16,.16,.16,.16,.16l-.16-.16h.16c.16,0,.16-.16,.16-.16,0,.16,.16,.16,.16,.16,.16,0,.16-.16,.16-.16l.16,.16s.16,0,.16-.16v.16l.16-.16v.16h.16s0,.16,.16,.16c0-.33,.16-.16,.49-.33,0,0,0,.16-.16,.16,.16,0,.65-.33,.65-.49h.16c.65,.16,.16-.65,1.3-.49,0,0,.16,0,.16-.16-.16,.16-.16,.49,0,.49s.16,0,.16,.16h-.16c-.16,0-.16-.33-.33-.16h-.16c-.16,0-.16,.16-.16,.16l.16-.16s0,.16,.16,.16h.16c0,.16-.33,0-.16,.16v.16q0,.16,.16,.16s-.16,0-.16-.16h.16v.16c0,.16,.16,.16,.16,.16,0,0-.16,0-.16-.16h.16v-.16h.16c0,.16,.16,.16,.16,.16,0,0,0-.16,.16-.16h.49c0-.16,0-.33-.16-.33s-.33-.16-.33-.33c.16,0,.33,.16,.33,.16,.33,0,.49,0,.49-.16,.16-.16,.33,0,.49,0,0,0,.16,0,.16,.16v.33c0,.16-.16,0-.33,0h-.16c-.16,0-.16,.16-.16,.16l.16-.16c0,.16,.16,.16,.16,.16-.16,0-.33,.16-.16,.16h.16v0h.16c.16,0,0-.16,.16-.16v.16h.16c-.16,.16,0,.16,0,.16v-.16s0-.16,.16-.16c0-.16-.16-.16-.16-.16,0-.16,.16,0,.16-.16,0,0,0-.16-.16-.16s.16,0,.16-.16c-.16,.16-.16,0-.16-.16l.16-.16c0,.16-.16,.16-.16,0,0,0,0-.16-.16-.16-.33,0-.49,0-.81-.16,.49,0,1.14-.16,1.14-.49,0-.16-.16-.49-.98-.49s-2.28,.65-2.28,.16c0-.16,.33-.16,.65-.16l.16,.16c.98,.33,2.11-.16,2.6-.16-.49-.49-1.14,0-1.95-.16,.49,0,.49-.16,.65-.16-.33,.16-.98-.16-1.3,.16h-.16c-.49,0-.81,0-.81,.16,0,.65,1.95,.33,2.6,.33s.65,.16,.65,.33-.65,.16-.98,.16c-.98-.16-2.11-.16-3.09-.16,.16-.16,.16-.33,.16-.49,.16,0,.16-.16,.16-.16-.16,0-.16-.16-.16-.16v-.16l-.16-.16-.16-.16h-.65v.33c-.16,0-.16,.16-.16,.16,0,0,0,.16,.16,.16-.16,0-.16,.33-.33,.33,0,0,0,.16,.16,.16v.33l-.16-.16,.33,.49Zm1.14-.49c.16,0,.16,.16,.33,.16-.16,0-.16,.16-.16,.16-.16-.33-.33-.33-.16-.33m-.16-.16c0,.16-.16,.16-.16,.16-.16-.16,0-.16-.16-.16,.16-.16,.16,0,.33,0m-.33,.49l.16-.16q0-.16-.16-.16s.16,0,0-.16v.16h.16l.16,.16v.16s0-.16-.16-.16v.16h-.16c.16,.16,0,.16-.16,.16q.16,0,.16-.16"/><path class="cls-1" d="M35.2,35.59c.16-.16,.16,0,0,0,.33,0,.33-.16,.49-.16,1.14,.16,.49-.65,1.79-.49q.16,0,.16-.16c-.16,.16-.16,.33,0,.33h.16q.16,0,.16,.16h-.33c-.16,.16-.16-.33-.33-.16h-.16c-.16,0-.16,.16-.16,.16l.16-.16s0,.16,.16,.16h.16c0,.16-.33,0-.16,.16v.16q0,.16,.16,.16s-.16,0-.16-.16h.16v.16c0,.16,.16,.16,.16,.16,0,0-.16,0-.16-.16h.16v-.16h.16c0,.16,.16,.16,.16,.16,.16-.16,0-.16,.16-.16h.49c0-.16,0-.33-.16-.33s0-.16-.16-.16c.16,0,.33,.16,.33,.16,.33,0,.49,0,.49-.16,.16-.16,.33,0,.49,0,0,0,.16,0,.16,.16v.33c0,.16-.16,0-.33,0h-.33c-.16,0-.16,.16-.16,.16l.16-.16c0,.16,.16,.16,.16,.16-.16,0-.16,.16-.16,.16h.16q0,.16,.16,.16v-.16h.16c.16,0,0-.16,.16-.16v.16h.16c0,.16,.16,.16,.16,.16,0,0-.16,0-.16-.16s0-.16,.16-.16c0-.16-.16-.16-.16-.16,0-.16,.16,0,.16-.16,0,0,0-.16-.16-.16s.16,0,.16-.16c-.16,0-.16-.16-.16-.16l.16-.16c0,.16-.16,.16-.16,0,0,0,0-.16-.16-.16-.33,0-.49,0-.81-.16,.49,0,1.14-.16,1.14-.49,0-.16-.16-.49-.98-.49s-3.09,.65-3.09,.16c0-.33,.65-.16,1.3-.16l.16,.16c.98,.33,1.95-.33,2.6,0-.49-.65-1.14,0-1.95-.16,.49,0,.81-.16,.81-.16-.16,.16-1.14-.16-1.63,0-.65,0-1.46-.16-1.46,.33,0,.65,2.6,.33,3.09,.33,.65,0,.65,.16,.65,.16,0,.16-.65,.16-.98,.16-1.3-.16-2.6-.16-3.9,0,.16-.16,.33-.49,.16-.49,.16,0,.16-.16,.16-.16-.16,0-.16-.16-.16-.16v-.16l-.16-.16q-.16,0-.16-.16h-.16s-.16,0-.16,.16h-.16v.16c-.16,0-.16,.16-.16,.16,0,0,0,.16,.16,.16-.33,.16-.33,.33-.33,.33l.16,.16v.16h-.49c-.16,0-.16-.16-.49-.33v-.33c0-.16,.16-.16,.16-.33s-.16-.16-.16-.16l.16,.16h-.16v.16s0-.16-.16-.16h-.16c0-.16-.16-.16-.16-.16h.16v.16c0,.16,.16,.16,.16,.16-.16-.16-.16,0-.16,.16v.16c-.16,0-.16,.16,0,.16v-.16h.16c-.16,0-.16,.16,0,.16,0,.16-.16,.16-.16,.16,0,0-.16,0-.16-.16,0,.16,0,.33,.16,.33h.16s0,.16,.16,.16,0,.16,.16,.16v-.16c0,.16,.16,.33,.33,.33s.16,0,.33-.16v.16q0,.16,.16,.33h-.65c0,.16-.49,.16-.49,.16,0,0,0-.16-.16-.16,0,0,0-.16-.16-.16,0-.16-.16-.16-.16,0,0,0,.16,0,.16,.16v.16s0,.16,.16,.16h-.16c0-.16,0-.33-.16-.16h-.16s-.16,0-.16,.16c0,0,0-.16,.16-.16v.16c0,.16,.16,.16,.33,0,0,.16-.16,.16-.16,.16h.16c0,.16,.16,.16,.16,.16l-.16-.16h.16c.16,0,.16-.16,.16-.16q0,.16,.16,.16c.16,0,.16-.16,.16-.16l.16,.16s.16,0,.16-.16q0,.16-.16,.16c.16,0,.16-.16,.16-.16v.16h.16v.16s0-.16,.16-.16,0,.16,.16,.16c0-.33,.49-.16,.65-.33,0,0,0,.16-.16,.16q.16,0,.16-.16c.49,.16,.65,.16,.65,.16m-.33-1.95c0,.16-.16,.16-.16,.16-.16-.16,0-.16-.16-.16,0-.16,.16-.16,.33,0m.16,.33c-.16-.16-.16,0,0,0h-.16v.16l-.16,.16c-.16,0-.16-.16,0-.16,0,0,0-.16,.16-.16s.16,0,.16-.16,0-.16-.16-.16q.16,0,.16-.16h-.33v.16h.16l.16,.16v.16Zm.16-.16c-.16,0-.16-.16-.16-.16,.16,0,.16,.16,.33,.16h-.16"/><path class="cls-1" d="M49.51,39.25q.16,0,.16-.16c0,.16-.16,.16-.16,0,0,0,0-.16-.16-.16-.33,0-.49,0-.81-.16,.49,0,1.14-.16,1.14-.49,0-.16-.16-.49-.98-.49s-2.93,.65-2.93,.16c0-.16,.65-.16,1.3-.16l.16,.16c.98,.33,1.95-.33,2.6-.33-.81-.16-1.3,.33-1.95,0,.49,0,.81-.16,.81-.16-.33,.16-1.3-.16-1.63,.16-.65,0-1.46-.16-1.46,.33,0,.65,2.6,.33,3.09,.33,.65,0,.65,.16,.65,.16,0,.16-.65,.16-.98,.16-1.3-.16-2.6-.16-3.9,0,.16-.16,.33-.49,.16-.49,.16,0,.16-.16,.16-.16-.16,0-.16-.16-.16-.16v-.16l-.16-.16q-.16,0-.16-.16h-.33s-.16,0-.16,.16v.33c-.16,0-.16,.16-.16,.16,0,0,0,.16,.16,.16-.33,0-.33,.33-.33,.33,0,0,0,.16,.16,.16v.16h-.49c-.16,0-.16-.16-.49-.33,0-.16-.16-.16-.16-.33s.16-.16,0-.33v-.16c0-.16-.16-.16-.16-.16l.16,.16v.33s0-.16-.16-.16c0-.16-.16-.16-.16-.16h.16v.16c0,.16,.16,.16,.16,.16-.16-.16-.16,0-.16,.16v.16c-.16,0-.16,.16,0,.16v-.33h.16q-.16,.16,0,.16,0,.16-.16,.16t-.16-.16v-.16c0,.16,0,.33,.16,.33h.16s0,.16,.16,.16q0,.16,.16,.16c-.16,.16,0,.33,.16,.49q0-.16,.16-.16,0,.16,.16,.16,0,.16,.16,.33h-.49s-.49,.16-.49,0c0,0,0-.16-.16-.16,0,0,0-.16-.16-.16q-.16-.16-.16,0s.16,0,.16,.16v.16s0,.16,.16,.16h-.16q0-.16-.16-.16h-.16s-.16,.16-.16,.33c0,0,0-.16,.16-.16v.16c0,.16,.16,.16,.33,0,0,.16-.16,.16-.16,.16,0,.16,.16,.16,.16,.16l-.16-.16h.16c.16,0,.16-.16,.16-.16q0,.16,.16,.16c.16,0,.16-.16,.16-.16l.16,.16s.16,0,.16-.16v.16l.16-.16v.16h.16v.16s0-.16,.16-.16,0,.16,.16,.16c0-.33,.16-.16,.49-.33,0,0,0,.16-.16,.16,.16,.16,.49-.16,.49-.16,0,0,.16,0,.16-.16,.16,0,.16-.16,.33-.16,.98,.16,.33-.65,1.63-.49,.16,0,.16-.16,.16-.16,0,.16,0,.49,.16,.49s.16,0,.16,.16h-.16c-.16,0-.16-.33-.33-.33h-.16c-.16,0-.16,.16-.16,.16l.16-.16s0,.16,.16,.16c0,.16-.33,0-.16,.16v.16q0,.16,.16,.16s-.16,0-.16-.16h.16v.16q0,.16,.16,.16s-.16,0-.16-.16h.33c0,.16,.16,.16,.16,.16,.16-.16,0-.16,.16-.16h.49c0-.16,0-.33-.16-.33s0-.16-.16-.16c.16,0,.33,.16,.49,.16s.49,0,.65-.16,.33,0,.49,0c0,0,.16,0,.16,.16v.33c0,.16-.16,0-.33,0h-.33c-.16-.33-.33-.16-.33,0l.16-.16c0,.16,.16,.16,.16,.16-.16,0-.16,.16-.16,.16h.16q0,.16,.16,.16v-.16h.16c.16,0,0-.16,.16-.16,0,.16-.16,.16,0,.16h.16c0,.16,.16,.16,.16,.16,0,0-.16,0-.16-.16l.16-.16c.16-.16-.16-.16-.16-.16,0-.16,.16,0,.16-.16,0,0,0-.16-.16-.16q.16,0,.33-.16-.16,0,0,0c0,.33,0,.16,0,0m-5.2-1.3c.16,0,.16,.16,.33,.16-.16,0-.16,.16-.16,.16q-.16-.16-.16-.33m-.16,0c0,.16-.16,.16-.16,.16-.16-.16,0-.16-.16-.16,.16-.16,.33,0,.33,0m-.33,.49s.16,0,0,0l.16-.16q0-.16-.16-.16s.16,0,0-.16v.16h.16l.16,.16v.16s0-.16-.16-.16v.16h-.16q0,.16-.16,.16,.16,0,.16-.16"/><path class="cls-1" d="M46.26,40.93l.16,.16c.98,.16,1.79-.49,2.44-.16-.65-.33-.98,0-1.79-.16,.49,0,.81-.16,.81-.16-.16,.16-.98-.16-1.46,0h-.16c-.49,0-.98,0-.98,.33,0,.65,1.79,.33,2.44,.33,.49,0,.49,.16,.49,.16,0,.16-.65,.16-.98,.16h-2.93c.16-.16,.16-.33,.16-.49,.16,0,.16-.16,.16-.16l-.16-.16v-.16l-.16-.16q-.16,0-.16-.16h-.33s-.16,0-.16,.16,0,0-.16,0v.16l-.16,.33s0,.16,.16,.16c-.16,0-.16,.16-.33,.16,0,0,0,.16,.16,.16v.33h-.16q-.16,0-.33-.16v-.33c0-.16,.16-.16,0-.33,0-.16-.16-.16-.16-.16,0,0,.16,0,.16,.16s0,.16-.16,.16v.16s0-.16-.16-.16h-.16c0-.16-.16-.16-.16,0h.16v.16c0,.16,.16,.16,.16,.16-.16-.16-.16,0-.16,.16v.16c-.16,0-.16,.16,0,.16v-.49h.16c-.16,.16-.16,.33,0,.33,0,.16-.33,.16-.16,0,0,.16,0,.33,.16,.33h.16s0,.16,.16,.16,0,.16,.16,.16v-.33s0-.16,.33,0c0,0,0,.16,.16,.16h.16v.33h-.65c-.16,.16-.49,.16-.49,0,0,0,0-.16-.16-.16v-.16h-.16c0-.16-.16-.16-.16,0,0,0,.16,0,.16,.16v.16s0,.16,.16,.16h-.16q0-.16-.16-.16h-.16s-.16,0-.16,.16c0,0,0-.16,.16-.16v.16c0,.16,.16,.16,.33,0,0,.16-.16,.16-.16,.16,0,.16,.16,.16,.16,.16l-.16-.16h.16c.16,0,.16-.16,.16-.16,0,0,0,.16,.16,.16s.16-.16,.16-.16l.16,.16s.16,0,.16-.16v.16l.16-.16v.16h.16s0,.16,.16,.16c0-.33,.33-.16,.49-.33,0,0,0,.16-.16,.16,.16,.16,.49-.16,.49-.33l.16-.16v.16c.16,0,.16-.16,.16-.16,.33,0-.16-.65,.81-.49,0,0,.16,0,.16-.16,0,.16,0,.49,.16,.49s.16,0,.16,.16h-.16c-.16,.16-.16-.33-.33-.16h-.16c-.16,0-.16,.16-.16,.16l.16-.16s0,.16,.16,.16h.16c0,.16-.33,0-.16,.16v.16q0,.16,.16,.16s-.16,0-.16-.16h.16v.16c0,.16,.16,.16,.16,.16,0,0-.16,0-.16-.16h.16v-.16h.16c0,.16,.16,.16,.16,.16,.16-.16,0-.16,.16-.16h.49c0-.16,0-.33-.16-.33s0-.16-.16-.16,0,0,.16,0,.49,0,.65-.16,.33,0,.49,0c0,0,.16,0,0,.16s0,.16-.16,.16c0,.16-.16,0-.33,0h-.16c-.16,0-.16,.16-.16,.16l.16-.16c0,.16,.16,.16,.16,.16-.16,0-.16,.16-.16,.16q0,.16,.16,.16h.16c.16,0,.16-.16,.16-.16,0,.16-.16,.16,0,.16h.16c0,.16,.16,.16,.16,.16,0,0-.16,0-.16-.16l.16-.16c.16-.16,0-.16,0-.16,0-.16,.16,0,.16-.16v-.16c.16,0,.16-.16,.16-.16v-.33c0,.16-.16,.16-.16,0,0,0,0-.16-.16-.16-.33,0-.65,0-.98-.16,.49,0,1.3,0,1.3-.33,0-.16,0-.33-.65-.33s-2.28,.33-2.28-.16c.33,.16,.65,.16,.98,.33m-1.95,0c.16,0,.16,.16,.33,.16-.16,0-.16,.16-.16,.16-.16-.16-.16-.33-.16-.33m-.16-.16c0,.16-.16,.16-.16,.16-.16-.16,0-.16-.16-.16,0-.16,.16-.16,.33,0m-.33,.65l.16-.16q0-.16-.16-.16s.16,0,0-.16h.16l.16,.16v.16s0-.16-.16-.16v.16l-.16,.16q0,.16-.16,.16l.16-.16"/><path class="cls-1" d="M45.56,43.65l.16,.16c.98,.16,1.79-.49,2.44-.33-.65-.33-.98,.16-1.79,0,.49,0,.81-.16,.81-.16-.33,.16-1.14-.16-1.46,0,0,0-.16,0-.16,.16-.33,0-.49,.16-.49,.33,0,.33,.33,.33,.98,.33s1.3-.16,1.3,0-.49,.33-.98,.33c-.81-.16-1.46-.16-2.28-.16,.16-.16,.33-.49,.16-.49,.16,0,.16-.16,.16-.16l-.16-.16v-.16l-.16-.16q-.16,0-.16-.16h-.33v.16c-.16,0-.16,.16-.16,.16q0,.16,.16,.16c-.33,.16-.33,.33-.33,.33l.16,.16c0,.16-.16,.49,0,.49-.16-.16-.49-.49-.65-.49v-.81c0-.16-.16-.16-.16-.16,0,0,.16,0,.16,.16s0,.16-.16,.16v.16s0-.16-.16-.16h-.16c0-.16-.16-.16-.16,0h.16v.16s0,.16,.16,.16c-.16-.16-.16,0-.16,.16v-.16h.16q-.16,.16,0,.16c0,.16-.16,.16-.16,0,0,.16,0,.33,.16,.33h.16s0,.16,.16,.16,0,.16,.16,.16v-.16c0,.16,.16,.33,.33,.49,0,.16,.16,.16,.33,.16,0,0,0,.16,.16,.16h-.98l-.16,.16h-.16q-.16,0-.16-.16s0-.16-.16-.16h-.16s-.16-.16-.16,0c0,0,.16,0,.16,.16v.16s0,.16,.16,.16h-.16q0-.16-.16-.16h-.16s-.16,0-.16,.16c0,0,0-.16,.16-.16v.16c0,.16,.16,.16,.33,0,0,.16-.16,.16-.16,.16,0,.16,.16,.16,.16,.16l-.16-.16h.16c.16,0,0-.16,.16-.16,0,0,0,.16,.16,.16s.16-.16,.16-.16l.16,.16s.16,0,.16-.16v.16l.16-.16v.16h.16s0,.16,.16,.16c0-.33,.16-.16,.49-.33,0,0,0,.16-.16,.16,.16,0,.33-.16,.33-.16,0-.16,.16-.33,.16-.49h.16c.16,0,.33-.16,.65-.16-.49-.16-.49,0-.49,0,0,.16,.33,.33,.33,.33h-.33c-.16,.16-.16-.33-.33-.16h-.16c-.16,0-.16,.16-.16,.16l.16-.16s0,.16,.16,.16h.16c0,.16-.16,0-.16,.16v.16q0,.16,.16,.16s-.16,0,0-.16v.16c0,.16,.16,.16,.16,.16,0,0-.16,0-.16-.16h.16v-.16h.16l.16,.16c.16,0,0-.16,.16-.16h.33q0-.16-.16-.33c-.33,0-.16-.65-.33-.81,.16,0,.65,.16,.65,0,.16,0,.33,.16,.33,.16v.16l-.16,.16-.16-.16h-.16s-.16,0-.16,.16h.16v.16q-.16,0-.16,.16v.33s0-.16,.16-.16h.16s-.16,0-.16,.16,0,.16,.16,.16v-.16h.16l.16-.16c.16,0,.16,.16,.16,0v-.16s.16,.16,.16,0c-.16-.16,0-.16,0-.16,0,0,.16,0,.16-.16-.33,0-.49-.16-.33-.16l.16-.16s-.49-.16-.49-.33h.16c.65,0,1.3-.16,1.3-.49s-.16-.16-.65-.16c-.81,0-1.63,.16-1.63,0,.49,.33,.81,.16,.81,.16m-1.79,0c0,.16-.16,.16-.16,0-.16-.16,0-.16-.16-.16,.16,.16,.33,.16,.33,.16m.16,.33h-.16v.16l-.16,.16c-.16,0-.16-.16,0-.16,0,0,0-.16,.16-.16h.16c-.16,0-.16-.16-.16-.16,0,0,.16,0,0-.16h0l.16,.16v.16Zm.16,0c-.16,0-.16-.16-.16-.16l.16,.16c0-.16,0,0,0,0Z"/><path class="cls-1" d="M29.45,35.37c0-.98-.33-1.79-.98-2.44-.81-.98-3.74-4.07-4.55-5.2,.33,0,.81,.16,.98,.49,.33,.33,1.3,1.14,1.79,1.79,.81-1.95,1.79-3.74,3.25-5.37,.16-.33,.49-.49,.65-.81-.65,.16-1.3,.49-1.79,.81,0-.81-.33-1.63-.81-2.28,.16-1.3,0-2.6-2.6-4.55,1.46,.33,2.28,1.63,3.25,.65-.98,0-.98-2.11-4.39-3.74,1.3,0,2.44,2.11,3.9,.98-1.46-.16-1.95-2.6-4.55-3.42,.98,.16,1.79,.49,2.6-.49-.98,.16-1.46-.65-2.44-.65,.33-.81,.33-1.79-.16-2.6-.65,0-1.3,.16-1.79,.65,0-.98-.65-.98-1.3-.98,0,.33,.16,.65-.16,.65-.49,.16-1.95,.49-3.25,.98-.81,.49-1.79,.98-2.76,1.63-.16,.16-.49-.33-.65-.49-.49,.33-.81,.81-.49,1.3-.81,0-1.46,.33-2.11,.65,.16,.81,.65,1.63,1.46,1.95-1.46,1.46,0,3.09-1.46,4.39,1.95,.16,1.63-2.6,2.6-3.09,0,1.95-1.14,2.28-1.14,4.39,0,1.14,.65,2.44,.16,3.09,1.63-.49,1.3-4.07,2.28-5.2,.16,.49,0,1.14-.16,1.79-.65,1.79,.16,4.07-.81,4.88,1.46-.16,1.79-2.28,2.76-3.42-.98,2.76-2.11,7.48-3.74,9.76-2.93,3.9-4.55,8.62-7.16,8.62-1.14,0-1.95-.81-2.11-1.95v-.33c0-4.39,7.64-7.32,7.64-12.04,0-1.63-1.14-2.93-2.76-2.93-.81,0-1.63,.33-2.44,.98-.16-.16-.49-.16-.81-.16-2.6,0-1.95,4.88-4.23,4.72,.98,.49,2.6-.49,3.42-1.79-.49,3.09-4.88,2.28-4.55,6.02,.65-2.93,7.81-2.44,7.81-6.99,0-.49-.16-.98-.65-1.3,.49-.33,.98-.49,1.63-.49,.98,0,1.63,.81,1.63,1.79v.16c0,3.9-7.48,7.32-7.48,12.04,0,.81,.16,1.46,.65,2.11-.49,.16-1.14,0-1.46-.49,.16,1.14,1.3,1.79,2.28,1.63,.16,0,.33-.16,.49-.16,.16,.16,.49,.16,.81,.16-.33,.81-1.14,1.3-2.11,1.14,1.79,1.46,5.04-.49,4.88-2.11,1.3-1.46,2.44-2.93,3.42-4.55-.16,.33-.16,.65-.16,.98-1.14,1.95-1.95,4.07-2.44,6.34,0,2.11-1.14,4.07-2.76,4.07-.33,0-.98-.49-1.14-.16-.49,.49,0,.81,0,1.3,0,.65-1.3,1.3-1.3,3.09,0,.81,.49,1.79,.33,2.44,.81-.49,1.3-1.3,1.46-2.11,.65,2.28-.98,2.28,.16,4.39,0-.49,.49-.81,.98-.81q.16,0,.33,.16c.49,.33,.16,.49-.16,.81s-.65,1.95,.98,1.79c-.33-.16-.33-.65,.49-.81,.98-.16,1.3,.33,2.44,.33,.65,0,.98-.98,1.46-.98s.49,.49,.33,.65c.98-.16,.98-.65,.98-1.3s-.49-.81-.16-.98,1.3,0,.98,.81c.49-.16,.81-.65,.81-1.14,0-.65-.65-.98-1.46-.98-.16-.49-.65-.65-1.3-.65-1.3,0-.98,.98-1.79,.98-1.3,0-2.6-1.79-2.6-4.72,0-1.46,1.79-1.95,2.93-2.44,1.95-.81,3.58-2.28,4.55-4.07,.81-1.79,1.14-3.74,.98-5.69,1.3,.65,1.95,1.95,1.95,3.42,0,.98-.49,1.79-1.3,2.11-.49,.16-.65,.16-.65,.49-.16,.33,.16,.49,.49,.65,.65,.33,.49,.98,.65,1.46,.33,.98,.98,1.79,1.79,2.28,.16-.65,.16-1.3,0-1.79,1.3,.65,.33,3.25,2.76,3.25-.33-.16-.49-.49-.16-.81l.16-.16c.33-.16,.65,.16,1.14,.81s.49,.65,1.46,.65c1.3,0,.65-.49,1.3-.49s.65,.65,.16,1.3c.98-.33,1.46-1.14,.98-1.95,.49-.33,1.14-.16,1.3,.33,.16,.16,.16,.33,.16,.49,.49-.49,.49-1.3,0-1.79-.16-.16-.49-.33-.65-.33,0-.33-.33-.65-.65-.65h-1.3c-.49,0-.65,.65-1.3,.65-1.63,0-4.72-2.93-4.72-4.07s2.93-2.11,2.93-3.9c0-2.6-2.44-3.42-4.55-5.04,1.3-.81,2.76-.98,4.23-.49,.16-.65,.65-.49,.65-1.79,.49,.98-.16,1.95,.33,2.28,.33-.49,1.3-.49,1.3-1.79,.33,.81-.33,2.11,.33,2.6,.16-.65,.49-.81,.81-.81s.49,.16,.49,.65c0,.98-1.3,.65-1.3,1.79,0,.49,.65,.65,.65,.98s-.49,.65-.81,.49q-.16,0-.33-.16c.16,.49,.65,.81,1.14,.81,.65,0,1.14-.49,1.3-.98,.33,.65,.16,1.46-.49,1.63,.49,.33,1.79,0,1.79-1.63,.65,.16,1.14,.65,.65,1.46,.65-.16,1.14-.49,1.14-1.14,0-.49-.49-.81-.49-1.46-.16,0-.49-.33-.65-.81M16.28,14.39c-.81,0-.81-.65-1.95-.98,.81-.16,1.95-.65,2.93-.98,.33,.65-.16,1.46-.81,1.79,0,.16-.16,.16-.16,.16m4.88,5.04c-.65,.33-1.46-.16-1.79-.81v-.16c-.16-.49-.33-.98-.16-1.14,.49-.49,.49-.65,.33-1.14-.33-.49-.81-.33-1.46-.16,.33-.49,.33-.98-.16-.81s-.49,.81-.65,.65c-.33-.16-.16-.49-.16-.65,0-.33,.16-.49,.49-.65l2.6-.98c.33-.16,.49-.16,.81,0,.16,.16,.65,.49,.49,.65s-.65-.33-.98,0c-.33,.16,0,.49,.49,.65-.49,.33-1.14,.49-.98,1.14,.16,.49,.49,.65,.98,.65,.33,0,.49,.49,.65,.98,.49,.81,.16,1.46-.49,1.79m.16-6.99c-.81,.33-1.63,.16-2.11-.65,.98-.33,1.95-.81,2.76-1.3-.65,.98-.16,1.46-.65,1.95"/><path class="cls-1" d="M12.61,8.29c0-.16-.16-.49-.49-.49-.16,0-.49,.16-.49,.49s.16,.49,.49,.49,.49-.16,.49-.49Z"/><path class="cls-1" d="M12.5,6.95c0-.16-.16-.49-.49-.49-.16,0-.49,.16-.49,.49s.16,.49,.49,.49,.49-.16,.49-.49Z"/><path class="cls-1" d="M12.73,6.42c.33,0,.49-.16,.49-.49,0-.16-.16-.49-.49-.49-.16,0-.49,.16-.49,.49,.16,.33,.33,.49,.49,.49"/><path class="cls-1" d="M14.07,6.31c.33,0,.49-.16,.49-.49,0-.16-.16-.49-.49-.49-.16,0-.49,.16-.49,.49s.16,.49,.49,.49"/><path class="cls-1" d="M19.75,5.38c.16,.16,.49,.16,.65,0,.16-.16,.16-.49,0-.65-.16-.16-.49-.16-.65,0-.16,.16-.16,.49,0,.65Z"/><path class="cls-1" d="M19.58,4.35c.16-.16,.16-.49,0-.65-.16-.16-.49-.16-.65,0-.16,.16-.16,.49,0,.65,.16,.33,.49,.33,.65,0Z"/><path class="cls-1" d="M18.24,4.15c.16-.16,.16-.49,0-.65-.16-.16-.49-.16-.65,0-.16,.16-.16,.49,0,.65,.16,.33,.49,.33,.65,0Z"/><path class="cls-1" d="M17.11,4.97c.16-.16,.16-.49,0-.65-.16-.16-.49-.16-.65,0-.16,.16-.16,.49,0,.65,.16,.33,.49,.33,.65,0Z"/><path class="cls-1" d="M13.99,4.38l.49,.81,.49-.65h.16c0,.33,.16,.81,.16,.98,0,.33,.33,.65,.65,.65s.65-.33,.65-.65c0-.16-.16-.49-.33-.49-.49-.16-.81-.49-.98-.65l.81,.16-.33-.98-.49,.49v-.98l-.81,.33,.65,.65v.16l-1.14,.16Z"/><path class="cls-1" d="M19.73,5.93c.16,.33,.33,.49,.33,.65-.16-.16-.33-.33-.49-.49l.16,1.14c0-.16,.16-.33,.49-.49,0,.65-.33,.98-.65,1.14s-.65-.16-.81-.33c0-.33,.33-.65,.65-.33,0-.65-.65-.65-.81-.33,.33-.49,.16-.98-.16-1.3l-.16-.16c-.49,.65-.33,.98,.16,1.46-.49-.16-.81,.33-.49,.65,.16-.49,.49-.33,.49,0,.16,.33-.16,.65-.65,.81-.65,.33-.98-.16-1.14-.65,.16,0,.49,0,.98,.33l-.33-1.14c-.16,.33-.49,.49-.65,.65,0-.33,.16-.65,.16-.98l-1.3,.49c.33,.16,.49,.33,.81,.49-.33,.16-.65,.16-.98,0l.49,1.14c0-.33,.16-.65,.49-.81,.16,.33,.33,.81-.33,1.14-.33,.16-.81,.16-1.14-.16s0-.65,.49-.49c-.16-.49-.65-.49-.81,0,0-.65-.16-.98-.81-1.3-.16,.65,.16,.98,.65,1.3-.33,0-.81,.33-.33,.81,0-.49,.33-.49,.49-.16s0,.65-.16,.65c-.16,.16-.49,.16-1.14-.33,.16-.16,.33,0,.65,0l-.81-.98v.65q-.16-.16-.33-.65l-.49,.49c.81,.49,1.3,1.14,1.79,1.79,.81-.33,2.28-.98,3.09-1.46,.98-.33,2.11-.81,3.25-.98-.33-.81-.33-1.79,0-2.6l-.65,.33Z"/><path class="cls-1" d="M78.44,49.12c0,1.14,.98,2.11,2.11,2.11s2.11-.98,2.11-2.11-.81-2.11-2.11-2.11c-1.14,0-2.11,.98-2.11,2.11m.49,0c0-.81,.65-1.46,1.46-1.46s1.46,.65,1.46,1.46-.65,1.46-1.46,1.46c-.81,.16-1.46-.49-1.46-1.46Z"/><path class="cls-1" d="M70.48,51.13c-.16,.16-.49,.49-.49,.81s0,.81,.33,.98c.33,.33,.65,.49,.98,.65,.49,.16,.81,0,1.3-.16,.33-.16,.65-.49,.65-.98,0-.81-.65-1.63-1.46-1.63-.33,0-.81,.16-1.3,.33m.98,1.95c-.65-.16-.98-.49-.98-.98,0-.16,.16-.33,.33-.49,.33-.16,.65-.33,.98-.16,.49,0,.81,.49,.98,.98,0,.49-.65,.65-1.3,.65"/><path class="cls-1" d="M58.87,21.33c-.65,.49-.81,1.3-.49,1.95,.65,.65,1.46,.65,1.95,.16,.33-.33,.65-.65,.65-1.14,0-.33,0-.65-.16-.81-.16-.33-.49-.49-.81-.49s-.81,0-1.14,.33m-.16,1.3c0-.33,.16-.65,.49-.81,.16-.16,.49-.33,.81-.16,.16,0,.33,.16,.49,.16,.16,.16,.16,.33,.16,.49,0,.33-.16,.49-.33,.65-.33,.33-.81,.33-1.3,0-.33-.16-.33-.33-.33-.33"/><path class="cls-1" d="M68.05,47.64c-.33,.33-.49,.81-.49,1.3s.16,.98,.49,1.14c.16,.33,.49,.33,.81,.49,.33,0,.65-.16,.81-.33,.33-.33,.49-.81,.49-1.3,0-.33-.16-.81-.33-1.14-.16-.33-.49-.49-.98-.49-.33,0-.65,0-.81,.33m.81,2.28c-.16,0-.33,0-.49-.16s-.33-.49-.33-.81,.16-.65,.33-.98c.16-.16,.33-.16,.49-.16,.49,0,.81,.49,.81,1.14,0,.33-.16,.65-.33,.98h-.49"/><path class="cls-1" d="M57.6,30.5c-.33,0-.65,.33-.65,.65-.33,.81,.16,1.63,.98,1.95,.49,.16,.81,.16,1.3,.16,.33-.16,.65-.33,.65-.65,.16-.33,.16-.65,0-.98-.16-.49-.49-.81-.98-.98-.33-.33-.81-.33-1.3-.16m.49,1.95c-.65-.16-.81-.81-.65-1.14,0-.16,.16-.33,.49-.33,.16-.16,.49,0,.81,.16,.33,.16,.49,.33,.65,.65,0,.16,.16,.33,0,.49,0,.16-.16,.33-.49,.33-.16,.16-.49,0-.81-.16"/><path class="cls-1" d="M79.99,28.23c.65,1.95,2.11,2.6,3.09,2.11-2.44-.33-.49-4.39-3.42-4.39-.16,0-.33,0-.49,.16-.49-.49-1.3-.81-1.95-.65-1.95,.16-3.58,1.79-3.42,3.74,0,5.37,6.34,6.02,6.34,10.73,0,1.14-.81,2.28-2.11,2.28h-.16c-.98,0-1.95-1.3-2.93-3.09-.65-1.3-1.46-2.28-2.44-3.42,.33,.16,.65,.33,.98,.33s.65-.16,.98-.33c.16-.16,.33-.49,.49-.81,0-.49-.16-.98-.49-1.3s-.81-.65-1.3-.65c-.33,0-.65,.16-.98,.33-.16,.16-.33,.49-.49,.81,0,.16,0,.49,.16,.49-1.14-1.3-2.11-2.76-2.6-4.55,.16-.98,.65-1.79,1.3-2.44l.16,.16,.16-.16c.16-.33,.81-.81,1.79-2.11l.16-.16,.33-.33-.65-.49c.16-.49,.33-.81,.49-1.3,.16,.98,.65,1.46,1.3,1.3-.49-.98,.49-2.11-.16-4.23,.49,.81,1.3,1.3,1.79,1.14-1.46-1.3,.49-2.93-1.46-5.69,.65,.16,.98,.16,1.3-.16-1.63-.16-.98-2.44-3.74-3.25,.65-.16,1.14-.49,.98-.98-.81,.49-1.46-.98-4.07-.98-.33-1.14-.98-1.95-2.11-2.44,.16,.65,0,1.3-.16,1.95L58.36,1.72c-.16-.33-.49-.33-.49-.33,0,.16,0,.33,.16,.49l7.16,8.95c-.65,.16-1.14,.33-1.79,.49-.33,.16-.49,.65-.49,.98-1.14,.49-2.28,1.14-3.09,1.95-.49,.49-.81,.49-.49,1.46,.16,.33-.33,1.3,.81,.65,.65-.49,2.11-1.3,2.44-.81,.16,.33-.65,.65-1.14,.81s-1.14,.65-1.14,.81,.49,0,.49,.16,.16,.33,.49,.49c.16,0,.49-.49,.65-.33s-.16,1.14-.16,1.3c.81-.16,1.3-.65,1.3-1.46,0-.65,.16-.65,.33-.81s.33,.65,.16,1.14c.33,0,.65-.49,.65-1.63,.16-.16,.33-.33,.65-.33s.81,.65,1.46,.65c.98,0,1.95-.65,2.28-1.63,.16-.33,0-.81-.16-1.14,.49,.33,.65,.98,.65,1.46,0,1.95-3.42,2.93-5.04,4.39-.16,0-.16,.16-.16,.16l-1.63-.65-.16,.49q0,.16-.16,.33c-.16,.65-.49,1.79-.65,2.44l-.16,.33,.16,.16c-.98,1.3-1.63,2.76-1.95,4.39-.49-.49-.81-.65-1.3-1.14,0-.16,.16-.33,.16-.49,0-.49-.16-.81-.49-1.14-.16-.16-.33-.33-.65-.49-.33,0-.65,.16-.81,.33-.16,0-.16,.16-.16,.16-.16,0-.16-.16-.16-.16-.49-.49-1.3-.98-1.63-1.3-.16-.16-.49-.33-.65-.33h-.81c-.16,0-.49,.16-.65,.49-.49,.33-.81,.65-1.3,.98,.33,.33,.49,.49,.65,.81l.16,.16c.16-.16,.49-.33,.49-.49,.16-.16,.33-.16,.65-.16s.49,.33,.65,.49,1.46,1.95,2.6,3.25c-.16,0-.16,.16-.33,.16-.65,.16-1.3,.16-2.11,.16-.49,0-.65-.16-.98,.33,.33,.16,.16,.33,0,.49s-.33,.49,.16,.98c.81,1.3,1.46,2.6,2.11,4.07,.49,.98,.98,1.14,1.63,1.46,.81,.33,1.63,.65,2.28,1.3l.16-.65c-.33-.33-.81-.49-1.3-.65q-.33-.16,0-.16c.65,.16,1.3,.33,1.95,.65-.33-.81-.81-1.46-1.3-2.11-.49-.16-.98-.16-1.3,0,0,.16-.16,.33-.16,.33-.16,0-.49-.16-.33-.49,.16-.16,.49-.33,.33-.65-.16-.49-.65-.49-.98-.49-.49-.65-.81-1.3-1.3-2.11-.16-.33-.16-.65,.16-.81,.33-.33,1.14,.16,2.76,.16,.65,0,1.3,.16,2.11,.16,0,2.11,1.63,4.07,3.74,4.55,1.46,.33,2.6,1.3,3.25,2.6-5.37-.16-6.34,2.11-6.34,4.07,0,2.28,1.95,2.11,1.95,3.9,0,1.46-4.55,2.11-6.02,2.28-.81,0-1.79,.33-2.28,.98-.49,.49-1.14,1.14-2.11,2.11,.33,0,.49,.16,.81,.16l.81-.98c.16-.33,.49-.65,.49-.65,0,0,0,.33-.16,.65l-.65,.98c2.6,.16,2.93-.81,2.93-1.3s-.65-.81-.33-.98c.49-.33,.65-.16,.98,.33s.49,.65,1.14,.49c0,0,5.86-2.44,6.51-2.76s.49-.65,.16-.98c-.33-.49-.49-.98-.49-1.63,0-1.79,.98-2.44,2.93-2.28,0,.33-.16,.65-.16,.81,0,2.76,4.23,5.37,5.37,5.37,.49,0,1.3-.49,1.3,1.3,.16,1.14,.16,2.28,.16,3.58,0,.98-.65,1.79-1.46,2.28-.81,.65-1.63,2.44-2.11,2.93,.49,.16,.81,.33,1.14-.65,.33-.65,.49-1.3,.98-1.46-.33,.81-.65,2.11-.65,2.44,.98,.16,2.76-.81,2.76-1.46s-.65-.65-.65-1.3c0-.33,.33-.49,.65-.49s.65,.16,.81,.49c.49-.16,.81-.65,.65-1.79v-1.3c0,.16,.16,.16,.16,.16,.16,.33,.49,.49,.98,.49,.33,0,.81-.16,1.14-.33,.33-.33,.65-.65,.81-1.14v-.33c0-.16,0-.49-.16-.65-.16-.33-.49-.49-.81-.49-.49-.16-.98,0-1.3,.33s-.65,.65-.81,.98c-.33-1.46-.33-2.76-.33-3.42,.16-.81,.16-1.3-.16-1.3-.33-.16-.65,.33-.98,.33-.98-.49-1.63-1.3-1.63-2.44,0-1.3,1.3-2.76,1.3-4.39,0-.49,.33-.81,.49-.33,.33,.65,.65,1.3,1.14,1.95-.33,2.11,1.95,4.07,3.74,2.6-.98,.16-1.46-.65-1.95-1.46h.81c.81,.65,2.11,.65,2.93-.33,.16-.33,.33-.65,.49-.98-.49,.49-.98,.65-1.63,.65,.81-.65,1.3-1.63,1.3-2.6,0-5.2-6.34-5.86-6.34-10.57,0-1.46,1.14-2.76,2.6-2.93,.33,0,.65,.16,.98,.33-.49,.49-.65,1.14-.65,1.79,.16,3.74,6.34,3.58,6.34,5.37,.49-2.6-4.07-1.79-4.23-5.53m-16.26-14.31c.33-.65,0-1.46,.98-1.46,.49,0,.98,.49,1.46,.65-.81,.16-1.63,.33-2.44,.81m-5.69,11.38c0,.33-.16,.49-.33,.65s-.33,.16-.49,.16c-.33,0-.65-.49-.65-.98v-.16c0-.33,.16-.49,.33-.65s.33-.16,.49-.16,.33,0,.49,.16c.16,.49,.16,.65,.16,.98m18.22,26.35c.16-.33,.33-.65,.65-.81s.65-.33,.98-.16c.16,0,.33,.16,.49,.33,0,.16,.16,.33,.16,.49-.16,.33-.33,.65-.65,.81-.49,.33-1.14,.33-1.3-.16-.49-.16-.49-.33-.33-.49m-3.9-17.4c0-.16,0-.33,.16-.49s.33-.16,.49-.16c.33,0,.65,.16,.81,.49l.49,.98c0,.16,0,.33-.16,.49-.16-.16-.33,0-.49,0-.33,0-.65-.16-.81-.49-.33-.16-.49-.49-.49-.81m-10.41-11.87c.33-.98,.49-1.79,.98-2.76v-.16l1.14,.49-.16,.16c-.33,.16-.65,.33-.81,.65,.16,0,.49,0,.65-.16l.33-.16-.49,1.3-.16-.16c-.16-.16-.33-.33-.49-.49v.16c0,.33,.16,.65,.65,.81,.49,.49,.81,.49,.98,.16v-.16q0-.16-.16-.16c-.16-.16-.33-.16-.49-.16h-.16v-.16c0-.16,0-.49,.16-.65,.16,.16,.33,0,.49,0s.49,.16,.49,.33c0-.65,.49-1.3,1.14-1.46h.16v.16c.16,.16,.16,.33,.16,.65,0,.49-.16,.81-.49,1.14,.33,0,.49,0,.65,.16s.16,.33,.16,.49-.16,.33-.49,.49h-.16v-.16c0-.16-.16-.33-.49-.49-.16,0-.33,0-.49,.16-.16,.33,.16,.65,.65,.98,.33,.33,.98,.33,1.14-.16l.16-.16c-.33,0-.49,0-.65,.16l-.16,.16,.81-1.46v.16c0,.16,.16,.49,.33,.65,0-.16,.16-.49,.16-.65s0-.33-.16-.49l-.16-.16,1.79,1.14h-.16c-.33,0-.65,.16-.98,.49h.65l.16-.16-.98,1.46v-.16c0-.33,0-.49-.16-.65-.16,.16-.16,.33-.16,.49,0,.33,.16,.65,.49,.81,.49,.33,.98,.33,.98,.16,.16-.16,.16-.33,0-.49s-.33-.16-.49-.16h-.16v-.16c0-.16,0-.49,.16-.65s.33-.16,.49-.16,.49,.16,.49,.49c.16-.65,.65-1.14,1.3-1.3h.16v.49c0,.49-.33,.98-.65,1.3,.16,0,.49,.16,.49,.33,0,0,.16,.16,.16,.33v.16c0,.16-.16,.33-.49,.49h-.16v-.16c0-.16-.16-.33-.33-.49-.16,0-.33,0-.49,.16s.16,.49,.65,.81c.33,.33,.81,.33,1.3,0-.16-.16-.49-.16-.65-.16l.81-1.14v.16c0,.16,.16,.49,.33,.65,.16-.33,.16-.49,.16-.81v-.49l.98,.81s-1.3,1.46-1.95,2.11l-8.95-4.72Zm8.62,21.63c-.33,.49-.81,.65-1.3,.49-.33-.33-.49-.98-.16-1.3,.16-.49,.81-.65,1.3-.49s.49,.81,.16,1.3m2.44-3.9c-.33,.49-.81,.65-1.3,.49-.33-.33-.49-.98-.16-1.3,.33-.49,.81-.65,1.3-.49,.49,.33,.49,.81,.16,1.3Z"/><path class="cls-1" d="M43.41,56.81c-.16,0-.33,0-.49,.16v-2.44c-1.14-.16-2.44-.33-3.74-.65v3.09c-.16,0-.33-.16-.49-.16-.65,0-1.3,.65-1.3,1.46,0,.65,.33,1.14,.65,1.63,.16-.49,.33-.65,.49-.65,.49,0,.16,2.28,1.46,2.28,0,.16-.16,.16-.16,.33,0,.49,.33,.98,.98,.98h.16c.49,0,.98-.49,.98-.98q0-.16-.16-.33c1.3-.16,1.14-2.28,1.46-2.28,.16,0,.49,.33,.49,.65,.33-.49,.65-.98,.65-1.63s-.49-1.3-1.14-1.46q.33,0,.16,0m-2.28,5.69c-.33,0-.65-.16-.65-.49s.16-.65,.49-.65,.65,.33,.65,.65c.16,.16-.16,.49-.49,.49Zm3.09-3.25c-.16-.33-.49-.49-.65-.49-.98,0-.49,2.44-1.63,2.44-.33,0-.65-.33-.65-.65s.16-.49,.16-.65-.16-.33-.33-.33c-.33,0-.49,0-.49,.33s.16,.49,.16,.65c0,.33-.16,.65-.65,.65-.98,0-.65-2.44-1.46-2.44-.33,0-.49,.33-.65,.49-.16-.33-.33-.65-.33-.98,0-.49,.49-.98,.98-.98,1.14,0,.98,1.63,1.46,1.63,.16,0,.33-.16,.49-.33,0-.49-.81-.98-.81-1.46s.65-1.3,1.3-1.79c.49,.33,1.14,.81,1.14,1.63,0,.65-.81,1.14-.81,1.46,0,.16,.16,.33,.33,.49,.49,0,.33-1.63,1.46-1.63,.49,0,.98,.49,.98,.98,.16,.33,.16,.65,0,.98"/><path class="cls-1" d="M35.99,11.19c-.33,.49-.49,1.14-.65,1.79,0,.65,.65,.98,.98,1.46,.33-.65,.65-1.14,.49-1.79,0-.33-.65-.98-.81-1.46"/><path class="cls-1" d="M46.09,11.19c.33,.49,.65,1.14,.81,1.79-.16,.65-.65,.98-.98,1.46-.33-.65-.81-1.14-.65-1.79,0-.33,.81-1.14,.81-1.46"/><path class="cls-1" d="M30.14,10.8c.33,0,.65-.33,.65-.65,.16-.49-.16-.81-.49-.81-.49,0-.81,.33-.81,.65,0,.49,.33,.81,.65,.81Z"/><path class="cls-1" d="M30.64,11.74c0-.33-.33-.65-.65-.65-.49,0-.81,.33-.81,.65s.33,.65,.65,.65c.49,0,.65-.16,.81-.65"/><path class="cls-1" d="M31.05,13.38c0-.33-.33-.65-.65-.65-.49,0-.81,.33-.81,.65s.33,.65,.65,.65c.49,0,.65-.16,.81-.65"/><path class="cls-1" d="M33.94,7.52c.33,0,.65-.33,.65-.65,.16-.49-.16-.81-.49-.81-.49,0-.81,.33-.81,.65,0,.49,.33,.81,.65,.81Z"/><path class="cls-1" d="M32.19,8.03c.33,0,.65-.33,.65-.65,.16-.49-.16-.81-.49-.81-.49,0-.81,.33-.81,.65,0,.49,.33,.65,.65,.81"/><path class="cls-1" d="M30.86,9.26c.33,0,.65-.33,.65-.65,.16-.49-.16-.81-.49-.81-.49,0-.81,.33-.81,.65,0,.49,.33,.65,.65,.81"/><path class="cls-1" d="M35.68,7.73c.33,0,.65-.33,.65-.65,.16-.49-.16-.81-.49-.81-.49,0-.81,.33-.81,.65,0,.49,.33,.65,.65,.81"/><path class="cls-1" d="M37.43,8.24c.33,0,.65-.33,.65-.65,.16-.49-.16-.81-.49-.81-.49,0-.81,.33-.81,.65,0,.49,.33,.81,.65,.81Z"/><path class="cls-1" d="M38.96,8.96c.33,0,.65-.33,.65-.65,.16-.49-.16-.81-.49-.81-.49,0-.81,.33-.81,.65,0,.49,.33,.65,.65,.81"/><path class="cls-1" d="M51.25,9.99c0,.33,.33,.65,.65,.65s.65-.33,.65-.65c.16-.33-.16-.65-.49-.65-.49,0-.81,.33-.81,.65"/><path class="cls-1" d="M52.1,11.09c-.33,0-.65,.33-.65,.65s.33,.65,.65,.65,.65-.33,.65-.65c.16-.33-.16-.65-.65-.65Z"/><path class="cls-1" d="M51.79,12.73c-.33,0-.65,.33-.65,.65s.33,.65,.65,.65,.65-.33,.65-.65c.16-.33-.16-.65-.65-.65Z"/><path class="cls-1" d="M48.1,7.52c.33,0,.65-.33,.65-.65,.16-.49-.16-.81-.49-.81-.49,0-.81,.33-.81,.65,0,.49,.33,.81,.65,.81"/><path class="cls-1" d="M49.84,8.03c.33,0,.65-.33,.65-.65,.16-.49-.16-.81-.49-.81-.49,0-.81,.33-.81,.65,0,.49,.33,.81,.65,.81Z"/><path class="cls-1" d="M51.18,9.26c.33,0,.65-.33,.65-.65,.16-.49-.16-.81-.49-.81-.49,0-.81,.33-.81,.65,0,.49,.33,.81,.65,.81Z"/><path class="cls-1" d="M46.35,7.73c.33,0,.65-.33,.65-.65,.16-.49-.16-.81-.49-.81-.49,0-.81,.33-.81,.65,0,.49,.33,.81,.65,.81Z"/><path class="cls-1" d="M44.61,8.24c.33,0,.65-.33,.65-.65,.16-.49-.16-.81-.49-.81-.49,0-.81,.33-.81,.65,0,.49,.33,.65,.65,.81"/><path class="cls-1" d="M42.42,8.14c0,.33,.33,.65,.65,.65s.65-.33,.65-.65c.16-.33-.16-.65-.49-.65-.49,0-.81,.33-.81,.65"/><path class="cls-1" d="M39.96,11.92h.65v-2.93c-.16,0-.49,0-.65-.16v3.09Z"/><path class="cls-1" d="M42.15,8.72c-.16,.16-.33,.16-.65,.16v3.09h.65v-3.25Z"/><path class="cls-1" d="M40.66,5.59v-1.79c-.81,.16-1.46,.81-1.63,1.79h1.63Z"/><path class="cls-1" d="M41.5,5.59h1.63c-.16-.98-.81-1.63-1.63-1.79v1.79Z"/><path class="cls-1" d="M39.03,6.36c.16,.98,1.14,1.63,2.11,1.63s1.79-.65,2.11-1.63h-4.23Z"/><path class="cls-1" d="M42.37,3.42c-.49-.33-.81-.81-.98-1.46,.65,.16,1.14,.49,1.46,.98V.65c-.33,.49-.81,.81-1.46,.98,.16-.65,.49-1.14,.98-1.63h-2.28c.49,.49,.81,.98,.98,1.63-.65-.16-1.3-.49-1.63-.98V3.09c.33-.49,.98-.81,1.46-.98,0,.49-.33,.98-.81,1.3h2.28Z"/><path class="cls-1" d="M44.75,50.51c-2.44-.65-4.72-1.46-6.99-2.6,0-.49-.16-.98-.65-1.46-.33-.33-.81-.49-1.3-.49-.16,0-.49,0-.65,.16-.33-.49-.65-.81-.98-1.14-.98-1.14-1.63-2.28-2.11-3.74-.33-.81-.49-1.63-.65-2.44-.33,.98-1.14,1.63-2.28,1.46,0-.16,0-.33-.16-.49-.16,.49-.65,.98-1.95,.49,.16,.98,.49,1.79,.81,2.76,.65,1.95,1.79,3.74,3.09,5.2,.49,.49,.81,.98,1.3,1.3v.33c.16,.65,.49,1.3,1.3,1.63,.49,.33,1.3,.33,1.79-.16,1.14,.65,2.44,1.14,3.74,1.46,1.46,.33,2.93,.65,4.39,.65,1.3-.16,2.6-.65,3.74-1.3,.65-.33,.98-.65,1.46-1.14,0,0,.16,0,.16-.16-1.46,.16-2.76,.16-4.07-.33m-16.26-7.64c-.16-.33-.16-.81,0-1.3,.16-.33,.49-.65,.98-.81,.33-.16,.81-.16,1.3,0,.33,.16,.65,.49,.98,.98-.16,.16,0,.33-.16,.65,0,.16,0,.49-.16,.65,0,.33-.33,.65-.81,.65-.33,.16-.81,.16-1.14,0-.49,0-.81-.33-.98-.81m2.6,4.55l-.49-.65c.33-.16,.65-.49,.98-.65-.16-.16-.49-.65-.49-.81-.16,.16-.98,.65-.98,.65l-.49-.65,2.6-1.79,.49,.65c-.33,.16-.65,.33-.98,.65,.16,0,.49,.49,.49,.65,.16-.16,.98-.65,.98-.65l.49,.65-2.6,1.95Zm5.86-.16l-.33-.16c-.33-.33-.81-.33-1.14,0-.16,.16-.16,.33-.49,.49l-.16,.33,.16,.16c.49,.33,.49,.65,.49,.98,0,.16-.16,.16-.16,.16-.33,0-.65,0-.81-.16l-.33-.16v.16s0,.16-.16,.16c0,.16-.16,.16-.16,.16-.16,.16-.16,.49-.33,.81v.16l.49,.49,.16,.16c.16,.16,.49,.33,.65,.49-.33,.16-.81,.16-1.14,0-.49-.49-.81-.98-.98-1.46,0-.65,.33-1.3,.65-1.79l.16-.16-.16-.16c-.16-.16-.16-.33-.33-.65,.16,0,.49,.16,.65,.16h.16l.16-.16c.33-.33,1.14-1.3,2.11-1.3,.33,0,.81,.16,.98,.49,.16,.16,.33,.49,.49,.81-.49,.33-.49,.16-.65,0m1.3,4.23c-.49,0-.98-.49-.98-.98s.49-.98,.98-.98,.98,.49,.98,.98-.33,.98-.98,.98Zm4.07,1.14c-.49,0-.81-.33-.81-.81s.33-.81,.81-.81,.81,.33,.81,.81-.33,.81-.81,.81"/><path class="cls-1" d="M30.71,42.4q0-.16-.16-.33c-.16-.33-.49-.65-.81-.33-.49,0-.49,.49-.49,.81,0,.16,.16,.33,.49,.49,.16,.16,.33,.16,.49,0,.33-.16,.49-.33,.49-.65"/><path class="cls-1" d="M31.08,28.69c-.16-.33-.65-.16-.81,.16v.16c-.16,0-.16,.33-.16,.49s.16,.33,.33,.49c.16,.16,.33,.16,.49,.16s.33-.16,.49-.33c0-.16,.16-.16,.16-.33,0-.49-.16-.81-.49-.81"/><path class="cls-1" d="M49.71,27.15l.16,.16,.16-.33-.33,.16Z"/><path class="cls-1" d="M54.15,33.39l-.33-.65-.16,.16-.16,.16q.16,0,.16,.16c.16,0,.33,.16,.49,.16"/><path class="cls-1" d="M53.87,37.38v-.33h-.16v.16s0,.16,.16,.16Z"/><path class="cls-1" d="M37.88,22.5h-.49c-.16,.16-.49,.33-.49,.49v.49c.16,.33,.49,.65,.98,.49,.16,0,.33-.16,.49-.49,0-.16,.16-.16,.16-.33v-.16c-.33-.16-.49-.33-.65-.49"/><path class="cls-1" d="M55.56,35.56c-.33-.33-.65-.65-.98-.98-.49-.16-1.14-.33-1.63-.65l-.16-.16-1.3,.33-.16-.98,1.3-.33,.16-.16c.16-.16,.49-.65,.65-.98-.16-.49-.49-.98-.81-1.46-.16-.33-.33-.65-.33-.98l-1.3,.65c.16,.33,.33,.65,.49,.98l-.81,.49-.98-1.79,2.76-1.3,.16,.16q.16-.16,.16-.33c0-.16,.16-.33,.33-.33-.49-.98-1.14-1.79-1.95-2.6-.81-.98-1.79-1.79-2.93-2.6,.65-.33,1.14-1.14,1.14-1.79,0-.49-.16-.98-.65-1.3,.49-1.95,1.46-3.74,2.6-5.2l-1.95-.81c.49,.65,.49,1.46,.49,2.11-.49-.33-.98-.81-1.14-1.46-.16,.81-.33,1.46-.65,2.11,.49-.33,.98-.33,1.46-.16-.65,.81-1.63,1.14-2.44,.81-.65-.16-1.3-.49-1.3-.98,0-.33,.16-.65,.49-.65h.16c.49,0,.49,.65,.33,.98,.49-.33,1.14-1.95,.33-2.11-.65-.16-1.3,.65-1.46,1.46-.16-.81-.49-1.79-1.14-1.63-.98,.33-.65,1.95-.33,2.28,.16-.65,.49-.98,.65-.81,.16,0,.49,.16,.49,.65-.16,.49-.81,.81-1.63,.81s-2.28-.16-2.44-1.79c.65,.16,1.3,.49,1.79,.98-.16-.81-.16-1.79,0-2.6-.49,.49-.98,.98-1.79,.98,.33-.65,.81-1.46,1.46-1.79h-3.42c.65,.49,1.14,1.14,1.46,1.79-.65-.16-1.3-.49-1.63-.98,0,.98,0,1.79-.16,2.6,.49-.49,1.14-.81,1.79-.98-.16,1.14-1.14,1.95-2.28,1.95-.81,0-1.63-.33-1.63-.81-.16-.33,0-.65,.33-.81h.16c.33,0,.65,.33,.65,.81,.16-.33,.49-2.11-.33-2.11-.65,0-.98,.81-1.14,1.63-.33-.65-.81-1.63-1.63-1.46s-.33,1.79,.33,2.11c-.16-.33-.16-.81,.33-.81,.33,0,.65,.33,.65,.65,0,.49-.65,.98-1.3,.98-.81,.16-1.79-.16-2.44-.81,.49-.16,1.14-.16,1.63,.16-.33-.81-.49-1.46-.65-2.28-.16,.65-.65,1.14-1.14,1.46-.16-.81,0-1.46,.33-2.11l-1.95,.81c1.14,1.63,2.11,3.42,2.6,5.37-.33,.16-.65,.65-.65,1.14,0,.81,.49,1.46,1.14,1.79-.98,.81-1.95,1.63-2.76,2.6-1.3,1.46-2.44,3.25-3.09,5.2,0,0-.16,.16-.16,.33l.65,.65v-.16c.16-.33,.33-.49,.65-.65l.98,.49c-.49,.33-.98,.65-.81,.81,.16,0,.16-.16,.33-.16,.33-.16,.65-.65,1.3-.33,.16,.16,.33,.33,.49,.49,.16,.33,.16,.49,0,.81s-.33,.65-.65,.81l-.98-.33c.33-.16,.49-.33,.65-.65v-.16c-.16,0-.33,.16-.49,.16-.16,.16-.49,.33-.65,.49,.33,.49,.65,.98,.65,1.46,0,.65,.16,1.3,.65,1.79,.65,.98,0,.81,.65,1.95v-.98h9.6v10.57c-.49,0-.81,.16-1.14,.49,1.14,.49,2.28,.81,3.25,1.3,0-.49,.33-.98,.65-1.46,0,0-1.46-.16-2.28-.16v-10.57h9.43c0,1.46-.33,2.93-.81,4.23s-1.3,2.6-2.11,3.74c-.81,.98-1.95,1.79-3.09,2.44-.33,.16-.49,.65-.65,.98s-.16,.65-.33,.98l.98,.33c3.25,.81,4.23,.65,4.39,.49,.81-.65,1.46-1.3,2.11-1.95,1.3-1.46,2.44-3.25,3.09-5.2,.81-2.11,1.14-4.23,1.14-6.34,.16-.65,.16-1.14,.16-1.63m-4.55-9.76l.49,.49-1.63,3.25-.65-.81,.33-.65-.65-.81-.49,.16-.65-.65,3.25-.98Zm-2.11-2.11l.49,.49-1.95,2.6-.65-.49,.98-1.3-.98,.16-.16-.98-.98,1.3-.81-.49,1.95-2.6,.65,.33,.16,1.3,1.3-.33Zm-15.61-2.76c0-1.79,5.2-1.95,7.81-1.95s7.81,.16,7.81,1.95c0,.49-.33,.98-.98,1.3-1.95-1.3-4.39-1.95-6.67-1.79-2.44-.16-4.72,.49-6.67,1.79-.81-.33-1.3-.81-1.3-1.3m11.06,.81l-.65,3.25-.81-.33,.65-3.25,.81,.33Zm-4.55,2.28l-.49,.81c-.49,.16-1.14,.16-1.63-.16-.65,.16-1.3-.33-1.63-.98-.16-.33-.16-.81,0-1.14,.16-.49,.65-.81,.98-.98,.81-.33,1.63,0,1.95,.81,.16,.16,.16,.33,.16,.49,0,.33-.16,.65-.33,.98,.33,.33,.65,.33,.98,.16m-6.18-.33l.65,.49-.65,.65,1.46,1.46-.65,.65-1.46-1.46-.65,.65-.49-.65,1.79-1.79Zm-2.28,2.11l2.28,1.79-.49,.81-2.28-1.79,.49-.81Zm-.16,5.04c-.33,.16-.81,.16-1.14-.16-.33-.16-.49-.49-.65-.98-.16-.33,0-.81,.16-1.14s.49-.65,.98-.81c.33-.16,.81-.16,1.14,.16,.33,.16,.65,.49,.65,.98,0,.16,.16,.33,.16,.49,0,.33-.16,.49-.16,.81-.33,.16-.65,.49-1.14,.65m.16,5.69c0-1.46,.33-2.93,.81-4.23s1.3-2.6,2.11-3.74c.81-.98,1.95-1.79,3.09-2.44,1.14-.49,2.44-.81,3.58-.81v11.22h-9.6Zm9.76-12.04c-.65,0-1.3-.49-1.3-1.14v-1.95h.98v2.28q.16,.16,.49,.16c.33,0,.33-.16,.49-.16,.16-.16,.16-.33,.16-.49v-1.79h.98v1.79c-.16,.49-.33,.81-.49,.98-.49,.33-.81,.33-1.3,.33m.49,12.04v-11.22c1.14,0,2.28,.33,3.42,.98,1.14,.65,2.28,1.46,3.09,2.44,.98,1.14,1.63,2.28,2.11,3.74,.49,1.3,.81,2.76,.81,4.23l-9.43-.16Zm7.81,12.69l-.65-.65,.81-.81-.16-.16-.65,.65-.65-.65,.65-.65-.16-.16-.81,.81-.65-.65,1.46-1.46,2.28,2.11-1.46,1.63Zm2.6-2.93c-.16,.16-.49,.33-.65,.49l-.98-.65c.98-.33,.98-.49,.98-.65-.16,0-.33,0-.49,.16-.33,.33-.98,.33-1.3,.16-.49-.33-.49-.81-.33-1.14l.16-.16c.16-.33,.49-.49,.98-.65l.98,.65h-.16c-.33,0-.65,.16-.81,.49l-.16,.16c.16,.16,.33-.16,.49-.16,.33-.33,.81-.33,1.3-.16,.33,.16,.49,.33,.49,.65v.16c-.33,.16-.33,.49-.49,.65m1.79-3.74l-1.95,.65,1.46,.65-.33,.81-2.93-1.3,.33-.65,1.95-.65-1.46-.65,.33-.81,2.93,1.14-.33,.81Zm.49-1.46l-.81-.16,.16-.98h-.16l-.16,.98-.81-.16,.16-.98h-.16l-.16,1.14-.81-.16,.49-2.11,3.09,.65-.81,1.79Zm.65-3.9c0,.33-.16,.65-.33,.81s-.49,.33-.65,.33c-.33,0-.49-.16-.65-.33s-.33-.49-.33-.81v-.16h-1.14v-.98l3.25,.16-.16,.98Z"/><path class="cls-1" d="M16.1,59.11l-.16,.16c.33,.33,.49,.81,.81,1.3q.16,0,.16-.16c.81-.33,.65-.81,.49-1.14-.33-.49-.81-.33-1.3-.16"/><path class="cls-1" d="M59.12,55.15q.16,0,0,0,.16-.16,0,0l.16-.16q0-.16-.16-.16l-.33-.33-.16,.49,.16,.16h.33Z"/><path class="cls-1" d="M54.9,54.59c.65,.16,.98,.16,1.3-.49,.16-.49,0-.81-.65-.98l-.33-.16c0,.16-.49,1.46-.49,1.46,0,.16,.16,.16,.16,.16"/><path class="cls-1" d="M61.24,58.14c.16,.16,.49,.16,.65,0,.33,0,.49-.16,.49-.33,.16-.16,.16-.33,.16-.65,0-.16-.16-.33-.49-.49-.16-.16-.33-.16-.65-.16-.16,0-.33,.16-.49,.49-.16,.16-.16,.33-.16,.65l.49,.49Z"/><path class="cls-1" d="M45.53,65.23c-.16-.16-.33-.16-.49-.16-.33,0-.65,.16-.81,.33-.16,.16-.16,.33-.16,.65,0,.16,.16,.49,.16,.65,.16,0,.49,.16,.65,.16,.33,0,.49-.16,.65-.33s.33-.33,.33-.65c0-.16,0-.49-.33-.65Z"/><path class="cls-1" d="M67.75,62.64c1.79,0,3.42-2.28,5.69-3.25-5.69,1.63-13.5-7.97-18.87-7.97-1.79-.16-3.42,.98-4.07,2.6-.98,2.28-2.11,2.93-2.11,3.9,0,.81,.65,1.46,2.11,2.11,.81,.49,1.79,.65,1.63,1.46-3.58,1.3-7.32,1.95-11.22,1.79-3.74,.16-7.64-.49-11.22-1.79,0-.81,.81-.98,1.63-1.46,1.3-.65,2.11-1.3,2.11-2.11,0-.98-.98-1.63-1.95-3.9-.65-1.63-2.28-2.76-4.07-2.6-5.37,0-13.17,9.6-18.87,7.97,2.28,.98,3.74,3.25,5.69,3.25,4.55,0,9.92-6.83,14.96-6.83h.16c-1.14,1.46-2.76,1.79-2.76,3.25,0,.98,.98,1.63,1.46,2.93,.33,.81,.65,1.79,.81,2.6,.33,.98,.98,3.74,12.04,3.74s11.87-2.76,12.2-3.74c.16-.98,.49-1.79,.81-2.6,.65-1.3,1.46-1.95,1.46-2.93,0-1.46-1.63-1.79-2.76-3.25h.16c5.2,0,10.41,6.83,14.96,6.83m.81-3.25l-.49,.81c-.33-.16-.65-.33-.98-.49-.49,.65-.81,1.46-1.3,2.11l-.98-.33s.98-1.46,1.3-2.11c-.33-.16-.65-.33-.98-.49l.65-.98c.81,.49,2.11,1.14,2.76,1.46m-3.09-1.63l-1.79,2.93-.81-.49,1.79-2.93,.81,.49Zm-4.23-2.11c.49-.16,.98,0,1.46,.16,.49,.33,.81,.65,.98,1.14,0,.16,.16,.33,.16,.49,0,.33-.16,.65-.33,.98-.33,.49-.65,.65-1.14,.81s-.98,0-1.46-.16c-.33-.16-.65-.65-.81-.98-.16-.49,0-.98,.16-1.3,0-.65,.49-1.14,.98-1.14m-1.63-1.63c.16,.16,.33,.33,.49,.49,.16,.33,.16,.65,0,.98-.16,.16-.33,.33-.49,.49h-.33c0,.16,0,.33,.16,.49,0,.49,0,.98,.16,1.46-.33-.16-.65-.49-.98-.65l-.16-.98q0-.49-.16-.65c-.16,.16-.65,1.14-.65,1.14l-.98-.49,1.79-2.93c.33,.16,.81,.33,1.14,.65m-4.88-2.11l1.3,.33c.81,.16,1.46,.98,1.3,1.79,0,.16,0,.33-.16,.33-.33,.98-1.3,1.46-2.28,1.14h-.16l-1.14-.33,1.14-3.25Zm-37.41,9.43l-.98,.49-1.79-3.09,.98-.65c.33,0,.81-.16,1.14-.16s.49,0,.81,.16,.49,.33,.65,.65c.65,.65,.49,1.63-.16,2.28-.33,.16-.49,.16-.65,.33m2.76-1.63l-1.95-2.93,.81-.49,1.79,2.93-.65,.49Zm1.95-1.3l-1.95-2.93,1.95-1.3,.49,.81-.98,.65c0,.16,0,.33,.16,.33l.98-.65,.49,.81-.98,.65q.16,.16,.16,.33l1.14-.65,.49,.81-1.95,1.14Zm3.9-2.11c-.65,.33-1.46,.16-1.79-.49,0,0-.16-.16-.16-.33l-.81-1.79,.98-.49,.65,1.95c.16,.49,.49,.49,.65,.33,.49-.16,.49-.49,.33-.65l-.81-1.95,.98-.33,.81,1.95c.33,.49,.33,1.3-.81,1.79m3.58,5.2c-1.3-.65-2.11-1.46-2.11-2.44,0-1.3,2.11-2.11,2.93-3.25,1.3,.16,2.93,.81,2.93,1.95,0,1.3-4.23,1.95-3.74,3.74m2.11,5.04l-.16-3.42c.81,.33,1.63,.49,2.44,.65v.98c-.49-.33-.98-.33-1.46-.49v.33c.16,0,1.3,.33,1.3,.33v.98c-.49,0-.81-.16-1.3-.33v.49c.33,.16,.81,.16,1.3,.33v.98c-.65-.33-1.63-.49-2.11-.81m5.53-1.63c-.33,0-.65-.16-.98-.16v2.6l-.98-.16v-2.44c-.33,0-.65-.16-.98-.16v-.98c.98,.16,2.11,.33,3.09,.49v.81h-.16Zm5.53,2.76h-.98v-1.95c-.16,.33-.81,.98-.81,.98,0,0-.65-.65-.81-.98v1.95h-.98v-3.58h.81s.81,.98,.98,1.3c.16-.16,.98-1.3,.98-1.3h.81v3.58Zm3.74-.49c-.49,.33-.98,.49-1.46,.49s-.98-.16-1.3-.49-.49-.81-.49-1.3,.16-.98,.49-1.3,.81-.49,1.3-.65c.49,0,.98,.16,1.46,.49,.33,.33,.65,.81,.65,1.3-.16,.49-.33,.98-.65,1.46m4.07-.65l-.65,.33s-1.3-1.3-1.46-1.46c0,.49-.16,1.95-.16,1.95l-.98,.16,.16-3.74,.65-.16,1.46,1.46c0-.49,.16-1.79,.16-1.79l1.14-.33-.33,3.58Zm4.39-7.48c0,.81-.65,1.63-2.11,2.44,.49-1.79-3.74-2.28-3.74-3.58,0-1.14,1.63-1.79,2.93-1.95,.65,.98,2.93,1.79,2.93,3.09"/></svg>