<?xml version="1.0" encoding="UTF-8"?><svg id="Layer_1" xmlns="http://www.w3.org/2000/svg" viewBox="0 0 67.68 60.32"><defs><style>.cls-1{fill:#00529b;}</style></defs><polygon class="cls-1" points="24.8 44.36 18.34 49.06 26.21 54.78 28.68 47.18 24.8 44.36"/><polygon class="cls-1" points="27.37 55.63 33.84 60.32 40.3 55.63 33.84 50.93 27.37 55.63"/><polygon class="cls-1" points="30.64 41.11 6.93 23.88 12.47 35.4 20.33 41.11 30.64 41.11"/><polygon class="cls-1" points="33.12 33.52 0 9.45 5.53 20.97 31.15 39.58 33.12 33.52"/><polygon class="cls-1" points="4.7 0 .79 8.13 12.79 16.85 4.7 0"/><polygon class="cls-1" points="39 47.18 41.47 54.78 49.34 49.06 42.87 44.36 39 47.18"/><polygon class="cls-1" points="47.35 41.11 55.21 35.4 60.74 23.88 37.04 41.11 47.35 41.11"/><polygon class="cls-1" points="34.56 33.52 36.53 39.58 62.15 20.97 67.68 9.45 34.56 33.52"/><polygon class="cls-1" points="62.98 0 54.89 16.85 66.89 8.13 62.98 0"/><path class="cls-1" d="M30.25,45.5c0-1.98,1.61-3.59,3.59-3.59s3.59,1.61,3.59,3.59-1.61,3.59-3.59,3.59c-1.99,0-3.59-1.61-3.59-3.59Z"/></svg>